G04 #@! TF.GenerationSoftware,KiCad,Pcbnew,7.0.7*
G04 #@! TF.CreationDate,2023-11-12T02:44:01+01:00*
G04 #@! TF.ProjectId,max3421e-rpi-uhat,6d617833-3432-4316-952d-7270692d7568,1*
G04 #@! TF.SameCoordinates,Original*
G04 #@! TF.FileFunction,Copper,L1,Top*
G04 #@! TF.FilePolarity,Positive*
%FSLAX46Y46*%
G04 Gerber Fmt 4.6, Leading zero omitted, Abs format (unit mm)*
G04 Created by KiCad (PCBNEW 7.0.7) date 2023-11-12 02:44:01*
%MOMM*%
%LPD*%
G01*
G04 APERTURE LIST*
G04 Aperture macros list*
%AMRoundRect*
0 Rectangle with rounded corners*
0 $1 Rounding radius*
0 $2 $3 $4 $5 $6 $7 $8 $9 X,Y pos of 4 corners*
0 Add a 4 corners polygon primitive as box body*
4,1,4,$2,$3,$4,$5,$6,$7,$8,$9,$2,$3,0*
0 Add four circle primitives for the rounded corners*
1,1,$1+$1,$2,$3*
1,1,$1+$1,$4,$5*
1,1,$1+$1,$6,$7*
1,1,$1+$1,$8,$9*
0 Add four rect primitives between the rounded corners*
20,1,$1+$1,$2,$3,$4,$5,0*
20,1,$1+$1,$4,$5,$6,$7,0*
20,1,$1+$1,$6,$7,$8,$9,0*
20,1,$1+$1,$8,$9,$2,$3,0*%
G04 Aperture macros list end*
G04 #@! TA.AperFunction,SMDPad,CuDef*
%ADD10RoundRect,0.225000X-0.250000X0.225000X-0.250000X-0.225000X0.250000X-0.225000X0.250000X0.225000X0*%
G04 #@! TD*
G04 #@! TA.AperFunction,ComponentPad*
%ADD11R,1.700000X1.700000*%
G04 #@! TD*
G04 #@! TA.AperFunction,ComponentPad*
%ADD12O,1.700000X1.700000*%
G04 #@! TD*
G04 #@! TA.AperFunction,SMDPad,CuDef*
%ADD13RoundRect,0.200000X0.275000X-0.200000X0.275000X0.200000X-0.275000X0.200000X-0.275000X-0.200000X0*%
G04 #@! TD*
G04 #@! TA.AperFunction,SMDPad,CuDef*
%ADD14R,1.200000X1.400000*%
G04 #@! TD*
G04 #@! TA.AperFunction,SMDPad,CuDef*
%ADD15RoundRect,0.225000X0.225000X0.250000X-0.225000X0.250000X-0.225000X-0.250000X0.225000X-0.250000X0*%
G04 #@! TD*
G04 #@! TA.AperFunction,SMDPad,CuDef*
%ADD16R,1.200000X3.800000*%
G04 #@! TD*
G04 #@! TA.AperFunction,SMDPad,CuDef*
%ADD17R,3.000000X5.300000*%
G04 #@! TD*
G04 #@! TA.AperFunction,SMDPad,CuDef*
%ADD18RoundRect,0.225000X0.250000X-0.225000X0.250000X0.225000X-0.250000X0.225000X-0.250000X-0.225000X0*%
G04 #@! TD*
G04 #@! TA.AperFunction,SMDPad,CuDef*
%ADD19RoundRect,0.225000X-0.225000X-0.250000X0.225000X-0.250000X0.225000X0.250000X-0.225000X0.250000X0*%
G04 #@! TD*
G04 #@! TA.AperFunction,SMDPad,CuDef*
%ADD20RoundRect,0.200000X0.200000X0.275000X-0.200000X0.275000X-0.200000X-0.275000X0.200000X-0.275000X0*%
G04 #@! TD*
G04 #@! TA.AperFunction,SMDPad,CuDef*
%ADD21R,0.600000X1.200000*%
G04 #@! TD*
G04 #@! TA.AperFunction,SMDPad,CuDef*
%ADD22RoundRect,0.200000X-0.200000X-0.275000X0.200000X-0.275000X0.200000X0.275000X-0.200000X0.275000X0*%
G04 #@! TD*
G04 #@! TA.AperFunction,SMDPad,CuDef*
%ADD23R,1.475000X0.300000*%
G04 #@! TD*
G04 #@! TA.AperFunction,SMDPad,CuDef*
%ADD24R,0.300000X1.475000*%
G04 #@! TD*
G04 #@! TA.AperFunction,SMDPad,CuDef*
%ADD25RoundRect,0.250000X1.500000X0.550000X-1.500000X0.550000X-1.500000X-0.550000X1.500000X-0.550000X0*%
G04 #@! TD*
G04 #@! TA.AperFunction,ViaPad*
%ADD26C,0.800000*%
G04 #@! TD*
G04 #@! TA.AperFunction,ViaPad*
%ADD27C,0.600000*%
G04 #@! TD*
G04 #@! TA.AperFunction,Conductor*
%ADD28C,0.500000*%
G04 #@! TD*
G04 #@! TA.AperFunction,Conductor*
%ADD29C,0.300000*%
G04 #@! TD*
G04 #@! TA.AperFunction,Conductor*
%ADD30C,0.259900*%
G04 #@! TD*
G04 APERTURE END LIST*
D10*
X76650000Y-53875000D03*
X76650000Y-55425000D03*
D11*
X79980000Y-68110000D03*
D12*
X82520000Y-68110000D03*
X85060000Y-68110000D03*
X87600000Y-68110000D03*
X90140000Y-68110000D03*
X92680000Y-68110000D03*
X95220000Y-68110000D03*
D13*
X82300000Y-56675000D03*
X82300000Y-55025000D03*
D14*
X88350000Y-62612000D03*
X88350000Y-60412000D03*
X86650000Y-60412000D03*
X86650000Y-62612000D03*
D10*
X97500000Y-58225000D03*
X97500000Y-59775000D03*
D15*
X120275000Y-64500000D03*
X118725000Y-64500000D03*
D16*
X104400000Y-59737500D03*
X106890000Y-59737500D03*
X108900000Y-59737500D03*
X111400000Y-59737500D03*
D17*
X100400000Y-62337500D03*
X115400000Y-62337500D03*
D18*
X84750000Y-62275000D03*
X84750000Y-60725000D03*
D19*
X86925000Y-64500000D03*
X88475000Y-64500000D03*
D20*
X86325000Y-55000000D03*
X84675000Y-55000000D03*
D21*
X78550000Y-56500000D03*
X79500000Y-56500000D03*
X80450000Y-56500000D03*
X80450000Y-54000000D03*
X78550000Y-54000000D03*
D22*
X118675000Y-66500000D03*
X120325000Y-66500000D03*
D15*
X86275000Y-58500000D03*
X84725000Y-58500000D03*
D23*
X95488000Y-58012000D03*
X95488000Y-57512000D03*
X95488000Y-57012000D03*
X95488000Y-56512000D03*
X95488000Y-56012000D03*
X95488000Y-55512000D03*
X95488000Y-55012000D03*
X95488000Y-54512000D03*
D24*
X94000000Y-53024000D03*
X93500000Y-53024000D03*
X93000000Y-53024000D03*
X92500000Y-53024000D03*
X92000000Y-53024000D03*
X91500000Y-53024000D03*
X91000000Y-53024000D03*
X90500000Y-53024000D03*
D23*
X89012000Y-54512000D03*
X89012000Y-55012000D03*
X89012000Y-55512000D03*
X89012000Y-56012000D03*
X89012000Y-56512000D03*
X89012000Y-57012000D03*
X89012000Y-57512000D03*
X89012000Y-58012000D03*
D24*
X90500000Y-59500000D03*
X91000000Y-59500000D03*
X91500000Y-59500000D03*
X92000000Y-59500000D03*
X92500000Y-59500000D03*
X93000000Y-59500000D03*
X93500000Y-59500000D03*
X94000000Y-59500000D03*
D20*
X86325000Y-56500000D03*
X84675000Y-56500000D03*
D11*
X118080000Y-52880000D03*
D12*
X115540000Y-52880000D03*
X113000000Y-52880000D03*
X110460000Y-52880000D03*
X107920000Y-52880000D03*
X105380000Y-52880000D03*
X102840000Y-52880000D03*
D25*
X81700000Y-61500000D03*
X76100000Y-61500000D03*
D11*
X74900000Y-47790000D03*
D12*
X74900000Y-45250000D03*
X77440000Y-47790000D03*
X77440000Y-45250000D03*
X79980000Y-47790000D03*
X79980000Y-45250000D03*
X82520000Y-47790000D03*
X82520000Y-45250000D03*
X85060000Y-47790000D03*
X85060000Y-45250000D03*
X87600000Y-47790000D03*
X87600000Y-45250000D03*
X90140000Y-47790000D03*
X90140000Y-45250000D03*
X92680000Y-47790000D03*
X92680000Y-45250000D03*
X95220000Y-47790000D03*
X95220000Y-45250000D03*
X97760000Y-47790000D03*
X97760000Y-45250000D03*
X100300000Y-47790000D03*
X100300000Y-45250000D03*
X102840000Y-47790000D03*
X102840000Y-45250000D03*
X105380000Y-47790000D03*
X105380000Y-45250000D03*
X107920000Y-47790000D03*
X107920000Y-45250000D03*
X110460000Y-47790000D03*
X110460000Y-45250000D03*
X113000000Y-47790000D03*
X113000000Y-45250000D03*
X115540000Y-47790000D03*
X115540000Y-45250000D03*
X118080000Y-47790000D03*
X118080000Y-45250000D03*
X120620000Y-47790000D03*
X120620000Y-45250000D03*
X123160000Y-47790000D03*
X123160000Y-45250000D03*
D26*
X76600000Y-63600000D03*
X83500000Y-57500000D03*
X111500000Y-57000000D03*
X76600000Y-59400000D03*
X93300500Y-56000000D03*
X76600000Y-56900000D03*
X97500000Y-61250000D03*
X121500000Y-64500000D03*
X90750000Y-56500000D03*
X84600000Y-63800000D03*
X113000000Y-59750000D03*
X121500000Y-66500000D03*
X79500000Y-57750000D03*
X92500000Y-54500000D03*
X79900000Y-50000000D03*
X82750000Y-60000000D03*
X99500000Y-59000000D03*
D27*
X95500000Y-53000000D03*
X94000000Y-51599500D03*
X85500000Y-57500000D03*
X98000000Y-56756211D03*
X85500000Y-55750000D03*
X97004391Y-56899961D03*
X93500000Y-55000000D03*
X87500000Y-54500000D03*
X81250000Y-59250000D03*
X90900500Y-61000000D03*
D28*
X105380000Y-47790000D02*
X106630000Y-46540000D01*
X121870000Y-46500000D02*
X116790000Y-46500000D01*
D29*
X84725000Y-58385000D02*
X84725000Y-58500000D01*
D28*
X88350000Y-60412000D02*
X88350000Y-60912000D01*
X86650000Y-62212000D02*
X86650000Y-62612000D01*
X79500000Y-55750000D02*
X79500000Y-56500000D01*
X116790000Y-46500000D02*
X115540000Y-45250000D01*
D29*
X90099500Y-55512000D02*
X89012000Y-55512000D01*
D28*
X87750000Y-61512000D02*
X87350000Y-61512000D01*
D29*
X93300500Y-56300500D02*
X94012000Y-57012000D01*
X90750000Y-56500000D02*
X90750000Y-56162500D01*
X94012000Y-57012000D02*
X95488000Y-57012000D01*
D28*
X106630000Y-46540000D02*
X109170000Y-46540000D01*
D29*
X90750000Y-56162500D02*
X90099500Y-55512000D01*
X93300500Y-56000000D02*
X93300500Y-56300500D01*
D28*
X86650000Y-62612000D02*
X85087000Y-62612000D01*
X76650000Y-55425000D02*
X79175000Y-55425000D01*
X88350000Y-60912000D02*
X87750000Y-61512000D01*
X79175000Y-55425000D02*
X79500000Y-55750000D01*
X85087000Y-62612000D02*
X84750000Y-62275000D01*
X123160000Y-47790000D02*
X121870000Y-46500000D01*
X87350000Y-61512000D02*
X86650000Y-62212000D01*
X109170000Y-46540000D02*
X110460000Y-45250000D01*
D29*
X88475000Y-64500000D02*
X88475000Y-62737000D01*
X88350000Y-62612000D02*
X90500000Y-60462000D01*
X88475000Y-62737000D02*
X88350000Y-62612000D01*
X90500000Y-60462000D02*
X90500000Y-59500000D01*
X85063000Y-60412000D02*
X84750000Y-60725000D01*
X86650000Y-60412000D02*
X86650000Y-60374000D01*
X86650000Y-60374000D02*
X89012000Y-58012000D01*
X86650000Y-60412000D02*
X85063000Y-60412000D01*
X80000000Y-55200000D02*
X79600000Y-54800000D01*
X86275000Y-58500000D02*
X87263000Y-57512000D01*
X96787000Y-57512000D02*
X95488000Y-57512000D01*
X93762000Y-57512000D02*
X95488000Y-57512000D01*
X79600000Y-54800000D02*
X79600000Y-50300000D01*
X79600000Y-50300000D02*
X79900000Y-50000000D01*
X87263000Y-57512000D02*
X89012000Y-57512000D01*
X82300000Y-55025000D02*
X82125000Y-55200000D01*
X89012000Y-57512000D02*
X91238000Y-57512000D01*
X92500000Y-53024000D02*
X92500000Y-54500000D01*
X92500000Y-56250000D02*
X93762000Y-57512000D01*
X91238000Y-57512000D02*
X92500000Y-56250000D01*
X97500000Y-58225000D02*
X96787000Y-57512000D01*
X82125000Y-55200000D02*
X80000000Y-55200000D01*
X92500000Y-54500000D02*
X92500000Y-56250000D01*
D28*
X104400000Y-59000000D02*
X104400000Y-59737500D01*
X99500000Y-59000000D02*
X104400000Y-59000000D01*
X78550000Y-56500000D02*
X78550000Y-58450000D01*
X78550000Y-58450000D02*
X81600000Y-61500000D01*
X81600000Y-61150000D02*
X82750000Y-60000000D01*
X81600000Y-61500000D02*
X81600000Y-61150000D01*
X76775000Y-54000000D02*
X76650000Y-53875000D01*
X78690000Y-53860000D02*
X78690000Y-46500000D01*
X78550000Y-54000000D02*
X76775000Y-54000000D01*
X78550000Y-54000000D02*
X78690000Y-53860000D01*
X77440000Y-45250000D02*
X74900000Y-45250000D01*
X78690000Y-46500000D02*
X77440000Y-45250000D01*
D29*
X89012000Y-51738000D02*
X91500000Y-49250000D01*
X91500000Y-47000000D02*
X92000000Y-46500000D01*
X92000000Y-46500000D02*
X93970000Y-46500000D01*
X89012000Y-54512000D02*
X89012000Y-51738000D01*
X91500000Y-49250000D02*
X91500000Y-47000000D01*
X93970000Y-46500000D02*
X95220000Y-45250000D01*
X90500000Y-51627312D02*
X92477312Y-49650000D01*
X90500000Y-53024000D02*
X90500000Y-51627312D01*
X92477312Y-49650000D02*
X95900000Y-49650000D01*
X95900000Y-49650000D02*
X97760000Y-47790000D01*
X92663708Y-50100000D02*
X97990000Y-50100000D01*
X97990000Y-50100000D02*
X100300000Y-47790000D01*
X91000000Y-51763708D02*
X92663708Y-50100000D01*
X91000000Y-53024000D02*
X91000000Y-51763708D01*
X89012000Y-55012000D02*
X89998050Y-55012000D01*
X97000000Y-46500000D02*
X99050000Y-46500000D01*
X89998050Y-55012000D02*
X90049500Y-54960550D01*
X90049500Y-51441416D02*
X92490916Y-49000000D01*
X96500000Y-48360000D02*
X96500000Y-47000000D01*
X92490916Y-49000000D02*
X95860000Y-49000000D01*
X90049500Y-54960550D02*
X90049500Y-51441416D01*
X95860000Y-49000000D02*
X96500000Y-48360000D01*
X99050000Y-46500000D02*
X100300000Y-45250000D01*
X96500000Y-47000000D02*
X97000000Y-46500000D01*
X93036500Y-51000000D02*
X100065000Y-51000000D01*
X100065000Y-51000000D02*
X102840000Y-48225000D01*
X92000000Y-52036500D02*
X93036500Y-51000000D01*
X92000000Y-53024000D02*
X92000000Y-52036500D01*
X102840000Y-48225000D02*
X102840000Y-47790000D01*
X99443604Y-50550000D02*
X101500000Y-48493604D01*
X91500000Y-53024000D02*
X91500000Y-51900104D01*
X91500000Y-51900104D02*
X92850104Y-50550000D01*
X101500000Y-46590000D02*
X102840000Y-45250000D01*
X92850104Y-50550000D02*
X99443604Y-50550000D01*
X101500000Y-48493604D02*
X101500000Y-46590000D01*
X90340812Y-65350000D02*
X91500000Y-64190812D01*
X91500000Y-64190812D02*
X91500000Y-59500000D01*
X82740000Y-65350000D02*
X90340812Y-65350000D01*
X79980000Y-68110000D02*
X82740000Y-65350000D01*
X90527208Y-65800000D02*
X92000000Y-64327208D01*
X82520000Y-68110000D02*
X84830000Y-65800000D01*
X92000000Y-64327208D02*
X92000000Y-59500000D01*
X84830000Y-65800000D02*
X90527208Y-65800000D01*
X90713604Y-66250000D02*
X92500000Y-64463604D01*
X86920000Y-66250000D02*
X90713604Y-66250000D01*
X85060000Y-68110000D02*
X86920000Y-66250000D01*
X92500000Y-64463604D02*
X92500000Y-59500000D01*
X93000000Y-64600000D02*
X93000000Y-59500000D01*
X88700000Y-66700000D02*
X90900000Y-66700000D01*
X87600000Y-68110000D02*
X87600000Y-67800000D01*
X87600000Y-67800000D02*
X88700000Y-66700000D01*
X90900000Y-66700000D02*
X93000000Y-64600000D01*
X90140000Y-68110000D02*
X93500000Y-64750000D01*
X93500000Y-64750000D02*
X93500000Y-59500000D01*
X92680000Y-68110000D02*
X94000000Y-66790000D01*
X94000000Y-66790000D02*
X94000000Y-59500000D01*
X95220000Y-58280000D02*
X95488000Y-58012000D01*
X95220000Y-68110000D02*
X95220000Y-58280000D01*
X95540000Y-58064000D02*
X95488000Y-58012000D01*
X118080000Y-52500000D02*
X114568000Y-56012000D01*
X114568000Y-56012000D02*
X95488000Y-56012000D01*
X115540000Y-52500000D02*
X112528000Y-55512000D01*
X112528000Y-55512000D02*
X95488000Y-55512000D01*
X110488000Y-55012000D02*
X95488000Y-55012000D01*
X113000000Y-52500000D02*
X110488000Y-55012000D01*
X108448000Y-54512000D02*
X95488000Y-54512000D01*
X110460000Y-52500000D02*
X108448000Y-54512000D01*
X101500000Y-51000000D02*
X100500000Y-52000000D01*
X106420000Y-51000000D02*
X101500000Y-51000000D01*
X100500000Y-52000000D02*
X95024000Y-52000000D01*
X107920000Y-52500000D02*
X106420000Y-51000000D01*
X95024000Y-52000000D02*
X94000000Y-53024000D01*
X93550000Y-54061500D02*
X93500000Y-54011500D01*
X103818500Y-54061500D02*
X93550000Y-54061500D01*
X93500000Y-54011500D02*
X93500000Y-53024000D01*
X105380000Y-52500000D02*
X103818500Y-54061500D01*
X102840000Y-52500000D02*
X102340000Y-53000000D01*
X94000000Y-51599500D02*
X93387000Y-51599500D01*
X93387000Y-51599500D02*
X93000000Y-51986500D01*
X93000000Y-51986500D02*
X93000000Y-53024000D01*
X102340000Y-53000000D02*
X95500000Y-53000000D01*
X89012000Y-56512000D02*
X86337000Y-56512000D01*
X86337000Y-56512000D02*
X86325000Y-56500000D01*
D30*
X85462500Y-57500000D02*
X84675000Y-56712500D01*
X98169550Y-56925761D02*
X107425761Y-56925761D01*
X108900000Y-58400000D02*
X108900000Y-59737500D01*
X98000000Y-56756211D02*
X98169550Y-56925761D01*
X107425761Y-56925761D02*
X108900000Y-58400000D01*
X85500000Y-57500000D02*
X85462500Y-57500000D01*
X84675000Y-56712500D02*
X84675000Y-56500000D01*
D29*
X87337000Y-56012000D02*
X86325000Y-55000000D01*
X89012000Y-56012000D02*
X87337000Y-56012000D01*
D30*
X97490091Y-57385661D02*
X106385661Y-57385661D01*
X85500000Y-55750000D02*
X85425000Y-55750000D01*
X97004391Y-56899961D02*
X97490091Y-57385661D01*
X85425000Y-55750000D02*
X84675000Y-55000000D01*
X106385661Y-57385661D02*
X106890000Y-57890000D01*
X106890000Y-57890000D02*
X106890000Y-59737500D01*
D29*
X93500000Y-55000000D02*
X94000000Y-55500000D01*
X94000000Y-56061500D02*
X94450500Y-56512000D01*
X87500000Y-54500000D02*
X87000000Y-54000000D01*
X94000000Y-55500000D02*
X94000000Y-56061500D01*
X94450500Y-56512000D02*
X95488000Y-56512000D01*
X87000000Y-54000000D02*
X80450000Y-54000000D01*
X81250000Y-58500000D02*
X80450000Y-57700000D01*
X80625000Y-56675000D02*
X80450000Y-56500000D01*
X80450000Y-57700000D02*
X80450000Y-56500000D01*
X91000000Y-60900500D02*
X90900500Y-61000000D01*
X81250000Y-59250000D02*
X81250000Y-58500000D01*
X82300000Y-56675000D02*
X80625000Y-56675000D01*
X91000000Y-59500000D02*
X91000000Y-60900500D01*
G04 #@! TA.AperFunction,Conductor*
G36*
X100900000Y-65487500D02*
G01*
X101947828Y-65487500D01*
X101947844Y-65487499D01*
X102007372Y-65481098D01*
X102007379Y-65481096D01*
X102142086Y-65430854D01*
X102142093Y-65430850D01*
X102257187Y-65344690D01*
X102257190Y-65344687D01*
X102343350Y-65229593D01*
X102343354Y-65229586D01*
X102393596Y-65094879D01*
X102393598Y-65094872D01*
X102399999Y-65035344D01*
X102400000Y-65035327D01*
X102400000Y-64624000D01*
X102419685Y-64556961D01*
X102472489Y-64511206D01*
X102524000Y-64500000D01*
X113276000Y-64500000D01*
X113343039Y-64519685D01*
X113388794Y-64572489D01*
X113400000Y-64624000D01*
X113400000Y-65035344D01*
X113406401Y-65094872D01*
X113406403Y-65094879D01*
X113456645Y-65229586D01*
X113456649Y-65229593D01*
X113542809Y-65344687D01*
X113542812Y-65344690D01*
X113657906Y-65430850D01*
X113657913Y-65430854D01*
X113792620Y-65481096D01*
X113792627Y-65481098D01*
X113852155Y-65487499D01*
X113852172Y-65487500D01*
X114900000Y-65487500D01*
X114900000Y-64500000D01*
X115900000Y-64500000D01*
X115900000Y-65487500D01*
X116947828Y-65487500D01*
X116947844Y-65487499D01*
X117007372Y-65481098D01*
X117007379Y-65481096D01*
X117142086Y-65430854D01*
X117142093Y-65430850D01*
X117257187Y-65344690D01*
X117257190Y-65344687D01*
X117343350Y-65229593D01*
X117343354Y-65229586D01*
X117393596Y-65094879D01*
X117393598Y-65094872D01*
X117399999Y-65035344D01*
X117400000Y-65035327D01*
X117400000Y-64624000D01*
X117419685Y-64556961D01*
X117472489Y-64511206D01*
X117524000Y-64500000D01*
X117651001Y-64500000D01*
X117718040Y-64519685D01*
X117763795Y-64572489D01*
X117775001Y-64624000D01*
X117775001Y-64798322D01*
X117785144Y-64897607D01*
X117838452Y-65058481D01*
X117838457Y-65058492D01*
X117927424Y-65202728D01*
X117927427Y-65202732D01*
X118047267Y-65322572D01*
X118047271Y-65322575D01*
X118155307Y-65389213D01*
X118202032Y-65441161D01*
X118213253Y-65510123D01*
X118185410Y-65574205D01*
X118154360Y-65600868D01*
X118040122Y-65669927D01*
X117919927Y-65790122D01*
X117831981Y-65935603D01*
X117781410Y-66097889D01*
X117781219Y-66100000D01*
X118274999Y-66100000D01*
X118274999Y-65502618D01*
X118275000Y-65502614D01*
X118275000Y-64500000D01*
X119000000Y-64500000D01*
X119000000Y-66889340D01*
X118951000Y-66900000D01*
X117781219Y-66900000D01*
X117781410Y-66902110D01*
X117831981Y-67064396D01*
X117919927Y-67209877D01*
X117998369Y-67288319D01*
X118031854Y-67349642D01*
X118026870Y-67419334D01*
X117984998Y-67475267D01*
X117919534Y-67499684D01*
X117910688Y-67500000D01*
X99124000Y-67500000D01*
X99056961Y-67480315D01*
X99011206Y-67427511D01*
X99000000Y-67376000D01*
X99000000Y-65611500D01*
X99019685Y-65544461D01*
X99072489Y-65498706D01*
X99124000Y-65487500D01*
X99900000Y-65487500D01*
X99900000Y-64500000D01*
X100900000Y-64500000D01*
X100900000Y-65487500D01*
G37*
G04 #@! TD.AperFunction*
G04 #@! TA.AperFunction,Conductor*
G36*
X124652725Y-47561433D02*
G01*
X124679774Y-47603630D01*
X124802592Y-47923581D01*
X124968913Y-48250004D01*
X125168435Y-48557241D01*
X125168437Y-48557243D01*
X125168440Y-48557247D01*
X125168441Y-48557248D01*
X125398993Y-48841957D01*
X125658043Y-49101007D01*
X125937261Y-49327112D01*
X125942756Y-49331562D01*
X125942758Y-49331564D01*
X126249995Y-49531086D01*
X126250000Y-49531089D01*
X126576422Y-49697409D01*
X126918441Y-49828698D01*
X127272309Y-49923517D01*
X127634150Y-49980827D01*
X127979765Y-49998939D01*
X127999999Y-50000000D01*
X128000000Y-50000000D01*
X128000001Y-50000000D01*
X128019174Y-49998995D01*
X128365850Y-49980827D01*
X128727691Y-49923517D01*
X129081559Y-49828698D01*
X129423578Y-49697409D01*
X129750000Y-49531089D01*
X129931563Y-49413180D01*
X130057241Y-49331564D01*
X130057243Y-49331562D01*
X130057248Y-49331559D01*
X130341957Y-49101007D01*
X130601007Y-48841957D01*
X130710642Y-48706569D01*
X130779134Y-48621988D01*
X130836621Y-48582276D01*
X130906451Y-48579948D01*
X130966455Y-48615743D01*
X130997582Y-48678296D01*
X130999500Y-48700023D01*
X130999500Y-67299976D01*
X130979815Y-67367015D01*
X130927011Y-67412770D01*
X130857853Y-67422714D01*
X130794297Y-67393689D01*
X130779134Y-67378012D01*
X130644794Y-67212116D01*
X130601007Y-67158043D01*
X130341957Y-66898993D01*
X130057248Y-66668441D01*
X130057247Y-66668440D01*
X130057243Y-66668437D01*
X130057241Y-66668435D01*
X129750004Y-66468913D01*
X129423581Y-66302592D01*
X129081566Y-66171304D01*
X129070792Y-66168417D01*
X128727691Y-66076483D01*
X128727687Y-66076482D01*
X128727686Y-66076482D01*
X128365851Y-66019173D01*
X128000001Y-66000000D01*
X127999999Y-66000000D01*
X127634148Y-66019173D01*
X127272314Y-66076482D01*
X127272312Y-66076482D01*
X126918433Y-66171304D01*
X126576418Y-66302592D01*
X126249995Y-66468913D01*
X125942758Y-66668435D01*
X125942756Y-66668437D01*
X125658047Y-66898989D01*
X125658039Y-66898996D01*
X125398996Y-67158039D01*
X125398989Y-67158047D01*
X125168437Y-67442756D01*
X125168435Y-67442758D01*
X124968913Y-67749995D01*
X124802592Y-68076418D01*
X124671304Y-68418433D01*
X124576482Y-68772312D01*
X124576482Y-68772314D01*
X124519173Y-69134148D01*
X124500000Y-69499999D01*
X124500000Y-69500000D01*
X124519173Y-69865851D01*
X124576482Y-70227685D01*
X124576482Y-70227687D01*
X124671304Y-70581566D01*
X124802592Y-70923581D01*
X124968913Y-71250004D01*
X125168435Y-71557241D01*
X125168437Y-71557243D01*
X125168440Y-71557247D01*
X125168441Y-71557248D01*
X125398993Y-71841957D01*
X125658043Y-72101007D01*
X125658047Y-72101010D01*
X125878012Y-72279134D01*
X125917723Y-72336621D01*
X125920051Y-72406452D01*
X125884256Y-72466456D01*
X125821702Y-72497582D01*
X125799976Y-72499500D01*
X72200024Y-72499500D01*
X72132985Y-72479815D01*
X72087230Y-72427011D01*
X72077286Y-72357853D01*
X72106311Y-72294297D01*
X72121988Y-72279134D01*
X72162371Y-72246432D01*
X72341957Y-72101007D01*
X72601007Y-71841957D01*
X72831559Y-71557248D01*
X72869736Y-71498462D01*
X73031086Y-71250004D01*
X73031089Y-71250000D01*
X73197409Y-70923578D01*
X73328698Y-70581559D01*
X73423517Y-70227691D01*
X73480827Y-69865850D01*
X73500000Y-69500000D01*
X73480827Y-69134150D01*
X73423517Y-68772309D01*
X73328698Y-68418441D01*
X73197409Y-68076422D01*
X73031089Y-67750000D01*
X73013084Y-67722275D01*
X72831564Y-67442758D01*
X72831562Y-67442756D01*
X72822991Y-67432171D01*
X72601007Y-67158043D01*
X72341957Y-66898993D01*
X72057248Y-66668441D01*
X72057247Y-66668440D01*
X72057243Y-66668437D01*
X72057241Y-66668435D01*
X71750004Y-66468913D01*
X71423581Y-66302592D01*
X71081566Y-66171304D01*
X71070792Y-66168417D01*
X70727691Y-66076483D01*
X70727687Y-66076482D01*
X70727686Y-66076482D01*
X70365851Y-66019173D01*
X70000001Y-66000000D01*
X69999999Y-66000000D01*
X69634148Y-66019173D01*
X69272314Y-66076482D01*
X69272312Y-66076482D01*
X68918433Y-66171304D01*
X68576418Y-66302592D01*
X68249995Y-66468913D01*
X67942758Y-66668435D01*
X67942756Y-66668437D01*
X67658047Y-66898989D01*
X67658039Y-66898996D01*
X67398996Y-67158039D01*
X67398989Y-67158047D01*
X67220865Y-67378013D01*
X67163378Y-67417724D01*
X67093547Y-67420052D01*
X67033543Y-67384257D01*
X67002417Y-67321703D01*
X67000499Y-67299977D01*
X67000499Y-61750000D01*
X73850001Y-61750000D01*
X73850001Y-62099986D01*
X73860494Y-62202697D01*
X73915641Y-62369119D01*
X73915643Y-62369124D01*
X74007684Y-62518345D01*
X74131654Y-62642315D01*
X74280875Y-62734356D01*
X74280880Y-62734358D01*
X74447302Y-62789505D01*
X74447309Y-62789506D01*
X74550019Y-62799999D01*
X75849999Y-62799999D01*
X75850000Y-62799998D01*
X75850000Y-61750000D01*
X76350000Y-61750000D01*
X76350000Y-62799999D01*
X77649972Y-62799999D01*
X77649986Y-62799998D01*
X77752697Y-62789505D01*
X77919119Y-62734358D01*
X77919124Y-62734356D01*
X78068345Y-62642315D01*
X78192315Y-62518345D01*
X78284356Y-62369124D01*
X78284358Y-62369119D01*
X78339505Y-62202697D01*
X78339506Y-62202690D01*
X78349999Y-62099986D01*
X78350000Y-62099973D01*
X78350000Y-61750000D01*
X76350000Y-61750000D01*
X75850000Y-61750000D01*
X73850001Y-61750000D01*
X67000499Y-61750000D01*
X67000499Y-61250000D01*
X73850000Y-61250000D01*
X75850000Y-61250000D01*
X75850000Y-60200000D01*
X76350000Y-60200000D01*
X76350000Y-61250000D01*
X78349999Y-61250000D01*
X78349999Y-60900028D01*
X78349998Y-60900013D01*
X78339505Y-60797302D01*
X78284358Y-60630880D01*
X78284356Y-60630875D01*
X78192315Y-60481654D01*
X78068345Y-60357684D01*
X77919124Y-60265643D01*
X77919119Y-60265641D01*
X77752697Y-60210494D01*
X77752690Y-60210493D01*
X77649986Y-60200000D01*
X76350000Y-60200000D01*
X75850000Y-60200000D01*
X74550028Y-60200000D01*
X74550012Y-60200001D01*
X74447302Y-60210494D01*
X74280880Y-60265641D01*
X74280875Y-60265643D01*
X74131654Y-60357684D01*
X74007684Y-60481654D01*
X73915643Y-60630875D01*
X73915641Y-60630880D01*
X73860494Y-60797302D01*
X73860493Y-60797309D01*
X73850000Y-60900013D01*
X73850000Y-61250000D01*
X67000499Y-61250000D01*
X67000499Y-55675000D01*
X75675001Y-55675000D01*
X75675001Y-55698322D01*
X75685144Y-55797607D01*
X75738452Y-55958481D01*
X75738457Y-55958492D01*
X75827424Y-56102728D01*
X75827427Y-56102732D01*
X75947267Y-56222572D01*
X75947271Y-56222575D01*
X76091507Y-56311542D01*
X76091518Y-56311547D01*
X76252393Y-56364855D01*
X76351683Y-56374999D01*
X76399999Y-56374998D01*
X76400000Y-56374998D01*
X76400000Y-55675000D01*
X75675001Y-55675000D01*
X67000499Y-55675000D01*
X67000499Y-48700022D01*
X67020184Y-48632983D01*
X67072988Y-48587228D01*
X67142146Y-48577284D01*
X67205702Y-48606309D01*
X67220865Y-48621987D01*
X67398981Y-48841943D01*
X67398989Y-48841952D01*
X67398993Y-48841957D01*
X67658043Y-49101007D01*
X67937261Y-49327112D01*
X67942756Y-49331562D01*
X67942758Y-49331564D01*
X68249995Y-49531086D01*
X68250000Y-49531089D01*
X68576422Y-49697409D01*
X68918441Y-49828698D01*
X69272309Y-49923517D01*
X69634150Y-49980827D01*
X69979765Y-49998939D01*
X69999999Y-50000000D01*
X70000000Y-50000000D01*
X70000001Y-50000000D01*
X70019173Y-49998995D01*
X70365850Y-49980827D01*
X70727691Y-49923517D01*
X71081559Y-49828698D01*
X71423578Y-49697409D01*
X71750000Y-49531089D01*
X71931563Y-49413180D01*
X72057241Y-49331564D01*
X72057243Y-49331562D01*
X72057248Y-49331559D01*
X72341957Y-49101007D01*
X72601007Y-48841957D01*
X72831559Y-48557248D01*
X72912756Y-48432217D01*
X72999500Y-48298642D01*
X73031089Y-48250000D01*
X73197409Y-47923578D01*
X73309737Y-47630953D01*
X73352138Y-47575423D01*
X73417832Y-47551630D01*
X73485960Y-47567131D01*
X73534893Y-47617005D01*
X73549500Y-47675393D01*
X73549500Y-48687870D01*
X73549501Y-48687876D01*
X73555908Y-48747483D01*
X73606202Y-48882328D01*
X73606206Y-48882335D01*
X73692452Y-48997544D01*
X73692455Y-48997547D01*
X73807664Y-49083793D01*
X73807671Y-49083797D01*
X73942517Y-49134091D01*
X73942516Y-49134091D01*
X73949444Y-49134835D01*
X74002127Y-49140500D01*
X75797872Y-49140499D01*
X75857483Y-49134091D01*
X75992331Y-49083796D01*
X76107546Y-48997546D01*
X76193796Y-48882331D01*
X76242810Y-48750916D01*
X76284681Y-48694984D01*
X76350145Y-48670566D01*
X76418418Y-48685417D01*
X76446672Y-48706569D01*
X76568599Y-48828495D01*
X76665384Y-48896265D01*
X76762165Y-48964032D01*
X76762167Y-48964033D01*
X76762170Y-48964035D01*
X76976337Y-49063903D01*
X77204592Y-49125063D01*
X77381034Y-49140500D01*
X77439999Y-49145659D01*
X77440000Y-49145659D01*
X77440001Y-49145659D01*
X77479234Y-49142226D01*
X77675408Y-49125063D01*
X77783410Y-49096124D01*
X77853256Y-49097787D01*
X77911118Y-49136949D01*
X77938623Y-49201177D01*
X77939500Y-49215899D01*
X77939500Y-52945165D01*
X77919815Y-53012204D01*
X77898089Y-53035541D01*
X77898728Y-53036180D01*
X77892451Y-53042457D01*
X77806206Y-53157664D01*
X77806204Y-53157668D01*
X77806204Y-53157669D01*
X77802039Y-53168834D01*
X77760171Y-53224766D01*
X77694707Y-53249184D01*
X77685859Y-53249500D01*
X77574547Y-53249500D01*
X77507508Y-53229815D01*
X77477276Y-53202405D01*
X77472967Y-53196955D01*
X77433676Y-53157664D01*
X77353044Y-53077032D01*
X77353041Y-53077030D01*
X77353040Y-53077029D01*
X77208705Y-52988001D01*
X77208699Y-52987998D01*
X77208697Y-52987997D01*
X77208694Y-52987996D01*
X77047709Y-52934651D01*
X76948346Y-52924500D01*
X76351662Y-52924500D01*
X76351644Y-52924501D01*
X76252292Y-52934650D01*
X76252289Y-52934651D01*
X76091305Y-52987996D01*
X76091294Y-52988001D01*
X75946959Y-53077029D01*
X75946955Y-53077032D01*
X75827032Y-53196955D01*
X75827029Y-53196959D01*
X75738001Y-53341294D01*
X75737996Y-53341305D01*
X75684651Y-53502290D01*
X75674500Y-53601647D01*
X75674500Y-54148337D01*
X75674501Y-54148355D01*
X75684650Y-54247707D01*
X75684651Y-54247710D01*
X75737996Y-54408694D01*
X75738001Y-54408705D01*
X75827029Y-54553040D01*
X75827032Y-54553044D01*
X75836660Y-54562672D01*
X75870145Y-54623995D01*
X75865161Y-54693687D01*
X75836663Y-54738031D01*
X75827428Y-54747265D01*
X75827424Y-54747271D01*
X75738457Y-54891507D01*
X75738452Y-54891518D01*
X75685144Y-55052393D01*
X75675000Y-55151677D01*
X75675000Y-55175000D01*
X77624999Y-55175000D01*
X77624999Y-55151692D01*
X77624998Y-55151677D01*
X77614855Y-55052392D01*
X77574248Y-54929846D01*
X77571846Y-54860017D01*
X77607578Y-54799976D01*
X77670098Y-54768783D01*
X77739558Y-54776344D01*
X77793903Y-54820256D01*
X77801498Y-54834800D01*
X77801956Y-54834551D01*
X77806205Y-54842334D01*
X77892452Y-54957544D01*
X77892455Y-54957547D01*
X78007664Y-55043793D01*
X78007671Y-55043797D01*
X78052618Y-55060561D01*
X78142517Y-55094091D01*
X78202127Y-55100500D01*
X78897872Y-55100499D01*
X78934455Y-55096566D01*
X79003212Y-55108972D01*
X79048023Y-55146967D01*
X79050096Y-55149819D01*
X79053991Y-55155181D01*
X79057190Y-55160052D01*
X79066030Y-55175000D01*
X79081919Y-55201865D01*
X79081924Y-55201870D01*
X79086700Y-55208027D01*
X79084716Y-55209565D01*
X79112304Y-55260088D01*
X79107320Y-55329780D01*
X79065448Y-55385713D01*
X78999984Y-55410130D01*
X78962631Y-55407125D01*
X78957489Y-55405910D01*
X78957484Y-55405909D01*
X78957483Y-55405909D01*
X78897873Y-55399500D01*
X78897863Y-55399500D01*
X78202129Y-55399500D01*
X78202123Y-55399501D01*
X78142516Y-55405908D01*
X78007671Y-55456202D01*
X78007664Y-55456206D01*
X77892455Y-55542452D01*
X77806966Y-55656650D01*
X77751032Y-55698520D01*
X77681340Y-55703504D01*
X77629141Y-55675000D01*
X76900000Y-55675000D01*
X76900000Y-56374999D01*
X76948308Y-56374999D01*
X76948322Y-56374998D01*
X77047607Y-56364855D01*
X77208481Y-56311547D01*
X77208492Y-56311542D01*
X77352728Y-56222575D01*
X77352732Y-56222572D01*
X77472571Y-56102733D01*
X77519961Y-56025903D01*
X77571909Y-55979179D01*
X77640872Y-55967956D01*
X77704954Y-55995800D01*
X77743810Y-56053869D01*
X77749500Y-56091000D01*
X77749500Y-57147870D01*
X77749501Y-57147876D01*
X77755908Y-57207483D01*
X77791682Y-57303395D01*
X77799500Y-57346728D01*
X77799500Y-58386294D01*
X77798191Y-58404263D01*
X77794710Y-58428025D01*
X77799264Y-58480064D01*
X77799500Y-58485470D01*
X77799500Y-58493709D01*
X77803306Y-58526274D01*
X77810000Y-58602791D01*
X77811461Y-58609867D01*
X77811403Y-58609878D01*
X77813034Y-58617237D01*
X77813092Y-58617224D01*
X77814757Y-58624250D01*
X77841025Y-58696424D01*
X77865185Y-58769331D01*
X77868236Y-58775874D01*
X77868182Y-58775898D01*
X77871470Y-58782688D01*
X77871521Y-58782663D01*
X77874761Y-58789113D01*
X77874762Y-58789114D01*
X77874763Y-58789117D01*
X77889092Y-58810903D01*
X77916965Y-58853283D01*
X77957287Y-58918655D01*
X77961766Y-58924319D01*
X77961719Y-58924356D01*
X77966482Y-58930202D01*
X77966528Y-58930164D01*
X77971173Y-58935700D01*
X78011764Y-58973995D01*
X78027018Y-58988386D01*
X78800338Y-59761706D01*
X79504650Y-60466017D01*
X79538135Y-60527340D01*
X79533151Y-60597031D01*
X79522510Y-60618790D01*
X79515186Y-60630666D01*
X79460001Y-60797203D01*
X79460001Y-60797204D01*
X79460000Y-60797204D01*
X79449500Y-60899983D01*
X79449500Y-62100001D01*
X79449501Y-62100018D01*
X79460000Y-62202796D01*
X79460001Y-62202799D01*
X79515185Y-62369331D01*
X79515187Y-62369336D01*
X79543827Y-62415768D01*
X79607288Y-62518656D01*
X79731344Y-62642712D01*
X79880666Y-62734814D01*
X80047203Y-62789999D01*
X80149991Y-62800500D01*
X83250008Y-62800499D01*
X83352797Y-62789999D01*
X83519334Y-62734814D01*
X83630555Y-62666212D01*
X83697945Y-62647772D01*
X83764608Y-62668694D01*
X83809378Y-62722336D01*
X83813356Y-62732746D01*
X83838453Y-62808483D01*
X83838457Y-62808492D01*
X83927424Y-62952728D01*
X83927427Y-62952732D01*
X84047267Y-63072572D01*
X84047271Y-63072575D01*
X84191507Y-63161542D01*
X84191518Y-63161547D01*
X84352393Y-63214855D01*
X84451683Y-63224999D01*
X84499999Y-63224998D01*
X84500000Y-63224998D01*
X84500000Y-62149000D01*
X84519685Y-62081961D01*
X84572489Y-62036206D01*
X84624000Y-62025000D01*
X84876000Y-62025000D01*
X84943039Y-62044685D01*
X84988794Y-62097489D01*
X85000000Y-62149000D01*
X85000000Y-63224999D01*
X85048308Y-63224999D01*
X85048322Y-63224998D01*
X85147607Y-63214855D01*
X85308481Y-63161547D01*
X85308487Y-63161544D01*
X85360902Y-63129214D01*
X85428294Y-63110773D01*
X85494958Y-63131695D01*
X85539728Y-63185336D01*
X85550000Y-63234752D01*
X85550000Y-63359844D01*
X85556401Y-63419372D01*
X85556403Y-63419379D01*
X85606645Y-63554086D01*
X85606649Y-63554093D01*
X85692809Y-63669187D01*
X85692812Y-63669190D01*
X85807906Y-63755350D01*
X85807913Y-63755354D01*
X85949892Y-63808309D01*
X85949334Y-63809804D01*
X86002181Y-63839887D01*
X86034576Y-63901793D01*
X86030668Y-63965006D01*
X85985144Y-64102390D01*
X85985144Y-64102391D01*
X85975000Y-64201677D01*
X85975000Y-64250000D01*
X87051000Y-64250000D01*
X87118039Y-64269685D01*
X87163794Y-64322489D01*
X87175000Y-64374000D01*
X87175000Y-64575500D01*
X87155315Y-64642539D01*
X87102511Y-64688294D01*
X87051000Y-64699500D01*
X82825504Y-64699500D01*
X82809493Y-64697732D01*
X82809471Y-64697974D01*
X82801704Y-64697240D01*
X82801703Y-64697240D01*
X82729796Y-64699500D01*
X82699075Y-64699500D01*
X82699071Y-64699500D01*
X82699061Y-64699501D01*
X82691793Y-64700419D01*
X82685976Y-64700876D01*
X82637435Y-64702402D01*
X82637424Y-64702404D01*
X82617048Y-64708323D01*
X82598008Y-64712266D01*
X82576947Y-64714927D01*
X82576939Y-64714929D01*
X82531775Y-64732811D01*
X82526247Y-64734703D01*
X82479602Y-64748255D01*
X82461332Y-64759060D01*
X82443863Y-64767618D01*
X82424128Y-64775432D01*
X82424126Y-64775433D01*
X82384839Y-64803977D01*
X82379956Y-64807184D01*
X82338132Y-64831919D01*
X82323126Y-64846926D01*
X82308336Y-64859558D01*
X82291167Y-64872032D01*
X82291165Y-64872034D01*
X82260194Y-64909470D01*
X82256262Y-64913791D01*
X80446871Y-66723181D01*
X80385548Y-66756666D01*
X80359190Y-66759500D01*
X79082129Y-66759500D01*
X79082123Y-66759501D01*
X79022516Y-66765908D01*
X78887671Y-66816202D01*
X78887664Y-66816206D01*
X78772455Y-66902452D01*
X78772452Y-66902455D01*
X78686206Y-67017664D01*
X78686202Y-67017671D01*
X78635908Y-67152517D01*
X78629501Y-67212116D01*
X78629500Y-67212135D01*
X78629500Y-69007870D01*
X78629501Y-69007876D01*
X78635908Y-69067483D01*
X78686202Y-69202328D01*
X78686206Y-69202335D01*
X78772452Y-69317544D01*
X78772455Y-69317547D01*
X78887664Y-69403793D01*
X78887671Y-69403797D01*
X79022517Y-69454091D01*
X79022516Y-69454091D01*
X79029444Y-69454835D01*
X79082127Y-69460500D01*
X80877872Y-69460499D01*
X80937483Y-69454091D01*
X81072331Y-69403796D01*
X81187546Y-69317546D01*
X81273796Y-69202331D01*
X81322810Y-69070916D01*
X81364681Y-69014984D01*
X81430145Y-68990566D01*
X81498418Y-69005417D01*
X81526672Y-69026569D01*
X81648599Y-69148495D01*
X81745384Y-69216265D01*
X81842165Y-69284032D01*
X81842167Y-69284033D01*
X81842170Y-69284035D01*
X82056337Y-69383903D01*
X82284592Y-69445063D01*
X82461034Y-69460500D01*
X82519999Y-69465659D01*
X82520000Y-69465659D01*
X82520001Y-69465659D01*
X82578966Y-69460500D01*
X82755408Y-69445063D01*
X82983663Y-69383903D01*
X83197830Y-69284035D01*
X83391401Y-69148495D01*
X83558495Y-68981401D01*
X83688426Y-68795840D01*
X83743001Y-68752217D01*
X83812499Y-68745023D01*
X83874854Y-68776546D01*
X83891574Y-68795841D01*
X84021505Y-68981401D01*
X84188599Y-69148495D01*
X84285384Y-69216264D01*
X84382165Y-69284032D01*
X84382167Y-69284033D01*
X84382170Y-69284035D01*
X84596337Y-69383903D01*
X84824592Y-69445063D01*
X85001034Y-69460500D01*
X85059999Y-69465659D01*
X85060000Y-69465659D01*
X85060001Y-69465659D01*
X85118966Y-69460500D01*
X85295408Y-69445063D01*
X85523663Y-69383903D01*
X85737830Y-69284035D01*
X85931401Y-69148495D01*
X86098495Y-68981401D01*
X86228426Y-68795840D01*
X86283001Y-68752217D01*
X86352499Y-68745023D01*
X86414854Y-68776546D01*
X86431574Y-68795841D01*
X86561505Y-68981401D01*
X86728599Y-69148495D01*
X86825384Y-69216264D01*
X86922165Y-69284032D01*
X86922167Y-69284033D01*
X86922170Y-69284035D01*
X87136337Y-69383903D01*
X87364592Y-69445063D01*
X87541034Y-69460500D01*
X87599999Y-69465659D01*
X87600000Y-69465659D01*
X87600001Y-69465659D01*
X87658966Y-69460500D01*
X87835408Y-69445063D01*
X88063663Y-69383903D01*
X88277830Y-69284035D01*
X88471401Y-69148495D01*
X88638495Y-68981401D01*
X88768426Y-68795840D01*
X88823001Y-68752217D01*
X88892499Y-68745023D01*
X88954854Y-68776546D01*
X88971574Y-68795841D01*
X89101505Y-68981401D01*
X89268599Y-69148495D01*
X89365384Y-69216264D01*
X89462165Y-69284032D01*
X89462167Y-69284033D01*
X89462170Y-69284035D01*
X89676337Y-69383903D01*
X89904592Y-69445063D01*
X90081034Y-69460500D01*
X90139999Y-69465659D01*
X90140000Y-69465659D01*
X90140001Y-69465659D01*
X90198966Y-69460500D01*
X90375408Y-69445063D01*
X90603663Y-69383903D01*
X90817830Y-69284035D01*
X91011401Y-69148495D01*
X91178495Y-68981401D01*
X91308426Y-68795840D01*
X91363001Y-68752217D01*
X91432499Y-68745023D01*
X91494854Y-68776546D01*
X91511574Y-68795841D01*
X91641505Y-68981401D01*
X91808599Y-69148495D01*
X91905384Y-69216265D01*
X92002165Y-69284032D01*
X92002167Y-69284033D01*
X92002170Y-69284035D01*
X92216337Y-69383903D01*
X92444592Y-69445063D01*
X92621034Y-69460500D01*
X92679999Y-69465659D01*
X92680000Y-69465659D01*
X92680001Y-69465659D01*
X92738966Y-69460500D01*
X92915408Y-69445063D01*
X93143663Y-69383903D01*
X93357830Y-69284035D01*
X93551401Y-69148495D01*
X93718495Y-68981401D01*
X93848426Y-68795840D01*
X93903001Y-68752217D01*
X93972499Y-68745023D01*
X94034854Y-68776546D01*
X94051574Y-68795841D01*
X94181505Y-68981401D01*
X94348599Y-69148495D01*
X94445384Y-69216265D01*
X94542165Y-69284032D01*
X94542167Y-69284033D01*
X94542170Y-69284035D01*
X94756337Y-69383903D01*
X94984592Y-69445063D01*
X95161034Y-69460500D01*
X95219999Y-69465659D01*
X95220000Y-69465659D01*
X95220001Y-69465659D01*
X95278966Y-69460500D01*
X95455408Y-69445063D01*
X95683663Y-69383903D01*
X95897830Y-69284035D01*
X96091401Y-69148495D01*
X96258495Y-68981401D01*
X96394035Y-68787830D01*
X96493903Y-68573663D01*
X96555063Y-68345408D01*
X96575659Y-68110000D01*
X96555063Y-67874592D01*
X96493903Y-67646337D01*
X96394035Y-67432171D01*
X96387414Y-67422714D01*
X96258494Y-67238597D01*
X96091402Y-67071506D01*
X96091401Y-67071505D01*
X95994860Y-67003906D01*
X95923376Y-66953852D01*
X95879751Y-66899275D01*
X95870500Y-66852277D01*
X95870500Y-60025000D01*
X96525001Y-60025000D01*
X96525001Y-60048322D01*
X96535144Y-60147607D01*
X96588452Y-60308481D01*
X96588457Y-60308492D01*
X96677424Y-60452728D01*
X96677427Y-60452732D01*
X96797267Y-60572572D01*
X96797271Y-60572575D01*
X96941507Y-60661542D01*
X96941518Y-60661547D01*
X97102393Y-60714855D01*
X97201683Y-60724999D01*
X97249999Y-60724998D01*
X97250000Y-60724998D01*
X97250000Y-60025000D01*
X96525001Y-60025000D01*
X95870500Y-60025000D01*
X95870500Y-58786499D01*
X95890185Y-58719460D01*
X95942989Y-58673705D01*
X95994500Y-58662499D01*
X96273371Y-58662499D01*
X96273372Y-58662499D01*
X96332983Y-58656091D01*
X96409122Y-58627692D01*
X96478813Y-58622709D01*
X96540136Y-58656194D01*
X96570161Y-58704871D01*
X96587996Y-58758694D01*
X96588001Y-58758705D01*
X96677029Y-58903040D01*
X96677032Y-58903044D01*
X96686660Y-58912672D01*
X96720145Y-58973995D01*
X96715161Y-59043687D01*
X96686663Y-59088031D01*
X96677428Y-59097265D01*
X96677424Y-59097271D01*
X96588457Y-59241507D01*
X96588452Y-59241518D01*
X96535144Y-59402393D01*
X96525000Y-59501677D01*
X96525000Y-59525000D01*
X97626000Y-59525000D01*
X97693039Y-59544685D01*
X97738794Y-59597489D01*
X97750000Y-59649000D01*
X97750000Y-60724999D01*
X97798308Y-60724999D01*
X97798322Y-60724998D01*
X97897607Y-60714855D01*
X98058481Y-60661547D01*
X98058492Y-60661542D01*
X98208879Y-60568782D01*
X98210322Y-60571123D01*
X98263338Y-60549712D01*
X98331985Y-60562726D01*
X98382698Y-60610788D01*
X98399500Y-60673114D01*
X98399500Y-65035370D01*
X98399501Y-65035376D01*
X98405908Y-65094983D01*
X98456202Y-65229828D01*
X98456203Y-65229830D01*
X98511680Y-65303937D01*
X98536097Y-65369401D01*
X98531390Y-65413184D01*
X98514978Y-65469075D01*
X98514976Y-65469080D01*
X98503437Y-65549340D01*
X98494500Y-65611500D01*
X98494500Y-67376000D01*
X98494501Y-67376009D01*
X98506052Y-67483450D01*
X98506054Y-67483462D01*
X98517260Y-67534972D01*
X98551383Y-67637497D01*
X98551386Y-67637503D01*
X98629171Y-67758537D01*
X98629179Y-67758548D01*
X98674923Y-67811340D01*
X98674926Y-67811343D01*
X98674930Y-67811347D01*
X98783664Y-67905567D01*
X98783667Y-67905568D01*
X98783668Y-67905569D01*
X98878536Y-67948895D01*
X98914541Y-67965338D01*
X98959357Y-67978497D01*
X98981575Y-67985022D01*
X98981580Y-67985023D01*
X98981584Y-67985024D01*
X99124000Y-68005500D01*
X99124003Y-68005500D01*
X117919712Y-68005500D01*
X117919714Y-68005500D01*
X117937580Y-68004862D01*
X117955597Y-68003896D01*
X118096189Y-67973312D01*
X118161653Y-67948895D01*
X118287928Y-67879944D01*
X118389668Y-67778207D01*
X118413632Y-67746195D01*
X118431537Y-67722279D01*
X118431539Y-67722275D01*
X118431540Y-67722274D01*
X118431546Y-67722266D01*
X118500499Y-67595985D01*
X118505468Y-67573141D01*
X118538952Y-67511819D01*
X118600275Y-67478334D01*
X118626634Y-67475500D01*
X118931613Y-67475500D01*
X118931616Y-67475500D01*
X119002196Y-67469086D01*
X119164606Y-67418478D01*
X119310185Y-67330472D01*
X119412673Y-67227983D01*
X119473994Y-67194499D01*
X119543685Y-67199483D01*
X119588034Y-67227984D01*
X119690122Y-67330072D01*
X119835604Y-67418019D01*
X119835603Y-67418019D01*
X119997894Y-67468590D01*
X119997893Y-67468590D01*
X120068408Y-67474998D01*
X120068426Y-67474999D01*
X120074999Y-67474998D01*
X120075000Y-67474998D01*
X120075000Y-66750000D01*
X120575000Y-66750000D01*
X120575000Y-67474999D01*
X120581581Y-67474999D01*
X120652102Y-67468591D01*
X120652107Y-67468590D01*
X120814396Y-67418018D01*
X120959877Y-67330072D01*
X121080072Y-67209877D01*
X121168019Y-67064395D01*
X121218590Y-66902106D01*
X121225000Y-66831572D01*
X121225000Y-66750000D01*
X120575000Y-66750000D01*
X120075000Y-66750000D01*
X120075000Y-65524999D01*
X120061325Y-65511327D01*
X120027835Y-65450007D01*
X120024999Y-65423639D01*
X120025000Y-64750000D01*
X120525000Y-64750000D01*
X120525000Y-65474999D01*
X120538681Y-65488680D01*
X120572166Y-65550003D01*
X120575000Y-65576361D01*
X120575000Y-66250000D01*
X121224998Y-66250000D01*
X121224998Y-66168417D01*
X121218591Y-66097897D01*
X121218590Y-66097892D01*
X121168018Y-65935603D01*
X121080072Y-65790122D01*
X120959877Y-65669927D01*
X120845639Y-65600868D01*
X120798452Y-65549340D01*
X120786613Y-65480481D01*
X120813882Y-65416152D01*
X120844692Y-65389212D01*
X120952733Y-65322571D01*
X121072572Y-65202732D01*
X121072575Y-65202728D01*
X121161542Y-65058492D01*
X121161547Y-65058481D01*
X121214855Y-64897606D01*
X121224999Y-64798322D01*
X121225000Y-64798309D01*
X121225000Y-64750000D01*
X120525000Y-64750000D01*
X120025000Y-64750000D01*
X120025000Y-63525000D01*
X120525000Y-63525000D01*
X120525000Y-64250000D01*
X121224999Y-64250000D01*
X121224999Y-64201692D01*
X121224998Y-64201677D01*
X121214855Y-64102392D01*
X121161547Y-63941518D01*
X121161542Y-63941507D01*
X121072575Y-63797271D01*
X121072572Y-63797267D01*
X120952732Y-63677427D01*
X120952728Y-63677424D01*
X120808492Y-63588457D01*
X120808481Y-63588452D01*
X120647606Y-63535144D01*
X120548322Y-63525000D01*
X120525000Y-63525000D01*
X120025000Y-63525000D01*
X120025000Y-63524999D01*
X120001693Y-63525000D01*
X120001674Y-63525001D01*
X119902392Y-63535144D01*
X119741518Y-63588452D01*
X119741507Y-63588457D01*
X119597271Y-63677424D01*
X119597265Y-63677428D01*
X119588031Y-63686663D01*
X119526707Y-63720146D01*
X119457015Y-63715159D01*
X119412672Y-63686660D01*
X119403044Y-63677032D01*
X119403040Y-63677029D01*
X119258705Y-63588001D01*
X119258699Y-63587998D01*
X119258697Y-63587997D01*
X119156381Y-63554093D01*
X119097709Y-63534651D01*
X118998346Y-63524500D01*
X118451662Y-63524500D01*
X118451644Y-63524501D01*
X118352292Y-63534650D01*
X118352289Y-63534651D01*
X118191305Y-63587996D01*
X118191294Y-63588001D01*
X118046959Y-63677029D01*
X118046955Y-63677032D01*
X117927031Y-63796956D01*
X117835316Y-63945649D01*
X117783368Y-63992373D01*
X117714405Y-64003594D01*
X117712132Y-64003289D01*
X117651001Y-63994500D01*
X117524499Y-63994500D01*
X117457460Y-63974815D01*
X117411705Y-63922011D01*
X117400499Y-63870500D01*
X117400499Y-61785367D01*
X117400499Y-59639628D01*
X117394091Y-59580017D01*
X117359584Y-59487500D01*
X117343797Y-59445171D01*
X117343793Y-59445164D01*
X117257547Y-59329955D01*
X117257544Y-59329952D01*
X117142335Y-59243706D01*
X117142328Y-59243702D01*
X117007482Y-59193408D01*
X117007483Y-59193408D01*
X116947883Y-59187001D01*
X116947881Y-59187000D01*
X116947873Y-59187000D01*
X116947864Y-59187000D01*
X113852129Y-59187000D01*
X113852123Y-59187001D01*
X113792516Y-59193408D01*
X113657671Y-59243702D01*
X113657664Y-59243706D01*
X113542455Y-59329952D01*
X113542452Y-59329955D01*
X113456206Y-59445164D01*
X113456202Y-59445171D01*
X113405908Y-59580017D01*
X113400350Y-59631722D01*
X113399501Y-59639623D01*
X113399500Y-59639635D01*
X113399500Y-63870500D01*
X113379815Y-63937539D01*
X113327011Y-63983294D01*
X113275500Y-63994500D01*
X111297934Y-63994500D01*
X111230895Y-63974815D01*
X111185140Y-63922011D01*
X111175196Y-63852853D01*
X111180894Y-63829542D01*
X111185366Y-63816760D01*
X111185368Y-63816755D01*
X111185369Y-63816749D01*
X111205565Y-63637503D01*
X111205565Y-63637496D01*
X111185369Y-63458250D01*
X111185368Y-63458245D01*
X111171766Y-63419372D01*
X111125789Y-63287978D01*
X111029816Y-63135238D01*
X110902262Y-63007684D01*
X110902261Y-63007684D01*
X110749523Y-62911711D01*
X110579254Y-62852131D01*
X110579249Y-62852130D01*
X110444960Y-62837000D01*
X110444954Y-62837000D01*
X110355046Y-62837000D01*
X110355039Y-62837000D01*
X110220750Y-62852130D01*
X110220745Y-62852131D01*
X110050476Y-62911711D01*
X109897737Y-63007684D01*
X109770184Y-63135237D01*
X109674211Y-63287976D01*
X109614631Y-63458245D01*
X109614630Y-63458250D01*
X109594435Y-63637496D01*
X109594435Y-63637503D01*
X109614630Y-63816749D01*
X109614633Y-63816760D01*
X109619106Y-63829542D01*
X109622670Y-63899321D01*
X109587943Y-63959949D01*
X109525950Y-63992178D01*
X109502066Y-63994500D01*
X106297934Y-63994500D01*
X106230895Y-63974815D01*
X106185140Y-63922011D01*
X106175196Y-63852853D01*
X106180894Y-63829542D01*
X106185366Y-63816760D01*
X106185368Y-63816755D01*
X106185369Y-63816749D01*
X106205565Y-63637503D01*
X106205565Y-63637496D01*
X106185369Y-63458250D01*
X106185368Y-63458245D01*
X106171766Y-63419372D01*
X106125789Y-63287978D01*
X106029816Y-63135238D01*
X105902262Y-63007684D01*
X105902261Y-63007683D01*
X105749523Y-62911711D01*
X105579254Y-62852131D01*
X105579249Y-62852130D01*
X105444960Y-62837000D01*
X105444954Y-62837000D01*
X105355046Y-62837000D01*
X105355039Y-62837000D01*
X105220750Y-62852130D01*
X105220745Y-62852131D01*
X105050476Y-62911711D01*
X104897737Y-63007684D01*
X104770184Y-63135237D01*
X104674211Y-63287976D01*
X104614631Y-63458245D01*
X104614630Y-63458250D01*
X104594435Y-63637496D01*
X104594435Y-63637503D01*
X104614630Y-63816749D01*
X104614633Y-63816760D01*
X104619106Y-63829542D01*
X104622670Y-63899321D01*
X104587943Y-63959949D01*
X104525950Y-63992178D01*
X104502066Y-63994500D01*
X102524499Y-63994500D01*
X102457460Y-63974815D01*
X102411705Y-63922011D01*
X102400499Y-63870500D01*
X102400499Y-59874500D01*
X102420184Y-59807461D01*
X102472988Y-59761706D01*
X102524499Y-59750500D01*
X103175501Y-59750500D01*
X103242540Y-59770185D01*
X103288295Y-59822989D01*
X103299501Y-59874500D01*
X103299501Y-61685376D01*
X103305908Y-61744983D01*
X103356202Y-61879828D01*
X103356206Y-61879835D01*
X103442452Y-61995044D01*
X103442455Y-61995047D01*
X103557664Y-62081293D01*
X103557671Y-62081297D01*
X103692517Y-62131591D01*
X103692516Y-62131591D01*
X103699444Y-62132335D01*
X103752127Y-62138000D01*
X105047872Y-62137999D01*
X105107483Y-62131591D01*
X105242331Y-62081296D01*
X105357546Y-61995046D01*
X105443796Y-61879831D01*
X105494091Y-61744983D01*
X105500500Y-61685373D01*
X105500499Y-58140110D01*
X105520184Y-58073072D01*
X105572988Y-58027317D01*
X105624499Y-58016111D01*
X105665500Y-58016111D01*
X105732539Y-58035796D01*
X105778294Y-58088600D01*
X105789500Y-58140111D01*
X105789500Y-61685370D01*
X105789501Y-61685376D01*
X105795908Y-61744983D01*
X105846202Y-61879828D01*
X105846206Y-61879835D01*
X105932452Y-61995044D01*
X105932455Y-61995047D01*
X106047664Y-62081293D01*
X106047671Y-62081297D01*
X106182517Y-62131591D01*
X106182516Y-62131591D01*
X106189444Y-62132335D01*
X106242127Y-62138000D01*
X107537872Y-62137999D01*
X107597483Y-62131591D01*
X107732331Y-62081296D01*
X107820689Y-62015150D01*
X107886153Y-61990734D01*
X107954426Y-62005585D01*
X107969309Y-62015150D01*
X107997437Y-62036206D01*
X108057669Y-62081296D01*
X108057671Y-62081297D01*
X108192517Y-62131591D01*
X108192516Y-62131591D01*
X108199444Y-62132335D01*
X108252127Y-62138000D01*
X109547872Y-62137999D01*
X109607483Y-62131591D01*
X109742331Y-62081296D01*
X109857546Y-61995046D01*
X109943796Y-61879831D01*
X109994091Y-61744983D01*
X110000500Y-61685373D01*
X110000499Y-59987500D01*
X110300000Y-59987500D01*
X110300000Y-61685344D01*
X110306401Y-61744872D01*
X110306403Y-61744879D01*
X110356645Y-61879586D01*
X110356649Y-61879593D01*
X110442809Y-61994687D01*
X110442812Y-61994690D01*
X110557906Y-62080850D01*
X110557913Y-62080854D01*
X110692620Y-62131096D01*
X110692627Y-62131098D01*
X110752155Y-62137499D01*
X110752172Y-62137500D01*
X111150000Y-62137500D01*
X111150000Y-59987500D01*
X111650000Y-59987500D01*
X111650000Y-62137500D01*
X112047828Y-62137500D01*
X112047844Y-62137499D01*
X112107372Y-62131098D01*
X112107379Y-62131096D01*
X112242086Y-62080854D01*
X112242093Y-62080850D01*
X112357187Y-61994690D01*
X112357190Y-61994687D01*
X112443350Y-61879593D01*
X112443354Y-61879586D01*
X112493596Y-61744879D01*
X112493598Y-61744872D01*
X112499999Y-61685344D01*
X112500000Y-61685327D01*
X112500000Y-59987500D01*
X111650000Y-59987500D01*
X111150000Y-59987500D01*
X110300000Y-59987500D01*
X110000499Y-59987500D01*
X110000499Y-59487500D01*
X110300000Y-59487500D01*
X111150000Y-59487500D01*
X111150000Y-57337500D01*
X111650000Y-57337500D01*
X111650000Y-59487500D01*
X112500000Y-59487500D01*
X112500000Y-57789672D01*
X112499999Y-57789655D01*
X112493598Y-57730127D01*
X112493596Y-57730120D01*
X112443354Y-57595413D01*
X112443350Y-57595406D01*
X112357190Y-57480312D01*
X112357187Y-57480309D01*
X112242093Y-57394149D01*
X112242086Y-57394145D01*
X112107379Y-57343903D01*
X112107372Y-57343901D01*
X112047844Y-57337500D01*
X111650000Y-57337500D01*
X111150000Y-57337500D01*
X110752155Y-57337500D01*
X110692627Y-57343901D01*
X110692620Y-57343903D01*
X110557913Y-57394145D01*
X110557906Y-57394149D01*
X110442812Y-57480309D01*
X110442809Y-57480312D01*
X110356649Y-57595406D01*
X110356645Y-57595413D01*
X110306403Y-57730120D01*
X110306401Y-57730127D01*
X110300000Y-57789655D01*
X110300000Y-59487500D01*
X110000499Y-59487500D01*
X110000499Y-57789628D01*
X109994091Y-57730017D01*
X109986699Y-57710199D01*
X109943797Y-57595171D01*
X109943793Y-57595164D01*
X109857547Y-57479955D01*
X109857544Y-57479952D01*
X109742335Y-57393706D01*
X109742328Y-57393702D01*
X109607482Y-57343408D01*
X109607483Y-57343408D01*
X109547883Y-57337001D01*
X109547881Y-57337000D01*
X109547873Y-57337000D01*
X109547865Y-57337000D01*
X108779953Y-57337000D01*
X108712914Y-57317315D01*
X108692272Y-57300681D01*
X108265772Y-56874181D01*
X108232287Y-56812858D01*
X108237271Y-56743166D01*
X108279143Y-56687233D01*
X108344607Y-56662816D01*
X108353453Y-56662500D01*
X114482495Y-56662500D01*
X114498505Y-56664267D01*
X114498528Y-56664026D01*
X114506289Y-56664758D01*
X114506296Y-56664760D01*
X114578203Y-56662500D01*
X114608925Y-56662500D01*
X114616190Y-56661581D01*
X114622016Y-56661122D01*
X114670569Y-56659597D01*
X114690956Y-56653673D01*
X114709996Y-56649731D01*
X114731058Y-56647071D01*
X114776235Y-56629183D01*
X114781735Y-56627300D01*
X114828398Y-56613744D01*
X114846665Y-56602939D01*
X114864136Y-56594380D01*
X114883871Y-56586568D01*
X114923177Y-56558010D01*
X114928043Y-56554813D01*
X114969865Y-56530081D01*
X114984870Y-56515075D01*
X114999668Y-56502436D01*
X115016837Y-56489963D01*
X115047809Y-56452522D01*
X115051713Y-56448231D01*
X117233127Y-54266817D01*
X117294450Y-54233333D01*
X117320808Y-54230499D01*
X118977871Y-54230499D01*
X118977872Y-54230499D01*
X119037483Y-54224091D01*
X119172331Y-54173796D01*
X119287546Y-54087546D01*
X119373796Y-53972331D01*
X119424091Y-53837483D01*
X119430500Y-53777873D01*
X119430499Y-51982128D01*
X119424091Y-51922517D01*
X119422810Y-51919083D01*
X119373797Y-51787671D01*
X119373793Y-51787664D01*
X119287547Y-51672455D01*
X119287544Y-51672452D01*
X119172335Y-51586206D01*
X119172328Y-51586202D01*
X119037482Y-51535908D01*
X119037483Y-51535908D01*
X118977883Y-51529501D01*
X118977881Y-51529500D01*
X118977873Y-51529500D01*
X118977864Y-51529500D01*
X117182129Y-51529500D01*
X117182123Y-51529501D01*
X117122516Y-51535908D01*
X116987671Y-51586202D01*
X116987664Y-51586206D01*
X116872455Y-51672452D01*
X116872452Y-51672455D01*
X116786206Y-51787664D01*
X116786203Y-51787669D01*
X116737189Y-51919083D01*
X116695317Y-51975016D01*
X116629853Y-51999433D01*
X116561580Y-51984581D01*
X116533326Y-51963430D01*
X116411402Y-51841506D01*
X116411395Y-51841501D01*
X116217834Y-51705967D01*
X116217830Y-51705965D01*
X116151925Y-51675233D01*
X116003663Y-51606097D01*
X116003659Y-51606096D01*
X116003655Y-51606094D01*
X115775413Y-51544938D01*
X115775403Y-51544936D01*
X115540001Y-51524341D01*
X115539999Y-51524341D01*
X115304596Y-51544936D01*
X115304586Y-51544938D01*
X115076344Y-51606094D01*
X115076335Y-51606098D01*
X114862171Y-51705964D01*
X114862169Y-51705965D01*
X114668597Y-51841505D01*
X114501508Y-52008594D01*
X114371574Y-52194159D01*
X114316997Y-52237784D01*
X114247498Y-52244976D01*
X114185144Y-52213454D01*
X114168424Y-52194158D01*
X114038494Y-52008597D01*
X113871402Y-51841506D01*
X113871395Y-51841501D01*
X113677834Y-51705967D01*
X113677830Y-51705965D01*
X113611925Y-51675233D01*
X113463663Y-51606097D01*
X113463659Y-51606096D01*
X113463655Y-51606094D01*
X113235413Y-51544938D01*
X113235403Y-51544936D01*
X113000001Y-51524341D01*
X112999999Y-51524341D01*
X112764596Y-51544936D01*
X112764586Y-51544938D01*
X112536344Y-51606094D01*
X112536335Y-51606098D01*
X112322171Y-51705964D01*
X112322169Y-51705965D01*
X112128597Y-51841505D01*
X111961505Y-52008597D01*
X111831575Y-52194158D01*
X111776998Y-52237783D01*
X111707500Y-52244977D01*
X111645145Y-52213454D01*
X111628425Y-52194158D01*
X111498494Y-52008597D01*
X111331402Y-51841506D01*
X111331395Y-51841501D01*
X111137834Y-51705967D01*
X111137830Y-51705965D01*
X111071925Y-51675233D01*
X110923663Y-51606097D01*
X110923659Y-51606096D01*
X110923655Y-51606094D01*
X110695413Y-51544938D01*
X110695403Y-51544936D01*
X110460001Y-51524341D01*
X110459999Y-51524341D01*
X110224596Y-51544936D01*
X110224586Y-51544938D01*
X109996344Y-51606094D01*
X109996335Y-51606098D01*
X109782171Y-51705964D01*
X109782169Y-51705965D01*
X109588597Y-51841505D01*
X109421505Y-52008597D01*
X109291575Y-52194158D01*
X109236998Y-52237783D01*
X109167500Y-52244977D01*
X109105145Y-52213454D01*
X109088425Y-52194158D01*
X108958494Y-52008597D01*
X108791402Y-51841506D01*
X108791395Y-51841501D01*
X108597834Y-51705967D01*
X108597830Y-51705965D01*
X108531925Y-51675233D01*
X108383663Y-51606097D01*
X108383659Y-51606096D01*
X108383655Y-51606094D01*
X108155413Y-51544938D01*
X108155403Y-51544936D01*
X107920001Y-51524341D01*
X107915649Y-51524341D01*
X107848610Y-51504656D01*
X107827968Y-51488022D01*
X106940434Y-50600488D01*
X106930361Y-50587914D01*
X106930174Y-50588070D01*
X106925201Y-50582059D01*
X106872756Y-50532810D01*
X106851035Y-50511089D01*
X106845240Y-50506594D01*
X106840798Y-50502799D01*
X106805396Y-50469554D01*
X106805388Y-50469548D01*
X106786792Y-50459325D01*
X106770531Y-50448644D01*
X106753763Y-50435637D01*
X106730295Y-50425482D01*
X106709178Y-50416343D01*
X106703956Y-50413786D01*
X106661368Y-50390373D01*
X106661365Y-50390372D01*
X106640801Y-50385092D01*
X106622396Y-50378790D01*
X106602927Y-50370365D01*
X106602921Y-50370363D01*
X106554951Y-50362766D01*
X106549236Y-50361582D01*
X106532772Y-50357355D01*
X106502180Y-50349500D01*
X106502177Y-50349500D01*
X106480955Y-50349500D01*
X106461555Y-50347973D01*
X106440596Y-50344653D01*
X106440595Y-50344653D01*
X106416786Y-50346903D01*
X106392230Y-50349225D01*
X106386392Y-50349500D01*
X101934808Y-50349500D01*
X101867769Y-50329815D01*
X101822014Y-50277011D01*
X101812070Y-50207853D01*
X101841095Y-50144297D01*
X101847127Y-50137819D01*
X102085446Y-49899500D01*
X102807306Y-49177638D01*
X102868627Y-49144155D01*
X102884164Y-49141794D01*
X103075408Y-49125063D01*
X103303663Y-49063903D01*
X103517830Y-48964035D01*
X103711401Y-48828495D01*
X103878495Y-48661401D01*
X104008730Y-48475405D01*
X104063307Y-48431781D01*
X104132805Y-48424587D01*
X104195160Y-48456110D01*
X104211879Y-48475405D01*
X104341890Y-48661078D01*
X104508917Y-48828105D01*
X104702421Y-48963600D01*
X104916507Y-49063429D01*
X104916516Y-49063433D01*
X105130000Y-49120634D01*
X105130000Y-48402301D01*
X105149685Y-48335262D01*
X105202489Y-48289507D01*
X105271647Y-48279563D01*
X105344237Y-48290000D01*
X105344238Y-48290000D01*
X105415762Y-48290000D01*
X105415763Y-48290000D01*
X105488353Y-48279563D01*
X105557512Y-48289507D01*
X105610315Y-48335262D01*
X105630000Y-48402301D01*
X105630000Y-49120633D01*
X105843483Y-49063433D01*
X105843492Y-49063429D01*
X106057578Y-48963600D01*
X106251082Y-48828105D01*
X106418105Y-48661082D01*
X106548119Y-48475405D01*
X106602696Y-48431781D01*
X106672195Y-48424588D01*
X106734549Y-48456110D01*
X106751269Y-48475405D01*
X106881505Y-48661401D01*
X107048599Y-48828495D01*
X107145384Y-48896264D01*
X107242165Y-48964032D01*
X107242167Y-48964033D01*
X107242170Y-48964035D01*
X107456337Y-49063903D01*
X107684592Y-49125063D01*
X107861034Y-49140500D01*
X107919999Y-49145659D01*
X107920000Y-49145659D01*
X107920001Y-49145659D01*
X107959234Y-49142226D01*
X108155408Y-49125063D01*
X108383663Y-49063903D01*
X108597830Y-48964035D01*
X108791401Y-48828495D01*
X108958495Y-48661401D01*
X109088426Y-48475840D01*
X109143001Y-48432217D01*
X109212499Y-48425023D01*
X109274854Y-48456546D01*
X109291574Y-48475841D01*
X109421505Y-48661401D01*
X109588599Y-48828495D01*
X109685384Y-48896264D01*
X109782165Y-48964032D01*
X109782167Y-48964033D01*
X109782170Y-48964035D01*
X109996337Y-49063903D01*
X110224592Y-49125063D01*
X110401034Y-49140500D01*
X110459999Y-49145659D01*
X110460000Y-49145659D01*
X110460001Y-49145659D01*
X110499234Y-49142226D01*
X110695408Y-49125063D01*
X110923663Y-49063903D01*
X111137830Y-48964035D01*
X111331401Y-48828495D01*
X111498495Y-48661401D01*
X111628426Y-48475840D01*
X111683001Y-48432217D01*
X111752499Y-48425023D01*
X111814854Y-48456546D01*
X111831574Y-48475841D01*
X111961505Y-48661401D01*
X112128599Y-48828495D01*
X112225384Y-48896264D01*
X112322165Y-48964032D01*
X112322167Y-48964033D01*
X112322170Y-48964035D01*
X112536337Y-49063903D01*
X112764592Y-49125063D01*
X112941034Y-49140500D01*
X112999999Y-49145659D01*
X113000000Y-49145659D01*
X113000001Y-49145659D01*
X113039234Y-49142226D01*
X113235408Y-49125063D01*
X113463663Y-49063903D01*
X113677830Y-48964035D01*
X113871401Y-48828495D01*
X114038495Y-48661401D01*
X114168426Y-48475840D01*
X114223001Y-48432217D01*
X114292499Y-48425023D01*
X114354854Y-48456546D01*
X114371574Y-48475841D01*
X114501505Y-48661401D01*
X114668599Y-48828495D01*
X114765384Y-48896264D01*
X114862165Y-48964032D01*
X114862167Y-48964033D01*
X114862170Y-48964035D01*
X115076337Y-49063903D01*
X115304592Y-49125063D01*
X115481034Y-49140500D01*
X115539999Y-49145659D01*
X115540000Y-49145659D01*
X115540001Y-49145659D01*
X115579234Y-49142226D01*
X115775408Y-49125063D01*
X116003663Y-49063903D01*
X116217830Y-48964035D01*
X116411401Y-48828495D01*
X116578495Y-48661401D01*
X116708426Y-48475841D01*
X116763002Y-48432217D01*
X116832500Y-48425023D01*
X116894855Y-48456546D01*
X116911575Y-48475842D01*
X117041281Y-48661082D01*
X117041505Y-48661401D01*
X117208599Y-48828495D01*
X117305384Y-48896264D01*
X117402165Y-48964032D01*
X117402167Y-48964033D01*
X117402170Y-48964035D01*
X117616337Y-49063903D01*
X117844592Y-49125063D01*
X118021034Y-49140500D01*
X118079999Y-49145659D01*
X118080000Y-49145659D01*
X118080001Y-49145659D01*
X118119234Y-49142226D01*
X118315408Y-49125063D01*
X118543663Y-49063903D01*
X118757830Y-48964035D01*
X118951401Y-48828495D01*
X119118495Y-48661401D01*
X119248426Y-48475840D01*
X119303001Y-48432217D01*
X119372499Y-48425023D01*
X119434854Y-48456546D01*
X119451574Y-48475841D01*
X119581505Y-48661401D01*
X119748599Y-48828495D01*
X119845384Y-48896264D01*
X119942165Y-48964032D01*
X119942167Y-48964033D01*
X119942170Y-48964035D01*
X120156337Y-49063903D01*
X120384592Y-49125063D01*
X120561034Y-49140500D01*
X120619999Y-49145659D01*
X120620000Y-49145659D01*
X120620001Y-49145659D01*
X120659234Y-49142226D01*
X120855408Y-49125063D01*
X121083663Y-49063903D01*
X121297830Y-48964035D01*
X121491401Y-48828495D01*
X121658495Y-48661401D01*
X121788730Y-48475405D01*
X121843307Y-48431781D01*
X121912805Y-48424587D01*
X121975160Y-48456110D01*
X121991879Y-48475405D01*
X122121890Y-48661078D01*
X122288917Y-48828105D01*
X122482421Y-48963600D01*
X122696507Y-49063429D01*
X122696516Y-49063433D01*
X122909999Y-49120634D01*
X122909999Y-48402301D01*
X122929683Y-48335262D01*
X122982487Y-48289507D01*
X123051646Y-48279563D01*
X123058380Y-48280531D01*
X123124237Y-48290000D01*
X123124238Y-48290000D01*
X123195762Y-48290000D01*
X123195763Y-48290000D01*
X123268353Y-48279563D01*
X123337512Y-48289507D01*
X123390315Y-48335262D01*
X123410000Y-48402301D01*
X123410000Y-49120634D01*
X123623483Y-49063433D01*
X123623492Y-49063429D01*
X123837578Y-48963600D01*
X124031082Y-48828105D01*
X124198105Y-48661082D01*
X124333600Y-48467578D01*
X124433429Y-48253492D01*
X124433432Y-48253486D01*
X124490636Y-48040000D01*
X123773347Y-48040000D01*
X123706308Y-48020315D01*
X123660553Y-47967511D01*
X123650609Y-47898353D01*
X123654369Y-47881067D01*
X123660000Y-47861888D01*
X123660000Y-47718111D01*
X123654369Y-47698933D01*
X123654370Y-47629064D01*
X123692145Y-47570286D01*
X123755701Y-47541262D01*
X123773347Y-47540000D01*
X124510254Y-47540000D01*
X124522057Y-47531381D01*
X124591803Y-47527223D01*
X124652725Y-47561433D01*
G37*
G04 #@! TD.AperFunction*
G04 #@! TA.AperFunction,Conductor*
G36*
X83717539Y-54670185D02*
G01*
X83763294Y-54722989D01*
X83774500Y-54774500D01*
X83774500Y-55331613D01*
X83780913Y-55402192D01*
X83780913Y-55402194D01*
X83780914Y-55402196D01*
X83831522Y-55564606D01*
X83904817Y-55685851D01*
X83922653Y-55753403D01*
X83904817Y-55814149D01*
X83831522Y-55935393D01*
X83780913Y-56097807D01*
X83774500Y-56168386D01*
X83774500Y-56831613D01*
X83780913Y-56902192D01*
X83780913Y-56902194D01*
X83780914Y-56902196D01*
X83831522Y-57064606D01*
X83891974Y-57164606D01*
X83919530Y-57210188D01*
X84039811Y-57330469D01*
X84039813Y-57330470D01*
X84039815Y-57330472D01*
X84145149Y-57394149D01*
X84153880Y-57399427D01*
X84201068Y-57450955D01*
X84212906Y-57519815D01*
X84185637Y-57584143D01*
X84154828Y-57611082D01*
X84047268Y-57677426D01*
X83927427Y-57797267D01*
X83927424Y-57797271D01*
X83838457Y-57941507D01*
X83838452Y-57941518D01*
X83785144Y-58102393D01*
X83775000Y-58201677D01*
X83775000Y-58250000D01*
X84851000Y-58250000D01*
X84918039Y-58269685D01*
X84963794Y-58322489D01*
X84975000Y-58374000D01*
X84975000Y-59474999D01*
X84998308Y-59474999D01*
X84998322Y-59474998D01*
X85097607Y-59464855D01*
X85258481Y-59411547D01*
X85258492Y-59411542D01*
X85402731Y-59322573D01*
X85411959Y-59313345D01*
X85473279Y-59279856D01*
X85542971Y-59284835D01*
X85587327Y-59313339D01*
X85589112Y-59315124D01*
X85622597Y-59376447D01*
X85617613Y-59446139D01*
X85610267Y-59462225D01*
X85606205Y-59469665D01*
X85565047Y-59580017D01*
X85555909Y-59604517D01*
X85550937Y-59650757D01*
X85524201Y-59715306D01*
X85466809Y-59755154D01*
X85427649Y-59761500D01*
X85148505Y-59761500D01*
X85132494Y-59759732D01*
X85132472Y-59759974D01*
X85124705Y-59759240D01*
X85124704Y-59759240D01*
X85052797Y-59761500D01*
X85022075Y-59761500D01*
X85022071Y-59761500D01*
X85022061Y-59761501D01*
X85014793Y-59762419D01*
X85008976Y-59762876D01*
X84960436Y-59764402D01*
X84960433Y-59764402D01*
X84960431Y-59764403D01*
X84942614Y-59769578D01*
X84908028Y-59774500D01*
X84451662Y-59774500D01*
X84451644Y-59774501D01*
X84352292Y-59784650D01*
X84352289Y-59784651D01*
X84191305Y-59837996D01*
X84191294Y-59838001D01*
X84046959Y-59927029D01*
X84046955Y-59927032D01*
X83927031Y-60046956D01*
X83879486Y-60124039D01*
X83827538Y-60170763D01*
X83758575Y-60181984D01*
X83694493Y-60154141D01*
X83655638Y-60096072D01*
X83650627Y-60045981D01*
X83655460Y-60000000D01*
X83635674Y-59811744D01*
X83577179Y-59631716D01*
X83482533Y-59467784D01*
X83355871Y-59327112D01*
X83355870Y-59327111D01*
X83202734Y-59215851D01*
X83202729Y-59215848D01*
X83029807Y-59138857D01*
X83029802Y-59138855D01*
X82863220Y-59103448D01*
X82844646Y-59099500D01*
X82655354Y-59099500D01*
X82636780Y-59103448D01*
X82470197Y-59138855D01*
X82470192Y-59138857D01*
X82297270Y-59215848D01*
X82297266Y-59215851D01*
X82242561Y-59255596D01*
X82176754Y-59279075D01*
X82108701Y-59263249D01*
X82060007Y-59213142D01*
X82046457Y-59169160D01*
X82035369Y-59070750D01*
X82035366Y-59070737D01*
X81975790Y-58900481D01*
X81975789Y-58900478D01*
X81948783Y-58857498D01*
X81919506Y-58810903D01*
X81901960Y-58750000D01*
X83775001Y-58750000D01*
X83775001Y-58798322D01*
X83785144Y-58897607D01*
X83838452Y-59058481D01*
X83838457Y-59058492D01*
X83927424Y-59202728D01*
X83927427Y-59202732D01*
X84047267Y-59322572D01*
X84047271Y-59322575D01*
X84191507Y-59411542D01*
X84191518Y-59411547D01*
X84352393Y-59464855D01*
X84451683Y-59474999D01*
X84475000Y-59474998D01*
X84475000Y-58750000D01*
X83775001Y-58750000D01*
X81901960Y-58750000D01*
X81900500Y-58744931D01*
X81900500Y-58585502D01*
X81902268Y-58569489D01*
X81902026Y-58569467D01*
X81902758Y-58561711D01*
X81902760Y-58561704D01*
X81900500Y-58489796D01*
X81900500Y-58459075D01*
X81899579Y-58451788D01*
X81899122Y-58445979D01*
X81898558Y-58428023D01*
X81897597Y-58397431D01*
X81891676Y-58377053D01*
X81887731Y-58358004D01*
X81885071Y-58336942D01*
X81867185Y-58291769D01*
X81865296Y-58286249D01*
X81858223Y-58261903D01*
X81851744Y-58239602D01*
X81849000Y-58234963D01*
X81840940Y-58221334D01*
X81832378Y-58203856D01*
X81824568Y-58184129D01*
X81824565Y-58184125D01*
X81808854Y-58162500D01*
X81796014Y-58144827D01*
X81792811Y-58139951D01*
X81792327Y-58139132D01*
X81768081Y-58098135D01*
X81768079Y-58098133D01*
X81768078Y-58098131D01*
X81753075Y-58083129D01*
X81740435Y-58068330D01*
X81727961Y-58051160D01*
X81690528Y-58020194D01*
X81686206Y-58016260D01*
X81207127Y-57537181D01*
X81173642Y-57475858D01*
X81178626Y-57406166D01*
X81220498Y-57350233D01*
X81285962Y-57325816D01*
X81294808Y-57325500D01*
X81433481Y-57325500D01*
X81500520Y-57345185D01*
X81521157Y-57361814D01*
X81589815Y-57430472D01*
X81735394Y-57518478D01*
X81897804Y-57569086D01*
X81968384Y-57575500D01*
X81968387Y-57575500D01*
X82631613Y-57575500D01*
X82631616Y-57575500D01*
X82702196Y-57569086D01*
X82864606Y-57518478D01*
X83010185Y-57430472D01*
X83130472Y-57310185D01*
X83218478Y-57164606D01*
X83269086Y-57002196D01*
X83275500Y-56931616D01*
X83275500Y-56418384D01*
X83269086Y-56347804D01*
X83218478Y-56185394D01*
X83130472Y-56039815D01*
X83130470Y-56039813D01*
X83130469Y-56039811D01*
X83028339Y-55937681D01*
X82994854Y-55876358D01*
X82999838Y-55806666D01*
X83028339Y-55762319D01*
X83130468Y-55660189D01*
X83130469Y-55660188D01*
X83130472Y-55660185D01*
X83218478Y-55514606D01*
X83269086Y-55352196D01*
X83275500Y-55281616D01*
X83275500Y-54774499D01*
X83295185Y-54707461D01*
X83347989Y-54661706D01*
X83399500Y-54650500D01*
X83650500Y-54650500D01*
X83717539Y-54670185D01*
G37*
G04 #@! TD.AperFunction*
G04 #@! TA.AperFunction,Conductor*
G36*
X79592539Y-56269685D02*
G01*
X79638294Y-56322489D01*
X79649500Y-56374000D01*
X79649500Y-57147870D01*
X79649501Y-57147876D01*
X79655908Y-57207483D01*
X79704216Y-57337001D01*
X79706204Y-57342331D01*
X79720793Y-57361819D01*
X79725266Y-57367794D01*
X79749684Y-57433258D01*
X79750000Y-57442106D01*
X79750000Y-57600000D01*
X79762814Y-57612814D01*
X79796299Y-57674137D01*
X79799072Y-57696593D01*
X79799500Y-57710199D01*
X79799500Y-57740920D01*
X79799501Y-57740940D01*
X79800418Y-57748206D01*
X79800876Y-57754024D01*
X79802402Y-57802567D01*
X79802403Y-57802570D01*
X79808323Y-57822948D01*
X79812268Y-57841996D01*
X79814928Y-57863054D01*
X79814931Y-57863064D01*
X79832813Y-57908230D01*
X79834705Y-57913758D01*
X79848254Y-57960395D01*
X79848255Y-57960397D01*
X79859060Y-57978666D01*
X79867617Y-57996134D01*
X79872384Y-58008172D01*
X79875432Y-58015872D01*
X79903983Y-58055170D01*
X79907191Y-58060053D01*
X79929710Y-58098131D01*
X79931919Y-58101865D01*
X79931923Y-58101869D01*
X79946925Y-58116871D01*
X79959563Y-58131669D01*
X79972033Y-58148833D01*
X79972036Y-58148836D01*
X79972037Y-58148837D01*
X80009476Y-58179809D01*
X80013776Y-58183722D01*
X80276033Y-58445979D01*
X80533901Y-58703847D01*
X80567386Y-58765170D01*
X80562402Y-58834862D01*
X80551215Y-58857498D01*
X80524212Y-58900474D01*
X80524209Y-58900481D01*
X80469537Y-59056722D01*
X80428815Y-59113498D01*
X80363862Y-59139245D01*
X80295301Y-59125788D01*
X80264815Y-59103448D01*
X79866238Y-58704871D01*
X79336819Y-58175451D01*
X79303334Y-58114128D01*
X79300500Y-58087770D01*
X79300500Y-57346728D01*
X79308318Y-57303394D01*
X79309330Y-57300681D01*
X79344091Y-57207483D01*
X79350500Y-57147873D01*
X79350499Y-56373998D01*
X79370183Y-56306961D01*
X79422987Y-56261206D01*
X79474499Y-56250000D01*
X79525500Y-56250000D01*
X79592539Y-56269685D01*
G37*
G04 #@! TD.AperFunction*
G04 #@! TA.AperFunction,Conductor*
G36*
X91302127Y-54262000D02*
G01*
X91481838Y-54261999D01*
X91548877Y-54281683D01*
X91594632Y-54334487D01*
X91605159Y-54398959D01*
X91604136Y-54408694D01*
X91594540Y-54500000D01*
X91614326Y-54688256D01*
X91614327Y-54688259D01*
X91672818Y-54868277D01*
X91672821Y-54868284D01*
X91767466Y-55032215D01*
X91817649Y-55087948D01*
X91847880Y-55150940D01*
X91849500Y-55170921D01*
X91849500Y-55929191D01*
X91829815Y-55996230D01*
X91813181Y-56016872D01*
X91004873Y-56825181D01*
X90943550Y-56858666D01*
X90917192Y-56861500D01*
X90371744Y-56861500D01*
X90304705Y-56841815D01*
X90258950Y-56789011D01*
X90248454Y-56724247D01*
X90250000Y-56709873D01*
X90249999Y-56314128D01*
X90249998Y-56314111D01*
X90245820Y-56275253D01*
X90245820Y-56248747D01*
X90250000Y-56209873D01*
X90249999Y-55814128D01*
X90245567Y-55772898D01*
X90245568Y-55746393D01*
X90249499Y-55709833D01*
X90249500Y-55709819D01*
X90249500Y-55695317D01*
X90269185Y-55628278D01*
X90308146Y-55591898D01*
X90307607Y-55591155D01*
X90313626Y-55586781D01*
X90313762Y-55586655D01*
X90313911Y-55586571D01*
X90313921Y-55586568D01*
X90353227Y-55558010D01*
X90358093Y-55554813D01*
X90399915Y-55530081D01*
X90414929Y-55515065D01*
X90429712Y-55502440D01*
X90446887Y-55489963D01*
X90461811Y-55471921D01*
X90464368Y-55469022D01*
X90467436Y-55465754D01*
X90467440Y-55465752D01*
X90516690Y-55413305D01*
X90538411Y-55391585D01*
X90542901Y-55385795D01*
X90546683Y-55381365D01*
X90579948Y-55345943D01*
X90590174Y-55327340D01*
X90600853Y-55311083D01*
X90613862Y-55294314D01*
X90633156Y-55249725D01*
X90635712Y-55244506D01*
X90659127Y-55201918D01*
X90664405Y-55181356D01*
X90670707Y-55162949D01*
X90679135Y-55143477D01*
X90686733Y-55095503D01*
X90687914Y-55089797D01*
X90700000Y-55042727D01*
X90700000Y-55021498D01*
X90701527Y-55002099D01*
X90704846Y-54981145D01*
X90700275Y-54932788D01*
X90700000Y-54926950D01*
X90700000Y-54385999D01*
X90719685Y-54318960D01*
X90772489Y-54273205D01*
X90823995Y-54261999D01*
X91197872Y-54261999D01*
X91197885Y-54261998D01*
X91236744Y-54257820D01*
X91263252Y-54257820D01*
X91302127Y-54262000D01*
G37*
G04 #@! TD.AperFunction*
G04 #@! TA.AperFunction,Conductor*
G36*
X85237512Y-48289507D02*
G01*
X85290315Y-48335262D01*
X85310000Y-48402301D01*
X85310000Y-49120633D01*
X85523483Y-49063433D01*
X85523492Y-49063429D01*
X85737578Y-48963600D01*
X85931082Y-48828105D01*
X86098105Y-48661082D01*
X86228119Y-48475405D01*
X86282696Y-48431781D01*
X86352195Y-48424588D01*
X86414549Y-48456110D01*
X86431269Y-48475405D01*
X86561505Y-48661401D01*
X86728599Y-48828495D01*
X86825384Y-48896265D01*
X86922165Y-48964032D01*
X86922167Y-48964033D01*
X86922170Y-48964035D01*
X87136337Y-49063903D01*
X87364592Y-49125063D01*
X87541034Y-49140500D01*
X87599999Y-49145659D01*
X87600000Y-49145659D01*
X87600001Y-49145659D01*
X87639234Y-49142226D01*
X87835408Y-49125063D01*
X88063663Y-49063903D01*
X88277830Y-48964035D01*
X88471401Y-48828495D01*
X88638495Y-48661401D01*
X88768426Y-48475840D01*
X88823001Y-48432217D01*
X88892499Y-48425023D01*
X88954854Y-48456546D01*
X88971574Y-48475841D01*
X89101505Y-48661401D01*
X89268599Y-48828495D01*
X89365384Y-48896265D01*
X89462165Y-48964032D01*
X89462167Y-48964033D01*
X89462170Y-48964035D01*
X89676337Y-49063903D01*
X89904592Y-49125063D01*
X90081034Y-49140500D01*
X90139999Y-49145659D01*
X90140000Y-49145659D01*
X90140001Y-49145659D01*
X90179234Y-49142226D01*
X90375408Y-49125063D01*
X90378613Y-49124204D01*
X90380079Y-49124238D01*
X90380742Y-49124122D01*
X90380765Y-49124255D01*
X90448462Y-49125861D01*
X90506328Y-49165019D01*
X90533837Y-49229245D01*
X90522256Y-49298148D01*
X90498396Y-49331657D01*
X88612484Y-51217568D01*
X88599910Y-51227643D01*
X88600065Y-51227830D01*
X88594059Y-51232798D01*
X88569434Y-51259020D01*
X88544809Y-51285244D01*
X88533948Y-51296104D01*
X88523088Y-51306965D01*
X88523078Y-51306977D01*
X88518587Y-51312765D01*
X88514801Y-51317197D01*
X88481552Y-51352606D01*
X88471322Y-51371213D01*
X88460646Y-51387464D01*
X88447640Y-51404232D01*
X88447636Y-51404238D01*
X88428348Y-51448811D01*
X88425777Y-51454058D01*
X88402372Y-51496630D01*
X88402372Y-51496631D01*
X88397091Y-51517199D01*
X88390791Y-51535601D01*
X88382364Y-51555073D01*
X88374766Y-51603047D01*
X88373581Y-51608770D01*
X88361500Y-51655818D01*
X88361500Y-51677044D01*
X88359973Y-51696444D01*
X88356653Y-51717403D01*
X88361225Y-51765767D01*
X88361500Y-51771606D01*
X88361500Y-53737500D01*
X88341815Y-53804539D01*
X88289011Y-53850294D01*
X88237509Y-53861500D01*
X88226634Y-53861500D01*
X88226623Y-53861501D01*
X88167018Y-53867908D01*
X88118583Y-53885973D01*
X88048891Y-53890956D01*
X88009269Y-53872119D01*
X88008158Y-53873889D01*
X87998639Y-53867908D01*
X87873076Y-53789011D01*
X87849521Y-53774210D01*
X87679255Y-53714632D01*
X87679246Y-53714630D01*
X87672012Y-53713815D01*
X87607600Y-53686744D01*
X87598223Y-53678277D01*
X87520434Y-53600488D01*
X87510361Y-53587914D01*
X87510174Y-53588070D01*
X87505201Y-53582059D01*
X87452756Y-53532810D01*
X87431035Y-53511089D01*
X87425240Y-53506594D01*
X87420798Y-53502799D01*
X87385396Y-53469554D01*
X87385388Y-53469548D01*
X87366792Y-53459325D01*
X87350531Y-53448644D01*
X87333763Y-53435637D01*
X87310295Y-53425482D01*
X87289178Y-53416343D01*
X87283956Y-53413786D01*
X87241368Y-53390373D01*
X87241365Y-53390372D01*
X87220801Y-53385092D01*
X87202396Y-53378790D01*
X87182927Y-53370365D01*
X87182921Y-53370363D01*
X87134951Y-53362766D01*
X87129236Y-53361582D01*
X87112772Y-53357355D01*
X87082180Y-53349500D01*
X87082177Y-53349500D01*
X87060955Y-53349500D01*
X87041555Y-53347973D01*
X87020596Y-53344653D01*
X87020595Y-53344653D01*
X86996786Y-53346903D01*
X86972230Y-53349225D01*
X86966392Y-53349500D01*
X81351440Y-53349500D01*
X81284401Y-53329815D01*
X81238646Y-53277011D01*
X81235258Y-53268833D01*
X81193797Y-53157671D01*
X81193793Y-53157664D01*
X81107547Y-53042455D01*
X81107544Y-53042452D01*
X80992335Y-52956206D01*
X80992328Y-52956202D01*
X80857482Y-52905908D01*
X80857483Y-52905908D01*
X80797883Y-52899501D01*
X80797881Y-52899500D01*
X80797873Y-52899500D01*
X80797865Y-52899500D01*
X80374500Y-52899500D01*
X80307461Y-52879815D01*
X80261706Y-52827011D01*
X80250500Y-52775500D01*
X80250500Y-50910193D01*
X80270185Y-50843154D01*
X80322989Y-50797399D01*
X80324064Y-50796914D01*
X80352730Y-50784151D01*
X80505871Y-50672888D01*
X80632533Y-50532216D01*
X80727179Y-50368284D01*
X80785674Y-50188256D01*
X80805460Y-50000000D01*
X80785674Y-49811744D01*
X80727179Y-49631716D01*
X80632533Y-49467784D01*
X80505871Y-49327112D01*
X80431202Y-49272862D01*
X80388537Y-49217532D01*
X80382558Y-49147918D01*
X80415164Y-49086123D01*
X80451680Y-49060164D01*
X80657830Y-48964035D01*
X80851401Y-48828495D01*
X81018495Y-48661401D01*
X81148426Y-48475840D01*
X81203001Y-48432217D01*
X81272499Y-48425023D01*
X81334854Y-48456546D01*
X81351574Y-48475841D01*
X81481505Y-48661401D01*
X81648599Y-48828495D01*
X81745384Y-48896264D01*
X81842165Y-48964032D01*
X81842167Y-48964033D01*
X81842170Y-48964035D01*
X82056337Y-49063903D01*
X82284592Y-49125063D01*
X82461034Y-49140500D01*
X82519999Y-49145659D01*
X82520000Y-49145659D01*
X82520001Y-49145659D01*
X82559234Y-49142226D01*
X82755408Y-49125063D01*
X82983663Y-49063903D01*
X83197830Y-48964035D01*
X83391401Y-48828495D01*
X83558495Y-48661401D01*
X83688730Y-48475405D01*
X83743307Y-48431781D01*
X83812805Y-48424587D01*
X83875160Y-48456110D01*
X83891879Y-48475405D01*
X84021890Y-48661078D01*
X84188917Y-48828105D01*
X84382421Y-48963600D01*
X84596507Y-49063429D01*
X84596516Y-49063433D01*
X84810000Y-49120634D01*
X84810000Y-48402301D01*
X84829685Y-48335262D01*
X84882489Y-48289507D01*
X84951647Y-48279563D01*
X85024237Y-48290000D01*
X85024238Y-48290000D01*
X85095762Y-48290000D01*
X85095763Y-48290000D01*
X85168353Y-48279563D01*
X85237512Y-48289507D01*
G37*
G04 #@! TD.AperFunction*
G04 #@! TA.AperFunction,Conductor*
G36*
X106734855Y-45916546D02*
G01*
X106751575Y-45935842D01*
X106881501Y-46121396D01*
X106881506Y-46121402D01*
X107048597Y-46288493D01*
X107048603Y-46288498D01*
X107234158Y-46418425D01*
X107277783Y-46473002D01*
X107284977Y-46542500D01*
X107253454Y-46604855D01*
X107234158Y-46621575D01*
X107048597Y-46751505D01*
X106881508Y-46918594D01*
X106751269Y-47104595D01*
X106696692Y-47148219D01*
X106627193Y-47155412D01*
X106564839Y-47123890D01*
X106548119Y-47104594D01*
X106418113Y-46918926D01*
X106418108Y-46918920D01*
X106251078Y-46751890D01*
X106065405Y-46621879D01*
X106021780Y-46567302D01*
X106014588Y-46497804D01*
X106046110Y-46435449D01*
X106065406Y-46418730D01*
X106066279Y-46418119D01*
X106251401Y-46288495D01*
X106418495Y-46121401D01*
X106532891Y-45958026D01*
X106548425Y-45935842D01*
X106603002Y-45892217D01*
X106672500Y-45885023D01*
X106734855Y-45916546D01*
G37*
G04 #@! TD.AperFunction*
G04 #@! TA.AperFunction,Conductor*
G36*
X121974855Y-45916546D02*
G01*
X121991575Y-45935842D01*
X122121500Y-46121395D01*
X122121505Y-46121401D01*
X122288599Y-46288495D01*
X122455439Y-46405318D01*
X122474594Y-46418730D01*
X122518219Y-46473307D01*
X122525413Y-46542805D01*
X122493890Y-46605160D01*
X122474595Y-46621880D01*
X122288922Y-46751890D01*
X122288920Y-46751891D01*
X122121891Y-46918920D01*
X122121890Y-46918922D01*
X121991880Y-47104595D01*
X121937303Y-47148219D01*
X121867804Y-47155412D01*
X121805450Y-47123890D01*
X121788730Y-47104594D01*
X121658494Y-46918597D01*
X121491402Y-46751506D01*
X121491396Y-46751501D01*
X121305842Y-46621575D01*
X121262217Y-46566998D01*
X121255023Y-46497500D01*
X121286546Y-46435145D01*
X121305842Y-46418425D01*
X121418054Y-46339853D01*
X121491401Y-46288495D01*
X121658495Y-46121401D01*
X121772891Y-45958026D01*
X121788425Y-45935842D01*
X121843002Y-45892217D01*
X121912500Y-45885023D01*
X121974855Y-45916546D01*
G37*
G04 #@! TD.AperFunction*
G04 #@! TA.AperFunction,Conductor*
G36*
X109275160Y-45916110D02*
G01*
X109291879Y-45935405D01*
X109421890Y-46121078D01*
X109588917Y-46288105D01*
X109774595Y-46418119D01*
X109818219Y-46472696D01*
X109825412Y-46542195D01*
X109793890Y-46604549D01*
X109774595Y-46621269D01*
X109588594Y-46751508D01*
X109421508Y-46918594D01*
X109291574Y-47104160D01*
X109236997Y-47147784D01*
X109167498Y-47154977D01*
X109105144Y-47123455D01*
X109088429Y-47104164D01*
X108958495Y-46918599D01*
X108958493Y-46918596D01*
X108791402Y-46751506D01*
X108791396Y-46751501D01*
X108605842Y-46621575D01*
X108562217Y-46566998D01*
X108555023Y-46497500D01*
X108586546Y-46435145D01*
X108605842Y-46418425D01*
X108718054Y-46339853D01*
X108791401Y-46288495D01*
X108958495Y-46121401D01*
X109088730Y-45935405D01*
X109143307Y-45891781D01*
X109212805Y-45884587D01*
X109275160Y-45916110D01*
G37*
G04 #@! TD.AperFunction*
G04 #@! TA.AperFunction,Conductor*
G36*
X116894549Y-45916110D02*
G01*
X116911269Y-45935405D01*
X117041505Y-46121401D01*
X117041506Y-46121402D01*
X117208597Y-46288493D01*
X117208603Y-46288498D01*
X117394158Y-46418425D01*
X117437783Y-46473002D01*
X117444977Y-46542500D01*
X117413454Y-46604855D01*
X117394158Y-46621575D01*
X117208597Y-46751505D01*
X117041505Y-46918597D01*
X116911575Y-47104158D01*
X116856998Y-47147783D01*
X116787500Y-47154977D01*
X116725145Y-47123454D01*
X116708425Y-47104158D01*
X116578494Y-46918597D01*
X116411402Y-46751506D01*
X116411401Y-46751505D01*
X116243844Y-46634180D01*
X116225405Y-46621269D01*
X116181781Y-46566692D01*
X116174588Y-46497193D01*
X116206110Y-46434839D01*
X116225405Y-46418119D01*
X116411082Y-46288105D01*
X116578105Y-46121082D01*
X116708119Y-45935405D01*
X116762696Y-45891781D01*
X116832195Y-45884588D01*
X116894549Y-45916110D01*
G37*
G04 #@! TD.AperFunction*
G04 #@! TA.AperFunction,Conductor*
G36*
X119434854Y-45916546D02*
G01*
X119451574Y-45935841D01*
X119496321Y-45999746D01*
X119581505Y-46121401D01*
X119581506Y-46121402D01*
X119748597Y-46288493D01*
X119748603Y-46288498D01*
X119934158Y-46418425D01*
X119977783Y-46473002D01*
X119984977Y-46542500D01*
X119953454Y-46604855D01*
X119934158Y-46621575D01*
X119748597Y-46751505D01*
X119581508Y-46918594D01*
X119451574Y-47104160D01*
X119396997Y-47147784D01*
X119327498Y-47154977D01*
X119265144Y-47123455D01*
X119248429Y-47104164D01*
X119118495Y-46918599D01*
X119118493Y-46918596D01*
X118951402Y-46751506D01*
X118951396Y-46751501D01*
X118765842Y-46621575D01*
X118722217Y-46566998D01*
X118715023Y-46497500D01*
X118746546Y-46435145D01*
X118765842Y-46418425D01*
X118878054Y-46339853D01*
X118951401Y-46288495D01*
X119118495Y-46121401D01*
X119248426Y-45935840D01*
X119303001Y-45892217D01*
X119372499Y-45885023D01*
X119434854Y-45916546D01*
G37*
G04 #@! TD.AperFunction*
G04 #@! TA.AperFunction,Conductor*
G36*
X125867015Y-43520185D02*
G01*
X125912770Y-43572989D01*
X125922714Y-43642147D01*
X125893689Y-43705703D01*
X125878012Y-43720866D01*
X125658047Y-43898989D01*
X125658039Y-43898996D01*
X125398996Y-44158039D01*
X125398989Y-44158047D01*
X125168437Y-44442756D01*
X125168435Y-44442758D01*
X124968913Y-44749995D01*
X124802594Y-45076415D01*
X124749029Y-45215954D01*
X124706626Y-45271486D01*
X124640932Y-45295278D01*
X124572804Y-45279776D01*
X124523871Y-45229902D01*
X124509738Y-45182325D01*
X124495063Y-45014592D01*
X124433903Y-44786337D01*
X124334035Y-44572171D01*
X124328731Y-44564595D01*
X124198494Y-44378597D01*
X124031402Y-44211506D01*
X124031395Y-44211501D01*
X123837834Y-44075967D01*
X123837830Y-44075965D01*
X123837830Y-44075964D01*
X123623663Y-43976097D01*
X123623659Y-43976096D01*
X123623655Y-43976094D01*
X123395413Y-43914938D01*
X123395403Y-43914936D01*
X123160001Y-43894341D01*
X123159999Y-43894341D01*
X122924596Y-43914936D01*
X122924586Y-43914938D01*
X122696344Y-43976094D01*
X122696335Y-43976098D01*
X122482171Y-44075964D01*
X122482169Y-44075965D01*
X122288597Y-44211505D01*
X122121505Y-44378597D01*
X121991575Y-44564158D01*
X121936998Y-44607783D01*
X121867500Y-44614977D01*
X121805145Y-44583454D01*
X121788425Y-44564158D01*
X121658494Y-44378597D01*
X121491402Y-44211506D01*
X121491395Y-44211501D01*
X121297834Y-44075967D01*
X121297830Y-44075965D01*
X121297829Y-44075964D01*
X121083663Y-43976097D01*
X121083659Y-43976096D01*
X121083655Y-43976094D01*
X120855413Y-43914938D01*
X120855403Y-43914936D01*
X120620001Y-43894341D01*
X120619999Y-43894341D01*
X120384596Y-43914936D01*
X120384586Y-43914938D01*
X120156344Y-43976094D01*
X120156335Y-43976098D01*
X119942171Y-44075964D01*
X119942169Y-44075965D01*
X119748597Y-44211505D01*
X119581508Y-44378594D01*
X119451574Y-44564160D01*
X119396997Y-44607784D01*
X119327498Y-44614977D01*
X119265144Y-44583455D01*
X119248429Y-44564164D01*
X119118495Y-44378599D01*
X119118493Y-44378596D01*
X118951402Y-44211506D01*
X118951395Y-44211501D01*
X118757834Y-44075967D01*
X118757830Y-44075965D01*
X118757829Y-44075964D01*
X118543663Y-43976097D01*
X118543659Y-43976096D01*
X118543655Y-43976094D01*
X118315413Y-43914938D01*
X118315403Y-43914936D01*
X118080001Y-43894341D01*
X118079999Y-43894341D01*
X117844596Y-43914936D01*
X117844586Y-43914938D01*
X117616344Y-43976094D01*
X117616335Y-43976098D01*
X117402171Y-44075964D01*
X117402169Y-44075965D01*
X117208597Y-44211505D01*
X117041508Y-44378594D01*
X116911269Y-44564595D01*
X116856692Y-44608219D01*
X116787193Y-44615412D01*
X116724839Y-44583890D01*
X116708119Y-44564594D01*
X116578113Y-44378926D01*
X116578108Y-44378920D01*
X116411082Y-44211894D01*
X116217578Y-44076399D01*
X116003492Y-43976570D01*
X116003486Y-43976567D01*
X115790000Y-43919364D01*
X115790000Y-44637698D01*
X115770315Y-44704737D01*
X115717511Y-44750492D01*
X115648355Y-44760436D01*
X115575766Y-44750000D01*
X115575763Y-44750000D01*
X115504237Y-44750000D01*
X115504233Y-44750000D01*
X115431645Y-44760436D01*
X115362487Y-44750492D01*
X115309684Y-44704736D01*
X115290000Y-44637698D01*
X115290000Y-43919364D01*
X115289999Y-43919364D01*
X115076513Y-43976567D01*
X115076507Y-43976570D01*
X114862422Y-44076399D01*
X114862420Y-44076400D01*
X114668926Y-44211886D01*
X114668920Y-44211891D01*
X114501891Y-44378920D01*
X114501890Y-44378922D01*
X114371880Y-44564595D01*
X114317303Y-44608219D01*
X114247804Y-44615412D01*
X114185450Y-44583890D01*
X114168730Y-44564594D01*
X114038494Y-44378597D01*
X113871402Y-44211506D01*
X113871395Y-44211501D01*
X113677834Y-44075967D01*
X113677830Y-44075965D01*
X113677829Y-44075964D01*
X113463663Y-43976097D01*
X113463659Y-43976096D01*
X113463655Y-43976094D01*
X113235413Y-43914938D01*
X113235403Y-43914936D01*
X113000001Y-43894341D01*
X112999999Y-43894341D01*
X112764596Y-43914936D01*
X112764586Y-43914938D01*
X112536344Y-43976094D01*
X112536335Y-43976098D01*
X112322171Y-44075964D01*
X112322169Y-44075965D01*
X112128597Y-44211505D01*
X111961508Y-44378594D01*
X111831269Y-44564595D01*
X111776692Y-44608219D01*
X111707193Y-44615412D01*
X111644839Y-44583890D01*
X111628119Y-44564594D01*
X111498113Y-44378926D01*
X111498108Y-44378920D01*
X111331082Y-44211894D01*
X111137578Y-44076399D01*
X110923492Y-43976570D01*
X110923486Y-43976567D01*
X110710000Y-43919364D01*
X110709999Y-43919364D01*
X110709999Y-44637698D01*
X110690314Y-44704738D01*
X110637510Y-44750492D01*
X110568353Y-44760436D01*
X110495764Y-44750000D01*
X110495763Y-44750000D01*
X110424237Y-44750000D01*
X110424233Y-44750000D01*
X110351645Y-44760436D01*
X110282487Y-44750492D01*
X110229684Y-44704736D01*
X110210000Y-44637698D01*
X110210000Y-43919364D01*
X110209999Y-43919364D01*
X109996513Y-43976567D01*
X109996507Y-43976570D01*
X109782422Y-44076399D01*
X109782420Y-44076400D01*
X109588926Y-44211886D01*
X109588920Y-44211891D01*
X109421891Y-44378920D01*
X109421890Y-44378922D01*
X109291880Y-44564595D01*
X109237303Y-44608219D01*
X109167804Y-44615412D01*
X109105450Y-44583890D01*
X109088730Y-44564594D01*
X108958494Y-44378597D01*
X108791402Y-44211506D01*
X108791395Y-44211501D01*
X108597834Y-44075967D01*
X108597830Y-44075965D01*
X108597828Y-44075964D01*
X108383663Y-43976097D01*
X108383659Y-43976096D01*
X108383655Y-43976094D01*
X108155413Y-43914938D01*
X108155403Y-43914936D01*
X107920001Y-43894341D01*
X107919999Y-43894341D01*
X107684596Y-43914936D01*
X107684586Y-43914938D01*
X107456344Y-43976094D01*
X107456335Y-43976098D01*
X107242171Y-44075964D01*
X107242169Y-44075965D01*
X107048597Y-44211505D01*
X106881505Y-44378597D01*
X106751575Y-44564158D01*
X106696998Y-44607783D01*
X106627500Y-44614977D01*
X106565145Y-44583454D01*
X106548425Y-44564158D01*
X106418494Y-44378597D01*
X106251402Y-44211506D01*
X106251395Y-44211501D01*
X106057834Y-44075967D01*
X106057830Y-44075965D01*
X106057828Y-44075964D01*
X105843663Y-43976097D01*
X105843659Y-43976096D01*
X105843655Y-43976094D01*
X105615413Y-43914938D01*
X105615403Y-43914936D01*
X105380001Y-43894341D01*
X105379999Y-43894341D01*
X105144596Y-43914936D01*
X105144586Y-43914938D01*
X104916344Y-43976094D01*
X104916335Y-43976098D01*
X104702171Y-44075964D01*
X104702169Y-44075965D01*
X104508597Y-44211505D01*
X104341505Y-44378597D01*
X104211575Y-44564158D01*
X104156998Y-44607783D01*
X104087500Y-44614977D01*
X104025145Y-44583454D01*
X104008425Y-44564158D01*
X103878494Y-44378597D01*
X103711402Y-44211506D01*
X103711395Y-44211501D01*
X103517834Y-44075967D01*
X103517830Y-44075965D01*
X103517828Y-44075964D01*
X103303663Y-43976097D01*
X103303659Y-43976096D01*
X103303655Y-43976094D01*
X103075413Y-43914938D01*
X103075403Y-43914936D01*
X102840001Y-43894341D01*
X102839999Y-43894341D01*
X102604596Y-43914936D01*
X102604586Y-43914938D01*
X102376344Y-43976094D01*
X102376335Y-43976098D01*
X102162171Y-44075964D01*
X102162169Y-44075965D01*
X101968597Y-44211505D01*
X101801508Y-44378594D01*
X101671574Y-44564159D01*
X101616997Y-44607784D01*
X101547498Y-44614976D01*
X101485144Y-44583454D01*
X101468424Y-44564158D01*
X101338494Y-44378597D01*
X101171402Y-44211506D01*
X101171395Y-44211501D01*
X100977834Y-44075967D01*
X100977830Y-44075965D01*
X100977828Y-44075964D01*
X100763663Y-43976097D01*
X100763659Y-43976096D01*
X100763655Y-43976094D01*
X100535413Y-43914938D01*
X100535403Y-43914936D01*
X100300001Y-43894341D01*
X100299999Y-43894341D01*
X100064596Y-43914936D01*
X100064586Y-43914938D01*
X99836344Y-43976094D01*
X99836335Y-43976098D01*
X99622171Y-44075964D01*
X99622169Y-44075965D01*
X99428597Y-44211505D01*
X99261508Y-44378594D01*
X99131269Y-44564595D01*
X99076692Y-44608219D01*
X99007193Y-44615412D01*
X98944839Y-44583890D01*
X98928119Y-44564594D01*
X98798113Y-44378926D01*
X98798108Y-44378920D01*
X98631082Y-44211894D01*
X98437578Y-44076399D01*
X98223492Y-43976570D01*
X98223486Y-43976567D01*
X98010000Y-43919364D01*
X98010000Y-44637698D01*
X97990315Y-44704737D01*
X97937511Y-44750492D01*
X97868355Y-44760436D01*
X97795766Y-44750000D01*
X97795763Y-44750000D01*
X97724237Y-44750000D01*
X97724233Y-44750000D01*
X97651645Y-44760436D01*
X97582487Y-44750492D01*
X97529684Y-44704736D01*
X97510000Y-44637698D01*
X97510000Y-43919364D01*
X97509999Y-43919364D01*
X97296513Y-43976567D01*
X97296507Y-43976570D01*
X97082422Y-44076399D01*
X97082420Y-44076400D01*
X96888926Y-44211886D01*
X96888920Y-44211891D01*
X96721891Y-44378920D01*
X96721890Y-44378922D01*
X96591880Y-44564595D01*
X96537303Y-44608219D01*
X96467804Y-44615412D01*
X96405450Y-44583890D01*
X96388730Y-44564594D01*
X96258494Y-44378597D01*
X96091402Y-44211506D01*
X96091395Y-44211501D01*
X95897834Y-44075967D01*
X95897830Y-44075965D01*
X95897828Y-44075964D01*
X95683663Y-43976097D01*
X95683659Y-43976096D01*
X95683655Y-43976094D01*
X95455413Y-43914938D01*
X95455403Y-43914936D01*
X95220001Y-43894341D01*
X95219999Y-43894341D01*
X94984596Y-43914936D01*
X94984586Y-43914938D01*
X94756344Y-43976094D01*
X94756335Y-43976098D01*
X94542171Y-44075964D01*
X94542169Y-44075965D01*
X94348597Y-44211505D01*
X94181505Y-44378597D01*
X94051575Y-44564158D01*
X93996998Y-44607783D01*
X93927500Y-44614977D01*
X93865145Y-44583454D01*
X93848425Y-44564158D01*
X93718494Y-44378597D01*
X93551402Y-44211506D01*
X93551395Y-44211501D01*
X93357834Y-44075967D01*
X93357830Y-44075965D01*
X93357828Y-44075964D01*
X93143663Y-43976097D01*
X93143659Y-43976096D01*
X93143655Y-43976094D01*
X92915413Y-43914938D01*
X92915403Y-43914936D01*
X92680001Y-43894341D01*
X92679999Y-43894341D01*
X92444596Y-43914936D01*
X92444586Y-43914938D01*
X92216344Y-43976094D01*
X92216335Y-43976098D01*
X92002171Y-44075964D01*
X92002169Y-44075965D01*
X91808597Y-44211505D01*
X91641508Y-44378594D01*
X91511269Y-44564595D01*
X91456692Y-44608219D01*
X91387193Y-44615412D01*
X91324839Y-44583890D01*
X91308119Y-44564594D01*
X91178113Y-44378926D01*
X91178108Y-44378920D01*
X91011082Y-44211894D01*
X90817578Y-44076399D01*
X90603492Y-43976570D01*
X90603486Y-43976567D01*
X90390000Y-43919364D01*
X90389999Y-43919364D01*
X90389999Y-44637698D01*
X90370314Y-44704738D01*
X90317510Y-44750492D01*
X90248353Y-44760436D01*
X90175764Y-44750000D01*
X90175763Y-44750000D01*
X90104237Y-44750000D01*
X90104233Y-44750000D01*
X90031645Y-44760436D01*
X89962487Y-44750492D01*
X89909684Y-44704736D01*
X89890000Y-44637698D01*
X89890000Y-43919364D01*
X89889999Y-43919364D01*
X89676513Y-43976567D01*
X89676507Y-43976570D01*
X89462422Y-44076399D01*
X89462420Y-44076400D01*
X89268926Y-44211886D01*
X89268920Y-44211891D01*
X89101891Y-44378920D01*
X89101890Y-44378922D01*
X88971880Y-44564595D01*
X88917303Y-44608219D01*
X88847804Y-44615412D01*
X88785450Y-44583890D01*
X88768730Y-44564594D01*
X88638494Y-44378597D01*
X88471402Y-44211506D01*
X88471395Y-44211501D01*
X88277834Y-44075967D01*
X88277830Y-44075965D01*
X88277828Y-44075964D01*
X88063663Y-43976097D01*
X88063659Y-43976096D01*
X88063655Y-43976094D01*
X87835413Y-43914938D01*
X87835403Y-43914936D01*
X87600001Y-43894341D01*
X87599999Y-43894341D01*
X87364596Y-43914936D01*
X87364586Y-43914938D01*
X87136344Y-43976094D01*
X87136335Y-43976098D01*
X86922171Y-44075964D01*
X86922169Y-44075965D01*
X86728597Y-44211505D01*
X86561508Y-44378594D01*
X86431574Y-44564159D01*
X86376997Y-44607784D01*
X86307498Y-44614976D01*
X86245144Y-44583454D01*
X86228424Y-44564158D01*
X86098494Y-44378597D01*
X85931402Y-44211506D01*
X85931395Y-44211501D01*
X85737834Y-44075967D01*
X85737830Y-44075965D01*
X85737828Y-44075964D01*
X85523663Y-43976097D01*
X85523659Y-43976096D01*
X85523655Y-43976094D01*
X85295413Y-43914938D01*
X85295403Y-43914936D01*
X85060001Y-43894341D01*
X85059999Y-43894341D01*
X84824596Y-43914936D01*
X84824586Y-43914938D01*
X84596344Y-43976094D01*
X84596335Y-43976098D01*
X84382171Y-44075964D01*
X84382169Y-44075965D01*
X84188597Y-44211505D01*
X84021505Y-44378597D01*
X83891575Y-44564158D01*
X83836998Y-44607783D01*
X83767500Y-44614977D01*
X83705145Y-44583454D01*
X83688425Y-44564158D01*
X83558494Y-44378597D01*
X83391402Y-44211506D01*
X83391395Y-44211501D01*
X83197834Y-44075967D01*
X83197830Y-44075965D01*
X83197828Y-44075964D01*
X82983663Y-43976097D01*
X82983659Y-43976096D01*
X82983655Y-43976094D01*
X82755413Y-43914938D01*
X82755403Y-43914936D01*
X82520001Y-43894341D01*
X82519999Y-43894341D01*
X82284596Y-43914936D01*
X82284586Y-43914938D01*
X82056344Y-43976094D01*
X82056335Y-43976098D01*
X81842171Y-44075964D01*
X81842169Y-44075965D01*
X81648597Y-44211505D01*
X81481508Y-44378594D01*
X81351269Y-44564595D01*
X81296692Y-44608219D01*
X81227193Y-44615412D01*
X81164839Y-44583890D01*
X81148119Y-44564594D01*
X81018113Y-44378926D01*
X81018108Y-44378920D01*
X80851082Y-44211894D01*
X80657578Y-44076399D01*
X80443492Y-43976570D01*
X80443486Y-43976567D01*
X80230000Y-43919364D01*
X80230000Y-44637698D01*
X80210315Y-44704737D01*
X80157511Y-44750492D01*
X80088355Y-44760436D01*
X80015766Y-44750000D01*
X80015763Y-44750000D01*
X79944237Y-44750000D01*
X79944233Y-44750000D01*
X79871645Y-44760436D01*
X79802487Y-44750492D01*
X79749684Y-44704736D01*
X79730000Y-44637698D01*
X79730000Y-43919364D01*
X79729999Y-43919364D01*
X79516513Y-43976567D01*
X79516507Y-43976570D01*
X79302422Y-44076399D01*
X79302420Y-44076400D01*
X79108926Y-44211886D01*
X79108920Y-44211891D01*
X78941891Y-44378920D01*
X78941890Y-44378922D01*
X78811880Y-44564595D01*
X78757303Y-44608219D01*
X78687804Y-44615412D01*
X78625450Y-44583890D01*
X78608730Y-44564594D01*
X78478494Y-44378597D01*
X78311402Y-44211506D01*
X78311395Y-44211501D01*
X78117834Y-44075967D01*
X78117830Y-44075965D01*
X78117829Y-44075964D01*
X77903663Y-43976097D01*
X77903659Y-43976096D01*
X77903655Y-43976094D01*
X77675413Y-43914938D01*
X77675403Y-43914936D01*
X77440001Y-43894341D01*
X77439999Y-43894341D01*
X77204596Y-43914936D01*
X77204586Y-43914938D01*
X76976344Y-43976094D01*
X76976335Y-43976098D01*
X76762171Y-44075964D01*
X76762169Y-44075965D01*
X76568597Y-44211505D01*
X76401506Y-44378596D01*
X76353874Y-44446623D01*
X76299297Y-44490248D01*
X76252299Y-44499500D01*
X76087701Y-44499500D01*
X76020662Y-44479815D01*
X75986126Y-44446623D01*
X75938494Y-44378597D01*
X75771402Y-44211506D01*
X75771395Y-44211501D01*
X75577834Y-44075967D01*
X75577830Y-44075965D01*
X75577829Y-44075964D01*
X75363663Y-43976097D01*
X75363659Y-43976096D01*
X75363655Y-43976094D01*
X75135413Y-43914938D01*
X75135403Y-43914936D01*
X74900001Y-43894341D01*
X74899999Y-43894341D01*
X74664596Y-43914936D01*
X74664586Y-43914938D01*
X74436344Y-43976094D01*
X74436335Y-43976098D01*
X74222171Y-44075964D01*
X74222169Y-44075965D01*
X74028597Y-44211505D01*
X73861505Y-44378597D01*
X73725965Y-44572169D01*
X73725964Y-44572171D01*
X73626098Y-44786335D01*
X73626094Y-44786344D01*
X73564938Y-45014586D01*
X73564936Y-45014596D01*
X73544341Y-45249999D01*
X73544341Y-45250002D01*
X73550186Y-45316816D01*
X73536419Y-45385316D01*
X73487803Y-45435499D01*
X73419775Y-45451432D01*
X73353931Y-45428056D01*
X73311178Y-45372794D01*
X73310894Y-45372061D01*
X73291635Y-45321889D01*
X73197409Y-45076422D01*
X73031089Y-44750000D01*
X73031086Y-44749995D01*
X72831564Y-44442758D01*
X72831562Y-44442756D01*
X72779871Y-44378922D01*
X72601007Y-44158043D01*
X72341957Y-43898993D01*
X72121988Y-43720866D01*
X72082277Y-43663379D01*
X72079949Y-43593548D01*
X72115744Y-43533544D01*
X72178298Y-43502418D01*
X72200024Y-43500500D01*
X125799976Y-43500500D01*
X125867015Y-43520185D01*
G37*
G04 #@! TD.AperFunction*
M02*
