G04 #@! TF.GenerationSoftware,KiCad,Pcbnew,7.0.7*
G04 #@! TF.CreationDate,2023-11-12T02:44:02+01:00*
G04 #@! TF.ProjectId,max3421e-rpi-uhat,6d617833-3432-4316-952d-7270692d7568,1*
G04 #@! TF.SameCoordinates,Original*
G04 #@! TF.FileFunction,Legend,Top*
G04 #@! TF.FilePolarity,Positive*
%FSLAX46Y46*%
G04 Gerber Fmt 4.6, Leading zero omitted, Abs format (unit mm)*
G04 Created by KiCad (PCBNEW 7.0.7) date 2023-11-12 02:44:02*
%MOMM*%
%LPD*%
G01*
G04 APERTURE LIST*
%ADD10C,0.200000*%
%ADD11C,0.150000*%
%ADD12C,0.120000*%
%ADD13C,0.250000*%
G04 APERTURE END LIST*
D10*
X103274435Y-54777457D02*
X103131578Y-54706028D01*
X103131578Y-54706028D02*
X102917292Y-54706028D01*
X102917292Y-54706028D02*
X102703006Y-54777457D01*
X102703006Y-54777457D02*
X102560149Y-54920314D01*
X102560149Y-54920314D02*
X102488720Y-55063171D01*
X102488720Y-55063171D02*
X102417292Y-55348885D01*
X102417292Y-55348885D02*
X102417292Y-55563171D01*
X102417292Y-55563171D02*
X102488720Y-55848885D01*
X102488720Y-55848885D02*
X102560149Y-55991742D01*
X102560149Y-55991742D02*
X102703006Y-56134600D01*
X102703006Y-56134600D02*
X102917292Y-56206028D01*
X102917292Y-56206028D02*
X103060149Y-56206028D01*
X103060149Y-56206028D02*
X103274435Y-56134600D01*
X103274435Y-56134600D02*
X103345863Y-56063171D01*
X103345863Y-56063171D02*
X103345863Y-55563171D01*
X103345863Y-55563171D02*
X103060149Y-55563171D01*
X103988720Y-56206028D02*
X103988720Y-54706028D01*
X103988720Y-54706028D02*
X104560149Y-54706028D01*
X104560149Y-54706028D02*
X104703006Y-54777457D01*
X104703006Y-54777457D02*
X104774435Y-54848885D01*
X104774435Y-54848885D02*
X104845863Y-54991742D01*
X104845863Y-54991742D02*
X104845863Y-55206028D01*
X104845863Y-55206028D02*
X104774435Y-55348885D01*
X104774435Y-55348885D02*
X104703006Y-55420314D01*
X104703006Y-55420314D02*
X104560149Y-55491742D01*
X104560149Y-55491742D02*
X103988720Y-55491742D01*
X105774435Y-54706028D02*
X106060149Y-54706028D01*
X106060149Y-54706028D02*
X106203006Y-54777457D01*
X106203006Y-54777457D02*
X106345863Y-54920314D01*
X106345863Y-54920314D02*
X106417292Y-55206028D01*
X106417292Y-55206028D02*
X106417292Y-55706028D01*
X106417292Y-55706028D02*
X106345863Y-55991742D01*
X106345863Y-55991742D02*
X106203006Y-56134600D01*
X106203006Y-56134600D02*
X106060149Y-56206028D01*
X106060149Y-56206028D02*
X105774435Y-56206028D01*
X105774435Y-56206028D02*
X105631578Y-56134600D01*
X105631578Y-56134600D02*
X105488720Y-55991742D01*
X105488720Y-55991742D02*
X105417292Y-55706028D01*
X105417292Y-55706028D02*
X105417292Y-55206028D01*
X105417292Y-55206028D02*
X105488720Y-54920314D01*
X105488720Y-54920314D02*
X105631578Y-54777457D01*
X105631578Y-54777457D02*
X105774435Y-54706028D01*
X107060149Y-54706028D02*
X107060149Y-55920314D01*
X107060149Y-55920314D02*
X107131578Y-56063171D01*
X107131578Y-56063171D02*
X107203007Y-56134600D01*
X107203007Y-56134600D02*
X107345864Y-56206028D01*
X107345864Y-56206028D02*
X107631578Y-56206028D01*
X107631578Y-56206028D02*
X107774435Y-56134600D01*
X107774435Y-56134600D02*
X107845864Y-56063171D01*
X107845864Y-56063171D02*
X107917292Y-55920314D01*
X107917292Y-55920314D02*
X107917292Y-54706028D01*
X108417293Y-54706028D02*
X109274436Y-54706028D01*
X108845864Y-56206028D02*
X108845864Y-54706028D01*
X111345864Y-56706028D02*
X110988721Y-56706028D01*
X110988721Y-56706028D02*
X110988721Y-54563171D01*
X110988721Y-54563171D02*
X111345864Y-54563171D01*
X111774435Y-54706028D02*
X112774435Y-54706028D01*
X112774435Y-54706028D02*
X112131578Y-56206028D01*
X114488720Y-56063171D02*
X114560149Y-56134600D01*
X114560149Y-56134600D02*
X114488720Y-56206028D01*
X114488720Y-56206028D02*
X114417292Y-56134600D01*
X114417292Y-56134600D02*
X114488720Y-56063171D01*
X114488720Y-56063171D02*
X114488720Y-56206028D01*
X115203006Y-56063171D02*
X115274435Y-56134600D01*
X115274435Y-56134600D02*
X115203006Y-56206028D01*
X115203006Y-56206028D02*
X115131578Y-56134600D01*
X115131578Y-56134600D02*
X115203006Y-56063171D01*
X115203006Y-56063171D02*
X115203006Y-56206028D01*
X115917292Y-56063171D02*
X115988721Y-56134600D01*
X115988721Y-56134600D02*
X115917292Y-56206028D01*
X115917292Y-56206028D02*
X115845864Y-56134600D01*
X115845864Y-56134600D02*
X115917292Y-56063171D01*
X115917292Y-56063171D02*
X115917292Y-56206028D01*
X118560150Y-56206028D02*
X117703007Y-56206028D01*
X118131578Y-56206028D02*
X118131578Y-54706028D01*
X118131578Y-54706028D02*
X117988721Y-54920314D01*
X117988721Y-54920314D02*
X117845864Y-55063171D01*
X117845864Y-55063171D02*
X117703007Y-55134600D01*
X119060149Y-56706028D02*
X119417292Y-56706028D01*
X119417292Y-56706028D02*
X119417292Y-54563171D01*
X119417292Y-54563171D02*
X119060149Y-54563171D01*
X83074435Y-69977457D02*
X82931578Y-69906028D01*
X82931578Y-69906028D02*
X82717292Y-69906028D01*
X82717292Y-69906028D02*
X82503006Y-69977457D01*
X82503006Y-69977457D02*
X82360149Y-70120314D01*
X82360149Y-70120314D02*
X82288720Y-70263171D01*
X82288720Y-70263171D02*
X82217292Y-70548885D01*
X82217292Y-70548885D02*
X82217292Y-70763171D01*
X82217292Y-70763171D02*
X82288720Y-71048885D01*
X82288720Y-71048885D02*
X82360149Y-71191742D01*
X82360149Y-71191742D02*
X82503006Y-71334600D01*
X82503006Y-71334600D02*
X82717292Y-71406028D01*
X82717292Y-71406028D02*
X82860149Y-71406028D01*
X82860149Y-71406028D02*
X83074435Y-71334600D01*
X83074435Y-71334600D02*
X83145863Y-71263171D01*
X83145863Y-71263171D02*
X83145863Y-70763171D01*
X83145863Y-70763171D02*
X82860149Y-70763171D01*
X83788720Y-71406028D02*
X83788720Y-69906028D01*
X83788720Y-69906028D02*
X84360149Y-69906028D01*
X84360149Y-69906028D02*
X84503006Y-69977457D01*
X84503006Y-69977457D02*
X84574435Y-70048885D01*
X84574435Y-70048885D02*
X84645863Y-70191742D01*
X84645863Y-70191742D02*
X84645863Y-70406028D01*
X84645863Y-70406028D02*
X84574435Y-70548885D01*
X84574435Y-70548885D02*
X84503006Y-70620314D01*
X84503006Y-70620314D02*
X84360149Y-70691742D01*
X84360149Y-70691742D02*
X83788720Y-70691742D01*
X85288720Y-71406028D02*
X85288720Y-69906028D01*
X86003006Y-71406028D02*
X86003006Y-69906028D01*
X86003006Y-69906028D02*
X86860149Y-71406028D01*
X86860149Y-71406028D02*
X86860149Y-69906028D01*
X89145864Y-71906028D02*
X88788721Y-71906028D01*
X88788721Y-71906028D02*
X88788721Y-69763171D01*
X88788721Y-69763171D02*
X89145864Y-69763171D01*
X90503007Y-71406028D02*
X89645864Y-71406028D01*
X90074435Y-71406028D02*
X90074435Y-69906028D01*
X90074435Y-69906028D02*
X89931578Y-70120314D01*
X89931578Y-70120314D02*
X89788721Y-70263171D01*
X89788721Y-70263171D02*
X89645864Y-70334600D01*
X92288720Y-71263171D02*
X92360149Y-71334600D01*
X92360149Y-71334600D02*
X92288720Y-71406028D01*
X92288720Y-71406028D02*
X92217292Y-71334600D01*
X92217292Y-71334600D02*
X92288720Y-71263171D01*
X92288720Y-71263171D02*
X92288720Y-71406028D01*
X93003006Y-71263171D02*
X93074435Y-71334600D01*
X93074435Y-71334600D02*
X93003006Y-71406028D01*
X93003006Y-71406028D02*
X92931578Y-71334600D01*
X92931578Y-71334600D02*
X93003006Y-71263171D01*
X93003006Y-71263171D02*
X93003006Y-71406028D01*
X94717292Y-69906028D02*
X95717292Y-69906028D01*
X95717292Y-69906028D02*
X95074435Y-71406028D01*
X96145863Y-71906028D02*
X96503006Y-71906028D01*
X96503006Y-71906028D02*
X96503006Y-69763171D01*
X96503006Y-69763171D02*
X96145863Y-69763171D01*
D11*
X74633333Y-55009580D02*
X74585714Y-55057200D01*
X74585714Y-55057200D02*
X74442857Y-55104819D01*
X74442857Y-55104819D02*
X74347619Y-55104819D01*
X74347619Y-55104819D02*
X74204762Y-55057200D01*
X74204762Y-55057200D02*
X74109524Y-54961961D01*
X74109524Y-54961961D02*
X74061905Y-54866723D01*
X74061905Y-54866723D02*
X74014286Y-54676247D01*
X74014286Y-54676247D02*
X74014286Y-54533390D01*
X74014286Y-54533390D02*
X74061905Y-54342914D01*
X74061905Y-54342914D02*
X74109524Y-54247676D01*
X74109524Y-54247676D02*
X74204762Y-54152438D01*
X74204762Y-54152438D02*
X74347619Y-54104819D01*
X74347619Y-54104819D02*
X74442857Y-54104819D01*
X74442857Y-54104819D02*
X74585714Y-54152438D01*
X74585714Y-54152438D02*
X74633333Y-54200057D01*
X74966667Y-54104819D02*
X75633333Y-54104819D01*
X75633333Y-54104819D02*
X75204762Y-55104819D01*
X77346666Y-68414819D02*
X77346666Y-69129104D01*
X77346666Y-69129104D02*
X77299047Y-69271961D01*
X77299047Y-69271961D02*
X77203809Y-69367200D01*
X77203809Y-69367200D02*
X77060952Y-69414819D01*
X77060952Y-69414819D02*
X76965714Y-69414819D01*
X77727619Y-68414819D02*
X78346666Y-68414819D01*
X78346666Y-68414819D02*
X78013333Y-68795771D01*
X78013333Y-68795771D02*
X78156190Y-68795771D01*
X78156190Y-68795771D02*
X78251428Y-68843390D01*
X78251428Y-68843390D02*
X78299047Y-68891009D01*
X78299047Y-68891009D02*
X78346666Y-68986247D01*
X78346666Y-68986247D02*
X78346666Y-69224342D01*
X78346666Y-69224342D02*
X78299047Y-69319580D01*
X78299047Y-69319580D02*
X78251428Y-69367200D01*
X78251428Y-69367200D02*
X78156190Y-69414819D01*
X78156190Y-69414819D02*
X77870476Y-69414819D01*
X77870476Y-69414819D02*
X77775238Y-69367200D01*
X77775238Y-69367200D02*
X77727619Y-69319580D01*
X81933333Y-54154819D02*
X81600000Y-53678628D01*
X81361905Y-54154819D02*
X81361905Y-53154819D01*
X81361905Y-53154819D02*
X81742857Y-53154819D01*
X81742857Y-53154819D02*
X81838095Y-53202438D01*
X81838095Y-53202438D02*
X81885714Y-53250057D01*
X81885714Y-53250057D02*
X81933333Y-53345295D01*
X81933333Y-53345295D02*
X81933333Y-53488152D01*
X81933333Y-53488152D02*
X81885714Y-53583390D01*
X81885714Y-53583390D02*
X81838095Y-53631009D01*
X81838095Y-53631009D02*
X81742857Y-53678628D01*
X81742857Y-53678628D02*
X81361905Y-53678628D01*
X82790476Y-53488152D02*
X82790476Y-54154819D01*
X82552381Y-53107200D02*
X82314286Y-53821485D01*
X82314286Y-53821485D02*
X82933333Y-53821485D01*
X89823809Y-62878628D02*
X89823809Y-63354819D01*
X89490476Y-62354819D02*
X89823809Y-62878628D01*
X89823809Y-62878628D02*
X90157142Y-62354819D01*
X91014285Y-63354819D02*
X90442857Y-63354819D01*
X90728571Y-63354819D02*
X90728571Y-62354819D01*
X90728571Y-62354819D02*
X90633333Y-62497676D01*
X90633333Y-62497676D02*
X90538095Y-62592914D01*
X90538095Y-62592914D02*
X90442857Y-62640533D01*
X99133333Y-58559580D02*
X99085714Y-58607200D01*
X99085714Y-58607200D02*
X98942857Y-58654819D01*
X98942857Y-58654819D02*
X98847619Y-58654819D01*
X98847619Y-58654819D02*
X98704762Y-58607200D01*
X98704762Y-58607200D02*
X98609524Y-58511961D01*
X98609524Y-58511961D02*
X98561905Y-58416723D01*
X98561905Y-58416723D02*
X98514286Y-58226247D01*
X98514286Y-58226247D02*
X98514286Y-58083390D01*
X98514286Y-58083390D02*
X98561905Y-57892914D01*
X98561905Y-57892914D02*
X98609524Y-57797676D01*
X98609524Y-57797676D02*
X98704762Y-57702438D01*
X98704762Y-57702438D02*
X98847619Y-57654819D01*
X98847619Y-57654819D02*
X98942857Y-57654819D01*
X98942857Y-57654819D02*
X99085714Y-57702438D01*
X99085714Y-57702438D02*
X99133333Y-57750057D01*
X100038095Y-57654819D02*
X99561905Y-57654819D01*
X99561905Y-57654819D02*
X99514286Y-58131009D01*
X99514286Y-58131009D02*
X99561905Y-58083390D01*
X99561905Y-58083390D02*
X99657143Y-58035771D01*
X99657143Y-58035771D02*
X99895238Y-58035771D01*
X99895238Y-58035771D02*
X99990476Y-58083390D01*
X99990476Y-58083390D02*
X100038095Y-58131009D01*
X100038095Y-58131009D02*
X100085714Y-58226247D01*
X100085714Y-58226247D02*
X100085714Y-58464342D01*
X100085714Y-58464342D02*
X100038095Y-58559580D01*
X100038095Y-58559580D02*
X99990476Y-58607200D01*
X99990476Y-58607200D02*
X99895238Y-58654819D01*
X99895238Y-58654819D02*
X99657143Y-58654819D01*
X99657143Y-58654819D02*
X99561905Y-58607200D01*
X99561905Y-58607200D02*
X99514286Y-58559580D01*
X122833333Y-64859580D02*
X122785714Y-64907200D01*
X122785714Y-64907200D02*
X122642857Y-64954819D01*
X122642857Y-64954819D02*
X122547619Y-64954819D01*
X122547619Y-64954819D02*
X122404762Y-64907200D01*
X122404762Y-64907200D02*
X122309524Y-64811961D01*
X122309524Y-64811961D02*
X122261905Y-64716723D01*
X122261905Y-64716723D02*
X122214286Y-64526247D01*
X122214286Y-64526247D02*
X122214286Y-64383390D01*
X122214286Y-64383390D02*
X122261905Y-64192914D01*
X122261905Y-64192914D02*
X122309524Y-64097676D01*
X122309524Y-64097676D02*
X122404762Y-64002438D01*
X122404762Y-64002438D02*
X122547619Y-63954819D01*
X122547619Y-63954819D02*
X122642857Y-63954819D01*
X122642857Y-63954819D02*
X122785714Y-64002438D01*
X122785714Y-64002438D02*
X122833333Y-64050057D01*
X123785714Y-64954819D02*
X123214286Y-64954819D01*
X123500000Y-64954819D02*
X123500000Y-63954819D01*
X123500000Y-63954819D02*
X123404762Y-64097676D01*
X123404762Y-64097676D02*
X123309524Y-64192914D01*
X123309524Y-64192914D02*
X123214286Y-64240533D01*
X99766666Y-65954819D02*
X99766666Y-66669104D01*
X99766666Y-66669104D02*
X99719047Y-66811961D01*
X99719047Y-66811961D02*
X99623809Y-66907200D01*
X99623809Y-66907200D02*
X99480952Y-66954819D01*
X99480952Y-66954819D02*
X99385714Y-66954819D01*
X100195238Y-66050057D02*
X100242857Y-66002438D01*
X100242857Y-66002438D02*
X100338095Y-65954819D01*
X100338095Y-65954819D02*
X100576190Y-65954819D01*
X100576190Y-65954819D02*
X100671428Y-66002438D01*
X100671428Y-66002438D02*
X100719047Y-66050057D01*
X100719047Y-66050057D02*
X100766666Y-66145295D01*
X100766666Y-66145295D02*
X100766666Y-66240533D01*
X100766666Y-66240533D02*
X100719047Y-66383390D01*
X100719047Y-66383390D02*
X100147619Y-66954819D01*
X100147619Y-66954819D02*
X100766666Y-66954819D01*
X84533333Y-64159580D02*
X84485714Y-64207200D01*
X84485714Y-64207200D02*
X84342857Y-64254819D01*
X84342857Y-64254819D02*
X84247619Y-64254819D01*
X84247619Y-64254819D02*
X84104762Y-64207200D01*
X84104762Y-64207200D02*
X84009524Y-64111961D01*
X84009524Y-64111961D02*
X83961905Y-64016723D01*
X83961905Y-64016723D02*
X83914286Y-63826247D01*
X83914286Y-63826247D02*
X83914286Y-63683390D01*
X83914286Y-63683390D02*
X83961905Y-63492914D01*
X83961905Y-63492914D02*
X84009524Y-63397676D01*
X84009524Y-63397676D02*
X84104762Y-63302438D01*
X84104762Y-63302438D02*
X84247619Y-63254819D01*
X84247619Y-63254819D02*
X84342857Y-63254819D01*
X84342857Y-63254819D02*
X84485714Y-63302438D01*
X84485714Y-63302438D02*
X84533333Y-63350057D01*
X84866667Y-63254819D02*
X85485714Y-63254819D01*
X85485714Y-63254819D02*
X85152381Y-63635771D01*
X85152381Y-63635771D02*
X85295238Y-63635771D01*
X85295238Y-63635771D02*
X85390476Y-63683390D01*
X85390476Y-63683390D02*
X85438095Y-63731009D01*
X85438095Y-63731009D02*
X85485714Y-63826247D01*
X85485714Y-63826247D02*
X85485714Y-64064342D01*
X85485714Y-64064342D02*
X85438095Y-64159580D01*
X85438095Y-64159580D02*
X85390476Y-64207200D01*
X85390476Y-64207200D02*
X85295238Y-64254819D01*
X85295238Y-64254819D02*
X85009524Y-64254819D01*
X85009524Y-64254819D02*
X84914286Y-64207200D01*
X84914286Y-64207200D02*
X84866667Y-64159580D01*
X90133333Y-64859580D02*
X90085714Y-64907200D01*
X90085714Y-64907200D02*
X89942857Y-64954819D01*
X89942857Y-64954819D02*
X89847619Y-64954819D01*
X89847619Y-64954819D02*
X89704762Y-64907200D01*
X89704762Y-64907200D02*
X89609524Y-64811961D01*
X89609524Y-64811961D02*
X89561905Y-64716723D01*
X89561905Y-64716723D02*
X89514286Y-64526247D01*
X89514286Y-64526247D02*
X89514286Y-64383390D01*
X89514286Y-64383390D02*
X89561905Y-64192914D01*
X89561905Y-64192914D02*
X89609524Y-64097676D01*
X89609524Y-64097676D02*
X89704762Y-64002438D01*
X89704762Y-64002438D02*
X89847619Y-63954819D01*
X89847619Y-63954819D02*
X89942857Y-63954819D01*
X89942857Y-63954819D02*
X90085714Y-64002438D01*
X90085714Y-64002438D02*
X90133333Y-64050057D01*
X90514286Y-64050057D02*
X90561905Y-64002438D01*
X90561905Y-64002438D02*
X90657143Y-63954819D01*
X90657143Y-63954819D02*
X90895238Y-63954819D01*
X90895238Y-63954819D02*
X90990476Y-64002438D01*
X90990476Y-64002438D02*
X91038095Y-64050057D01*
X91038095Y-64050057D02*
X91085714Y-64145295D01*
X91085714Y-64145295D02*
X91085714Y-64240533D01*
X91085714Y-64240533D02*
X91038095Y-64383390D01*
X91038095Y-64383390D02*
X90466667Y-64954819D01*
X90466667Y-64954819D02*
X91085714Y-64954819D01*
X85350000Y-53908557D02*
X85050000Y-53479985D01*
X84835714Y-53908557D02*
X84835714Y-53008557D01*
X84835714Y-53008557D02*
X85178571Y-53008557D01*
X85178571Y-53008557D02*
X85264286Y-53051414D01*
X85264286Y-53051414D02*
X85307143Y-53094271D01*
X85307143Y-53094271D02*
X85350000Y-53179985D01*
X85350000Y-53179985D02*
X85350000Y-53308557D01*
X85350000Y-53308557D02*
X85307143Y-53394271D01*
X85307143Y-53394271D02*
X85264286Y-53437128D01*
X85264286Y-53437128D02*
X85178571Y-53479985D01*
X85178571Y-53479985D02*
X84835714Y-53479985D01*
X85692857Y-53094271D02*
X85735714Y-53051414D01*
X85735714Y-53051414D02*
X85821429Y-53008557D01*
X85821429Y-53008557D02*
X86035714Y-53008557D01*
X86035714Y-53008557D02*
X86121429Y-53051414D01*
X86121429Y-53051414D02*
X86164286Y-53094271D01*
X86164286Y-53094271D02*
X86207143Y-53179985D01*
X86207143Y-53179985D02*
X86207143Y-53265700D01*
X86207143Y-53265700D02*
X86164286Y-53394271D01*
X86164286Y-53394271D02*
X85650000Y-53908557D01*
X85650000Y-53908557D02*
X86207143Y-53908557D01*
X78738095Y-51804819D02*
X78738095Y-52614342D01*
X78738095Y-52614342D02*
X78785714Y-52709580D01*
X78785714Y-52709580D02*
X78833333Y-52757200D01*
X78833333Y-52757200D02*
X78928571Y-52804819D01*
X78928571Y-52804819D02*
X79119047Y-52804819D01*
X79119047Y-52804819D02*
X79214285Y-52757200D01*
X79214285Y-52757200D02*
X79261904Y-52709580D01*
X79261904Y-52709580D02*
X79309523Y-52614342D01*
X79309523Y-52614342D02*
X79309523Y-51804819D01*
X79738095Y-51900057D02*
X79785714Y-51852438D01*
X79785714Y-51852438D02*
X79880952Y-51804819D01*
X79880952Y-51804819D02*
X80119047Y-51804819D01*
X80119047Y-51804819D02*
X80214285Y-51852438D01*
X80214285Y-51852438D02*
X80261904Y-51900057D01*
X80261904Y-51900057D02*
X80309523Y-51995295D01*
X80309523Y-51995295D02*
X80309523Y-52090533D01*
X80309523Y-52090533D02*
X80261904Y-52233390D01*
X80261904Y-52233390D02*
X79690476Y-52804819D01*
X79690476Y-52804819D02*
X80309523Y-52804819D01*
X122833333Y-66954819D02*
X122500000Y-66478628D01*
X122261905Y-66954819D02*
X122261905Y-65954819D01*
X122261905Y-65954819D02*
X122642857Y-65954819D01*
X122642857Y-65954819D02*
X122738095Y-66002438D01*
X122738095Y-66002438D02*
X122785714Y-66050057D01*
X122785714Y-66050057D02*
X122833333Y-66145295D01*
X122833333Y-66145295D02*
X122833333Y-66288152D01*
X122833333Y-66288152D02*
X122785714Y-66383390D01*
X122785714Y-66383390D02*
X122738095Y-66431009D01*
X122738095Y-66431009D02*
X122642857Y-66478628D01*
X122642857Y-66478628D02*
X122261905Y-66478628D01*
X123166667Y-65954819D02*
X123785714Y-65954819D01*
X123785714Y-65954819D02*
X123452381Y-66335771D01*
X123452381Y-66335771D02*
X123595238Y-66335771D01*
X123595238Y-66335771D02*
X123690476Y-66383390D01*
X123690476Y-66383390D02*
X123738095Y-66431009D01*
X123738095Y-66431009D02*
X123785714Y-66526247D01*
X123785714Y-66526247D02*
X123785714Y-66764342D01*
X123785714Y-66764342D02*
X123738095Y-66859580D01*
X123738095Y-66859580D02*
X123690476Y-66907200D01*
X123690476Y-66907200D02*
X123595238Y-66954819D01*
X123595238Y-66954819D02*
X123309524Y-66954819D01*
X123309524Y-66954819D02*
X123214286Y-66907200D01*
X123214286Y-66907200D02*
X123166667Y-66859580D01*
X87750000Y-59222842D02*
X87707143Y-59265700D01*
X87707143Y-59265700D02*
X87578571Y-59308557D01*
X87578571Y-59308557D02*
X87492857Y-59308557D01*
X87492857Y-59308557D02*
X87364286Y-59265700D01*
X87364286Y-59265700D02*
X87278571Y-59179985D01*
X87278571Y-59179985D02*
X87235714Y-59094271D01*
X87235714Y-59094271D02*
X87192857Y-58922842D01*
X87192857Y-58922842D02*
X87192857Y-58794271D01*
X87192857Y-58794271D02*
X87235714Y-58622842D01*
X87235714Y-58622842D02*
X87278571Y-58537128D01*
X87278571Y-58537128D02*
X87364286Y-58451414D01*
X87364286Y-58451414D02*
X87492857Y-58408557D01*
X87492857Y-58408557D02*
X87578571Y-58408557D01*
X87578571Y-58408557D02*
X87707143Y-58451414D01*
X87707143Y-58451414D02*
X87750000Y-58494271D01*
X88521429Y-58708557D02*
X88521429Y-59308557D01*
X88307143Y-58365700D02*
X88092857Y-59008557D01*
X88092857Y-59008557D02*
X88650000Y-59008557D01*
X87988095Y-52454819D02*
X87988095Y-53264342D01*
X87988095Y-53264342D02*
X88035714Y-53359580D01*
X88035714Y-53359580D02*
X88083333Y-53407200D01*
X88083333Y-53407200D02*
X88178571Y-53454819D01*
X88178571Y-53454819D02*
X88369047Y-53454819D01*
X88369047Y-53454819D02*
X88464285Y-53407200D01*
X88464285Y-53407200D02*
X88511904Y-53359580D01*
X88511904Y-53359580D02*
X88559523Y-53264342D01*
X88559523Y-53264342D02*
X88559523Y-52454819D01*
X89559523Y-53454819D02*
X88988095Y-53454819D01*
X89273809Y-53454819D02*
X89273809Y-52454819D01*
X89273809Y-52454819D02*
X89178571Y-52597676D01*
X89178571Y-52597676D02*
X89083333Y-52692914D01*
X89083333Y-52692914D02*
X88988095Y-52740533D01*
X87908557Y-56649999D02*
X87479985Y-56949999D01*
X87908557Y-57164285D02*
X87008557Y-57164285D01*
X87008557Y-57164285D02*
X87008557Y-56821428D01*
X87008557Y-56821428D02*
X87051414Y-56735713D01*
X87051414Y-56735713D02*
X87094271Y-56692856D01*
X87094271Y-56692856D02*
X87179985Y-56649999D01*
X87179985Y-56649999D02*
X87308557Y-56649999D01*
X87308557Y-56649999D02*
X87394271Y-56692856D01*
X87394271Y-56692856D02*
X87437128Y-56735713D01*
X87437128Y-56735713D02*
X87479985Y-56821428D01*
X87479985Y-56821428D02*
X87479985Y-57164285D01*
X87908557Y-55792856D02*
X87908557Y-56307142D01*
X87908557Y-56049999D02*
X87008557Y-56049999D01*
X87008557Y-56049999D02*
X87137128Y-56135713D01*
X87137128Y-56135713D02*
X87222842Y-56221428D01*
X87222842Y-56221428D02*
X87265700Y-56307142D01*
X120066666Y-51634819D02*
X120066666Y-52349104D01*
X120066666Y-52349104D02*
X120019047Y-52491961D01*
X120019047Y-52491961D02*
X119923809Y-52587200D01*
X119923809Y-52587200D02*
X119780952Y-52634819D01*
X119780952Y-52634819D02*
X119685714Y-52634819D01*
X120971428Y-51968152D02*
X120971428Y-52634819D01*
X120733333Y-51587200D02*
X120495238Y-52301485D01*
X120495238Y-52301485D02*
X121114285Y-52301485D01*
X74133333Y-59059580D02*
X74085714Y-59107200D01*
X74085714Y-59107200D02*
X73942857Y-59154819D01*
X73942857Y-59154819D02*
X73847619Y-59154819D01*
X73847619Y-59154819D02*
X73704762Y-59107200D01*
X73704762Y-59107200D02*
X73609524Y-59011961D01*
X73609524Y-59011961D02*
X73561905Y-58916723D01*
X73561905Y-58916723D02*
X73514286Y-58726247D01*
X73514286Y-58726247D02*
X73514286Y-58583390D01*
X73514286Y-58583390D02*
X73561905Y-58392914D01*
X73561905Y-58392914D02*
X73609524Y-58297676D01*
X73609524Y-58297676D02*
X73704762Y-58202438D01*
X73704762Y-58202438D02*
X73847619Y-58154819D01*
X73847619Y-58154819D02*
X73942857Y-58154819D01*
X73942857Y-58154819D02*
X74085714Y-58202438D01*
X74085714Y-58202438D02*
X74133333Y-58250057D01*
X74990476Y-58154819D02*
X74800000Y-58154819D01*
X74800000Y-58154819D02*
X74704762Y-58202438D01*
X74704762Y-58202438D02*
X74657143Y-58250057D01*
X74657143Y-58250057D02*
X74561905Y-58392914D01*
X74561905Y-58392914D02*
X74514286Y-58583390D01*
X74514286Y-58583390D02*
X74514286Y-58964342D01*
X74514286Y-58964342D02*
X74561905Y-59059580D01*
X74561905Y-59059580D02*
X74609524Y-59107200D01*
X74609524Y-59107200D02*
X74704762Y-59154819D01*
X74704762Y-59154819D02*
X74895238Y-59154819D01*
X74895238Y-59154819D02*
X74990476Y-59107200D01*
X74990476Y-59107200D02*
X75038095Y-59059580D01*
X75038095Y-59059580D02*
X75085714Y-58964342D01*
X75085714Y-58964342D02*
X75085714Y-58726247D01*
X75085714Y-58726247D02*
X75038095Y-58631009D01*
X75038095Y-58631009D02*
X74990476Y-58583390D01*
X74990476Y-58583390D02*
X74895238Y-58535771D01*
X74895238Y-58535771D02*
X74704762Y-58535771D01*
X74704762Y-58535771D02*
X74609524Y-58583390D01*
X74609524Y-58583390D02*
X74561905Y-58631009D01*
X74561905Y-58631009D02*
X74514286Y-58726247D01*
D12*
X77160000Y-54509420D02*
X77160000Y-54790580D01*
X76140000Y-54509420D02*
X76140000Y-54790580D01*
X78650000Y-69440000D02*
X78650000Y-68110000D01*
X79980000Y-69440000D02*
X78650000Y-69440000D01*
X81250000Y-69440000D02*
X96550000Y-69440000D01*
X81250000Y-69440000D02*
X81250000Y-66780000D01*
X96550000Y-69440000D02*
X96550000Y-66780000D01*
X81250000Y-66780000D02*
X96550000Y-66780000D01*
X81777500Y-56087258D02*
X81777500Y-55612742D01*
X82822500Y-56087258D02*
X82822500Y-55612742D01*
X85850000Y-63512000D02*
X89150000Y-63512000D01*
X89150000Y-63512000D02*
X89150000Y-59512000D01*
X98010000Y-58859420D02*
X98010000Y-59140580D01*
X96990000Y-58859420D02*
X96990000Y-59140580D01*
X119640580Y-65010000D02*
X119359420Y-65010000D01*
X119640580Y-63990000D02*
X119359420Y-63990000D01*
D13*
X100580000Y-73857500D02*
X100580000Y-74037500D01*
X100590000Y-73857500D02*
X101320000Y-73857500D01*
X100590000Y-74037500D02*
X101320000Y-74037500D01*
X101320000Y-65227500D02*
X101320000Y-73657500D01*
X101320000Y-73857500D02*
X101320000Y-73607500D01*
X101320000Y-74037500D02*
X101320000Y-73787500D01*
X101750000Y-73607500D02*
X101320000Y-74037500D01*
X102000000Y-64067500D02*
X102830000Y-64057500D01*
X102640000Y-67197500D02*
X103150000Y-67197500D01*
X102830000Y-64057500D02*
X102830000Y-66257500D01*
X102830000Y-66257500D02*
X112970000Y-66257500D01*
X103120000Y-72937500D02*
X102640000Y-67197500D01*
X103150000Y-67197500D02*
X103650000Y-72337500D01*
X103430000Y-69467500D02*
X105690000Y-69467500D01*
X103540000Y-66247500D02*
X103540000Y-60037500D01*
X103570000Y-60037500D02*
X102000000Y-60037500D01*
X103570000Y-70677500D02*
X105600000Y-70677500D01*
X103650000Y-72337500D02*
X105410000Y-72337500D01*
X105230000Y-60037500D02*
X106070000Y-60037500D01*
X105410000Y-72337500D02*
X105990000Y-67197500D01*
X105990000Y-67197500D02*
X106380000Y-67197500D01*
X106020000Y-72937500D02*
X103120000Y-72937500D01*
X106380000Y-67197500D02*
X106020000Y-72937500D01*
X107730000Y-60037500D02*
X108070000Y-60037500D01*
X109480000Y-67267500D02*
X109980000Y-67267500D01*
X109730000Y-60037500D02*
X110570000Y-60037500D01*
X109970000Y-72997500D02*
X109480000Y-67267500D01*
X109980000Y-67267500D02*
X110500000Y-71807500D01*
X110310000Y-69567500D02*
X112570000Y-69567500D01*
X110450000Y-70777500D02*
X112480000Y-70777500D01*
X110500000Y-71807500D02*
X110570000Y-72487500D01*
X110570000Y-72487500D02*
X112320000Y-72477500D01*
X112230000Y-60037500D02*
X113810000Y-60037500D01*
X112260000Y-66257500D02*
X112260000Y-60037500D01*
X112320000Y-72477500D02*
X112790000Y-67697500D01*
X112790000Y-67697500D02*
X112820000Y-67267500D01*
X112820000Y-67267500D02*
X113200000Y-67267500D01*
X112860000Y-73007500D02*
X109970000Y-72997500D01*
X112970000Y-64057500D02*
X113800000Y-64067500D01*
X112970000Y-66257500D02*
X112970000Y-64057500D01*
X113200000Y-67267500D02*
X112860000Y-73007500D01*
X114070000Y-73607500D02*
X101750000Y-73607500D01*
X114070000Y-73607500D02*
X114170000Y-73697500D01*
X114170000Y-73697500D02*
X114500000Y-74027500D01*
X114510000Y-73607500D02*
X114510000Y-65237500D01*
X114510000Y-73857500D02*
X114510000Y-73607500D01*
X114510000Y-74037500D02*
X114510000Y-73787500D01*
X115220000Y-73857500D02*
X114510000Y-73857500D01*
X115220000Y-74037500D02*
X114510000Y-74037500D01*
X115230000Y-73857500D02*
X115230000Y-74037500D01*
D12*
X84240000Y-61640580D02*
X84240000Y-61359420D01*
X85260000Y-61640580D02*
X85260000Y-61359420D01*
X87559420Y-63990000D02*
X87840580Y-63990000D01*
X87559420Y-65010000D02*
X87840580Y-65010000D01*
X85737258Y-55522500D02*
X85262742Y-55522500D01*
X85737258Y-54477500D02*
X85262742Y-54477500D01*
D10*
X78000000Y-57100000D02*
X78000000Y-55900000D01*
X78050000Y-55550000D02*
X78050000Y-54950000D01*
X80950000Y-55550000D02*
X78050000Y-55550000D01*
X78050000Y-54950000D02*
X80950000Y-54950000D01*
X80950000Y-54950000D02*
X80950000Y-55550000D01*
D12*
X119262742Y-65977500D02*
X119737258Y-65977500D01*
X119262742Y-67022500D02*
X119737258Y-67022500D01*
X85640580Y-59010000D02*
X85359420Y-59010000D01*
X85640580Y-57990000D02*
X85359420Y-57990000D01*
D10*
X94400000Y-58412000D02*
X90100000Y-58412000D01*
X94400000Y-54112000D02*
X94400000Y-58412000D01*
X90100000Y-58412000D02*
X90100000Y-54112000D01*
X90100000Y-54112000D02*
X94400000Y-54112000D01*
D13*
X96100000Y-58762000D02*
G75*
G03*
X96100000Y-58762000I-125000J0D01*
G01*
D12*
X85737258Y-57022500D02*
X85262742Y-57022500D01*
X85737258Y-55977500D02*
X85262742Y-55977500D01*
X119410000Y-51550000D02*
X119410000Y-52880000D01*
X118080000Y-51550000D02*
X119410000Y-51550000D01*
X116810000Y-51550000D02*
X101510000Y-51550000D01*
X116810000Y-51550000D02*
X116810000Y-54210000D01*
X101510000Y-51550000D02*
X101510000Y-54210000D01*
X116810000Y-54210000D02*
X101510000Y-54210000D01*
X83337500Y-63347500D02*
X82550000Y-63347500D01*
X82943750Y-63741250D02*
X82943750Y-62953750D01*
X82310000Y-63845563D02*
X82310000Y-62560000D01*
X82310000Y-63845563D02*
X81245563Y-64910000D01*
X82310000Y-59154437D02*
X82310000Y-60440000D01*
X82310000Y-59154437D02*
X81245563Y-58090000D01*
X81245563Y-64910000D02*
X75490000Y-64910000D01*
X81245563Y-58090000D02*
X75490000Y-58090000D01*
X75490000Y-64910000D02*
X75490000Y-62560000D01*
X75490000Y-58090000D02*
X75490000Y-60440000D01*
M02*
