G04 #@! TF.GenerationSoftware,KiCad,Pcbnew,7.0.7*
G04 #@! TF.CreationDate,2023-11-12T02:44:01+01:00*
G04 #@! TF.ProjectId,max3421e-rpi-uhat,6d617833-3432-4316-952d-7270692d7568,1*
G04 #@! TF.SameCoordinates,Original*
G04 #@! TF.FileFunction,Copper,L2,Bot*
G04 #@! TF.FilePolarity,Positive*
%FSLAX46Y46*%
G04 Gerber Fmt 4.6, Leading zero omitted, Abs format (unit mm)*
G04 Created by KiCad (PCBNEW 7.0.7) date 2023-11-12 02:44:01*
%MOMM*%
%LPD*%
G01*
G04 APERTURE LIST*
G04 #@! TA.AperFunction,ComponentPad*
%ADD10R,1.700000X1.700000*%
G04 #@! TD*
G04 #@! TA.AperFunction,ComponentPad*
%ADD11O,1.700000X1.700000*%
G04 #@! TD*
G04 #@! TA.AperFunction,ViaPad*
%ADD12C,0.800000*%
G04 #@! TD*
G04 #@! TA.AperFunction,ViaPad*
%ADD13C,0.600000*%
G04 #@! TD*
G04 #@! TA.AperFunction,Conductor*
%ADD14C,0.500000*%
G04 #@! TD*
G04 #@! TA.AperFunction,Conductor*
%ADD15C,0.300000*%
G04 #@! TD*
G04 #@! TA.AperFunction,Conductor*
%ADD16C,0.259900*%
G04 #@! TD*
G04 APERTURE END LIST*
D10*
X79980000Y-68110000D03*
D11*
X82520000Y-68110000D03*
X85060000Y-68110000D03*
X87600000Y-68110000D03*
X90140000Y-68110000D03*
X92680000Y-68110000D03*
X95220000Y-68110000D03*
D10*
X118080000Y-52880000D03*
D11*
X115540000Y-52880000D03*
X113000000Y-52880000D03*
X110460000Y-52880000D03*
X107920000Y-52880000D03*
X105380000Y-52880000D03*
X102840000Y-52880000D03*
D10*
X74900000Y-47790000D03*
D11*
X74900000Y-45250000D03*
X77440000Y-47790000D03*
X77440000Y-45250000D03*
X79980000Y-47790000D03*
X79980000Y-45250000D03*
X82520000Y-47790000D03*
X82520000Y-45250000D03*
X85060000Y-47790000D03*
X85060000Y-45250000D03*
X87600000Y-47790000D03*
X87600000Y-45250000D03*
X90140000Y-47790000D03*
X90140000Y-45250000D03*
X92680000Y-47790000D03*
X92680000Y-45250000D03*
X95220000Y-47790000D03*
X95220000Y-45250000D03*
X97760000Y-47790000D03*
X97760000Y-45250000D03*
X100300000Y-47790000D03*
X100300000Y-45250000D03*
X102840000Y-47790000D03*
X102840000Y-45250000D03*
X105380000Y-47790000D03*
X105380000Y-45250000D03*
X107920000Y-47790000D03*
X107920000Y-45250000D03*
X110460000Y-47790000D03*
X110460000Y-45250000D03*
X113000000Y-47790000D03*
X113000000Y-45250000D03*
X115540000Y-47790000D03*
X115540000Y-45250000D03*
X118080000Y-47790000D03*
X118080000Y-45250000D03*
X120620000Y-47790000D03*
X120620000Y-45250000D03*
X123160000Y-47790000D03*
X123160000Y-45250000D03*
D12*
X76600000Y-63600000D03*
X83500000Y-57500000D03*
X111500000Y-57000000D03*
X76600000Y-59400000D03*
X93300500Y-56000000D03*
X76600000Y-56900000D03*
X97500000Y-61250000D03*
X121500000Y-64500000D03*
X90750000Y-56500000D03*
X84600000Y-63800000D03*
X113000000Y-59750000D03*
X121500000Y-66500000D03*
X79500000Y-57750000D03*
X92500000Y-54500000D03*
X79900000Y-50000000D03*
X82750000Y-60000000D03*
X99500000Y-59000000D03*
D13*
X95500000Y-53000000D03*
X94000000Y-51599500D03*
X85500000Y-57500000D03*
X98000000Y-56756211D03*
X85500000Y-55750000D03*
X97004391Y-56899961D03*
X93500000Y-55000000D03*
X87500000Y-54500000D03*
X81250000Y-59250000D03*
X90900500Y-61000000D03*
D14*
X93970000Y-46540000D02*
X81300000Y-46540000D01*
D15*
X79900000Y-50000000D02*
X81300000Y-48600000D01*
D14*
X92500000Y-50510000D02*
X95220000Y-47790000D01*
X81300000Y-46540000D02*
X76150000Y-46540000D01*
D15*
X81300000Y-48600000D02*
X81300000Y-46540000D01*
D14*
X92500000Y-54500000D02*
X92500000Y-50510000D01*
X76150000Y-46540000D02*
X74900000Y-47790000D01*
X95220000Y-47790000D02*
X93970000Y-46540000D01*
X84300000Y-59200000D02*
X83500000Y-60000000D01*
X99300000Y-59200000D02*
X84300000Y-59200000D01*
X83500000Y-60000000D02*
X82750000Y-60000000D01*
X99500000Y-59000000D02*
X99300000Y-59200000D01*
D15*
X94000000Y-51599500D02*
X94099500Y-51599500D01*
X94099500Y-51599500D02*
X95500000Y-53000000D01*
D16*
X86129950Y-58129950D02*
X96709732Y-58129950D01*
X85500000Y-57500000D02*
X86129950Y-58129950D01*
X98000000Y-56839682D02*
X98000000Y-56756211D01*
X96709732Y-58129950D02*
X98000000Y-56839682D01*
X91950000Y-57370050D02*
X91950000Y-57321801D01*
X85500000Y-56609116D02*
X85500000Y-55750000D01*
X86129950Y-57239066D02*
X85500000Y-56609116D01*
X96519236Y-57670050D02*
X92250000Y-57670050D01*
X86129950Y-57479554D02*
X86129950Y-57239066D01*
X97004391Y-56899961D02*
X97004391Y-57184895D01*
X86320446Y-57670050D02*
X86129950Y-57479554D01*
X91050000Y-57670050D02*
X88000000Y-57670050D01*
X88000000Y-57670050D02*
X86320446Y-57670050D01*
X91350000Y-57321801D02*
X91350000Y-57370050D01*
X97004391Y-57184895D02*
X96519236Y-57670050D01*
X91650000Y-57021800D02*
G75*
G03*
X91350000Y-57321801I0J-300000D01*
G01*
X91949950Y-57370050D02*
G75*
G03*
X92250000Y-57670050I300050J50D01*
G01*
X91949999Y-57321801D02*
G75*
G03*
X91650000Y-57021801I-299999J1D01*
G01*
X91050000Y-57670000D02*
G75*
G03*
X91350000Y-57370050I0J300000D01*
G01*
D15*
X93250000Y-55250000D02*
X88250000Y-55250000D01*
X93500000Y-55000000D02*
X93250000Y-55250000D01*
X88250000Y-55250000D02*
X87500000Y-54500000D01*
X81250000Y-59750000D02*
X82500000Y-61000000D01*
X81250000Y-59250000D02*
X81250000Y-59750000D01*
X82500000Y-61000000D02*
X90900500Y-61000000D01*
G04 #@! TA.AperFunction,Conductor*
G36*
X124652725Y-47561433D02*
G01*
X124679774Y-47603630D01*
X124802592Y-47923581D01*
X124968913Y-48250004D01*
X125168435Y-48557241D01*
X125168437Y-48557243D01*
X125168440Y-48557247D01*
X125168441Y-48557248D01*
X125398993Y-48841957D01*
X125658043Y-49101007D01*
X125937261Y-49327112D01*
X125942756Y-49331562D01*
X125942758Y-49331564D01*
X126249995Y-49531086D01*
X126250000Y-49531089D01*
X126576422Y-49697409D01*
X126918441Y-49828698D01*
X127272309Y-49923517D01*
X127634150Y-49980827D01*
X127979765Y-49998939D01*
X127999999Y-50000000D01*
X128000000Y-50000000D01*
X128000001Y-50000000D01*
X128019174Y-49998995D01*
X128365850Y-49980827D01*
X128727691Y-49923517D01*
X129081559Y-49828698D01*
X129423578Y-49697409D01*
X129750000Y-49531089D01*
X129894337Y-49437354D01*
X130057241Y-49331564D01*
X130057243Y-49331562D01*
X130057248Y-49331559D01*
X130341957Y-49101007D01*
X130601007Y-48841957D01*
X130710642Y-48706569D01*
X130779134Y-48621988D01*
X130836621Y-48582276D01*
X130906451Y-48579948D01*
X130966455Y-48615743D01*
X130997582Y-48678296D01*
X130999500Y-48700023D01*
X130999500Y-67299976D01*
X130979815Y-67367015D01*
X130927011Y-67412770D01*
X130857853Y-67422714D01*
X130794297Y-67393689D01*
X130779134Y-67378012D01*
X130601010Y-67158047D01*
X130601007Y-67158043D01*
X130341957Y-66898993D01*
X130057248Y-66668441D01*
X130057247Y-66668440D01*
X130057243Y-66668437D01*
X130057241Y-66668435D01*
X129750004Y-66468913D01*
X129423581Y-66302592D01*
X129081566Y-66171304D01*
X129081559Y-66171302D01*
X128727691Y-66076483D01*
X128727687Y-66076482D01*
X128727686Y-66076482D01*
X128365851Y-66019173D01*
X128000001Y-66000000D01*
X127999999Y-66000000D01*
X127634148Y-66019173D01*
X127272314Y-66076482D01*
X127272312Y-66076482D01*
X126918433Y-66171304D01*
X126576418Y-66302592D01*
X126249995Y-66468913D01*
X125942758Y-66668435D01*
X125942756Y-66668437D01*
X125658047Y-66898989D01*
X125658039Y-66898996D01*
X125398996Y-67158039D01*
X125398989Y-67158047D01*
X125168437Y-67442756D01*
X125168435Y-67442758D01*
X124968913Y-67749995D01*
X124802592Y-68076418D01*
X124671304Y-68418433D01*
X124576482Y-68772312D01*
X124576482Y-68772314D01*
X124519173Y-69134148D01*
X124500000Y-69499999D01*
X124500000Y-69500000D01*
X124519173Y-69865851D01*
X124576482Y-70227685D01*
X124576482Y-70227687D01*
X124671304Y-70581566D01*
X124802592Y-70923581D01*
X124968913Y-71250004D01*
X125168435Y-71557241D01*
X125168437Y-71557243D01*
X125168440Y-71557247D01*
X125168441Y-71557248D01*
X125398993Y-71841957D01*
X125658043Y-72101007D01*
X125658047Y-72101010D01*
X125878012Y-72279134D01*
X125917723Y-72336621D01*
X125920051Y-72406452D01*
X125884256Y-72466456D01*
X125821702Y-72497582D01*
X125799976Y-72499500D01*
X72200024Y-72499500D01*
X72132985Y-72479815D01*
X72087230Y-72427011D01*
X72077286Y-72357853D01*
X72106311Y-72294297D01*
X72121988Y-72279134D01*
X72162371Y-72246432D01*
X72341957Y-72101007D01*
X72601007Y-71841957D01*
X72831559Y-71557248D01*
X72869736Y-71498462D01*
X73031086Y-71250004D01*
X73031089Y-71250000D01*
X73197409Y-70923578D01*
X73328698Y-70581559D01*
X73423517Y-70227691D01*
X73480827Y-69865850D01*
X73500000Y-69500000D01*
X73480827Y-69134150D01*
X73460826Y-69007870D01*
X78629500Y-69007870D01*
X78629501Y-69007876D01*
X78635908Y-69067483D01*
X78686202Y-69202328D01*
X78686206Y-69202335D01*
X78772452Y-69317544D01*
X78772455Y-69317547D01*
X78887664Y-69403793D01*
X78887671Y-69403797D01*
X79022517Y-69454091D01*
X79022516Y-69454091D01*
X79029444Y-69454835D01*
X79082127Y-69460500D01*
X80877872Y-69460499D01*
X80937483Y-69454091D01*
X81072331Y-69403796D01*
X81187546Y-69317546D01*
X81273796Y-69202331D01*
X81322810Y-69070916D01*
X81364681Y-69014984D01*
X81430145Y-68990566D01*
X81498418Y-69005417D01*
X81526672Y-69026569D01*
X81648599Y-69148495D01*
X81745384Y-69216265D01*
X81842165Y-69284032D01*
X81842167Y-69284033D01*
X81842170Y-69284035D01*
X82056337Y-69383903D01*
X82284592Y-69445063D01*
X82461034Y-69460500D01*
X82519999Y-69465659D01*
X82520000Y-69465659D01*
X82520001Y-69465659D01*
X82578966Y-69460500D01*
X82755408Y-69445063D01*
X82983663Y-69383903D01*
X83197830Y-69284035D01*
X83391401Y-69148495D01*
X83558495Y-68981401D01*
X83688426Y-68795840D01*
X83743001Y-68752217D01*
X83812499Y-68745023D01*
X83874854Y-68776546D01*
X83891574Y-68795841D01*
X84021505Y-68981401D01*
X84188599Y-69148495D01*
X84285384Y-69216264D01*
X84382165Y-69284032D01*
X84382167Y-69284033D01*
X84382170Y-69284035D01*
X84596337Y-69383903D01*
X84824592Y-69445063D01*
X85001034Y-69460500D01*
X85059999Y-69465659D01*
X85060000Y-69465659D01*
X85060001Y-69465659D01*
X85118966Y-69460500D01*
X85295408Y-69445063D01*
X85523663Y-69383903D01*
X85737830Y-69284035D01*
X85931401Y-69148495D01*
X86098495Y-68981401D01*
X86228426Y-68795840D01*
X86283001Y-68752217D01*
X86352499Y-68745023D01*
X86414854Y-68776546D01*
X86431574Y-68795841D01*
X86561505Y-68981401D01*
X86728599Y-69148495D01*
X86825384Y-69216264D01*
X86922165Y-69284032D01*
X86922167Y-69284033D01*
X86922170Y-69284035D01*
X87136337Y-69383903D01*
X87364592Y-69445063D01*
X87541034Y-69460500D01*
X87599999Y-69465659D01*
X87600000Y-69465659D01*
X87600001Y-69465659D01*
X87658966Y-69460500D01*
X87835408Y-69445063D01*
X88063663Y-69383903D01*
X88277830Y-69284035D01*
X88471401Y-69148495D01*
X88638495Y-68981401D01*
X88768426Y-68795840D01*
X88823001Y-68752217D01*
X88892499Y-68745023D01*
X88954854Y-68776546D01*
X88971574Y-68795841D01*
X89101505Y-68981401D01*
X89268599Y-69148495D01*
X89365384Y-69216264D01*
X89462165Y-69284032D01*
X89462167Y-69284033D01*
X89462170Y-69284035D01*
X89676337Y-69383903D01*
X89904592Y-69445063D01*
X90081034Y-69460500D01*
X90139999Y-69465659D01*
X90140000Y-69465659D01*
X90140001Y-69465659D01*
X90198966Y-69460500D01*
X90375408Y-69445063D01*
X90603663Y-69383903D01*
X90817830Y-69284035D01*
X91011401Y-69148495D01*
X91178495Y-68981401D01*
X91308426Y-68795840D01*
X91363001Y-68752217D01*
X91432499Y-68745023D01*
X91494854Y-68776546D01*
X91511574Y-68795841D01*
X91641505Y-68981401D01*
X91808599Y-69148495D01*
X91905384Y-69216265D01*
X92002165Y-69284032D01*
X92002167Y-69284033D01*
X92002170Y-69284035D01*
X92216337Y-69383903D01*
X92444592Y-69445063D01*
X92621034Y-69460500D01*
X92679999Y-69465659D01*
X92680000Y-69465659D01*
X92680001Y-69465659D01*
X92738966Y-69460500D01*
X92915408Y-69445063D01*
X93143663Y-69383903D01*
X93357830Y-69284035D01*
X93551401Y-69148495D01*
X93718495Y-68981401D01*
X93848426Y-68795840D01*
X93903001Y-68752217D01*
X93972499Y-68745023D01*
X94034854Y-68776546D01*
X94051574Y-68795841D01*
X94181505Y-68981401D01*
X94348599Y-69148495D01*
X94445384Y-69216265D01*
X94542165Y-69284032D01*
X94542167Y-69284033D01*
X94542170Y-69284035D01*
X94756337Y-69383903D01*
X94984592Y-69445063D01*
X95161034Y-69460500D01*
X95219999Y-69465659D01*
X95220000Y-69465659D01*
X95220001Y-69465659D01*
X95278966Y-69460500D01*
X95455408Y-69445063D01*
X95683663Y-69383903D01*
X95897830Y-69284035D01*
X96091401Y-69148495D01*
X96258495Y-68981401D01*
X96394035Y-68787830D01*
X96493903Y-68573663D01*
X96555063Y-68345408D01*
X96575659Y-68110000D01*
X96555063Y-67874592D01*
X96493903Y-67646337D01*
X96394035Y-67432171D01*
X96388425Y-67424158D01*
X96258494Y-67238597D01*
X96091402Y-67071506D01*
X96091395Y-67071501D01*
X95897834Y-66935967D01*
X95897830Y-66935965D01*
X95897829Y-66935964D01*
X95683663Y-66836097D01*
X95683659Y-66836096D01*
X95683655Y-66836094D01*
X95455413Y-66774938D01*
X95455403Y-66774936D01*
X95220001Y-66754341D01*
X95219999Y-66754341D01*
X94984596Y-66774936D01*
X94984586Y-66774938D01*
X94756344Y-66836094D01*
X94756335Y-66836098D01*
X94542171Y-66935964D01*
X94542169Y-66935965D01*
X94348597Y-67071505D01*
X94181505Y-67238597D01*
X94051575Y-67424158D01*
X93996998Y-67467783D01*
X93927500Y-67474977D01*
X93865145Y-67443454D01*
X93848425Y-67424158D01*
X93718494Y-67238597D01*
X93551402Y-67071506D01*
X93551395Y-67071501D01*
X93357834Y-66935967D01*
X93357830Y-66935965D01*
X93357830Y-66935964D01*
X93143663Y-66836097D01*
X93143659Y-66836096D01*
X93143655Y-66836094D01*
X92915413Y-66774938D01*
X92915403Y-66774936D01*
X92680001Y-66754341D01*
X92679999Y-66754341D01*
X92444596Y-66774936D01*
X92444586Y-66774938D01*
X92216344Y-66836094D01*
X92216335Y-66836098D01*
X92002171Y-66935964D01*
X92002169Y-66935965D01*
X91808597Y-67071505D01*
X91641505Y-67238597D01*
X91511575Y-67424158D01*
X91456998Y-67467783D01*
X91387500Y-67474977D01*
X91325145Y-67443454D01*
X91308425Y-67424158D01*
X91178494Y-67238597D01*
X91011402Y-67071506D01*
X91011395Y-67071501D01*
X90817834Y-66935967D01*
X90817830Y-66935965D01*
X90817829Y-66935964D01*
X90603663Y-66836097D01*
X90603659Y-66836096D01*
X90603655Y-66836094D01*
X90375413Y-66774938D01*
X90375403Y-66774936D01*
X90140001Y-66754341D01*
X90139999Y-66754341D01*
X89904596Y-66774936D01*
X89904586Y-66774938D01*
X89676344Y-66836094D01*
X89676335Y-66836098D01*
X89462171Y-66935964D01*
X89462169Y-66935965D01*
X89268597Y-67071505D01*
X89101505Y-67238597D01*
X88971575Y-67424158D01*
X88916998Y-67467783D01*
X88847500Y-67474977D01*
X88785145Y-67443454D01*
X88768425Y-67424158D01*
X88638494Y-67238597D01*
X88471402Y-67071506D01*
X88471395Y-67071501D01*
X88277834Y-66935967D01*
X88277830Y-66935965D01*
X88277830Y-66935964D01*
X88063663Y-66836097D01*
X88063659Y-66836096D01*
X88063655Y-66836094D01*
X87835413Y-66774938D01*
X87835403Y-66774936D01*
X87600001Y-66754341D01*
X87599999Y-66754341D01*
X87364596Y-66774936D01*
X87364586Y-66774938D01*
X87136344Y-66836094D01*
X87136335Y-66836098D01*
X86922171Y-66935964D01*
X86922169Y-66935965D01*
X86728597Y-67071505D01*
X86561505Y-67238597D01*
X86431575Y-67424158D01*
X86376998Y-67467783D01*
X86307500Y-67474977D01*
X86245145Y-67443454D01*
X86228425Y-67424158D01*
X86098494Y-67238597D01*
X85931402Y-67071506D01*
X85931395Y-67071501D01*
X85737834Y-66935967D01*
X85737830Y-66935965D01*
X85737828Y-66935964D01*
X85523663Y-66836097D01*
X85523659Y-66836096D01*
X85523655Y-66836094D01*
X85295413Y-66774938D01*
X85295403Y-66774936D01*
X85060001Y-66754341D01*
X85059999Y-66754341D01*
X84824596Y-66774936D01*
X84824586Y-66774938D01*
X84596344Y-66836094D01*
X84596335Y-66836098D01*
X84382171Y-66935964D01*
X84382169Y-66935965D01*
X84188597Y-67071505D01*
X84021505Y-67238597D01*
X83891575Y-67424158D01*
X83836998Y-67467783D01*
X83767500Y-67474977D01*
X83705145Y-67443454D01*
X83688425Y-67424158D01*
X83558494Y-67238597D01*
X83391402Y-67071506D01*
X83391395Y-67071501D01*
X83197834Y-66935967D01*
X83197830Y-66935965D01*
X83197828Y-66935964D01*
X82983663Y-66836097D01*
X82983659Y-66836096D01*
X82983655Y-66836094D01*
X82755413Y-66774938D01*
X82755403Y-66774936D01*
X82520001Y-66754341D01*
X82519999Y-66754341D01*
X82284596Y-66774936D01*
X82284586Y-66774938D01*
X82056344Y-66836094D01*
X82056335Y-66836098D01*
X81842171Y-66935964D01*
X81842169Y-66935965D01*
X81648600Y-67071503D01*
X81526673Y-67193430D01*
X81465350Y-67226914D01*
X81395658Y-67221930D01*
X81339725Y-67180058D01*
X81322810Y-67149081D01*
X81273797Y-67017671D01*
X81273793Y-67017664D01*
X81187547Y-66902455D01*
X81187544Y-66902452D01*
X81072335Y-66816206D01*
X81072328Y-66816202D01*
X80937482Y-66765908D01*
X80937483Y-66765908D01*
X80877883Y-66759501D01*
X80877881Y-66759500D01*
X80877873Y-66759500D01*
X80877864Y-66759500D01*
X79082129Y-66759500D01*
X79082123Y-66759501D01*
X79022516Y-66765908D01*
X78887671Y-66816202D01*
X78887664Y-66816206D01*
X78772455Y-66902452D01*
X78772452Y-66902455D01*
X78686206Y-67017664D01*
X78686202Y-67017671D01*
X78635908Y-67152517D01*
X78629501Y-67212116D01*
X78629500Y-67212135D01*
X78629500Y-69007870D01*
X73460826Y-69007870D01*
X73423517Y-68772309D01*
X73328698Y-68418441D01*
X73197409Y-68076422D01*
X73031089Y-67750000D01*
X72963774Y-67646344D01*
X72831564Y-67442758D01*
X72831562Y-67442756D01*
X72822991Y-67432171D01*
X72601007Y-67158043D01*
X72341957Y-66898993D01*
X72057248Y-66668441D01*
X72057247Y-66668440D01*
X72057243Y-66668437D01*
X72057241Y-66668435D01*
X71750004Y-66468913D01*
X71423581Y-66302592D01*
X71081566Y-66171304D01*
X71081559Y-66171302D01*
X70727691Y-66076483D01*
X70727687Y-66076482D01*
X70727686Y-66076482D01*
X70365851Y-66019173D01*
X70000001Y-66000000D01*
X69999999Y-66000000D01*
X69634148Y-66019173D01*
X69272314Y-66076482D01*
X69272312Y-66076482D01*
X68918433Y-66171304D01*
X68576418Y-66302592D01*
X68249995Y-66468913D01*
X67942758Y-66668435D01*
X67942756Y-66668437D01*
X67658047Y-66898989D01*
X67658039Y-66898996D01*
X67398996Y-67158039D01*
X67398989Y-67158047D01*
X67220865Y-67378013D01*
X67163378Y-67417724D01*
X67093547Y-67420052D01*
X67033543Y-67384257D01*
X67002417Y-67321703D01*
X67000499Y-67299977D01*
X67000499Y-63637503D01*
X104594435Y-63637503D01*
X104614630Y-63816749D01*
X104614631Y-63816754D01*
X104674211Y-63987023D01*
X104770183Y-64139762D01*
X104770184Y-64139762D01*
X104897738Y-64267316D01*
X105050478Y-64363289D01*
X105220745Y-64422867D01*
X105220745Y-64422868D01*
X105220750Y-64422869D01*
X105311246Y-64433065D01*
X105355040Y-64437999D01*
X105355043Y-64438000D01*
X105355046Y-64438000D01*
X105444957Y-64438000D01*
X105444958Y-64437999D01*
X105512104Y-64430434D01*
X105579249Y-64422869D01*
X105579252Y-64422868D01*
X105579255Y-64422868D01*
X105749522Y-64363289D01*
X105902262Y-64267316D01*
X106029816Y-64139762D01*
X106125789Y-63987022D01*
X106185368Y-63816755D01*
X106205565Y-63637503D01*
X109594435Y-63637503D01*
X109614630Y-63816749D01*
X109614631Y-63816754D01*
X109674211Y-63987023D01*
X109770184Y-64139762D01*
X109897738Y-64267316D01*
X110050478Y-64363289D01*
X110220744Y-64422867D01*
X110220745Y-64422868D01*
X110220750Y-64422869D01*
X110311246Y-64433065D01*
X110355040Y-64437999D01*
X110355043Y-64438000D01*
X110355046Y-64438000D01*
X110444957Y-64438000D01*
X110444958Y-64437999D01*
X110512104Y-64430434D01*
X110579249Y-64422869D01*
X110579252Y-64422868D01*
X110579255Y-64422868D01*
X110749522Y-64363289D01*
X110902262Y-64267316D01*
X111029816Y-64139762D01*
X111125789Y-63987022D01*
X111185368Y-63816755D01*
X111205565Y-63637500D01*
X111185368Y-63458245D01*
X111125789Y-63287978D01*
X111029816Y-63135238D01*
X110902262Y-63007684D01*
X110902261Y-63007684D01*
X110749523Y-62911711D01*
X110579254Y-62852131D01*
X110579249Y-62852130D01*
X110444960Y-62837000D01*
X110444954Y-62837000D01*
X110355046Y-62837000D01*
X110355039Y-62837000D01*
X110220750Y-62852130D01*
X110220745Y-62852131D01*
X110050476Y-62911711D01*
X109897737Y-63007684D01*
X109770184Y-63135237D01*
X109674211Y-63287976D01*
X109614631Y-63458245D01*
X109614630Y-63458250D01*
X109594435Y-63637496D01*
X109594435Y-63637503D01*
X106205565Y-63637503D01*
X106205565Y-63637500D01*
X106185368Y-63458245D01*
X106125789Y-63287978D01*
X106029816Y-63135238D01*
X105902262Y-63007684D01*
X105902261Y-63007683D01*
X105749523Y-62911711D01*
X105579254Y-62852131D01*
X105579249Y-62852130D01*
X105444960Y-62837000D01*
X105444954Y-62837000D01*
X105355046Y-62837000D01*
X105355039Y-62837000D01*
X105220750Y-62852130D01*
X105220745Y-62852131D01*
X105050476Y-62911711D01*
X104897737Y-63007684D01*
X104770184Y-63135237D01*
X104674211Y-63287976D01*
X104614631Y-63458245D01*
X104614630Y-63458250D01*
X104594435Y-63637496D01*
X104594435Y-63637503D01*
X67000499Y-63637503D01*
X67000499Y-59250003D01*
X80444435Y-59250003D01*
X80464630Y-59429249D01*
X80464631Y-59429254D01*
X80524211Y-59599523D01*
X80580259Y-59688722D01*
X80599203Y-59750788D01*
X80599500Y-59760198D01*
X80599500Y-59790920D01*
X80599501Y-59790940D01*
X80600418Y-59798206D01*
X80600876Y-59804024D01*
X80602402Y-59852567D01*
X80602403Y-59852570D01*
X80608323Y-59872948D01*
X80612268Y-59891996D01*
X80614928Y-59913054D01*
X80614931Y-59913064D01*
X80632813Y-59958230D01*
X80634705Y-59963758D01*
X80648254Y-60010395D01*
X80648255Y-60010397D01*
X80659060Y-60028666D01*
X80667617Y-60046134D01*
X80673226Y-60060300D01*
X80675432Y-60065872D01*
X80703983Y-60105170D01*
X80707188Y-60110049D01*
X80731919Y-60151865D01*
X80731923Y-60151869D01*
X80746925Y-60166871D01*
X80759563Y-60181669D01*
X80772033Y-60198833D01*
X80772036Y-60198836D01*
X80772037Y-60198837D01*
X80809476Y-60229809D01*
X80813776Y-60233722D01*
X81400799Y-60820745D01*
X81979564Y-61399510D01*
X81989635Y-61412080D01*
X81989822Y-61411926D01*
X81994796Y-61417937D01*
X81994798Y-61417940D01*
X82023345Y-61444748D01*
X82047243Y-61467190D01*
X82068967Y-61488913D01*
X82074757Y-61493405D01*
X82079197Y-61497197D01*
X82108498Y-61524711D01*
X82114607Y-61530448D01*
X82114610Y-61530450D01*
X82114612Y-61530451D01*
X82133207Y-61540674D01*
X82149468Y-61551356D01*
X82166232Y-61564359D01*
X82166236Y-61564362D01*
X82210811Y-61583651D01*
X82216050Y-61586217D01*
X82258632Y-61609627D01*
X82279204Y-61614908D01*
X82297594Y-61621205D01*
X82317074Y-61629635D01*
X82361221Y-61636626D01*
X82365048Y-61637233D01*
X82370757Y-61638415D01*
X82417823Y-61650500D01*
X82439045Y-61650500D01*
X82458444Y-61652026D01*
X82479405Y-61655347D01*
X82524104Y-61651121D01*
X82527770Y-61650775D01*
X82533608Y-61650500D01*
X90395432Y-61650500D01*
X90461404Y-61669506D01*
X90550977Y-61725789D01*
X90550981Y-61725790D01*
X90721237Y-61785366D01*
X90721243Y-61785367D01*
X90721245Y-61785368D01*
X90721246Y-61785368D01*
X90721250Y-61785369D01*
X90900496Y-61805565D01*
X90900500Y-61805565D01*
X90900504Y-61805565D01*
X91079749Y-61785369D01*
X91079752Y-61785368D01*
X91079755Y-61785368D01*
X91250022Y-61725789D01*
X91402762Y-61629816D01*
X91530316Y-61502262D01*
X91626289Y-61349522D01*
X91685868Y-61179255D01*
X91706065Y-61000000D01*
X91685868Y-60820745D01*
X91626289Y-60650478D01*
X91530316Y-60497738D01*
X91402762Y-60370184D01*
X91339596Y-60330494D01*
X91250023Y-60274211D01*
X91079754Y-60214631D01*
X91079749Y-60214630D01*
X90929660Y-60197720D01*
X90903133Y-60186573D01*
X90892392Y-60193477D01*
X90871340Y-60197720D01*
X90721250Y-60214630D01*
X90721237Y-60214633D01*
X90550981Y-60274209D01*
X90550977Y-60274210D01*
X90461404Y-60330494D01*
X90395432Y-60349500D01*
X84511230Y-60349500D01*
X84444191Y-60329815D01*
X84398436Y-60277011D01*
X84388492Y-60207853D01*
X84417517Y-60144297D01*
X84423549Y-60137819D01*
X84574549Y-59986819D01*
X84635872Y-59953334D01*
X84662230Y-59950500D01*
X90857457Y-59950500D01*
X90900398Y-59963109D01*
X90922149Y-59952360D01*
X90943543Y-59950500D01*
X99236295Y-59950500D01*
X99254265Y-59951809D01*
X99278023Y-59955289D01*
X99330068Y-59950735D01*
X99335470Y-59950500D01*
X99343704Y-59950500D01*
X99343709Y-59950500D01*
X99355327Y-59949141D01*
X99376276Y-59946693D01*
X99389028Y-59945577D01*
X99452797Y-59939999D01*
X99452805Y-59939996D01*
X99459866Y-59938539D01*
X99459878Y-59938598D01*
X99467243Y-59936965D01*
X99467229Y-59936906D01*
X99474251Y-59935241D01*
X99474255Y-59935241D01*
X99546423Y-59908974D01*
X99553006Y-59906792D01*
X99592006Y-59900500D01*
X99594644Y-59900500D01*
X99594646Y-59900500D01*
X99779803Y-59861144D01*
X99952730Y-59784151D01*
X100105871Y-59672888D01*
X100232533Y-59532216D01*
X100327179Y-59368284D01*
X100385674Y-59188256D01*
X100405460Y-59000000D01*
X100385674Y-58811744D01*
X100327179Y-58631716D01*
X100232533Y-58467784D01*
X100105871Y-58327112D01*
X100105870Y-58327111D01*
X99952734Y-58215851D01*
X99952729Y-58215848D01*
X99779807Y-58138857D01*
X99779802Y-58138855D01*
X99634000Y-58107865D01*
X99594646Y-58099500D01*
X99405354Y-58099500D01*
X99372897Y-58106398D01*
X99220197Y-58138855D01*
X99220192Y-58138857D01*
X99047270Y-58215848D01*
X99047265Y-58215851D01*
X98894129Y-58327111D01*
X98820872Y-58408472D01*
X98761385Y-58445121D01*
X98728722Y-58449500D01*
X97581135Y-58449500D01*
X97514096Y-58429815D01*
X97468341Y-58377011D01*
X97458397Y-58307853D01*
X97487422Y-58244297D01*
X97493454Y-58237819D01*
X97631773Y-58099500D01*
X98175300Y-57555971D01*
X98222022Y-57526613D01*
X98349522Y-57482000D01*
X98502262Y-57386027D01*
X98629816Y-57258473D01*
X98725789Y-57105733D01*
X98785368Y-56935466D01*
X98785654Y-56932930D01*
X98805565Y-56756214D01*
X98805565Y-56756207D01*
X98785369Y-56576961D01*
X98785368Y-56576956D01*
X98725788Y-56406687D01*
X98650568Y-56286976D01*
X98629816Y-56253949D01*
X98502262Y-56126395D01*
X98451336Y-56094396D01*
X98349523Y-56030422D01*
X98179254Y-55970842D01*
X98179249Y-55970841D01*
X98000004Y-55950646D01*
X97999996Y-55950646D01*
X97820750Y-55970841D01*
X97820745Y-55970842D01*
X97650476Y-56030422D01*
X97497734Y-56126397D01*
X97480155Y-56143976D01*
X97418831Y-56177460D01*
X97351521Y-56173335D01*
X97183645Y-56114592D01*
X97183640Y-56114591D01*
X97004395Y-56094396D01*
X97004387Y-56094396D01*
X96825141Y-56114591D01*
X96825136Y-56114592D01*
X96654867Y-56174172D01*
X96502128Y-56270145D01*
X96374575Y-56397698D01*
X96278602Y-56550437D01*
X96219022Y-56720706D01*
X96219021Y-56720711D01*
X96198826Y-56899955D01*
X96198826Y-56899957D01*
X96198826Y-56899961D01*
X96199023Y-56901713D01*
X96198826Y-56902840D01*
X96198826Y-56906924D01*
X96198111Y-56906924D01*
X96186972Y-56970533D01*
X96139626Y-57021914D01*
X96075804Y-57039600D01*
X92624276Y-57039600D01*
X92557237Y-57019915D01*
X92511482Y-56967111D01*
X92507759Y-56958023D01*
X92496495Y-56927075D01*
X92415092Y-56786079D01*
X92415089Y-56786076D01*
X92415089Y-56786075D01*
X92350018Y-56708527D01*
X92310441Y-56661361D01*
X92185723Y-56556710D01*
X92185718Y-56556707D01*
X92185716Y-56556705D01*
X92044732Y-56475308D01*
X92044730Y-56475307D01*
X92044728Y-56475306D01*
X92013882Y-56464079D01*
X91891740Y-56419623D01*
X91731404Y-56391351D01*
X91701363Y-56391351D01*
X91701360Y-56391350D01*
X91650000Y-56391350D01*
X91568596Y-56391350D01*
X91568595Y-56391350D01*
X91408260Y-56419622D01*
X91255274Y-56475304D01*
X91255267Y-56475307D01*
X91114279Y-56556707D01*
X91114273Y-56556711D01*
X90989559Y-56661359D01*
X90989551Y-56661367D01*
X90884909Y-56786076D01*
X90803506Y-56927071D01*
X90803505Y-56927072D01*
X90803503Y-56927075D01*
X90803504Y-56927075D01*
X90792243Y-56958012D01*
X90750818Y-57014275D01*
X90685550Y-57039210D01*
X90675723Y-57039600D01*
X86815165Y-57039600D01*
X86748126Y-57019915D01*
X86708437Y-56978727D01*
X86702831Y-56969249D01*
X86694273Y-56951783D01*
X86686809Y-56932930D01*
X86662855Y-56899961D01*
X86659189Y-56894915D01*
X86655980Y-56890029D01*
X86632064Y-56849590D01*
X86632058Y-56849582D01*
X86617734Y-56835259D01*
X86605099Y-56820467D01*
X86593181Y-56804063D01*
X86593178Y-56804061D01*
X86593178Y-56804060D01*
X86593177Y-56804059D01*
X86556973Y-56774109D01*
X86552661Y-56770186D01*
X86308295Y-56525820D01*
X86166769Y-56384293D01*
X86133284Y-56322970D01*
X86130450Y-56296612D01*
X86130450Y-56286976D01*
X86149457Y-56221003D01*
X86225788Y-56099524D01*
X86225789Y-56099522D01*
X86285368Y-55929255D01*
X86288062Y-55905345D01*
X86305565Y-55750003D01*
X86305565Y-55749996D01*
X86285369Y-55570750D01*
X86285368Y-55570745D01*
X86225788Y-55400476D01*
X86153972Y-55286182D01*
X86129816Y-55247738D01*
X86002262Y-55120184D01*
X85849523Y-55024211D01*
X85679254Y-54964631D01*
X85679249Y-54964630D01*
X85500004Y-54944435D01*
X85499996Y-54944435D01*
X85320750Y-54964630D01*
X85320745Y-54964631D01*
X85150476Y-55024211D01*
X84997737Y-55120184D01*
X84870184Y-55247737D01*
X84774211Y-55400476D01*
X84714631Y-55570745D01*
X84714630Y-55570750D01*
X84694435Y-55749996D01*
X84694435Y-55750003D01*
X84714630Y-55929249D01*
X84714631Y-55929254D01*
X84774211Y-56099524D01*
X84850543Y-56221003D01*
X84869550Y-56286976D01*
X84869550Y-56525820D01*
X84867816Y-56541518D01*
X84868093Y-56541545D01*
X84867358Y-56549311D01*
X84869550Y-56619037D01*
X84869550Y-56648793D01*
X84870427Y-56655725D01*
X84870885Y-56661550D01*
X84872361Y-56708521D01*
X84872362Y-56708527D01*
X84878016Y-56727988D01*
X84881961Y-56747032D01*
X84884502Y-56767146D01*
X84884505Y-56767156D01*
X84901799Y-56810836D01*
X84903691Y-56816363D01*
X84916520Y-56860516D01*
X84916322Y-56930386D01*
X84885127Y-56982793D01*
X84870186Y-56997734D01*
X84774211Y-57150476D01*
X84714631Y-57320745D01*
X84714630Y-57320750D01*
X84694435Y-57499996D01*
X84694435Y-57500003D01*
X84714630Y-57679249D01*
X84714631Y-57679254D01*
X84774211Y-57849523D01*
X84870183Y-58002262D01*
X84870184Y-58002262D01*
X84997738Y-58129816D01*
X85012127Y-58138857D01*
X85142070Y-58220506D01*
X85188361Y-58272841D01*
X85199009Y-58341895D01*
X85170634Y-58405743D01*
X85112244Y-58444115D01*
X85076098Y-58449500D01*
X84363705Y-58449500D01*
X84345735Y-58448191D01*
X84321972Y-58444710D01*
X84276533Y-58448686D01*
X84269931Y-58449264D01*
X84264530Y-58449500D01*
X84256289Y-58449500D01*
X84234579Y-58452037D01*
X84223724Y-58453306D01*
X84208419Y-58454645D01*
X84147199Y-58460001D01*
X84140132Y-58461460D01*
X84140120Y-58461404D01*
X84132763Y-58463035D01*
X84132777Y-58463092D01*
X84125743Y-58464759D01*
X84053575Y-58491025D01*
X83980675Y-58515181D01*
X83974126Y-58518236D01*
X83974101Y-58518183D01*
X83967308Y-58521471D01*
X83967334Y-58521523D01*
X83960880Y-58524764D01*
X83896708Y-58566971D01*
X83831347Y-58607285D01*
X83825683Y-58611765D01*
X83825647Y-58611719D01*
X83819798Y-58616484D01*
X83819835Y-58616528D01*
X83814310Y-58621164D01*
X83761598Y-58677034D01*
X83276866Y-59161764D01*
X83215543Y-59195249D01*
X83145851Y-59190265D01*
X83138749Y-59187362D01*
X83029807Y-59138857D01*
X83029802Y-59138855D01*
X82884000Y-59107865D01*
X82844646Y-59099500D01*
X82655354Y-59099500D01*
X82622897Y-59106398D01*
X82470197Y-59138855D01*
X82470192Y-59138857D01*
X82297270Y-59215848D01*
X82297266Y-59215851D01*
X82242561Y-59255596D01*
X82176754Y-59279075D01*
X82108701Y-59263249D01*
X82060007Y-59213142D01*
X82046457Y-59169160D01*
X82035369Y-59070750D01*
X82035368Y-59070745D01*
X81975788Y-58900476D01*
X81879815Y-58747737D01*
X81752262Y-58620184D01*
X81599523Y-58524211D01*
X81429254Y-58464631D01*
X81429249Y-58464630D01*
X81250004Y-58444435D01*
X81249996Y-58444435D01*
X81070750Y-58464630D01*
X81070745Y-58464631D01*
X80900476Y-58524211D01*
X80747737Y-58620184D01*
X80620184Y-58747737D01*
X80524211Y-58900476D01*
X80464631Y-59070745D01*
X80464630Y-59070750D01*
X80444435Y-59249996D01*
X80444435Y-59250003D01*
X67000499Y-59250003D01*
X67000499Y-48700022D01*
X67020184Y-48632983D01*
X67072988Y-48587228D01*
X67142146Y-48577284D01*
X67205702Y-48606309D01*
X67220865Y-48621987D01*
X67398981Y-48841943D01*
X67398989Y-48841952D01*
X67398993Y-48841957D01*
X67658043Y-49101007D01*
X67937261Y-49327112D01*
X67942756Y-49331562D01*
X67942758Y-49331564D01*
X68249995Y-49531086D01*
X68250000Y-49531089D01*
X68576422Y-49697409D01*
X68918441Y-49828698D01*
X69272309Y-49923517D01*
X69634150Y-49980827D01*
X69979765Y-49998939D01*
X69999999Y-50000000D01*
X70000000Y-50000000D01*
X70000001Y-50000000D01*
X70019173Y-49998995D01*
X70365850Y-49980827D01*
X70727691Y-49923517D01*
X71081559Y-49828698D01*
X71423578Y-49697409D01*
X71750000Y-49531089D01*
X71894337Y-49437354D01*
X72057241Y-49331564D01*
X72057243Y-49331562D01*
X72057248Y-49331559D01*
X72341957Y-49101007D01*
X72601007Y-48841957D01*
X72831559Y-48557248D01*
X72912756Y-48432217D01*
X72999500Y-48298642D01*
X73031089Y-48250000D01*
X73197409Y-47923578D01*
X73309737Y-47630953D01*
X73352138Y-47575423D01*
X73417832Y-47551630D01*
X73485960Y-47567131D01*
X73534893Y-47617005D01*
X73549500Y-47675393D01*
X73549500Y-48687870D01*
X73549501Y-48687876D01*
X73555908Y-48747483D01*
X73606202Y-48882328D01*
X73606206Y-48882335D01*
X73692452Y-48997544D01*
X73692455Y-48997547D01*
X73807664Y-49083793D01*
X73807671Y-49083797D01*
X73942517Y-49134091D01*
X73942516Y-49134091D01*
X73949444Y-49134835D01*
X74002127Y-49140500D01*
X75797872Y-49140499D01*
X75857483Y-49134091D01*
X75992331Y-49083796D01*
X76107546Y-48997546D01*
X76193796Y-48882331D01*
X76242810Y-48750916D01*
X76284681Y-48694984D01*
X76350145Y-48670566D01*
X76418418Y-48685417D01*
X76446672Y-48706569D01*
X76568599Y-48828495D01*
X76665384Y-48896265D01*
X76762165Y-48964032D01*
X76762167Y-48964033D01*
X76762170Y-48964035D01*
X76976337Y-49063903D01*
X77204592Y-49125063D01*
X77381034Y-49140500D01*
X77439999Y-49145659D01*
X77440000Y-49145659D01*
X77440001Y-49145659D01*
X77498966Y-49140500D01*
X77675408Y-49125063D01*
X77903663Y-49063903D01*
X78117830Y-48964035D01*
X78311401Y-48828495D01*
X78478495Y-48661401D01*
X78608426Y-48475840D01*
X78663001Y-48432217D01*
X78732499Y-48425023D01*
X78794854Y-48456546D01*
X78811574Y-48475841D01*
X78941505Y-48661401D01*
X79108599Y-48828495D01*
X79205384Y-48896264D01*
X79302165Y-48964032D01*
X79302167Y-48964033D01*
X79302170Y-48964035D01*
X79410864Y-49014720D01*
X79463302Y-49060891D01*
X79482454Y-49128085D01*
X79462238Y-49194966D01*
X79431344Y-49227419D01*
X79294127Y-49327113D01*
X79167466Y-49467785D01*
X79072821Y-49631715D01*
X79072818Y-49631722D01*
X79014327Y-49811740D01*
X79014326Y-49811744D01*
X78994540Y-50000000D01*
X79014326Y-50188256D01*
X79014327Y-50188259D01*
X79072818Y-50368277D01*
X79072821Y-50368284D01*
X79167467Y-50532216D01*
X79294128Y-50672887D01*
X79294129Y-50672888D01*
X79447265Y-50784148D01*
X79447270Y-50784151D01*
X79620192Y-50861142D01*
X79620197Y-50861144D01*
X79805354Y-50900500D01*
X79805355Y-50900500D01*
X79994644Y-50900500D01*
X79994646Y-50900500D01*
X80179803Y-50861144D01*
X80352730Y-50784151D01*
X80505871Y-50672888D01*
X80632533Y-50532216D01*
X80727179Y-50368284D01*
X80785674Y-50188256D01*
X80799168Y-50059855D01*
X80825752Y-49995242D01*
X80834799Y-49985145D01*
X81699513Y-49120431D01*
X81712079Y-49110365D01*
X81711925Y-49110178D01*
X81717937Y-49105204D01*
X81717937Y-49105203D01*
X81717940Y-49105202D01*
X81767190Y-49052755D01*
X81788911Y-49031035D01*
X81788914Y-49031030D01*
X81790145Y-49029800D01*
X81851468Y-48996315D01*
X81921160Y-49001299D01*
X81930230Y-49005099D01*
X82056330Y-49063900D01*
X82056332Y-49063900D01*
X82056337Y-49063903D01*
X82284592Y-49125063D01*
X82461034Y-49140500D01*
X82519999Y-49145659D01*
X82520000Y-49145659D01*
X82520001Y-49145659D01*
X82578966Y-49140500D01*
X82755408Y-49125063D01*
X82983663Y-49063903D01*
X83197830Y-48964035D01*
X83391401Y-48828495D01*
X83558495Y-48661401D01*
X83688730Y-48475405D01*
X83743307Y-48431781D01*
X83812805Y-48424587D01*
X83875160Y-48456110D01*
X83891879Y-48475405D01*
X84021890Y-48661078D01*
X84188917Y-48828105D01*
X84382421Y-48963600D01*
X84596507Y-49063429D01*
X84596516Y-49063433D01*
X84810000Y-49120634D01*
X84810000Y-48402301D01*
X84829685Y-48335262D01*
X84882489Y-48289507D01*
X84951647Y-48279563D01*
X85024237Y-48290000D01*
X85024238Y-48290000D01*
X85095762Y-48290000D01*
X85095763Y-48290000D01*
X85168353Y-48279563D01*
X85237512Y-48289507D01*
X85290315Y-48335262D01*
X85310000Y-48402301D01*
X85310000Y-49120633D01*
X85523483Y-49063433D01*
X85523492Y-49063429D01*
X85737578Y-48963600D01*
X85931082Y-48828105D01*
X86098105Y-48661082D01*
X86228119Y-48475405D01*
X86282696Y-48431781D01*
X86352195Y-48424588D01*
X86414549Y-48456110D01*
X86431269Y-48475405D01*
X86561505Y-48661401D01*
X86728599Y-48828495D01*
X86825384Y-48896265D01*
X86922165Y-48964032D01*
X86922167Y-48964033D01*
X86922170Y-48964035D01*
X87136337Y-49063903D01*
X87364592Y-49125063D01*
X87541034Y-49140500D01*
X87599999Y-49145659D01*
X87600000Y-49145659D01*
X87600001Y-49145659D01*
X87658966Y-49140500D01*
X87835408Y-49125063D01*
X88063663Y-49063903D01*
X88277830Y-48964035D01*
X88471401Y-48828495D01*
X88638495Y-48661401D01*
X88768426Y-48475840D01*
X88823001Y-48432217D01*
X88892499Y-48425023D01*
X88954854Y-48456546D01*
X88971574Y-48475841D01*
X89101505Y-48661401D01*
X89268599Y-48828495D01*
X89365384Y-48896265D01*
X89462165Y-48964032D01*
X89462167Y-48964033D01*
X89462170Y-48964035D01*
X89676337Y-49063903D01*
X89904592Y-49125063D01*
X90081034Y-49140500D01*
X90139999Y-49145659D01*
X90140000Y-49145659D01*
X90140001Y-49145659D01*
X90198966Y-49140500D01*
X90375408Y-49125063D01*
X90603663Y-49063903D01*
X90817830Y-48964035D01*
X91011401Y-48828495D01*
X91178495Y-48661401D01*
X91308426Y-48475840D01*
X91363001Y-48432217D01*
X91432499Y-48425023D01*
X91494854Y-48456546D01*
X91511574Y-48475841D01*
X91641505Y-48661401D01*
X91808599Y-48828495D01*
X91905384Y-48896265D01*
X92002165Y-48964032D01*
X92002167Y-48964033D01*
X92002170Y-48964035D01*
X92216337Y-49063903D01*
X92444592Y-49125063D01*
X92528173Y-49132375D01*
X92593241Y-49157827D01*
X92634220Y-49214418D01*
X92638098Y-49284180D01*
X92605046Y-49343584D01*
X92014358Y-49934272D01*
X92000729Y-49946051D01*
X91981468Y-49960390D01*
X91947898Y-50000397D01*
X91944253Y-50004376D01*
X91938409Y-50010222D01*
X91918059Y-50035959D01*
X91868695Y-50094789D01*
X91864729Y-50100819D01*
X91864682Y-50100788D01*
X91860630Y-50107147D01*
X91860679Y-50107177D01*
X91856889Y-50113321D01*
X91824424Y-50182941D01*
X91789960Y-50251566D01*
X91787488Y-50258357D01*
X91787432Y-50258336D01*
X91784960Y-50265450D01*
X91785015Y-50265469D01*
X91782742Y-50272327D01*
X91774974Y-50309945D01*
X91767207Y-50347565D01*
X91762297Y-50368284D01*
X91749498Y-50422286D01*
X91748661Y-50429454D01*
X91748601Y-50429447D01*
X91747835Y-50436945D01*
X91747895Y-50436951D01*
X91747265Y-50444140D01*
X91749500Y-50520916D01*
X91749500Y-53965677D01*
X91732887Y-54027677D01*
X91672821Y-54131714D01*
X91626521Y-54274211D01*
X91614326Y-54311744D01*
X91595753Y-54488462D01*
X91569168Y-54553076D01*
X91511871Y-54593061D01*
X91472432Y-54599500D01*
X88570808Y-54599500D01*
X88503769Y-54579815D01*
X88483127Y-54563181D01*
X88321722Y-54401776D01*
X88288237Y-54340453D01*
X88286182Y-54327973D01*
X88285368Y-54320745D01*
X88225789Y-54150478D01*
X88217536Y-54137344D01*
X88129815Y-53997737D01*
X88002262Y-53870184D01*
X87849523Y-53774211D01*
X87679254Y-53714631D01*
X87679249Y-53714630D01*
X87500004Y-53694435D01*
X87499996Y-53694435D01*
X87320750Y-53714630D01*
X87320745Y-53714631D01*
X87150476Y-53774211D01*
X86997737Y-53870184D01*
X86870184Y-53997737D01*
X86774211Y-54150476D01*
X86714631Y-54320745D01*
X86714630Y-54320750D01*
X86694435Y-54499996D01*
X86694435Y-54500003D01*
X86714630Y-54679249D01*
X86714631Y-54679254D01*
X86774211Y-54849523D01*
X86833849Y-54944435D01*
X86870184Y-55002262D01*
X86997738Y-55129816D01*
X87150478Y-55225789D01*
X87320745Y-55285368D01*
X87327974Y-55286182D01*
X87392388Y-55313246D01*
X87401776Y-55321722D01*
X87729564Y-55649510D01*
X87739635Y-55662080D01*
X87739822Y-55661926D01*
X87744796Y-55667937D01*
X87744798Y-55667940D01*
X87773345Y-55694748D01*
X87797243Y-55717190D01*
X87818967Y-55738913D01*
X87824757Y-55743405D01*
X87829197Y-55747197D01*
X87858498Y-55774711D01*
X87864607Y-55780448D01*
X87864609Y-55780449D01*
X87883205Y-55790672D01*
X87899470Y-55801357D01*
X87916232Y-55814360D01*
X87916235Y-55814361D01*
X87916236Y-55814362D01*
X87960823Y-55833656D01*
X87966059Y-55836221D01*
X88008632Y-55859627D01*
X88024340Y-55863659D01*
X88029186Y-55864904D01*
X88047598Y-55871207D01*
X88067073Y-55879635D01*
X88115071Y-55887237D01*
X88120740Y-55888411D01*
X88167823Y-55900500D01*
X88189051Y-55900500D01*
X88208448Y-55902026D01*
X88229403Y-55905345D01*
X88229404Y-55905346D01*
X88229404Y-55905345D01*
X88229405Y-55905346D01*
X88277760Y-55900775D01*
X88283599Y-55900500D01*
X93164495Y-55900500D01*
X93180505Y-55902267D01*
X93180528Y-55902026D01*
X93188289Y-55902758D01*
X93188296Y-55902760D01*
X93260203Y-55900500D01*
X93290925Y-55900500D01*
X93298190Y-55899581D01*
X93304016Y-55899122D01*
X93352569Y-55897597D01*
X93372956Y-55891673D01*
X93391996Y-55887731D01*
X93413058Y-55885071D01*
X93458235Y-55867183D01*
X93463735Y-55865300D01*
X93510398Y-55851744D01*
X93528665Y-55840939D01*
X93546136Y-55832380D01*
X93565871Y-55824568D01*
X93582437Y-55812531D01*
X93641438Y-55789628D01*
X93679255Y-55785368D01*
X93849522Y-55725789D01*
X94002262Y-55629816D01*
X94129816Y-55502262D01*
X94225789Y-55349522D01*
X94285368Y-55179255D01*
X94285369Y-55179249D01*
X94305565Y-55000003D01*
X94305565Y-54999996D01*
X94285369Y-54820750D01*
X94285368Y-54820745D01*
X94285367Y-54820744D01*
X94225789Y-54650478D01*
X94129816Y-54497738D01*
X94002262Y-54370184D01*
X93849523Y-54274211D01*
X93679254Y-54214631D01*
X93679249Y-54214630D01*
X93500004Y-54194435D01*
X93499997Y-54194435D01*
X93452255Y-54199814D01*
X93383433Y-54187759D01*
X93332054Y-54140410D01*
X93330452Y-54137330D01*
X93330429Y-54137344D01*
X93267113Y-54027677D01*
X93250500Y-53965677D01*
X93250500Y-52281440D01*
X93270185Y-52214401D01*
X93322989Y-52168646D01*
X93392147Y-52158702D01*
X93455703Y-52187727D01*
X93462181Y-52193759D01*
X93497738Y-52229316D01*
X93650478Y-52325289D01*
X93778781Y-52370184D01*
X93820745Y-52384868D01*
X93820749Y-52384869D01*
X93940112Y-52398317D01*
X94004526Y-52425383D01*
X94013910Y-52433856D01*
X94678277Y-53098223D01*
X94711762Y-53159546D01*
X94713815Y-53172012D01*
X94714630Y-53179246D01*
X94714632Y-53179255D01*
X94774210Y-53349521D01*
X94775788Y-53352032D01*
X94870184Y-53502262D01*
X94997738Y-53629816D01*
X95088080Y-53686581D01*
X95132721Y-53714632D01*
X95150478Y-53725789D01*
X95288860Y-53774211D01*
X95320745Y-53785368D01*
X95320750Y-53785369D01*
X95499996Y-53805565D01*
X95500000Y-53805565D01*
X95500004Y-53805565D01*
X95679249Y-53785369D01*
X95679252Y-53785368D01*
X95679255Y-53785368D01*
X95849522Y-53725789D01*
X96002262Y-53629816D01*
X96129816Y-53502262D01*
X96225789Y-53349522D01*
X96285368Y-53179255D01*
X96291041Y-53128904D01*
X96305565Y-53000003D01*
X96305565Y-52999996D01*
X96292045Y-52880000D01*
X101484341Y-52880000D01*
X101504936Y-53115403D01*
X101504938Y-53115413D01*
X101566094Y-53343655D01*
X101566096Y-53343659D01*
X101566097Y-53343663D01*
X101568830Y-53349523D01*
X101665965Y-53557830D01*
X101665967Y-53557834D01*
X101716369Y-53629815D01*
X101801505Y-53751401D01*
X101968599Y-53918495D01*
X102065384Y-53986264D01*
X102162165Y-54054032D01*
X102162167Y-54054033D01*
X102162170Y-54054035D01*
X102376337Y-54153903D01*
X102604592Y-54215063D01*
X102781034Y-54230500D01*
X102839999Y-54235659D01*
X102840000Y-54235659D01*
X102840001Y-54235659D01*
X102898966Y-54230500D01*
X103075408Y-54215063D01*
X103303663Y-54153903D01*
X103517830Y-54054035D01*
X103711401Y-53918495D01*
X103878495Y-53751401D01*
X104008426Y-53565840D01*
X104063001Y-53522217D01*
X104132499Y-53515023D01*
X104194854Y-53546546D01*
X104211574Y-53565841D01*
X104341505Y-53751401D01*
X104508599Y-53918495D01*
X104605384Y-53986264D01*
X104702165Y-54054032D01*
X104702167Y-54054033D01*
X104702170Y-54054035D01*
X104916337Y-54153903D01*
X105144592Y-54215063D01*
X105321034Y-54230500D01*
X105379999Y-54235659D01*
X105380000Y-54235659D01*
X105380001Y-54235659D01*
X105438966Y-54230500D01*
X105615408Y-54215063D01*
X105843663Y-54153903D01*
X106057830Y-54054035D01*
X106251401Y-53918495D01*
X106418495Y-53751401D01*
X106548426Y-53565841D01*
X106603002Y-53522217D01*
X106672500Y-53515023D01*
X106734855Y-53546546D01*
X106751575Y-53565842D01*
X106881500Y-53751395D01*
X106881505Y-53751401D01*
X107048599Y-53918495D01*
X107145384Y-53986264D01*
X107242165Y-54054032D01*
X107242167Y-54054033D01*
X107242170Y-54054035D01*
X107456337Y-54153903D01*
X107684592Y-54215063D01*
X107861034Y-54230500D01*
X107919999Y-54235659D01*
X107920000Y-54235659D01*
X107920001Y-54235659D01*
X107978966Y-54230500D01*
X108155408Y-54215063D01*
X108383663Y-54153903D01*
X108597830Y-54054035D01*
X108791401Y-53918495D01*
X108958495Y-53751401D01*
X109088426Y-53565840D01*
X109143001Y-53522217D01*
X109212499Y-53515023D01*
X109274854Y-53546546D01*
X109291574Y-53565841D01*
X109421505Y-53751401D01*
X109588599Y-53918495D01*
X109685384Y-53986265D01*
X109782165Y-54054032D01*
X109782167Y-54054033D01*
X109782170Y-54054035D01*
X109996337Y-54153903D01*
X110224592Y-54215063D01*
X110401034Y-54230500D01*
X110459999Y-54235659D01*
X110460000Y-54235659D01*
X110460001Y-54235659D01*
X110518966Y-54230500D01*
X110695408Y-54215063D01*
X110923663Y-54153903D01*
X111137830Y-54054035D01*
X111331401Y-53918495D01*
X111498495Y-53751401D01*
X111628426Y-53565841D01*
X111683002Y-53522217D01*
X111752500Y-53515023D01*
X111814855Y-53546546D01*
X111831575Y-53565842D01*
X111961500Y-53751395D01*
X111961505Y-53751401D01*
X112128599Y-53918495D01*
X112225384Y-53986265D01*
X112322165Y-54054032D01*
X112322167Y-54054033D01*
X112322170Y-54054035D01*
X112536337Y-54153903D01*
X112764592Y-54215063D01*
X112941034Y-54230500D01*
X112999999Y-54235659D01*
X113000000Y-54235659D01*
X113000001Y-54235659D01*
X113058966Y-54230500D01*
X113235408Y-54215063D01*
X113463663Y-54153903D01*
X113677830Y-54054035D01*
X113871401Y-53918495D01*
X114038495Y-53751401D01*
X114168426Y-53565840D01*
X114223001Y-53522217D01*
X114292499Y-53515023D01*
X114354854Y-53546546D01*
X114371574Y-53565841D01*
X114501505Y-53751401D01*
X114668599Y-53918495D01*
X114765384Y-53986265D01*
X114862165Y-54054032D01*
X114862167Y-54054033D01*
X114862170Y-54054035D01*
X115076337Y-54153903D01*
X115304592Y-54215063D01*
X115481034Y-54230500D01*
X115539999Y-54235659D01*
X115540000Y-54235659D01*
X115540001Y-54235659D01*
X115598966Y-54230500D01*
X115775408Y-54215063D01*
X116003663Y-54153903D01*
X116217830Y-54054035D01*
X116411401Y-53918495D01*
X116533329Y-53796566D01*
X116594648Y-53763084D01*
X116664340Y-53768068D01*
X116720274Y-53809939D01*
X116737189Y-53840917D01*
X116786202Y-53972328D01*
X116786206Y-53972335D01*
X116872452Y-54087544D01*
X116872455Y-54087547D01*
X116987664Y-54173793D01*
X116987671Y-54173797D01*
X117122517Y-54224091D01*
X117122516Y-54224091D01*
X117129444Y-54224835D01*
X117182127Y-54230500D01*
X118977872Y-54230499D01*
X119037483Y-54224091D01*
X119172331Y-54173796D01*
X119287546Y-54087546D01*
X119373796Y-53972331D01*
X119424091Y-53837483D01*
X119430500Y-53777873D01*
X119430499Y-51982128D01*
X119424091Y-51922517D01*
X119422810Y-51919083D01*
X119373797Y-51787671D01*
X119373793Y-51787664D01*
X119287547Y-51672455D01*
X119287544Y-51672452D01*
X119172335Y-51586206D01*
X119172328Y-51586202D01*
X119037482Y-51535908D01*
X119037483Y-51535908D01*
X118977883Y-51529501D01*
X118977881Y-51529500D01*
X118977873Y-51529500D01*
X118977864Y-51529500D01*
X117182129Y-51529500D01*
X117182123Y-51529501D01*
X117122516Y-51535908D01*
X116987671Y-51586202D01*
X116987664Y-51586206D01*
X116872455Y-51672452D01*
X116872452Y-51672455D01*
X116786206Y-51787664D01*
X116786203Y-51787669D01*
X116737189Y-51919083D01*
X116695317Y-51975016D01*
X116629853Y-51999433D01*
X116561580Y-51984581D01*
X116533326Y-51963430D01*
X116411402Y-51841506D01*
X116411395Y-51841501D01*
X116217834Y-51705967D01*
X116217830Y-51705965D01*
X116217828Y-51705964D01*
X116003663Y-51606097D01*
X116003659Y-51606096D01*
X116003655Y-51606094D01*
X115775413Y-51544938D01*
X115775403Y-51544936D01*
X115540001Y-51524341D01*
X115539999Y-51524341D01*
X115304596Y-51544936D01*
X115304586Y-51544938D01*
X115076344Y-51606094D01*
X115076335Y-51606098D01*
X114862171Y-51705964D01*
X114862169Y-51705965D01*
X114668597Y-51841505D01*
X114501508Y-52008594D01*
X114371574Y-52194159D01*
X114316997Y-52237784D01*
X114247498Y-52244976D01*
X114185144Y-52213454D01*
X114168424Y-52194158D01*
X114150560Y-52168646D01*
X114038495Y-52008599D01*
X114038494Y-52008597D01*
X113871402Y-51841506D01*
X113871395Y-51841501D01*
X113677834Y-51705967D01*
X113677830Y-51705965D01*
X113677828Y-51705964D01*
X113463663Y-51606097D01*
X113463659Y-51606096D01*
X113463655Y-51606094D01*
X113235413Y-51544938D01*
X113235403Y-51544936D01*
X113000001Y-51524341D01*
X112999999Y-51524341D01*
X112764596Y-51544936D01*
X112764586Y-51544938D01*
X112536344Y-51606094D01*
X112536335Y-51606098D01*
X112322171Y-51705964D01*
X112322169Y-51705965D01*
X112128597Y-51841505D01*
X111961505Y-52008597D01*
X111831575Y-52194158D01*
X111776998Y-52237783D01*
X111707500Y-52244977D01*
X111645145Y-52213454D01*
X111628425Y-52194158D01*
X111498494Y-52008597D01*
X111331402Y-51841506D01*
X111331395Y-51841501D01*
X111137834Y-51705967D01*
X111137830Y-51705965D01*
X111137828Y-51705964D01*
X110923663Y-51606097D01*
X110923659Y-51606096D01*
X110923655Y-51606094D01*
X110695413Y-51544938D01*
X110695403Y-51544936D01*
X110460001Y-51524341D01*
X110459999Y-51524341D01*
X110224596Y-51544936D01*
X110224586Y-51544938D01*
X109996344Y-51606094D01*
X109996335Y-51606098D01*
X109782171Y-51705964D01*
X109782169Y-51705965D01*
X109588597Y-51841505D01*
X109421505Y-52008597D01*
X109291575Y-52194158D01*
X109236998Y-52237783D01*
X109167500Y-52244977D01*
X109105145Y-52213454D01*
X109088425Y-52194158D01*
X108958494Y-52008597D01*
X108791402Y-51841506D01*
X108791395Y-51841501D01*
X108597834Y-51705967D01*
X108597830Y-51705965D01*
X108597828Y-51705964D01*
X108383663Y-51606097D01*
X108383659Y-51606096D01*
X108383655Y-51606094D01*
X108155413Y-51544938D01*
X108155403Y-51544936D01*
X107920001Y-51524341D01*
X107919999Y-51524341D01*
X107684596Y-51544936D01*
X107684586Y-51544938D01*
X107456344Y-51606094D01*
X107456335Y-51606098D01*
X107242171Y-51705964D01*
X107242169Y-51705965D01*
X107048597Y-51841505D01*
X106881505Y-52008597D01*
X106751575Y-52194158D01*
X106696998Y-52237783D01*
X106627500Y-52244977D01*
X106565145Y-52213454D01*
X106548425Y-52194158D01*
X106418494Y-52008597D01*
X106251402Y-51841506D01*
X106251395Y-51841501D01*
X106057834Y-51705967D01*
X106057830Y-51705965D01*
X106057828Y-51705964D01*
X105843663Y-51606097D01*
X105843659Y-51606096D01*
X105843655Y-51606094D01*
X105615413Y-51544938D01*
X105615403Y-51544936D01*
X105380001Y-51524341D01*
X105379999Y-51524341D01*
X105144596Y-51544936D01*
X105144586Y-51544938D01*
X104916344Y-51606094D01*
X104916335Y-51606098D01*
X104702171Y-51705964D01*
X104702169Y-51705965D01*
X104508597Y-51841505D01*
X104341505Y-52008597D01*
X104211575Y-52194158D01*
X104156998Y-52237783D01*
X104087500Y-52244977D01*
X104025145Y-52213454D01*
X104008425Y-52194158D01*
X103878494Y-52008597D01*
X103711402Y-51841506D01*
X103711395Y-51841501D01*
X103517834Y-51705967D01*
X103517830Y-51705965D01*
X103517828Y-51705964D01*
X103303663Y-51606097D01*
X103303659Y-51606096D01*
X103303655Y-51606094D01*
X103075413Y-51544938D01*
X103075403Y-51544936D01*
X102840001Y-51524341D01*
X102839999Y-51524341D01*
X102604596Y-51544936D01*
X102604586Y-51544938D01*
X102376344Y-51606094D01*
X102376335Y-51606098D01*
X102162171Y-51705964D01*
X102162169Y-51705965D01*
X101968597Y-51841505D01*
X101801505Y-52008597D01*
X101665965Y-52202169D01*
X101665964Y-52202171D01*
X101566098Y-52416335D01*
X101566094Y-52416344D01*
X101504938Y-52644586D01*
X101504936Y-52644596D01*
X101484341Y-52879999D01*
X101484341Y-52880000D01*
X96292045Y-52880000D01*
X96285369Y-52820750D01*
X96285368Y-52820745D01*
X96225788Y-52650476D01*
X96129815Y-52497737D01*
X96002262Y-52370184D01*
X95849521Y-52274210D01*
X95679255Y-52214632D01*
X95679246Y-52214630D01*
X95672012Y-52213815D01*
X95607600Y-52186744D01*
X95598223Y-52178277D01*
X94775871Y-51355925D01*
X94746510Y-51309197D01*
X94725789Y-51249978D01*
X94725789Y-51249977D01*
X94629815Y-51097237D01*
X94502262Y-50969684D01*
X94349523Y-50873711D01*
X94179254Y-50814131D01*
X94179249Y-50814130D01*
X94000004Y-50793935D01*
X93999996Y-50793935D01*
X93820750Y-50814130D01*
X93820745Y-50814131D01*
X93650476Y-50873711D01*
X93497737Y-50969684D01*
X93462180Y-51005241D01*
X93400857Y-51038726D01*
X93331165Y-51033740D01*
X93275232Y-50991868D01*
X93250816Y-50926404D01*
X93250500Y-50917559D01*
X93250500Y-50872229D01*
X93270185Y-50805190D01*
X93286819Y-50784548D01*
X94090541Y-49980826D01*
X94908499Y-49162867D01*
X94969820Y-49129384D01*
X95006984Y-49127022D01*
X95161011Y-49140498D01*
X95219999Y-49145659D01*
X95220000Y-49145659D01*
X95220001Y-49145659D01*
X95278966Y-49140500D01*
X95455408Y-49125063D01*
X95683663Y-49063903D01*
X95897830Y-48964035D01*
X96091401Y-48828495D01*
X96258495Y-48661401D01*
X96388426Y-48475840D01*
X96443001Y-48432217D01*
X96512499Y-48425023D01*
X96574854Y-48456546D01*
X96591574Y-48475841D01*
X96721505Y-48661401D01*
X96888599Y-48828495D01*
X96985384Y-48896265D01*
X97082165Y-48964032D01*
X97082167Y-48964033D01*
X97082170Y-48964035D01*
X97296337Y-49063903D01*
X97524592Y-49125063D01*
X97701034Y-49140500D01*
X97759999Y-49145659D01*
X97760000Y-49145659D01*
X97760001Y-49145659D01*
X97818966Y-49140500D01*
X97995408Y-49125063D01*
X98223663Y-49063903D01*
X98437830Y-48964035D01*
X98631401Y-48828495D01*
X98798495Y-48661401D01*
X98928426Y-48475840D01*
X98983001Y-48432217D01*
X99052499Y-48425023D01*
X99114854Y-48456546D01*
X99131574Y-48475841D01*
X99261505Y-48661401D01*
X99428599Y-48828495D01*
X99525384Y-48896265D01*
X99622165Y-48964032D01*
X99622167Y-48964033D01*
X99622170Y-48964035D01*
X99836337Y-49063903D01*
X100064592Y-49125063D01*
X100241034Y-49140500D01*
X100299999Y-49145659D01*
X100300000Y-49145659D01*
X100300001Y-49145659D01*
X100358966Y-49140500D01*
X100535408Y-49125063D01*
X100763663Y-49063903D01*
X100977830Y-48964035D01*
X101171401Y-48828495D01*
X101338495Y-48661401D01*
X101468426Y-48475840D01*
X101523001Y-48432217D01*
X101592499Y-48425023D01*
X101654854Y-48456546D01*
X101671574Y-48475841D01*
X101801505Y-48661401D01*
X101968599Y-48828495D01*
X102065384Y-48896264D01*
X102162165Y-48964032D01*
X102162167Y-48964033D01*
X102162170Y-48964035D01*
X102376337Y-49063903D01*
X102604592Y-49125063D01*
X102781034Y-49140500D01*
X102839999Y-49145659D01*
X102840000Y-49145659D01*
X102840001Y-49145659D01*
X102898966Y-49140500D01*
X103075408Y-49125063D01*
X103303663Y-49063903D01*
X103517830Y-48964035D01*
X103711401Y-48828495D01*
X103878495Y-48661401D01*
X104008730Y-48475405D01*
X104063307Y-48431781D01*
X104132805Y-48424587D01*
X104195160Y-48456110D01*
X104211879Y-48475405D01*
X104341890Y-48661078D01*
X104508917Y-48828105D01*
X104702421Y-48963600D01*
X104916507Y-49063429D01*
X104916516Y-49063433D01*
X105130000Y-49120634D01*
X105130000Y-48402301D01*
X105149685Y-48335262D01*
X105202489Y-48289507D01*
X105271647Y-48279563D01*
X105344237Y-48290000D01*
X105344238Y-48290000D01*
X105415762Y-48290000D01*
X105415763Y-48290000D01*
X105488353Y-48279563D01*
X105557512Y-48289507D01*
X105610315Y-48335262D01*
X105630000Y-48402301D01*
X105630000Y-49120634D01*
X105843483Y-49063433D01*
X105843492Y-49063429D01*
X106057578Y-48963600D01*
X106251082Y-48828105D01*
X106418105Y-48661082D01*
X106548119Y-48475405D01*
X106602696Y-48431781D01*
X106672195Y-48424588D01*
X106734549Y-48456110D01*
X106751269Y-48475405D01*
X106881505Y-48661401D01*
X107048599Y-48828495D01*
X107145384Y-48896264D01*
X107242165Y-48964032D01*
X107242167Y-48964033D01*
X107242170Y-48964035D01*
X107456337Y-49063903D01*
X107684592Y-49125063D01*
X107861034Y-49140500D01*
X107919999Y-49145659D01*
X107920000Y-49145659D01*
X107920001Y-49145659D01*
X107978966Y-49140500D01*
X108155408Y-49125063D01*
X108383663Y-49063903D01*
X108597830Y-48964035D01*
X108791401Y-48828495D01*
X108958495Y-48661401D01*
X109088426Y-48475840D01*
X109143001Y-48432217D01*
X109212499Y-48425023D01*
X109274854Y-48456546D01*
X109291574Y-48475841D01*
X109421505Y-48661401D01*
X109588599Y-48828495D01*
X109685384Y-48896264D01*
X109782165Y-48964032D01*
X109782167Y-48964033D01*
X109782170Y-48964035D01*
X109996337Y-49063903D01*
X110224592Y-49125063D01*
X110401034Y-49140500D01*
X110459999Y-49145659D01*
X110460000Y-49145659D01*
X110460001Y-49145659D01*
X110518966Y-49140500D01*
X110695408Y-49125063D01*
X110923663Y-49063903D01*
X111137830Y-48964035D01*
X111331401Y-48828495D01*
X111498495Y-48661401D01*
X111628426Y-48475840D01*
X111683001Y-48432217D01*
X111752499Y-48425023D01*
X111814854Y-48456546D01*
X111831574Y-48475841D01*
X111961505Y-48661401D01*
X112128599Y-48828495D01*
X112225384Y-48896264D01*
X112322165Y-48964032D01*
X112322167Y-48964033D01*
X112322170Y-48964035D01*
X112536337Y-49063903D01*
X112764592Y-49125063D01*
X112941034Y-49140500D01*
X112999999Y-49145659D01*
X113000000Y-49145659D01*
X113000001Y-49145659D01*
X113058966Y-49140500D01*
X113235408Y-49125063D01*
X113463663Y-49063903D01*
X113677830Y-48964035D01*
X113871401Y-48828495D01*
X114038495Y-48661401D01*
X114168426Y-48475840D01*
X114223001Y-48432217D01*
X114292499Y-48425023D01*
X114354854Y-48456546D01*
X114371574Y-48475841D01*
X114501505Y-48661401D01*
X114668599Y-48828495D01*
X114765384Y-48896264D01*
X114862165Y-48964032D01*
X114862167Y-48964033D01*
X114862170Y-48964035D01*
X115076337Y-49063903D01*
X115304592Y-49125063D01*
X115481034Y-49140500D01*
X115539999Y-49145659D01*
X115540000Y-49145659D01*
X115540001Y-49145659D01*
X115598966Y-49140500D01*
X115775408Y-49125063D01*
X116003663Y-49063903D01*
X116217830Y-48964035D01*
X116411401Y-48828495D01*
X116578495Y-48661401D01*
X116708426Y-48475841D01*
X116763002Y-48432217D01*
X116832500Y-48425023D01*
X116894855Y-48456546D01*
X116911575Y-48475842D01*
X117041281Y-48661082D01*
X117041505Y-48661401D01*
X117208599Y-48828495D01*
X117305384Y-48896264D01*
X117402165Y-48964032D01*
X117402167Y-48964033D01*
X117402170Y-48964035D01*
X117616337Y-49063903D01*
X117844592Y-49125063D01*
X118021034Y-49140500D01*
X118079999Y-49145659D01*
X118080000Y-49145659D01*
X118080001Y-49145659D01*
X118138966Y-49140500D01*
X118315408Y-49125063D01*
X118543663Y-49063903D01*
X118757830Y-48964035D01*
X118951401Y-48828495D01*
X119118495Y-48661401D01*
X119248426Y-48475840D01*
X119303001Y-48432217D01*
X119372499Y-48425023D01*
X119434854Y-48456546D01*
X119451574Y-48475841D01*
X119581505Y-48661401D01*
X119748599Y-48828495D01*
X119845384Y-48896264D01*
X119942165Y-48964032D01*
X119942167Y-48964033D01*
X119942170Y-48964035D01*
X120156337Y-49063903D01*
X120384592Y-49125063D01*
X120561034Y-49140500D01*
X120619999Y-49145659D01*
X120620000Y-49145659D01*
X120620001Y-49145659D01*
X120678966Y-49140500D01*
X120855408Y-49125063D01*
X121083663Y-49063903D01*
X121297830Y-48964035D01*
X121491401Y-48828495D01*
X121658495Y-48661401D01*
X121788730Y-48475405D01*
X121843307Y-48431781D01*
X121912805Y-48424587D01*
X121975160Y-48456110D01*
X121991879Y-48475405D01*
X122121890Y-48661078D01*
X122288917Y-48828105D01*
X122482421Y-48963600D01*
X122696507Y-49063429D01*
X122696516Y-49063433D01*
X122909998Y-49120633D01*
X122909999Y-48402301D01*
X122929683Y-48335262D01*
X122982487Y-48289507D01*
X123051646Y-48279563D01*
X123058380Y-48280531D01*
X123124237Y-48290000D01*
X123124238Y-48290000D01*
X123195762Y-48290000D01*
X123195763Y-48290000D01*
X123268353Y-48279563D01*
X123337512Y-48289507D01*
X123390315Y-48335262D01*
X123410000Y-48402301D01*
X123410000Y-49120633D01*
X123623483Y-49063433D01*
X123623492Y-49063429D01*
X123837578Y-48963600D01*
X124031082Y-48828105D01*
X124198105Y-48661082D01*
X124333600Y-48467578D01*
X124433429Y-48253492D01*
X124433432Y-48253486D01*
X124490636Y-48040000D01*
X123773347Y-48040000D01*
X123706308Y-48020315D01*
X123660553Y-47967511D01*
X123650609Y-47898353D01*
X123654369Y-47881067D01*
X123660000Y-47861888D01*
X123660000Y-47718111D01*
X123654369Y-47698933D01*
X123654370Y-47629064D01*
X123692145Y-47570286D01*
X123755701Y-47541262D01*
X123773347Y-47540000D01*
X124510254Y-47540000D01*
X124522057Y-47531381D01*
X124591803Y-47527223D01*
X124652725Y-47561433D01*
G37*
G04 #@! TD.AperFunction*
G04 #@! TA.AperFunction,Conductor*
G36*
X125867015Y-43520185D02*
G01*
X125912770Y-43572989D01*
X125922714Y-43642147D01*
X125893689Y-43705703D01*
X125878012Y-43720866D01*
X125658047Y-43898989D01*
X125658039Y-43898996D01*
X125398996Y-44158039D01*
X125398989Y-44158047D01*
X125168437Y-44442756D01*
X125168435Y-44442758D01*
X124968913Y-44749995D01*
X124802594Y-45076415D01*
X124749029Y-45215954D01*
X124706626Y-45271486D01*
X124640932Y-45295278D01*
X124572804Y-45279776D01*
X124523871Y-45229902D01*
X124509738Y-45182325D01*
X124495063Y-45014592D01*
X124433903Y-44786337D01*
X124334035Y-44572171D01*
X124328731Y-44564595D01*
X124198494Y-44378597D01*
X124031402Y-44211506D01*
X124031395Y-44211501D01*
X123837834Y-44075967D01*
X123837830Y-44075965D01*
X123837830Y-44075964D01*
X123623663Y-43976097D01*
X123623659Y-43976096D01*
X123623655Y-43976094D01*
X123395413Y-43914938D01*
X123395403Y-43914936D01*
X123160001Y-43894341D01*
X123159999Y-43894341D01*
X122924596Y-43914936D01*
X122924586Y-43914938D01*
X122696344Y-43976094D01*
X122696335Y-43976098D01*
X122482171Y-44075964D01*
X122482169Y-44075965D01*
X122288597Y-44211505D01*
X122121505Y-44378597D01*
X121991575Y-44564158D01*
X121936998Y-44607783D01*
X121867500Y-44614977D01*
X121805145Y-44583454D01*
X121788425Y-44564158D01*
X121658494Y-44378597D01*
X121491402Y-44211506D01*
X121491395Y-44211501D01*
X121297834Y-44075967D01*
X121297830Y-44075965D01*
X121297829Y-44075964D01*
X121083663Y-43976097D01*
X121083659Y-43976096D01*
X121083655Y-43976094D01*
X120855413Y-43914938D01*
X120855403Y-43914936D01*
X120620001Y-43894341D01*
X120619999Y-43894341D01*
X120384596Y-43914936D01*
X120384586Y-43914938D01*
X120156344Y-43976094D01*
X120156335Y-43976098D01*
X119942171Y-44075964D01*
X119942169Y-44075965D01*
X119748597Y-44211505D01*
X119581508Y-44378594D01*
X119451574Y-44564160D01*
X119396997Y-44607784D01*
X119327498Y-44614977D01*
X119265144Y-44583455D01*
X119248429Y-44564164D01*
X119118495Y-44378599D01*
X119118493Y-44378596D01*
X118951402Y-44211506D01*
X118951395Y-44211501D01*
X118757834Y-44075967D01*
X118757830Y-44075965D01*
X118757829Y-44075964D01*
X118543663Y-43976097D01*
X118543659Y-43976096D01*
X118543655Y-43976094D01*
X118315413Y-43914938D01*
X118315403Y-43914936D01*
X118080001Y-43894341D01*
X118079999Y-43894341D01*
X117844596Y-43914936D01*
X117844586Y-43914938D01*
X117616344Y-43976094D01*
X117616335Y-43976098D01*
X117402171Y-44075964D01*
X117402169Y-44075965D01*
X117208597Y-44211505D01*
X117041508Y-44378594D01*
X116911269Y-44564595D01*
X116856692Y-44608219D01*
X116787193Y-44615412D01*
X116724839Y-44583890D01*
X116708119Y-44564594D01*
X116578113Y-44378926D01*
X116578108Y-44378920D01*
X116411082Y-44211894D01*
X116217578Y-44076399D01*
X116003492Y-43976570D01*
X116003486Y-43976567D01*
X115790000Y-43919364D01*
X115790000Y-44637698D01*
X115770315Y-44704737D01*
X115717511Y-44750492D01*
X115648355Y-44760436D01*
X115575766Y-44750000D01*
X115575763Y-44750000D01*
X115504237Y-44750000D01*
X115504233Y-44750000D01*
X115431645Y-44760436D01*
X115362487Y-44750492D01*
X115309684Y-44704736D01*
X115290000Y-44637698D01*
X115290000Y-43919364D01*
X115289999Y-43919364D01*
X115076513Y-43976567D01*
X115076507Y-43976570D01*
X114862422Y-44076399D01*
X114862420Y-44076400D01*
X114668926Y-44211886D01*
X114668920Y-44211891D01*
X114501891Y-44378920D01*
X114501890Y-44378922D01*
X114371880Y-44564595D01*
X114317303Y-44608219D01*
X114247804Y-44615412D01*
X114185450Y-44583890D01*
X114168730Y-44564594D01*
X114038494Y-44378597D01*
X113871402Y-44211506D01*
X113871395Y-44211501D01*
X113677834Y-44075967D01*
X113677830Y-44075965D01*
X113677829Y-44075964D01*
X113463663Y-43976097D01*
X113463659Y-43976096D01*
X113463655Y-43976094D01*
X113235413Y-43914938D01*
X113235403Y-43914936D01*
X113000001Y-43894341D01*
X112999999Y-43894341D01*
X112764596Y-43914936D01*
X112764586Y-43914938D01*
X112536344Y-43976094D01*
X112536335Y-43976098D01*
X112322171Y-44075964D01*
X112322169Y-44075965D01*
X112128597Y-44211505D01*
X111961508Y-44378594D01*
X111831269Y-44564595D01*
X111776692Y-44608219D01*
X111707193Y-44615412D01*
X111644839Y-44583890D01*
X111628119Y-44564594D01*
X111498113Y-44378926D01*
X111498108Y-44378920D01*
X111331082Y-44211894D01*
X111137578Y-44076399D01*
X110923492Y-43976570D01*
X110923486Y-43976567D01*
X110710000Y-43919364D01*
X110709999Y-43919364D01*
X110709999Y-44637698D01*
X110690314Y-44704738D01*
X110637510Y-44750492D01*
X110568353Y-44760436D01*
X110495764Y-44750000D01*
X110495763Y-44750000D01*
X110424237Y-44750000D01*
X110424233Y-44750000D01*
X110351645Y-44760436D01*
X110282487Y-44750492D01*
X110229684Y-44704736D01*
X110210000Y-44637698D01*
X110210000Y-43919364D01*
X110209999Y-43919364D01*
X109996513Y-43976567D01*
X109996507Y-43976570D01*
X109782422Y-44076399D01*
X109782420Y-44076400D01*
X109588926Y-44211886D01*
X109588920Y-44211891D01*
X109421891Y-44378920D01*
X109421890Y-44378922D01*
X109291880Y-44564595D01*
X109237303Y-44608219D01*
X109167804Y-44615412D01*
X109105450Y-44583890D01*
X109088730Y-44564594D01*
X108958494Y-44378597D01*
X108791402Y-44211506D01*
X108791395Y-44211501D01*
X108597834Y-44075967D01*
X108597830Y-44075965D01*
X108597828Y-44075964D01*
X108383663Y-43976097D01*
X108383659Y-43976096D01*
X108383655Y-43976094D01*
X108155413Y-43914938D01*
X108155403Y-43914936D01*
X107920001Y-43894341D01*
X107919999Y-43894341D01*
X107684596Y-43914936D01*
X107684586Y-43914938D01*
X107456344Y-43976094D01*
X107456335Y-43976098D01*
X107242171Y-44075964D01*
X107242169Y-44075965D01*
X107048597Y-44211505D01*
X106881505Y-44378597D01*
X106751575Y-44564158D01*
X106696998Y-44607783D01*
X106627500Y-44614977D01*
X106565145Y-44583454D01*
X106548425Y-44564158D01*
X106418494Y-44378597D01*
X106251402Y-44211506D01*
X106251395Y-44211501D01*
X106057834Y-44075967D01*
X106057830Y-44075965D01*
X106057828Y-44075964D01*
X105843663Y-43976097D01*
X105843659Y-43976096D01*
X105843655Y-43976094D01*
X105615413Y-43914938D01*
X105615403Y-43914936D01*
X105380001Y-43894341D01*
X105379999Y-43894341D01*
X105144596Y-43914936D01*
X105144586Y-43914938D01*
X104916344Y-43976094D01*
X104916335Y-43976098D01*
X104702171Y-44075964D01*
X104702169Y-44075965D01*
X104508597Y-44211505D01*
X104341505Y-44378597D01*
X104211575Y-44564158D01*
X104156998Y-44607783D01*
X104087500Y-44614977D01*
X104025145Y-44583454D01*
X104008425Y-44564158D01*
X103878494Y-44378597D01*
X103711402Y-44211506D01*
X103711395Y-44211501D01*
X103517834Y-44075967D01*
X103517830Y-44075965D01*
X103517828Y-44075964D01*
X103303663Y-43976097D01*
X103303659Y-43976096D01*
X103303655Y-43976094D01*
X103075413Y-43914938D01*
X103075403Y-43914936D01*
X102840001Y-43894341D01*
X102839999Y-43894341D01*
X102604596Y-43914936D01*
X102604586Y-43914938D01*
X102376344Y-43976094D01*
X102376335Y-43976098D01*
X102162171Y-44075964D01*
X102162169Y-44075965D01*
X101968597Y-44211505D01*
X101801508Y-44378594D01*
X101671574Y-44564159D01*
X101616997Y-44607784D01*
X101547498Y-44614976D01*
X101485144Y-44583454D01*
X101468424Y-44564158D01*
X101338494Y-44378597D01*
X101171402Y-44211506D01*
X101171395Y-44211501D01*
X100977834Y-44075967D01*
X100977830Y-44075965D01*
X100977828Y-44075964D01*
X100763663Y-43976097D01*
X100763659Y-43976096D01*
X100763655Y-43976094D01*
X100535413Y-43914938D01*
X100535403Y-43914936D01*
X100300001Y-43894341D01*
X100299999Y-43894341D01*
X100064596Y-43914936D01*
X100064586Y-43914938D01*
X99836344Y-43976094D01*
X99836335Y-43976098D01*
X99622171Y-44075964D01*
X99622169Y-44075965D01*
X99428597Y-44211505D01*
X99261508Y-44378594D01*
X99131269Y-44564595D01*
X99076692Y-44608219D01*
X99007193Y-44615412D01*
X98944839Y-44583890D01*
X98928119Y-44564594D01*
X98798113Y-44378926D01*
X98798108Y-44378920D01*
X98631082Y-44211894D01*
X98437578Y-44076399D01*
X98223492Y-43976570D01*
X98223486Y-43976567D01*
X98010000Y-43919364D01*
X98010000Y-44637698D01*
X97990315Y-44704737D01*
X97937511Y-44750492D01*
X97868355Y-44760436D01*
X97795766Y-44750000D01*
X97795763Y-44750000D01*
X97724237Y-44750000D01*
X97724233Y-44750000D01*
X97651645Y-44760436D01*
X97582487Y-44750492D01*
X97529684Y-44704736D01*
X97510000Y-44637698D01*
X97510000Y-43919364D01*
X97509999Y-43919364D01*
X97296513Y-43976567D01*
X97296507Y-43976570D01*
X97082422Y-44076399D01*
X97082420Y-44076400D01*
X96888926Y-44211886D01*
X96888920Y-44211891D01*
X96721891Y-44378920D01*
X96721890Y-44378922D01*
X96591880Y-44564595D01*
X96537303Y-44608219D01*
X96467804Y-44615412D01*
X96405450Y-44583890D01*
X96388730Y-44564594D01*
X96258494Y-44378597D01*
X96091402Y-44211506D01*
X96091395Y-44211501D01*
X95897834Y-44075967D01*
X95897830Y-44075965D01*
X95897828Y-44075964D01*
X95683663Y-43976097D01*
X95683659Y-43976096D01*
X95683655Y-43976094D01*
X95455413Y-43914938D01*
X95455403Y-43914936D01*
X95220001Y-43894341D01*
X95219999Y-43894341D01*
X94984596Y-43914936D01*
X94984586Y-43914938D01*
X94756344Y-43976094D01*
X94756335Y-43976098D01*
X94542171Y-44075964D01*
X94542169Y-44075965D01*
X94348597Y-44211505D01*
X94181505Y-44378597D01*
X94051575Y-44564158D01*
X93996998Y-44607783D01*
X93927500Y-44614977D01*
X93865145Y-44583454D01*
X93848425Y-44564158D01*
X93718494Y-44378597D01*
X93551402Y-44211506D01*
X93551395Y-44211501D01*
X93357834Y-44075967D01*
X93357830Y-44075965D01*
X93357828Y-44075964D01*
X93143663Y-43976097D01*
X93143659Y-43976096D01*
X93143655Y-43976094D01*
X92915413Y-43914938D01*
X92915403Y-43914936D01*
X92680001Y-43894341D01*
X92679999Y-43894341D01*
X92444596Y-43914936D01*
X92444586Y-43914938D01*
X92216344Y-43976094D01*
X92216335Y-43976098D01*
X92002171Y-44075964D01*
X92002169Y-44075965D01*
X91808597Y-44211505D01*
X91641508Y-44378594D01*
X91511269Y-44564595D01*
X91456692Y-44608219D01*
X91387193Y-44615412D01*
X91324839Y-44583890D01*
X91308119Y-44564594D01*
X91178113Y-44378926D01*
X91178108Y-44378920D01*
X91011082Y-44211894D01*
X90817578Y-44076399D01*
X90603492Y-43976570D01*
X90603486Y-43976567D01*
X90390000Y-43919364D01*
X90389999Y-43919364D01*
X90389999Y-44637698D01*
X90370314Y-44704738D01*
X90317510Y-44750492D01*
X90248353Y-44760436D01*
X90175764Y-44750000D01*
X90175763Y-44750000D01*
X90104237Y-44750000D01*
X90104233Y-44750000D01*
X90031645Y-44760436D01*
X89962487Y-44750492D01*
X89909684Y-44704736D01*
X89890000Y-44637698D01*
X89890000Y-43919364D01*
X89889999Y-43919364D01*
X89676513Y-43976567D01*
X89676507Y-43976570D01*
X89462422Y-44076399D01*
X89462420Y-44076400D01*
X89268926Y-44211886D01*
X89268920Y-44211891D01*
X89101891Y-44378920D01*
X89101890Y-44378922D01*
X88971880Y-44564595D01*
X88917303Y-44608219D01*
X88847804Y-44615412D01*
X88785450Y-44583890D01*
X88768730Y-44564594D01*
X88638494Y-44378597D01*
X88471402Y-44211506D01*
X88471395Y-44211501D01*
X88277834Y-44075967D01*
X88277830Y-44075965D01*
X88277828Y-44075964D01*
X88063663Y-43976097D01*
X88063659Y-43976096D01*
X88063655Y-43976094D01*
X87835413Y-43914938D01*
X87835403Y-43914936D01*
X87600001Y-43894341D01*
X87599999Y-43894341D01*
X87364596Y-43914936D01*
X87364586Y-43914938D01*
X87136344Y-43976094D01*
X87136335Y-43976098D01*
X86922171Y-44075964D01*
X86922169Y-44075965D01*
X86728597Y-44211505D01*
X86561508Y-44378594D01*
X86431574Y-44564159D01*
X86376997Y-44607784D01*
X86307498Y-44614976D01*
X86245144Y-44583454D01*
X86228424Y-44564158D01*
X86098494Y-44378597D01*
X85931402Y-44211506D01*
X85931395Y-44211501D01*
X85737834Y-44075967D01*
X85737830Y-44075965D01*
X85737828Y-44075964D01*
X85523663Y-43976097D01*
X85523659Y-43976096D01*
X85523655Y-43976094D01*
X85295413Y-43914938D01*
X85295403Y-43914936D01*
X85060001Y-43894341D01*
X85059999Y-43894341D01*
X84824596Y-43914936D01*
X84824586Y-43914938D01*
X84596344Y-43976094D01*
X84596335Y-43976098D01*
X84382171Y-44075964D01*
X84382169Y-44075965D01*
X84188597Y-44211505D01*
X84021505Y-44378597D01*
X83891575Y-44564158D01*
X83836998Y-44607783D01*
X83767500Y-44614977D01*
X83705145Y-44583454D01*
X83688425Y-44564158D01*
X83558494Y-44378597D01*
X83391402Y-44211506D01*
X83391395Y-44211501D01*
X83197834Y-44075967D01*
X83197830Y-44075965D01*
X83197828Y-44075964D01*
X82983663Y-43976097D01*
X82983659Y-43976096D01*
X82983655Y-43976094D01*
X82755413Y-43914938D01*
X82755403Y-43914936D01*
X82520001Y-43894341D01*
X82519999Y-43894341D01*
X82284596Y-43914936D01*
X82284586Y-43914938D01*
X82056344Y-43976094D01*
X82056335Y-43976098D01*
X81842171Y-44075964D01*
X81842169Y-44075965D01*
X81648597Y-44211505D01*
X81481508Y-44378594D01*
X81351269Y-44564595D01*
X81296692Y-44608219D01*
X81227193Y-44615412D01*
X81164839Y-44583890D01*
X81148119Y-44564594D01*
X81018113Y-44378926D01*
X81018108Y-44378920D01*
X80851082Y-44211894D01*
X80657578Y-44076399D01*
X80443492Y-43976570D01*
X80443486Y-43976567D01*
X80230000Y-43919364D01*
X80230000Y-44637698D01*
X80210315Y-44704737D01*
X80157511Y-44750492D01*
X80088355Y-44760436D01*
X80015766Y-44750000D01*
X80015763Y-44750000D01*
X79944237Y-44750000D01*
X79944233Y-44750000D01*
X79871645Y-44760436D01*
X79802487Y-44750492D01*
X79749684Y-44704736D01*
X79730000Y-44637698D01*
X79730000Y-43919364D01*
X79729999Y-43919364D01*
X79516513Y-43976567D01*
X79516507Y-43976570D01*
X79302422Y-44076399D01*
X79302420Y-44076400D01*
X79108926Y-44211886D01*
X79108920Y-44211891D01*
X78941891Y-44378920D01*
X78941890Y-44378922D01*
X78811880Y-44564595D01*
X78757303Y-44608219D01*
X78687804Y-44615412D01*
X78625450Y-44583890D01*
X78608730Y-44564594D01*
X78478494Y-44378597D01*
X78311402Y-44211506D01*
X78311395Y-44211501D01*
X78117834Y-44075967D01*
X78117830Y-44075965D01*
X78117829Y-44075964D01*
X77903663Y-43976097D01*
X77903659Y-43976096D01*
X77903655Y-43976094D01*
X77675413Y-43914938D01*
X77675403Y-43914936D01*
X77440001Y-43894341D01*
X77439999Y-43894341D01*
X77204596Y-43914936D01*
X77204586Y-43914938D01*
X76976344Y-43976094D01*
X76976335Y-43976098D01*
X76762171Y-44075964D01*
X76762169Y-44075965D01*
X76568597Y-44211505D01*
X76401505Y-44378597D01*
X76271575Y-44564158D01*
X76216998Y-44607783D01*
X76147500Y-44614977D01*
X76085145Y-44583454D01*
X76068425Y-44564158D01*
X75938494Y-44378597D01*
X75771402Y-44211506D01*
X75771395Y-44211501D01*
X75577834Y-44075967D01*
X75577830Y-44075965D01*
X75577829Y-44075964D01*
X75363663Y-43976097D01*
X75363659Y-43976096D01*
X75363655Y-43976094D01*
X75135413Y-43914938D01*
X75135403Y-43914936D01*
X74900001Y-43894341D01*
X74899999Y-43894341D01*
X74664596Y-43914936D01*
X74664586Y-43914938D01*
X74436344Y-43976094D01*
X74436335Y-43976098D01*
X74222171Y-44075964D01*
X74222169Y-44075965D01*
X74028597Y-44211505D01*
X73861505Y-44378597D01*
X73725965Y-44572169D01*
X73725964Y-44572171D01*
X73626098Y-44786335D01*
X73626094Y-44786344D01*
X73564938Y-45014586D01*
X73564936Y-45014596D01*
X73544341Y-45249999D01*
X73544341Y-45250002D01*
X73550186Y-45316816D01*
X73536419Y-45385316D01*
X73487803Y-45435499D01*
X73419775Y-45451432D01*
X73353931Y-45428056D01*
X73311178Y-45372794D01*
X73310894Y-45372061D01*
X73291635Y-45321889D01*
X73197409Y-45076422D01*
X73031089Y-44750000D01*
X73031086Y-44749995D01*
X72831564Y-44442758D01*
X72831562Y-44442756D01*
X72779871Y-44378922D01*
X72601007Y-44158043D01*
X72341957Y-43898993D01*
X72121988Y-43720866D01*
X72082277Y-43663379D01*
X72079949Y-43593548D01*
X72115744Y-43533544D01*
X72178298Y-43502418D01*
X72200024Y-43500500D01*
X125799976Y-43500500D01*
X125867015Y-43520185D01*
G37*
G04 #@! TD.AperFunction*
M02*
