G04 #@! TF.GenerationSoftware,KiCad,Pcbnew,7.0.7*
G04 #@! TF.CreationDate,2023-11-12T02:44:02+01:00*
G04 #@! TF.ProjectId,max3421e-rpi-uhat,6d617833-3432-4316-952d-7270692d7568,1*
G04 #@! TF.SameCoordinates,Original*
G04 #@! TF.FileFunction,Soldermask,Top*
G04 #@! TF.FilePolarity,Negative*
%FSLAX46Y46*%
G04 Gerber Fmt 4.6, Leading zero omitted, Abs format (unit mm)*
G04 Created by KiCad (PCBNEW 7.0.7) date 2023-11-12 02:44:02*
%MOMM*%
%LPD*%
G01*
G04 APERTURE LIST*
G04 Aperture macros list*
%AMRoundRect*
0 Rectangle with rounded corners*
0 $1 Rounding radius*
0 $2 $3 $4 $5 $6 $7 $8 $9 X,Y pos of 4 corners*
0 Add a 4 corners polygon primitive as box body*
4,1,4,$2,$3,$4,$5,$6,$7,$8,$9,$2,$3,0*
0 Add four circle primitives for the rounded corners*
1,1,$1+$1,$2,$3*
1,1,$1+$1,$4,$5*
1,1,$1+$1,$6,$7*
1,1,$1+$1,$8,$9*
0 Add four rect primitives between the rounded corners*
20,1,$1+$1,$2,$3,$4,$5,0*
20,1,$1+$1,$4,$5,$6,$7,0*
20,1,$1+$1,$6,$7,$8,$9,0*
20,1,$1+$1,$8,$9,$2,$3,0*%
G04 Aperture macros list end*
%ADD10RoundRect,0.225000X-0.250000X0.225000X-0.250000X-0.225000X0.250000X-0.225000X0.250000X0.225000X0*%
%ADD11R,1.700000X1.700000*%
%ADD12O,1.700000X1.700000*%
%ADD13RoundRect,0.200000X0.275000X-0.200000X0.275000X0.200000X-0.275000X0.200000X-0.275000X-0.200000X0*%
%ADD14C,6.200000*%
%ADD15R,1.200000X1.400000*%
%ADD16RoundRect,0.225000X0.225000X0.250000X-0.225000X0.250000X-0.225000X-0.250000X0.225000X-0.250000X0*%
%ADD17C,1.300000*%
%ADD18R,1.200000X3.800000*%
%ADD19R,3.000000X5.300000*%
%ADD20RoundRect,0.225000X0.250000X-0.225000X0.250000X0.225000X-0.250000X0.225000X-0.250000X-0.225000X0*%
%ADD21RoundRect,0.225000X-0.225000X-0.250000X0.225000X-0.250000X0.225000X0.250000X-0.225000X0.250000X0*%
%ADD22RoundRect,0.200000X0.200000X0.275000X-0.200000X0.275000X-0.200000X-0.275000X0.200000X-0.275000X0*%
%ADD23R,0.600000X1.200000*%
%ADD24RoundRect,0.200000X-0.200000X-0.275000X0.200000X-0.275000X0.200000X0.275000X-0.200000X0.275000X0*%
%ADD25R,1.475000X0.300000*%
%ADD26R,0.300000X1.475000*%
%ADD27RoundRect,0.250000X1.500000X0.550000X-1.500000X0.550000X-1.500000X-0.550000X1.500000X-0.550000X0*%
G04 APERTURE END LIST*
D10*
X76650000Y-53875000D03*
X76650000Y-55425000D03*
D11*
X79980000Y-68110000D03*
D12*
X82520000Y-68110000D03*
X85060000Y-68110000D03*
X87600000Y-68110000D03*
X90140000Y-68110000D03*
X92680000Y-68110000D03*
X95220000Y-68110000D03*
D13*
X82300000Y-56675000D03*
X82300000Y-55025000D03*
D14*
X70000000Y-69500000D03*
D15*
X88350000Y-62612000D03*
X88350000Y-60412000D03*
X86650000Y-60412000D03*
X86650000Y-62612000D03*
D10*
X97500000Y-58225000D03*
X97500000Y-59775000D03*
D16*
X120275000Y-64500000D03*
X118725000Y-64500000D03*
D14*
X128000000Y-69500000D03*
D17*
X105400000Y-63637500D03*
X110400000Y-63637500D03*
D18*
X104400000Y-59737500D03*
X106890000Y-59737500D03*
X108900000Y-59737500D03*
X111400000Y-59737500D03*
D19*
X100400000Y-62337500D03*
X115400000Y-62337500D03*
D20*
X84750000Y-62275000D03*
X84750000Y-60725000D03*
D21*
X86925000Y-64500000D03*
X88475000Y-64500000D03*
D22*
X86325000Y-55000000D03*
X84675000Y-55000000D03*
D23*
X78550000Y-56500000D03*
X79500000Y-56500000D03*
X80450000Y-56500000D03*
X80450000Y-54000000D03*
X78550000Y-54000000D03*
D24*
X118675000Y-66500000D03*
X120325000Y-66500000D03*
D14*
X128000000Y-46500000D03*
D16*
X86275000Y-58500000D03*
X84725000Y-58500000D03*
D25*
X95488000Y-58012000D03*
X95488000Y-57512000D03*
X95488000Y-57012000D03*
X95488000Y-56512000D03*
X95488000Y-56012000D03*
X95488000Y-55512000D03*
X95488000Y-55012000D03*
X95488000Y-54512000D03*
D26*
X94000000Y-53024000D03*
X93500000Y-53024000D03*
X93000000Y-53024000D03*
X92500000Y-53024000D03*
X92000000Y-53024000D03*
X91500000Y-53024000D03*
X91000000Y-53024000D03*
X90500000Y-53024000D03*
D25*
X89012000Y-54512000D03*
X89012000Y-55012000D03*
X89012000Y-55512000D03*
X89012000Y-56012000D03*
X89012000Y-56512000D03*
X89012000Y-57012000D03*
X89012000Y-57512000D03*
X89012000Y-58012000D03*
D26*
X90500000Y-59500000D03*
X91000000Y-59500000D03*
X91500000Y-59500000D03*
X92000000Y-59500000D03*
X92500000Y-59500000D03*
X93000000Y-59500000D03*
X93500000Y-59500000D03*
X94000000Y-59500000D03*
D22*
X86325000Y-56500000D03*
X84675000Y-56500000D03*
D11*
X118080000Y-52880000D03*
D12*
X115540000Y-52880000D03*
X113000000Y-52880000D03*
X110460000Y-52880000D03*
X107920000Y-52880000D03*
X105380000Y-52880000D03*
X102840000Y-52880000D03*
D27*
X81700000Y-61500000D03*
X76100000Y-61500000D03*
D14*
X70000000Y-46500000D03*
D11*
X74900000Y-47790000D03*
D12*
X74900000Y-45250000D03*
X77440000Y-47790000D03*
X77440000Y-45250000D03*
X79980000Y-47790000D03*
X79980000Y-45250000D03*
X82520000Y-47790000D03*
X82520000Y-45250000D03*
X85060000Y-47790000D03*
X85060000Y-45250000D03*
X87600000Y-47790000D03*
X87600000Y-45250000D03*
X90140000Y-47790000D03*
X90140000Y-45250000D03*
X92680000Y-47790000D03*
X92680000Y-45250000D03*
X95220000Y-47790000D03*
X95220000Y-45250000D03*
X97760000Y-47790000D03*
X97760000Y-45250000D03*
X100300000Y-47790000D03*
X100300000Y-45250000D03*
X102840000Y-47790000D03*
X102840000Y-45250000D03*
X105380000Y-47790000D03*
X105380000Y-45250000D03*
X107920000Y-47790000D03*
X107920000Y-45250000D03*
X110460000Y-47790000D03*
X110460000Y-45250000D03*
X113000000Y-47790000D03*
X113000000Y-45250000D03*
X115540000Y-47790000D03*
X115540000Y-45250000D03*
X118080000Y-47790000D03*
X118080000Y-45250000D03*
X120620000Y-47790000D03*
X120620000Y-45250000D03*
X123160000Y-47790000D03*
X123160000Y-45250000D03*
M02*
