M48
; DRILL file {KiCad 7.0.7} date Sun 12 Nov 2023 02:44:23 AM CET
; FORMAT={-:-/ absolute / inch / decimal}
; #@! TF.CreationDate,2023-11-12T02:44:23+01:00
; #@! TF.GenerationSoftware,Kicad,Pcbnew,7.0.7
; #@! TF.FileFunction,MixedPlating,1,2
FMAT,2
INCH
; #@! TA.AperFunction,Plated,PTH,ViaDrill
T1C0.0118
; #@! TA.AperFunction,Plated,PTH,ViaDrill
T2C0.0157
; #@! TA.AperFunction,Plated,PTH,ComponentDrill
T3C0.0394
; #@! TA.AperFunction,NonPlated,NPTH,ComponentDrill
T4C0.0512
; #@! TA.AperFunction,NonPlated,NPTH,ComponentDrill
T5C0.1083
%
G90
G05
T1
X3.1988Y-2.3327
X3.3661Y-2.1949
X3.3661Y-2.2638
X3.4449Y-2.1457
X3.5788Y-2.4016
X3.6811Y-2.1654
X3.7008Y-2.0315
X3.7598Y-2.0866
X3.8191Y-2.2402
X3.8583Y-2.2345
T2
X3.0157Y-2.2402
X3.0157Y-2.3386
X3.0157Y-2.5039
X3.1299Y-2.2736
X3.1457Y-1.9685
X3.2579Y-2.3622
X3.2874Y-2.2638
X3.3307Y-2.5118
X3.5728Y-2.2244
X3.6417Y-2.1457
X3.6732Y-2.2047
X3.8386Y-2.4114
X3.9173Y-2.3228
X4.3898Y-2.2441
X4.4488Y-2.3524
X4.7835Y-2.5394
X4.7835Y-2.6181
T3
X2.9488Y-1.7815
X2.9488Y-1.8815
X3.0488Y-1.7815
X3.0488Y-1.8815
X3.1488Y-1.7815
X3.1488Y-1.8815
X3.1488Y-2.6815
X3.2488Y-1.7815
X3.2488Y-1.8815
X3.2488Y-2.6815
X3.3488Y-1.7815
X3.3488Y-1.8815
X3.3488Y-2.6815
X3.4488Y-1.7815
X3.4488Y-1.8815
X3.4488Y-2.6815
X3.5488Y-1.7815
X3.5488Y-1.8815
X3.5488Y-2.6815
X3.6488Y-1.7815
X3.6488Y-1.8815
X3.6488Y-2.6815
X3.7488Y-1.7815
X3.7488Y-1.8815
X3.7488Y-2.6815
X3.8488Y-1.7815
X3.8488Y-1.8815
X3.9488Y-1.7815
X3.9488Y-1.8815
X4.0488Y-1.7815
X4.0488Y-1.8815
X4.0488Y-2.0819
X4.1488Y-1.7815
X4.1488Y-1.8815
X4.1488Y-2.0819
X4.2488Y-1.7815
X4.2488Y-1.8815
X4.2488Y-2.0819
X4.3488Y-1.7815
X4.3488Y-1.8815
X4.3488Y-2.0819
X4.4488Y-1.7815
X4.4488Y-1.8815
X4.4488Y-2.0819
X4.5488Y-1.7815
X4.5488Y-1.8815
X4.5488Y-2.0819
X4.6488Y-1.7815
X4.6488Y-1.8815
X4.6488Y-2.0819
X4.7488Y-1.7815
X4.7488Y-1.8815
X4.8488Y-1.7815
X4.8488Y-1.8815
T4
X4.1496Y-2.5054
X4.3465Y-2.5054
T5
X2.7559Y-1.8307
X2.7559Y-2.7362
X5.0394Y-1.8307
X5.0394Y-2.7362
T0
M30
