G04 #@! TF.GenerationSoftware,KiCad,Pcbnew,7.0.7*
G04 #@! TF.CreationDate,2023-11-12T02:44:02+01:00*
G04 #@! TF.ProjectId,max3421e-rpi-uhat,6d617833-3432-4316-952d-7270692d7568,1*
G04 #@! TF.SameCoordinates,Original*
G04 #@! TF.FileFunction,Legend,Bot*
G04 #@! TF.FilePolarity,Positive*
%FSLAX46Y46*%
G04 Gerber Fmt 4.6, Leading zero omitted, Abs format (unit mm)*
G04 Created by KiCad (PCBNEW 7.0.7) date 2023-11-12 02:44:02*
%MOMM*%
%LPD*%
G01*
G04 APERTURE LIST*
%ADD10C,0.150000*%
%ADD11C,0.010000*%
%ADD12C,0.120000*%
G04 APERTURE END LIST*
D10*
X121591792Y-56399819D02*
X121925125Y-55923628D01*
X122163220Y-56399819D02*
X122163220Y-55399819D01*
X122163220Y-55399819D02*
X121782268Y-55399819D01*
X121782268Y-55399819D02*
X121687030Y-55447438D01*
X121687030Y-55447438D02*
X121639411Y-55495057D01*
X121639411Y-55495057D02*
X121591792Y-55590295D01*
X121591792Y-55590295D02*
X121591792Y-55733152D01*
X121591792Y-55733152D02*
X121639411Y-55828390D01*
X121639411Y-55828390D02*
X121687030Y-55876009D01*
X121687030Y-55876009D02*
X121782268Y-55923628D01*
X121782268Y-55923628D02*
X122163220Y-55923628D01*
X120734649Y-56399819D02*
X120734649Y-55876009D01*
X120734649Y-55876009D02*
X120782268Y-55780771D01*
X120782268Y-55780771D02*
X120877506Y-55733152D01*
X120877506Y-55733152D02*
X121067982Y-55733152D01*
X121067982Y-55733152D02*
X121163220Y-55780771D01*
X120734649Y-56352200D02*
X120829887Y-56399819D01*
X120829887Y-56399819D02*
X121067982Y-56399819D01*
X121067982Y-56399819D02*
X121163220Y-56352200D01*
X121163220Y-56352200D02*
X121210839Y-56256961D01*
X121210839Y-56256961D02*
X121210839Y-56161723D01*
X121210839Y-56161723D02*
X121163220Y-56066485D01*
X121163220Y-56066485D02*
X121067982Y-56018866D01*
X121067982Y-56018866D02*
X120829887Y-56018866D01*
X120829887Y-56018866D02*
X120734649Y-55971247D01*
X120306077Y-56352200D02*
X120210839Y-56399819D01*
X120210839Y-56399819D02*
X120020363Y-56399819D01*
X120020363Y-56399819D02*
X119925125Y-56352200D01*
X119925125Y-56352200D02*
X119877506Y-56256961D01*
X119877506Y-56256961D02*
X119877506Y-56209342D01*
X119877506Y-56209342D02*
X119925125Y-56114104D01*
X119925125Y-56114104D02*
X120020363Y-56066485D01*
X120020363Y-56066485D02*
X120163220Y-56066485D01*
X120163220Y-56066485D02*
X120258458Y-56018866D01*
X120258458Y-56018866D02*
X120306077Y-55923628D01*
X120306077Y-55923628D02*
X120306077Y-55876009D01*
X120306077Y-55876009D02*
X120258458Y-55780771D01*
X120258458Y-55780771D02*
X120163220Y-55733152D01*
X120163220Y-55733152D02*
X120020363Y-55733152D01*
X120020363Y-55733152D02*
X119925125Y-55780771D01*
X119448934Y-55733152D02*
X119448934Y-56733152D01*
X119448934Y-55780771D02*
X119353696Y-55733152D01*
X119353696Y-55733152D02*
X119163220Y-55733152D01*
X119163220Y-55733152D02*
X119067982Y-55780771D01*
X119067982Y-55780771D02*
X119020363Y-55828390D01*
X119020363Y-55828390D02*
X118972744Y-55923628D01*
X118972744Y-55923628D02*
X118972744Y-56209342D01*
X118972744Y-56209342D02*
X119020363Y-56304580D01*
X119020363Y-56304580D02*
X119067982Y-56352200D01*
X119067982Y-56352200D02*
X119163220Y-56399819D01*
X119163220Y-56399819D02*
X119353696Y-56399819D01*
X119353696Y-56399819D02*
X119448934Y-56352200D01*
X118544172Y-56399819D02*
X118544172Y-55399819D01*
X118544172Y-55780771D02*
X118448934Y-55733152D01*
X118448934Y-55733152D02*
X118258458Y-55733152D01*
X118258458Y-55733152D02*
X118163220Y-55780771D01*
X118163220Y-55780771D02*
X118115601Y-55828390D01*
X118115601Y-55828390D02*
X118067982Y-55923628D01*
X118067982Y-55923628D02*
X118067982Y-56209342D01*
X118067982Y-56209342D02*
X118115601Y-56304580D01*
X118115601Y-56304580D02*
X118163220Y-56352200D01*
X118163220Y-56352200D02*
X118258458Y-56399819D01*
X118258458Y-56399819D02*
X118448934Y-56399819D01*
X118448934Y-56399819D02*
X118544172Y-56352200D01*
X117258458Y-56352200D02*
X117353696Y-56399819D01*
X117353696Y-56399819D02*
X117544172Y-56399819D01*
X117544172Y-56399819D02*
X117639410Y-56352200D01*
X117639410Y-56352200D02*
X117687029Y-56256961D01*
X117687029Y-56256961D02*
X117687029Y-55876009D01*
X117687029Y-55876009D02*
X117639410Y-55780771D01*
X117639410Y-55780771D02*
X117544172Y-55733152D01*
X117544172Y-55733152D02*
X117353696Y-55733152D01*
X117353696Y-55733152D02*
X117258458Y-55780771D01*
X117258458Y-55780771D02*
X117210839Y-55876009D01*
X117210839Y-55876009D02*
X117210839Y-55971247D01*
X117210839Y-55971247D02*
X117687029Y-56066485D01*
X116782267Y-56399819D02*
X116782267Y-55733152D01*
X116782267Y-55923628D02*
X116734648Y-55828390D01*
X116734648Y-55828390D02*
X116687029Y-55780771D01*
X116687029Y-55780771D02*
X116591791Y-55733152D01*
X116591791Y-55733152D02*
X116496553Y-55733152D01*
X116163219Y-56399819D02*
X116163219Y-55733152D01*
X116163219Y-55923628D02*
X116115600Y-55828390D01*
X116115600Y-55828390D02*
X116067981Y-55780771D01*
X116067981Y-55780771D02*
X115972743Y-55733152D01*
X115972743Y-55733152D02*
X115877505Y-55733152D01*
X115639409Y-55733152D02*
X115401314Y-56399819D01*
X115163219Y-55733152D02*
X115401314Y-56399819D01*
X115401314Y-56399819D02*
X115496552Y-56637914D01*
X115496552Y-56637914D02*
X115544171Y-56685533D01*
X115544171Y-56685533D02*
X115639409Y-56733152D01*
X114020361Y-56399819D02*
X114020361Y-55399819D01*
X114020361Y-55399819D02*
X113639409Y-55399819D01*
X113639409Y-55399819D02*
X113544171Y-55447438D01*
X113544171Y-55447438D02*
X113496552Y-55495057D01*
X113496552Y-55495057D02*
X113448933Y-55590295D01*
X113448933Y-55590295D02*
X113448933Y-55733152D01*
X113448933Y-55733152D02*
X113496552Y-55828390D01*
X113496552Y-55828390D02*
X113544171Y-55876009D01*
X113544171Y-55876009D02*
X113639409Y-55923628D01*
X113639409Y-55923628D02*
X114020361Y-55923628D01*
X113020361Y-56399819D02*
X113020361Y-55733152D01*
X113020361Y-55399819D02*
X113067980Y-55447438D01*
X113067980Y-55447438D02*
X113020361Y-55495057D01*
X113020361Y-55495057D02*
X112972742Y-55447438D01*
X112972742Y-55447438D02*
X113020361Y-55399819D01*
X113020361Y-55399819D02*
X113020361Y-55495057D01*
X111782266Y-56399819D02*
X111782266Y-55399819D01*
X111782266Y-55399819D02*
X111448933Y-56114104D01*
X111448933Y-56114104D02*
X111115600Y-55399819D01*
X111115600Y-55399819D02*
X111115600Y-56399819D01*
X110687028Y-56114104D02*
X110210838Y-56114104D01*
X110782266Y-56399819D02*
X110448933Y-55399819D01*
X110448933Y-55399819D02*
X110115600Y-56399819D01*
X109877504Y-55399819D02*
X109210838Y-56399819D01*
X109210838Y-55399819D02*
X109877504Y-56399819D01*
X108925123Y-55399819D02*
X108306076Y-55399819D01*
X108306076Y-55399819D02*
X108639409Y-55780771D01*
X108639409Y-55780771D02*
X108496552Y-55780771D01*
X108496552Y-55780771D02*
X108401314Y-55828390D01*
X108401314Y-55828390D02*
X108353695Y-55876009D01*
X108353695Y-55876009D02*
X108306076Y-55971247D01*
X108306076Y-55971247D02*
X108306076Y-56209342D01*
X108306076Y-56209342D02*
X108353695Y-56304580D01*
X108353695Y-56304580D02*
X108401314Y-56352200D01*
X108401314Y-56352200D02*
X108496552Y-56399819D01*
X108496552Y-56399819D02*
X108782266Y-56399819D01*
X108782266Y-56399819D02*
X108877504Y-56352200D01*
X108877504Y-56352200D02*
X108925123Y-56304580D01*
X107448933Y-55733152D02*
X107448933Y-56399819D01*
X107687028Y-55352200D02*
X107925123Y-56066485D01*
X107925123Y-56066485D02*
X107306076Y-56066485D01*
X106972742Y-55495057D02*
X106925123Y-55447438D01*
X106925123Y-55447438D02*
X106829885Y-55399819D01*
X106829885Y-55399819D02*
X106591790Y-55399819D01*
X106591790Y-55399819D02*
X106496552Y-55447438D01*
X106496552Y-55447438D02*
X106448933Y-55495057D01*
X106448933Y-55495057D02*
X106401314Y-55590295D01*
X106401314Y-55590295D02*
X106401314Y-55685533D01*
X106401314Y-55685533D02*
X106448933Y-55828390D01*
X106448933Y-55828390D02*
X107020361Y-56399819D01*
X107020361Y-56399819D02*
X106401314Y-56399819D01*
X105448933Y-56399819D02*
X106020361Y-56399819D01*
X105734647Y-56399819D02*
X105734647Y-55399819D01*
X105734647Y-55399819D02*
X105829885Y-55542676D01*
X105829885Y-55542676D02*
X105925123Y-55637914D01*
X105925123Y-55637914D02*
X106020361Y-55685533D01*
X105020361Y-55876009D02*
X104687028Y-55876009D01*
X104544171Y-56399819D02*
X105020361Y-56399819D01*
X105020361Y-56399819D02*
X105020361Y-55399819D01*
X105020361Y-55399819D02*
X104544171Y-55399819D01*
X102925123Y-55733152D02*
X102925123Y-56399819D01*
X103353694Y-55733152D02*
X103353694Y-56256961D01*
X103353694Y-56256961D02*
X103306075Y-56352200D01*
X103306075Y-56352200D02*
X103210837Y-56399819D01*
X103210837Y-56399819D02*
X103067980Y-56399819D01*
X103067980Y-56399819D02*
X102972742Y-56352200D01*
X102972742Y-56352200D02*
X102925123Y-56304580D01*
X102448932Y-56399819D02*
X102448932Y-55399819D01*
X102448932Y-55876009D02*
X101877504Y-55876009D01*
X101877504Y-56399819D02*
X101877504Y-55399819D01*
X101448932Y-56114104D02*
X100972742Y-56114104D01*
X101544170Y-56399819D02*
X101210837Y-55399819D01*
X101210837Y-55399819D02*
X100877504Y-56399819D01*
X100687027Y-55399819D02*
X100115599Y-55399819D01*
X100401313Y-56399819D02*
X100401313Y-55399819D01*
X122306077Y-57009819D02*
X121972744Y-58009819D01*
X121972744Y-58009819D02*
X121639411Y-57009819D01*
X120925125Y-57962200D02*
X121020363Y-58009819D01*
X121020363Y-58009819D02*
X121210839Y-58009819D01*
X121210839Y-58009819D02*
X121306077Y-57962200D01*
X121306077Y-57962200D02*
X121353696Y-57866961D01*
X121353696Y-57866961D02*
X121353696Y-57486009D01*
X121353696Y-57486009D02*
X121306077Y-57390771D01*
X121306077Y-57390771D02*
X121210839Y-57343152D01*
X121210839Y-57343152D02*
X121020363Y-57343152D01*
X121020363Y-57343152D02*
X120925125Y-57390771D01*
X120925125Y-57390771D02*
X120877506Y-57486009D01*
X120877506Y-57486009D02*
X120877506Y-57581247D01*
X120877506Y-57581247D02*
X121353696Y-57676485D01*
X120448934Y-58009819D02*
X120448934Y-57343152D01*
X120448934Y-57533628D02*
X120401315Y-57438390D01*
X120401315Y-57438390D02*
X120353696Y-57390771D01*
X120353696Y-57390771D02*
X120258458Y-57343152D01*
X120258458Y-57343152D02*
X120163220Y-57343152D01*
X119877505Y-57962200D02*
X119782267Y-58009819D01*
X119782267Y-58009819D02*
X119591791Y-58009819D01*
X119591791Y-58009819D02*
X119496553Y-57962200D01*
X119496553Y-57962200D02*
X119448934Y-57866961D01*
X119448934Y-57866961D02*
X119448934Y-57819342D01*
X119448934Y-57819342D02*
X119496553Y-57724104D01*
X119496553Y-57724104D02*
X119591791Y-57676485D01*
X119591791Y-57676485D02*
X119734648Y-57676485D01*
X119734648Y-57676485D02*
X119829886Y-57628866D01*
X119829886Y-57628866D02*
X119877505Y-57533628D01*
X119877505Y-57533628D02*
X119877505Y-57486009D01*
X119877505Y-57486009D02*
X119829886Y-57390771D01*
X119829886Y-57390771D02*
X119734648Y-57343152D01*
X119734648Y-57343152D02*
X119591791Y-57343152D01*
X119591791Y-57343152D02*
X119496553Y-57390771D01*
X119020362Y-58009819D02*
X119020362Y-57343152D01*
X119020362Y-57009819D02*
X119067981Y-57057438D01*
X119067981Y-57057438D02*
X119020362Y-57105057D01*
X119020362Y-57105057D02*
X118972743Y-57057438D01*
X118972743Y-57057438D02*
X119020362Y-57009819D01*
X119020362Y-57009819D02*
X119020362Y-57105057D01*
X118401315Y-58009819D02*
X118496553Y-57962200D01*
X118496553Y-57962200D02*
X118544172Y-57914580D01*
X118544172Y-57914580D02*
X118591791Y-57819342D01*
X118591791Y-57819342D02*
X118591791Y-57533628D01*
X118591791Y-57533628D02*
X118544172Y-57438390D01*
X118544172Y-57438390D02*
X118496553Y-57390771D01*
X118496553Y-57390771D02*
X118401315Y-57343152D01*
X118401315Y-57343152D02*
X118258458Y-57343152D01*
X118258458Y-57343152D02*
X118163220Y-57390771D01*
X118163220Y-57390771D02*
X118115601Y-57438390D01*
X118115601Y-57438390D02*
X118067982Y-57533628D01*
X118067982Y-57533628D02*
X118067982Y-57819342D01*
X118067982Y-57819342D02*
X118115601Y-57914580D01*
X118115601Y-57914580D02*
X118163220Y-57962200D01*
X118163220Y-57962200D02*
X118258458Y-58009819D01*
X118258458Y-58009819D02*
X118401315Y-58009819D01*
X117639410Y-57343152D02*
X117639410Y-58009819D01*
X117639410Y-57438390D02*
X117591791Y-57390771D01*
X117591791Y-57390771D02*
X117496553Y-57343152D01*
X117496553Y-57343152D02*
X117353696Y-57343152D01*
X117353696Y-57343152D02*
X117258458Y-57390771D01*
X117258458Y-57390771D02*
X117210839Y-57486009D01*
X117210839Y-57486009D02*
X117210839Y-58009819D01*
X115448934Y-58009819D02*
X116020362Y-58009819D01*
X115734648Y-58009819D02*
X115734648Y-57009819D01*
X115734648Y-57009819D02*
X115829886Y-57152676D01*
X115829886Y-57152676D02*
X115925124Y-57247914D01*
X115925124Y-57247914D02*
X116020362Y-57295533D01*
X115020362Y-57914580D02*
X114972743Y-57962200D01*
X114972743Y-57962200D02*
X115020362Y-58009819D01*
X115020362Y-58009819D02*
X115067981Y-57962200D01*
X115067981Y-57962200D02*
X115020362Y-57914580D01*
X115020362Y-57914580D02*
X115020362Y-58009819D01*
X114353696Y-57009819D02*
X114258458Y-57009819D01*
X114258458Y-57009819D02*
X114163220Y-57057438D01*
X114163220Y-57057438D02*
X114115601Y-57105057D01*
X114115601Y-57105057D02*
X114067982Y-57200295D01*
X114067982Y-57200295D02*
X114020363Y-57390771D01*
X114020363Y-57390771D02*
X114020363Y-57628866D01*
X114020363Y-57628866D02*
X114067982Y-57819342D01*
X114067982Y-57819342D02*
X114115601Y-57914580D01*
X114115601Y-57914580D02*
X114163220Y-57962200D01*
X114163220Y-57962200D02*
X114258458Y-58009819D01*
X114258458Y-58009819D02*
X114353696Y-58009819D01*
X114353696Y-58009819D02*
X114448934Y-57962200D01*
X114448934Y-57962200D02*
X114496553Y-57914580D01*
X114496553Y-57914580D02*
X114544172Y-57819342D01*
X114544172Y-57819342D02*
X114591791Y-57628866D01*
X114591791Y-57628866D02*
X114591791Y-57390771D01*
X114591791Y-57390771D02*
X114544172Y-57200295D01*
X114544172Y-57200295D02*
X114496553Y-57105057D01*
X114496553Y-57105057D02*
X114448934Y-57057438D01*
X114448934Y-57057438D02*
X114353696Y-57009819D01*
X112544172Y-58390771D02*
X112591791Y-58343152D01*
X112591791Y-58343152D02*
X112687029Y-58200295D01*
X112687029Y-58200295D02*
X112734648Y-58105057D01*
X112734648Y-58105057D02*
X112782267Y-57962200D01*
X112782267Y-57962200D02*
X112829886Y-57724104D01*
X112829886Y-57724104D02*
X112829886Y-57533628D01*
X112829886Y-57533628D02*
X112782267Y-57295533D01*
X112782267Y-57295533D02*
X112734648Y-57152676D01*
X112734648Y-57152676D02*
X112687029Y-57057438D01*
X112687029Y-57057438D02*
X112591791Y-56914580D01*
X112591791Y-56914580D02*
X112544172Y-56866961D01*
X111639410Y-58009819D02*
X112210838Y-58009819D01*
X111925124Y-58009819D02*
X111925124Y-57009819D01*
X111925124Y-57009819D02*
X112020362Y-57152676D01*
X112020362Y-57152676D02*
X112115600Y-57247914D01*
X112115600Y-57247914D02*
X112210838Y-57295533D01*
X110687029Y-58009819D02*
X111258457Y-58009819D01*
X110972743Y-58009819D02*
X110972743Y-57009819D01*
X110972743Y-57009819D02*
X111067981Y-57152676D01*
X111067981Y-57152676D02*
X111163219Y-57247914D01*
X111163219Y-57247914D02*
X111258457Y-57295533D01*
X109544172Y-56962200D02*
X110401314Y-58247914D01*
X109258457Y-57105057D02*
X109210838Y-57057438D01*
X109210838Y-57057438D02*
X109115600Y-57009819D01*
X109115600Y-57009819D02*
X108877505Y-57009819D01*
X108877505Y-57009819D02*
X108782267Y-57057438D01*
X108782267Y-57057438D02*
X108734648Y-57105057D01*
X108734648Y-57105057D02*
X108687029Y-57200295D01*
X108687029Y-57200295D02*
X108687029Y-57295533D01*
X108687029Y-57295533D02*
X108734648Y-57438390D01*
X108734648Y-57438390D02*
X109306076Y-58009819D01*
X109306076Y-58009819D02*
X108687029Y-58009819D01*
X108353695Y-57009819D02*
X107734648Y-57009819D01*
X107734648Y-57009819D02*
X108067981Y-57390771D01*
X108067981Y-57390771D02*
X107925124Y-57390771D01*
X107925124Y-57390771D02*
X107829886Y-57438390D01*
X107829886Y-57438390D02*
X107782267Y-57486009D01*
X107782267Y-57486009D02*
X107734648Y-57581247D01*
X107734648Y-57581247D02*
X107734648Y-57819342D01*
X107734648Y-57819342D02*
X107782267Y-57914580D01*
X107782267Y-57914580D02*
X107829886Y-57962200D01*
X107829886Y-57962200D02*
X107925124Y-58009819D01*
X107925124Y-58009819D02*
X108210838Y-58009819D01*
X108210838Y-58009819D02*
X108306076Y-57962200D01*
X108306076Y-57962200D02*
X108353695Y-57914580D01*
X107401314Y-58390771D02*
X107353695Y-58343152D01*
X107353695Y-58343152D02*
X107258457Y-58200295D01*
X107258457Y-58200295D02*
X107210838Y-58105057D01*
X107210838Y-58105057D02*
X107163219Y-57962200D01*
X107163219Y-57962200D02*
X107115600Y-57724104D01*
X107115600Y-57724104D02*
X107115600Y-57533628D01*
X107115600Y-57533628D02*
X107163219Y-57295533D01*
X107163219Y-57295533D02*
X107210838Y-57152676D01*
X107210838Y-57152676D02*
X107258457Y-57057438D01*
X107258457Y-57057438D02*
X107353695Y-56914580D01*
X107353695Y-56914580D02*
X107401314Y-56866961D01*
X122163220Y-59619819D02*
X122163220Y-58619819D01*
X121734649Y-59619819D02*
X121734649Y-59096009D01*
X121734649Y-59096009D02*
X121782268Y-59000771D01*
X121782268Y-59000771D02*
X121877506Y-58953152D01*
X121877506Y-58953152D02*
X122020363Y-58953152D01*
X122020363Y-58953152D02*
X122115601Y-59000771D01*
X122115601Y-59000771D02*
X122163220Y-59048390D01*
X121401315Y-58953152D02*
X121020363Y-58953152D01*
X121258458Y-58619819D02*
X121258458Y-59476961D01*
X121258458Y-59476961D02*
X121210839Y-59572200D01*
X121210839Y-59572200D02*
X121115601Y-59619819D01*
X121115601Y-59619819D02*
X121020363Y-59619819D01*
X120829886Y-58953152D02*
X120448934Y-58953152D01*
X120687029Y-58619819D02*
X120687029Y-59476961D01*
X120687029Y-59476961D02*
X120639410Y-59572200D01*
X120639410Y-59572200D02*
X120544172Y-59619819D01*
X120544172Y-59619819D02*
X120448934Y-59619819D01*
X120115600Y-58953152D02*
X120115600Y-59953152D01*
X120115600Y-59000771D02*
X120020362Y-58953152D01*
X120020362Y-58953152D02*
X119829886Y-58953152D01*
X119829886Y-58953152D02*
X119734648Y-59000771D01*
X119734648Y-59000771D02*
X119687029Y-59048390D01*
X119687029Y-59048390D02*
X119639410Y-59143628D01*
X119639410Y-59143628D02*
X119639410Y-59429342D01*
X119639410Y-59429342D02*
X119687029Y-59524580D01*
X119687029Y-59524580D02*
X119734648Y-59572200D01*
X119734648Y-59572200D02*
X119829886Y-59619819D01*
X119829886Y-59619819D02*
X120020362Y-59619819D01*
X120020362Y-59619819D02*
X120115600Y-59572200D01*
X119258457Y-59572200D02*
X119163219Y-59619819D01*
X119163219Y-59619819D02*
X118972743Y-59619819D01*
X118972743Y-59619819D02*
X118877505Y-59572200D01*
X118877505Y-59572200D02*
X118829886Y-59476961D01*
X118829886Y-59476961D02*
X118829886Y-59429342D01*
X118829886Y-59429342D02*
X118877505Y-59334104D01*
X118877505Y-59334104D02*
X118972743Y-59286485D01*
X118972743Y-59286485D02*
X119115600Y-59286485D01*
X119115600Y-59286485D02*
X119210838Y-59238866D01*
X119210838Y-59238866D02*
X119258457Y-59143628D01*
X119258457Y-59143628D02*
X119258457Y-59096009D01*
X119258457Y-59096009D02*
X119210838Y-59000771D01*
X119210838Y-59000771D02*
X119115600Y-58953152D01*
X119115600Y-58953152D02*
X118972743Y-58953152D01*
X118972743Y-58953152D02*
X118877505Y-59000771D01*
X118401314Y-59524580D02*
X118353695Y-59572200D01*
X118353695Y-59572200D02*
X118401314Y-59619819D01*
X118401314Y-59619819D02*
X118448933Y-59572200D01*
X118448933Y-59572200D02*
X118401314Y-59524580D01*
X118401314Y-59524580D02*
X118401314Y-59619819D01*
X118401314Y-59000771D02*
X118353695Y-59048390D01*
X118353695Y-59048390D02*
X118401314Y-59096009D01*
X118401314Y-59096009D02*
X118448933Y-59048390D01*
X118448933Y-59048390D02*
X118401314Y-59000771D01*
X118401314Y-59000771D02*
X118401314Y-59096009D01*
X117210839Y-58572200D02*
X118067981Y-59857914D01*
X116163220Y-58572200D02*
X117020362Y-59857914D01*
X115401315Y-58953152D02*
X115401315Y-59762676D01*
X115401315Y-59762676D02*
X115448934Y-59857914D01*
X115448934Y-59857914D02*
X115496553Y-59905533D01*
X115496553Y-59905533D02*
X115591791Y-59953152D01*
X115591791Y-59953152D02*
X115734648Y-59953152D01*
X115734648Y-59953152D02*
X115829886Y-59905533D01*
X115401315Y-59572200D02*
X115496553Y-59619819D01*
X115496553Y-59619819D02*
X115687029Y-59619819D01*
X115687029Y-59619819D02*
X115782267Y-59572200D01*
X115782267Y-59572200D02*
X115829886Y-59524580D01*
X115829886Y-59524580D02*
X115877505Y-59429342D01*
X115877505Y-59429342D02*
X115877505Y-59143628D01*
X115877505Y-59143628D02*
X115829886Y-59048390D01*
X115829886Y-59048390D02*
X115782267Y-59000771D01*
X115782267Y-59000771D02*
X115687029Y-58953152D01*
X115687029Y-58953152D02*
X115496553Y-58953152D01*
X115496553Y-58953152D02*
X115401315Y-59000771D01*
X114925124Y-59619819D02*
X114925124Y-58953152D01*
X114925124Y-58619819D02*
X114972743Y-58667438D01*
X114972743Y-58667438D02*
X114925124Y-58715057D01*
X114925124Y-58715057D02*
X114877505Y-58667438D01*
X114877505Y-58667438D02*
X114925124Y-58619819D01*
X114925124Y-58619819D02*
X114925124Y-58715057D01*
X114591791Y-58953152D02*
X114210839Y-58953152D01*
X114448934Y-58619819D02*
X114448934Y-59476961D01*
X114448934Y-59476961D02*
X114401315Y-59572200D01*
X114401315Y-59572200D02*
X114306077Y-59619819D01*
X114306077Y-59619819D02*
X114210839Y-59619819D01*
X113877505Y-59619819D02*
X113877505Y-58619819D01*
X113448934Y-59619819D02*
X113448934Y-59096009D01*
X113448934Y-59096009D02*
X113496553Y-59000771D01*
X113496553Y-59000771D02*
X113591791Y-58953152D01*
X113591791Y-58953152D02*
X113734648Y-58953152D01*
X113734648Y-58953152D02*
X113829886Y-59000771D01*
X113829886Y-59000771D02*
X113877505Y-59048390D01*
X112544172Y-58953152D02*
X112544172Y-59619819D01*
X112972743Y-58953152D02*
X112972743Y-59476961D01*
X112972743Y-59476961D02*
X112925124Y-59572200D01*
X112925124Y-59572200D02*
X112829886Y-59619819D01*
X112829886Y-59619819D02*
X112687029Y-59619819D01*
X112687029Y-59619819D02*
X112591791Y-59572200D01*
X112591791Y-59572200D02*
X112544172Y-59524580D01*
X112067981Y-59619819D02*
X112067981Y-58619819D01*
X112067981Y-59000771D02*
X111972743Y-58953152D01*
X111972743Y-58953152D02*
X111782267Y-58953152D01*
X111782267Y-58953152D02*
X111687029Y-59000771D01*
X111687029Y-59000771D02*
X111639410Y-59048390D01*
X111639410Y-59048390D02*
X111591791Y-59143628D01*
X111591791Y-59143628D02*
X111591791Y-59429342D01*
X111591791Y-59429342D02*
X111639410Y-59524580D01*
X111639410Y-59524580D02*
X111687029Y-59572200D01*
X111687029Y-59572200D02*
X111782267Y-59619819D01*
X111782267Y-59619819D02*
X111972743Y-59619819D01*
X111972743Y-59619819D02*
X112067981Y-59572200D01*
X111163219Y-59524580D02*
X111115600Y-59572200D01*
X111115600Y-59572200D02*
X111163219Y-59619819D01*
X111163219Y-59619819D02*
X111210838Y-59572200D01*
X111210838Y-59572200D02*
X111163219Y-59524580D01*
X111163219Y-59524580D02*
X111163219Y-59619819D01*
X110258458Y-59572200D02*
X110353696Y-59619819D01*
X110353696Y-59619819D02*
X110544172Y-59619819D01*
X110544172Y-59619819D02*
X110639410Y-59572200D01*
X110639410Y-59572200D02*
X110687029Y-59524580D01*
X110687029Y-59524580D02*
X110734648Y-59429342D01*
X110734648Y-59429342D02*
X110734648Y-59143628D01*
X110734648Y-59143628D02*
X110687029Y-59048390D01*
X110687029Y-59048390D02*
X110639410Y-59000771D01*
X110639410Y-59000771D02*
X110544172Y-58953152D01*
X110544172Y-58953152D02*
X110353696Y-58953152D01*
X110353696Y-58953152D02*
X110258458Y-59000771D01*
X109687029Y-59619819D02*
X109782267Y-59572200D01*
X109782267Y-59572200D02*
X109829886Y-59524580D01*
X109829886Y-59524580D02*
X109877505Y-59429342D01*
X109877505Y-59429342D02*
X109877505Y-59143628D01*
X109877505Y-59143628D02*
X109829886Y-59048390D01*
X109829886Y-59048390D02*
X109782267Y-59000771D01*
X109782267Y-59000771D02*
X109687029Y-58953152D01*
X109687029Y-58953152D02*
X109544172Y-58953152D01*
X109544172Y-58953152D02*
X109448934Y-59000771D01*
X109448934Y-59000771D02*
X109401315Y-59048390D01*
X109401315Y-59048390D02*
X109353696Y-59143628D01*
X109353696Y-59143628D02*
X109353696Y-59429342D01*
X109353696Y-59429342D02*
X109401315Y-59524580D01*
X109401315Y-59524580D02*
X109448934Y-59572200D01*
X109448934Y-59572200D02*
X109544172Y-59619819D01*
X109544172Y-59619819D02*
X109687029Y-59619819D01*
X108925124Y-59619819D02*
X108925124Y-58953152D01*
X108925124Y-59048390D02*
X108877505Y-59000771D01*
X108877505Y-59000771D02*
X108782267Y-58953152D01*
X108782267Y-58953152D02*
X108639410Y-58953152D01*
X108639410Y-58953152D02*
X108544172Y-59000771D01*
X108544172Y-59000771D02*
X108496553Y-59096009D01*
X108496553Y-59096009D02*
X108496553Y-59619819D01*
X108496553Y-59096009D02*
X108448934Y-59000771D01*
X108448934Y-59000771D02*
X108353696Y-58953152D01*
X108353696Y-58953152D02*
X108210839Y-58953152D01*
X108210839Y-58953152D02*
X108115600Y-59000771D01*
X108115600Y-59000771D02*
X108067981Y-59096009D01*
X108067981Y-59096009D02*
X108067981Y-59619819D01*
X106877506Y-58572200D02*
X107734648Y-59857914D01*
X106591791Y-59572200D02*
X106448934Y-59619819D01*
X106448934Y-59619819D02*
X106210839Y-59619819D01*
X106210839Y-59619819D02*
X106115601Y-59572200D01*
X106115601Y-59572200D02*
X106067982Y-59524580D01*
X106067982Y-59524580D02*
X106020363Y-59429342D01*
X106020363Y-59429342D02*
X106020363Y-59334104D01*
X106020363Y-59334104D02*
X106067982Y-59238866D01*
X106067982Y-59238866D02*
X106115601Y-59191247D01*
X106115601Y-59191247D02*
X106210839Y-59143628D01*
X106210839Y-59143628D02*
X106401315Y-59096009D01*
X106401315Y-59096009D02*
X106496553Y-59048390D01*
X106496553Y-59048390D02*
X106544172Y-59000771D01*
X106544172Y-59000771D02*
X106591791Y-58905533D01*
X106591791Y-58905533D02*
X106591791Y-58810295D01*
X106591791Y-58810295D02*
X106544172Y-58715057D01*
X106544172Y-58715057D02*
X106496553Y-58667438D01*
X106496553Y-58667438D02*
X106401315Y-58619819D01*
X106401315Y-58619819D02*
X106163220Y-58619819D01*
X106163220Y-58619819D02*
X106020363Y-58667438D01*
X105734648Y-58953152D02*
X105353696Y-58953152D01*
X105591791Y-58619819D02*
X105591791Y-59476961D01*
X105591791Y-59476961D02*
X105544172Y-59572200D01*
X105544172Y-59572200D02*
X105448934Y-59619819D01*
X105448934Y-59619819D02*
X105353696Y-59619819D01*
X104591791Y-59619819D02*
X104591791Y-59096009D01*
X104591791Y-59096009D02*
X104639410Y-59000771D01*
X104639410Y-59000771D02*
X104734648Y-58953152D01*
X104734648Y-58953152D02*
X104925124Y-58953152D01*
X104925124Y-58953152D02*
X105020362Y-59000771D01*
X104591791Y-59572200D02*
X104687029Y-59619819D01*
X104687029Y-59619819D02*
X104925124Y-59619819D01*
X104925124Y-59619819D02*
X105020362Y-59572200D01*
X105020362Y-59572200D02*
X105067981Y-59476961D01*
X105067981Y-59476961D02*
X105067981Y-59381723D01*
X105067981Y-59381723D02*
X105020362Y-59286485D01*
X105020362Y-59286485D02*
X104925124Y-59238866D01*
X104925124Y-59238866D02*
X104687029Y-59238866D01*
X104687029Y-59238866D02*
X104591791Y-59191247D01*
X104115600Y-59619819D02*
X104115600Y-58953152D01*
X104115600Y-59143628D02*
X104067981Y-59048390D01*
X104067981Y-59048390D02*
X104020362Y-59000771D01*
X104020362Y-59000771D02*
X103925124Y-58953152D01*
X103925124Y-58953152D02*
X103829886Y-58953152D01*
X102972743Y-58667438D02*
X103067981Y-58619819D01*
X103067981Y-58619819D02*
X103210838Y-58619819D01*
X103210838Y-58619819D02*
X103353695Y-58667438D01*
X103353695Y-58667438D02*
X103448933Y-58762676D01*
X103448933Y-58762676D02*
X103496552Y-58857914D01*
X103496552Y-58857914D02*
X103544171Y-59048390D01*
X103544171Y-59048390D02*
X103544171Y-59191247D01*
X103544171Y-59191247D02*
X103496552Y-59381723D01*
X103496552Y-59381723D02*
X103448933Y-59476961D01*
X103448933Y-59476961D02*
X103353695Y-59572200D01*
X103353695Y-59572200D02*
X103210838Y-59619819D01*
X103210838Y-59619819D02*
X103115600Y-59619819D01*
X103115600Y-59619819D02*
X102972743Y-59572200D01*
X102972743Y-59572200D02*
X102925124Y-59524580D01*
X102925124Y-59524580D02*
X102925124Y-59191247D01*
X102925124Y-59191247D02*
X103115600Y-59191247D01*
X102067981Y-59619819D02*
X102067981Y-59096009D01*
X102067981Y-59096009D02*
X102115600Y-59000771D01*
X102115600Y-59000771D02*
X102210838Y-58953152D01*
X102210838Y-58953152D02*
X102401314Y-58953152D01*
X102401314Y-58953152D02*
X102496552Y-59000771D01*
X102067981Y-59572200D02*
X102163219Y-59619819D01*
X102163219Y-59619819D02*
X102401314Y-59619819D01*
X102401314Y-59619819D02*
X102496552Y-59572200D01*
X102496552Y-59572200D02*
X102544171Y-59476961D01*
X102544171Y-59476961D02*
X102544171Y-59381723D01*
X102544171Y-59381723D02*
X102496552Y-59286485D01*
X102496552Y-59286485D02*
X102401314Y-59238866D01*
X102401314Y-59238866D02*
X102163219Y-59238866D01*
X102163219Y-59238866D02*
X102067981Y-59191247D01*
X101734647Y-58953152D02*
X101353695Y-58953152D01*
X101591790Y-58619819D02*
X101591790Y-59476961D01*
X101591790Y-59476961D02*
X101544171Y-59572200D01*
X101544171Y-59572200D02*
X101448933Y-59619819D01*
X101448933Y-59619819D02*
X101353695Y-59619819D01*
X100639409Y-59572200D02*
X100734647Y-59619819D01*
X100734647Y-59619819D02*
X100925123Y-59619819D01*
X100925123Y-59619819D02*
X101020361Y-59572200D01*
X101020361Y-59572200D02*
X101067980Y-59476961D01*
X101067980Y-59476961D02*
X101067980Y-59096009D01*
X101067980Y-59096009D02*
X101020361Y-59000771D01*
X101020361Y-59000771D02*
X100925123Y-58953152D01*
X100925123Y-58953152D02*
X100734647Y-58953152D01*
X100734647Y-58953152D02*
X100639409Y-59000771D01*
X100639409Y-59000771D02*
X100591790Y-59096009D01*
X100591790Y-59096009D02*
X100591790Y-59191247D01*
X100591790Y-59191247D02*
X101067980Y-59286485D01*
X99972742Y-58619819D02*
X99877504Y-58619819D01*
X99877504Y-58619819D02*
X99782266Y-58667438D01*
X99782266Y-58667438D02*
X99734647Y-58715057D01*
X99734647Y-58715057D02*
X99687028Y-58810295D01*
X99687028Y-58810295D02*
X99639409Y-59000771D01*
X99639409Y-59000771D02*
X99639409Y-59238866D01*
X99639409Y-59238866D02*
X99687028Y-59429342D01*
X99687028Y-59429342D02*
X99734647Y-59524580D01*
X99734647Y-59524580D02*
X99782266Y-59572200D01*
X99782266Y-59572200D02*
X99877504Y-59619819D01*
X99877504Y-59619819D02*
X99972742Y-59619819D01*
X99972742Y-59619819D02*
X100067980Y-59572200D01*
X100067980Y-59572200D02*
X100115599Y-59524580D01*
X100115599Y-59524580D02*
X100163218Y-59429342D01*
X100163218Y-59429342D02*
X100210837Y-59238866D01*
X100210837Y-59238866D02*
X100210837Y-59000771D01*
X100210837Y-59000771D02*
X100163218Y-58810295D01*
X100163218Y-58810295D02*
X100115599Y-58715057D01*
X100115599Y-58715057D02*
X100067980Y-58667438D01*
X100067980Y-58667438D02*
X99972742Y-58619819D01*
X98687028Y-59619819D02*
X99258456Y-59619819D01*
X98972742Y-59619819D02*
X98972742Y-58619819D01*
X98972742Y-58619819D02*
X99067980Y-58762676D01*
X99067980Y-58762676D02*
X99163218Y-58857914D01*
X99163218Y-58857914D02*
X99258456Y-58905533D01*
X97544171Y-58572200D02*
X98401313Y-59857914D01*
X97210837Y-59619819D02*
X97210837Y-58953152D01*
X97210837Y-59048390D02*
X97163218Y-59000771D01*
X97163218Y-59000771D02*
X97067980Y-58953152D01*
X97067980Y-58953152D02*
X96925123Y-58953152D01*
X96925123Y-58953152D02*
X96829885Y-59000771D01*
X96829885Y-59000771D02*
X96782266Y-59096009D01*
X96782266Y-59096009D02*
X96782266Y-59619819D01*
X96782266Y-59096009D02*
X96734647Y-59000771D01*
X96734647Y-59000771D02*
X96639409Y-58953152D01*
X96639409Y-58953152D02*
X96496552Y-58953152D01*
X96496552Y-58953152D02*
X96401313Y-59000771D01*
X96401313Y-59000771D02*
X96353694Y-59096009D01*
X96353694Y-59096009D02*
X96353694Y-59619819D01*
X95448933Y-59619819D02*
X95448933Y-59096009D01*
X95448933Y-59096009D02*
X95496552Y-59000771D01*
X95496552Y-59000771D02*
X95591790Y-58953152D01*
X95591790Y-58953152D02*
X95782266Y-58953152D01*
X95782266Y-58953152D02*
X95877504Y-59000771D01*
X95448933Y-59572200D02*
X95544171Y-59619819D01*
X95544171Y-59619819D02*
X95782266Y-59619819D01*
X95782266Y-59619819D02*
X95877504Y-59572200D01*
X95877504Y-59572200D02*
X95925123Y-59476961D01*
X95925123Y-59476961D02*
X95925123Y-59381723D01*
X95925123Y-59381723D02*
X95877504Y-59286485D01*
X95877504Y-59286485D02*
X95782266Y-59238866D01*
X95782266Y-59238866D02*
X95544171Y-59238866D01*
X95544171Y-59238866D02*
X95448933Y-59191247D01*
X95067980Y-59619819D02*
X94544171Y-58953152D01*
X95067980Y-58953152D02*
X94544171Y-59619819D01*
X94258456Y-58619819D02*
X93639409Y-58619819D01*
X93639409Y-58619819D02*
X93972742Y-59000771D01*
X93972742Y-59000771D02*
X93829885Y-59000771D01*
X93829885Y-59000771D02*
X93734647Y-59048390D01*
X93734647Y-59048390D02*
X93687028Y-59096009D01*
X93687028Y-59096009D02*
X93639409Y-59191247D01*
X93639409Y-59191247D02*
X93639409Y-59429342D01*
X93639409Y-59429342D02*
X93687028Y-59524580D01*
X93687028Y-59524580D02*
X93734647Y-59572200D01*
X93734647Y-59572200D02*
X93829885Y-59619819D01*
X93829885Y-59619819D02*
X94115599Y-59619819D01*
X94115599Y-59619819D02*
X94210837Y-59572200D01*
X94210837Y-59572200D02*
X94258456Y-59524580D01*
X92782266Y-58953152D02*
X92782266Y-59619819D01*
X93020361Y-58572200D02*
X93258456Y-59286485D01*
X93258456Y-59286485D02*
X92639409Y-59286485D01*
X92306075Y-58715057D02*
X92258456Y-58667438D01*
X92258456Y-58667438D02*
X92163218Y-58619819D01*
X92163218Y-58619819D02*
X91925123Y-58619819D01*
X91925123Y-58619819D02*
X91829885Y-58667438D01*
X91829885Y-58667438D02*
X91782266Y-58715057D01*
X91782266Y-58715057D02*
X91734647Y-58810295D01*
X91734647Y-58810295D02*
X91734647Y-58905533D01*
X91734647Y-58905533D02*
X91782266Y-59048390D01*
X91782266Y-59048390D02*
X92353694Y-59619819D01*
X92353694Y-59619819D02*
X91734647Y-59619819D01*
X90782266Y-59619819D02*
X91353694Y-59619819D01*
X91067980Y-59619819D02*
X91067980Y-58619819D01*
X91067980Y-58619819D02*
X91163218Y-58762676D01*
X91163218Y-58762676D02*
X91258456Y-58857914D01*
X91258456Y-58857914D02*
X91353694Y-58905533D01*
X89972742Y-59572200D02*
X90067980Y-59619819D01*
X90067980Y-59619819D02*
X90258456Y-59619819D01*
X90258456Y-59619819D02*
X90353694Y-59572200D01*
X90353694Y-59572200D02*
X90401313Y-59476961D01*
X90401313Y-59476961D02*
X90401313Y-59096009D01*
X90401313Y-59096009D02*
X90353694Y-59000771D01*
X90353694Y-59000771D02*
X90258456Y-58953152D01*
X90258456Y-58953152D02*
X90067980Y-58953152D01*
X90067980Y-58953152D02*
X89972742Y-59000771D01*
X89972742Y-59000771D02*
X89925123Y-59096009D01*
X89925123Y-59096009D02*
X89925123Y-59191247D01*
X89925123Y-59191247D02*
X90401313Y-59286485D01*
X89496551Y-59238866D02*
X88734647Y-59238866D01*
X88258456Y-59619819D02*
X88258456Y-58953152D01*
X88258456Y-59143628D02*
X88210837Y-59048390D01*
X88210837Y-59048390D02*
X88163218Y-59000771D01*
X88163218Y-59000771D02*
X88067980Y-58953152D01*
X88067980Y-58953152D02*
X87972742Y-58953152D01*
X87639408Y-58953152D02*
X87639408Y-59953152D01*
X87639408Y-59000771D02*
X87544170Y-58953152D01*
X87544170Y-58953152D02*
X87353694Y-58953152D01*
X87353694Y-58953152D02*
X87258456Y-59000771D01*
X87258456Y-59000771D02*
X87210837Y-59048390D01*
X87210837Y-59048390D02*
X87163218Y-59143628D01*
X87163218Y-59143628D02*
X87163218Y-59429342D01*
X87163218Y-59429342D02*
X87210837Y-59524580D01*
X87210837Y-59524580D02*
X87258456Y-59572200D01*
X87258456Y-59572200D02*
X87353694Y-59619819D01*
X87353694Y-59619819D02*
X87544170Y-59619819D01*
X87544170Y-59619819D02*
X87639408Y-59572200D01*
X86734646Y-59619819D02*
X86734646Y-58953152D01*
X86734646Y-58619819D02*
X86782265Y-58667438D01*
X86782265Y-58667438D02*
X86734646Y-58715057D01*
X86734646Y-58715057D02*
X86687027Y-58667438D01*
X86687027Y-58667438D02*
X86734646Y-58619819D01*
X86734646Y-58619819D02*
X86734646Y-58715057D01*
X86258456Y-59238866D02*
X85496552Y-59238866D01*
X84591790Y-58953152D02*
X84591790Y-59619819D01*
X85020361Y-58953152D02*
X85020361Y-59476961D01*
X85020361Y-59476961D02*
X84972742Y-59572200D01*
X84972742Y-59572200D02*
X84877504Y-59619819D01*
X84877504Y-59619819D02*
X84734647Y-59619819D01*
X84734647Y-59619819D02*
X84639409Y-59572200D01*
X84639409Y-59572200D02*
X84591790Y-59524580D01*
X84115599Y-59619819D02*
X84115599Y-58619819D01*
X83687028Y-59619819D02*
X83687028Y-59096009D01*
X83687028Y-59096009D02*
X83734647Y-59000771D01*
X83734647Y-59000771D02*
X83829885Y-58953152D01*
X83829885Y-58953152D02*
X83972742Y-58953152D01*
X83972742Y-58953152D02*
X84067980Y-59000771D01*
X84067980Y-59000771D02*
X84115599Y-59048390D01*
X82782266Y-59619819D02*
X82782266Y-59096009D01*
X82782266Y-59096009D02*
X82829885Y-59000771D01*
X82829885Y-59000771D02*
X82925123Y-58953152D01*
X82925123Y-58953152D02*
X83115599Y-58953152D01*
X83115599Y-58953152D02*
X83210837Y-59000771D01*
X82782266Y-59572200D02*
X82877504Y-59619819D01*
X82877504Y-59619819D02*
X83115599Y-59619819D01*
X83115599Y-59619819D02*
X83210837Y-59572200D01*
X83210837Y-59572200D02*
X83258456Y-59476961D01*
X83258456Y-59476961D02*
X83258456Y-59381723D01*
X83258456Y-59381723D02*
X83210837Y-59286485D01*
X83210837Y-59286485D02*
X83115599Y-59238866D01*
X83115599Y-59238866D02*
X82877504Y-59238866D01*
X82877504Y-59238866D02*
X82782266Y-59191247D01*
X82448932Y-58953152D02*
X82067980Y-58953152D01*
X82306075Y-58619819D02*
X82306075Y-59476961D01*
X82306075Y-59476961D02*
X82258456Y-59572200D01*
X82258456Y-59572200D02*
X82163218Y-59619819D01*
X82163218Y-59619819D02*
X82067980Y-59619819D01*
X74583333Y-49404819D02*
X74583333Y-50119104D01*
X74583333Y-50119104D02*
X74630952Y-50261961D01*
X74630952Y-50261961D02*
X74726190Y-50357200D01*
X74726190Y-50357200D02*
X74869047Y-50404819D01*
X74869047Y-50404819D02*
X74964285Y-50404819D01*
X73583333Y-50404819D02*
X74154761Y-50404819D01*
X73869047Y-50404819D02*
X73869047Y-49404819D01*
X73869047Y-49404819D02*
X73964285Y-49547676D01*
X73964285Y-49547676D02*
X74059523Y-49642914D01*
X74059523Y-49642914D02*
X74154761Y-49690533D01*
D11*
X114361501Y-67376476D02*
X114442167Y-67406440D01*
X114475714Y-67428954D01*
X114509687Y-67461212D01*
X114533919Y-67502246D01*
X114550001Y-67558108D01*
X114559521Y-67634851D01*
X114564068Y-67738525D01*
X114565231Y-67875184D01*
X114565003Y-67945805D01*
X114563860Y-68042308D01*
X114561919Y-68119323D01*
X114559365Y-68170319D01*
X114556381Y-68188769D01*
X114536962Y-68182667D01*
X114497766Y-68166095D01*
X114496589Y-68165558D01*
X114476235Y-68154903D01*
X114462546Y-68140282D01*
X114454199Y-68114673D01*
X114449874Y-68071054D01*
X114448248Y-68002403D01*
X114448000Y-67901698D01*
X114447500Y-67837813D01*
X114442164Y-67717751D01*
X114429945Y-67629809D01*
X114409552Y-67569375D01*
X114379695Y-67531836D01*
X114339082Y-67512581D01*
X114333448Y-67511239D01*
X114257378Y-67510191D01*
X114198052Y-67544271D01*
X114157077Y-67612598D01*
X114149770Y-67632351D01*
X114133114Y-67676066D01*
X114124679Y-67696155D01*
X114107356Y-67693387D01*
X114069525Y-67678365D01*
X114034240Y-67653556D01*
X114018154Y-67606670D01*
X114022952Y-67573087D01*
X114052431Y-67504967D01*
X114100098Y-67441134D01*
X114155839Y-67396988D01*
X114179193Y-67386782D01*
X114267619Y-67369718D01*
X114361501Y-67376476D01*
G36*
X114361501Y-67376476D02*
G01*
X114442167Y-67406440D01*
X114475714Y-67428954D01*
X114509687Y-67461212D01*
X114533919Y-67502246D01*
X114550001Y-67558108D01*
X114559521Y-67634851D01*
X114564068Y-67738525D01*
X114565231Y-67875184D01*
X114565003Y-67945805D01*
X114563860Y-68042308D01*
X114561919Y-68119323D01*
X114559365Y-68170319D01*
X114556381Y-68188769D01*
X114536962Y-68182667D01*
X114497766Y-68166095D01*
X114496589Y-68165558D01*
X114476235Y-68154903D01*
X114462546Y-68140282D01*
X114454199Y-68114673D01*
X114449874Y-68071054D01*
X114448248Y-68002403D01*
X114448000Y-67901698D01*
X114447500Y-67837813D01*
X114442164Y-67717751D01*
X114429945Y-67629809D01*
X114409552Y-67569375D01*
X114379695Y-67531836D01*
X114339082Y-67512581D01*
X114333448Y-67511239D01*
X114257378Y-67510191D01*
X114198052Y-67544271D01*
X114157077Y-67612598D01*
X114149770Y-67632351D01*
X114133114Y-67676066D01*
X114124679Y-67696155D01*
X114107356Y-67693387D01*
X114069525Y-67678365D01*
X114034240Y-67653556D01*
X114018154Y-67606670D01*
X114022952Y-67573087D01*
X114052431Y-67504967D01*
X114100098Y-67441134D01*
X114155839Y-67396988D01*
X114179193Y-67386782D01*
X114267619Y-67369718D01*
X114361501Y-67376476D01*
G37*
X119676372Y-67331684D02*
X119767629Y-67374569D01*
X119842416Y-67448729D01*
X119857917Y-67471944D01*
X119870774Y-67498256D01*
X119879893Y-67531420D01*
X119886102Y-67577881D01*
X119890233Y-67644082D01*
X119893116Y-67736468D01*
X119895579Y-67861485D01*
X119901697Y-68208278D01*
X119850303Y-68188738D01*
X119803246Y-68170787D01*
X119768015Y-68153511D01*
X119745017Y-68131242D01*
X119731655Y-68097165D01*
X119725328Y-68044463D01*
X119723437Y-67966323D01*
X119723385Y-67855928D01*
X119723117Y-67767935D01*
X119721521Y-67683502D01*
X119717712Y-67625834D01*
X119710820Y-67587988D01*
X119699975Y-67563024D01*
X119684308Y-67544000D01*
X119645792Y-67517153D01*
X119581091Y-67507034D01*
X119517081Y-67532606D01*
X119512856Y-67535880D01*
X119499689Y-67551007D01*
X119489975Y-67575268D01*
X119482903Y-67614650D01*
X119477656Y-67675141D01*
X119473421Y-67762729D01*
X119469385Y-67883402D01*
X119459615Y-68206515D01*
X119293539Y-68132065D01*
X119293539Y-67837062D01*
X119293883Y-67756919D01*
X119296847Y-67645431D01*
X119304351Y-67562421D01*
X119318190Y-67501199D01*
X119340155Y-67455075D01*
X119372039Y-67417358D01*
X119415633Y-67381358D01*
X119478336Y-67345089D01*
X119577117Y-67321412D01*
X119676372Y-67331684D01*
G36*
X119676372Y-67331684D02*
G01*
X119767629Y-67374569D01*
X119842416Y-67448729D01*
X119857917Y-67471944D01*
X119870774Y-67498256D01*
X119879893Y-67531420D01*
X119886102Y-67577881D01*
X119890233Y-67644082D01*
X119893116Y-67736468D01*
X119895579Y-67861485D01*
X119901697Y-68208278D01*
X119850303Y-68188738D01*
X119803246Y-68170787D01*
X119768015Y-68153511D01*
X119745017Y-68131242D01*
X119731655Y-68097165D01*
X119725328Y-68044463D01*
X119723437Y-67966323D01*
X119723385Y-67855928D01*
X119723117Y-67767935D01*
X119721521Y-67683502D01*
X119717712Y-67625834D01*
X119710820Y-67587988D01*
X119699975Y-67563024D01*
X119684308Y-67544000D01*
X119645792Y-67517153D01*
X119581091Y-67507034D01*
X119517081Y-67532606D01*
X119512856Y-67535880D01*
X119499689Y-67551007D01*
X119489975Y-67575268D01*
X119482903Y-67614650D01*
X119477656Y-67675141D01*
X119473421Y-67762729D01*
X119469385Y-67883402D01*
X119459615Y-68206515D01*
X119293539Y-68132065D01*
X119293539Y-67837062D01*
X119293883Y-67756919D01*
X119296847Y-67645431D01*
X119304351Y-67562421D01*
X119318190Y-67501199D01*
X119340155Y-67455075D01*
X119372039Y-67417358D01*
X119415633Y-67381358D01*
X119478336Y-67345089D01*
X119577117Y-67321412D01*
X119676372Y-67331684D01*
G37*
X117221892Y-67397167D02*
X117228060Y-67400581D01*
X117278447Y-67439692D01*
X117323498Y-67489975D01*
X117331355Y-67501339D01*
X117346376Y-67527860D01*
X117357107Y-67559336D01*
X117364486Y-67602591D01*
X117369452Y-67664449D01*
X117372942Y-67751733D01*
X117375893Y-67871269D01*
X117376311Y-67891478D01*
X117377654Y-68022499D01*
X117375761Y-68115296D01*
X117370605Y-68170507D01*
X117362158Y-68188769D01*
X117336594Y-68183301D01*
X117293166Y-68166733D01*
X117282940Y-68161888D01*
X117266967Y-68150920D01*
X117255954Y-68132890D01*
X117248750Y-68101396D01*
X117244208Y-68050036D01*
X117241180Y-67972410D01*
X117238516Y-67862115D01*
X117237785Y-67829875D01*
X117234965Y-67728050D01*
X117231304Y-67656788D01*
X117225694Y-67609332D01*
X117217029Y-67578925D01*
X117204202Y-67558810D01*
X117186105Y-67542229D01*
X117132525Y-67513161D01*
X117066612Y-67507564D01*
X117007635Y-67529807D01*
X116965203Y-67575859D01*
X116948923Y-67641692D01*
X116948470Y-67659587D01*
X116939578Y-67691982D01*
X116913325Y-67696925D01*
X116861919Y-67677633D01*
X116850013Y-67671446D01*
X116817835Y-67635058D01*
X116817198Y-67580954D01*
X116847856Y-67506128D01*
X116875978Y-67465350D01*
X116947883Y-67407421D01*
X117036638Y-67374670D01*
X117131542Y-67370212D01*
X117221892Y-67397167D01*
G36*
X117221892Y-67397167D02*
G01*
X117228060Y-67400581D01*
X117278447Y-67439692D01*
X117323498Y-67489975D01*
X117331355Y-67501339D01*
X117346376Y-67527860D01*
X117357107Y-67559336D01*
X117364486Y-67602591D01*
X117369452Y-67664449D01*
X117372942Y-67751733D01*
X117375893Y-67871269D01*
X117376311Y-67891478D01*
X117377654Y-68022499D01*
X117375761Y-68115296D01*
X117370605Y-68170507D01*
X117362158Y-68188769D01*
X117336594Y-68183301D01*
X117293166Y-68166733D01*
X117282940Y-68161888D01*
X117266967Y-68150920D01*
X117255954Y-68132890D01*
X117248750Y-68101396D01*
X117244208Y-68050036D01*
X117241180Y-67972410D01*
X117238516Y-67862115D01*
X117237785Y-67829875D01*
X117234965Y-67728050D01*
X117231304Y-67656788D01*
X117225694Y-67609332D01*
X117217029Y-67578925D01*
X117204202Y-67558810D01*
X117186105Y-67542229D01*
X117132525Y-67513161D01*
X117066612Y-67507564D01*
X117007635Y-67529807D01*
X116965203Y-67575859D01*
X116948923Y-67641692D01*
X116948470Y-67659587D01*
X116939578Y-67691982D01*
X116913325Y-67696925D01*
X116861919Y-67677633D01*
X116850013Y-67671446D01*
X116817835Y-67635058D01*
X116817198Y-67580954D01*
X116847856Y-67506128D01*
X116875978Y-67465350D01*
X116947883Y-67407421D01*
X117036638Y-67374670D01*
X117131542Y-67370212D01*
X117221892Y-67397167D01*
G37*
X118726923Y-67131806D02*
X118726923Y-67666455D01*
X118726660Y-67805094D01*
X118725958Y-67929805D01*
X118724883Y-68035557D01*
X118723500Y-68117322D01*
X118721874Y-68170069D01*
X118720070Y-68188769D01*
X118719364Y-68188706D01*
X118695387Y-68181912D01*
X118651685Y-68167320D01*
X118590154Y-68145870D01*
X118590154Y-67870617D01*
X118589763Y-67762466D01*
X118587946Y-67684026D01*
X118583767Y-67630647D01*
X118576286Y-67595256D01*
X118564567Y-67570779D01*
X118547671Y-67550144D01*
X118536152Y-67539170D01*
X118473864Y-67508775D01*
X118405211Y-67511466D01*
X118342298Y-67547406D01*
X118333139Y-67556325D01*
X118318471Y-67574844D01*
X118308433Y-67599326D01*
X118302151Y-67636393D01*
X118298748Y-67692667D01*
X118297349Y-67774771D01*
X118297077Y-67889329D01*
X118296947Y-67947430D01*
X118296099Y-68042993D01*
X118294594Y-68119526D01*
X118292585Y-68170345D01*
X118290223Y-68188769D01*
X118289518Y-68188706D01*
X118265541Y-68181912D01*
X118221839Y-68167320D01*
X118160308Y-68145870D01*
X118160338Y-67869358D01*
X118160384Y-67844742D01*
X118162970Y-67716419D01*
X118170913Y-67619384D01*
X118186155Y-67547057D01*
X118210636Y-67492855D01*
X118246298Y-67450198D01*
X118295082Y-67412505D01*
X118342661Y-67388910D01*
X118418732Y-67370672D01*
X118493556Y-67369636D01*
X118551077Y-67387378D01*
X118555402Y-67389829D01*
X118568738Y-67389566D01*
X118577851Y-67369039D01*
X118584428Y-67321980D01*
X118590154Y-67242120D01*
X118599923Y-67078236D01*
X118726923Y-67131806D01*
G36*
X118726923Y-67131806D02*
G01*
X118726923Y-67666455D01*
X118726660Y-67805094D01*
X118725958Y-67929805D01*
X118724883Y-68035557D01*
X118723500Y-68117322D01*
X118721874Y-68170069D01*
X118720070Y-68188769D01*
X118719364Y-68188706D01*
X118695387Y-68181912D01*
X118651685Y-68167320D01*
X118590154Y-68145870D01*
X118590154Y-67870617D01*
X118589763Y-67762466D01*
X118587946Y-67684026D01*
X118583767Y-67630647D01*
X118576286Y-67595256D01*
X118564567Y-67570779D01*
X118547671Y-67550144D01*
X118536152Y-67539170D01*
X118473864Y-67508775D01*
X118405211Y-67511466D01*
X118342298Y-67547406D01*
X118333139Y-67556325D01*
X118318471Y-67574844D01*
X118308433Y-67599326D01*
X118302151Y-67636393D01*
X118298748Y-67692667D01*
X118297349Y-67774771D01*
X118297077Y-67889329D01*
X118296947Y-67947430D01*
X118296099Y-68042993D01*
X118294594Y-68119526D01*
X118292585Y-68170345D01*
X118290223Y-68188769D01*
X118289518Y-68188706D01*
X118265541Y-68181912D01*
X118221839Y-68167320D01*
X118160308Y-68145870D01*
X118160338Y-67869358D01*
X118160384Y-67844742D01*
X118162970Y-67716419D01*
X118170913Y-67619384D01*
X118186155Y-67547057D01*
X118210636Y-67492855D01*
X118246298Y-67450198D01*
X118295082Y-67412505D01*
X118342661Y-67388910D01*
X118418732Y-67370672D01*
X118493556Y-67369636D01*
X118551077Y-67387378D01*
X118555402Y-67389829D01*
X118568738Y-67389566D01*
X118577851Y-67369039D01*
X118584428Y-67321980D01*
X118590154Y-67242120D01*
X118599923Y-67078236D01*
X118726923Y-67131806D01*
G37*
X115937998Y-67374034D02*
X115980850Y-67390829D01*
X116030615Y-67413503D01*
X116030615Y-68068533D01*
X115968785Y-68130363D01*
X115954662Y-68144228D01*
X115915536Y-68175046D01*
X115876078Y-68185028D01*
X115817362Y-68180433D01*
X115793456Y-68177462D01*
X115731801Y-68171176D01*
X115688692Y-68168672D01*
X115675905Y-68169055D01*
X115623446Y-68173200D01*
X115560022Y-68180433D01*
X115539730Y-68182918D01*
X115488610Y-68183895D01*
X115451207Y-68168462D01*
X115408599Y-68130363D01*
X115346769Y-68068533D01*
X115346769Y-67718343D01*
X115347251Y-67614857D01*
X115348753Y-67516192D01*
X115351089Y-67438068D01*
X115354071Y-67386662D01*
X115357509Y-67368154D01*
X115358230Y-67368204D01*
X115383203Y-67377413D01*
X115425399Y-67397707D01*
X115482549Y-67427261D01*
X115487928Y-67734746D01*
X115493308Y-68042231D01*
X115610539Y-68042231D01*
X115615885Y-67705192D01*
X115617579Y-67613574D01*
X115620005Y-67515649D01*
X115622634Y-67437906D01*
X115625246Y-67386642D01*
X115627623Y-67368154D01*
X115628306Y-67368219D01*
X115651996Y-67375020D01*
X115695546Y-67389604D01*
X115757077Y-67411054D01*
X115757376Y-67707104D01*
X115757676Y-67758532D01*
X115759754Y-67858466D01*
X115763470Y-67941925D01*
X115768430Y-68001377D01*
X115774240Y-68029287D01*
X115795024Y-68044214D01*
X115837440Y-68048825D01*
X115884077Y-68042231D01*
X115889423Y-67705192D01*
X115891336Y-67619546D01*
X115895303Y-67518172D01*
X115900491Y-67438655D01*
X115906499Y-67386736D01*
X115912927Y-67368154D01*
X115937998Y-67374034D01*
G36*
X115937998Y-67374034D02*
G01*
X115980850Y-67390829D01*
X116030615Y-67413503D01*
X116030615Y-68068533D01*
X115968785Y-68130363D01*
X115954662Y-68144228D01*
X115915536Y-68175046D01*
X115876078Y-68185028D01*
X115817362Y-68180433D01*
X115793456Y-68177462D01*
X115731801Y-68171176D01*
X115688692Y-68168672D01*
X115675905Y-68169055D01*
X115623446Y-68173200D01*
X115560022Y-68180433D01*
X115539730Y-68182918D01*
X115488610Y-68183895D01*
X115451207Y-68168462D01*
X115408599Y-68130363D01*
X115346769Y-68068533D01*
X115346769Y-67718343D01*
X115347251Y-67614857D01*
X115348753Y-67516192D01*
X115351089Y-67438068D01*
X115354071Y-67386662D01*
X115357509Y-67368154D01*
X115358230Y-67368204D01*
X115383203Y-67377413D01*
X115425399Y-67397707D01*
X115482549Y-67427261D01*
X115487928Y-67734746D01*
X115493308Y-68042231D01*
X115610539Y-68042231D01*
X115615885Y-67705192D01*
X115617579Y-67613574D01*
X115620005Y-67515649D01*
X115622634Y-67437906D01*
X115625246Y-67386642D01*
X115627623Y-67368154D01*
X115628306Y-67368219D01*
X115651996Y-67375020D01*
X115695546Y-67389604D01*
X115757077Y-67411054D01*
X115757376Y-67707104D01*
X115757676Y-67758532D01*
X115759754Y-67858466D01*
X115763470Y-67941925D01*
X115768430Y-68001377D01*
X115774240Y-68029287D01*
X115795024Y-68044214D01*
X115837440Y-68048825D01*
X115884077Y-68042231D01*
X115889423Y-67705192D01*
X115891336Y-67619546D01*
X115895303Y-67518172D01*
X115900491Y-67438655D01*
X115906499Y-67386736D01*
X115912927Y-67368154D01*
X115937998Y-67374034D01*
G37*
X122146154Y-67758923D02*
X122146135Y-67780105D01*
X122145076Y-67874584D01*
X122141436Y-67940414D01*
X122133892Y-67986394D01*
X122121122Y-68021321D01*
X122101803Y-68053995D01*
X122097050Y-68060775D01*
X122046759Y-68114231D01*
X121989457Y-68154547D01*
X121960032Y-68167629D01*
X121854299Y-68189450D01*
X121749734Y-68175336D01*
X121653368Y-68127105D01*
X121572235Y-68046579D01*
X121565385Y-68035791D01*
X121543097Y-67973153D01*
X121528079Y-67885935D01*
X121520792Y-67785210D01*
X121521611Y-67692037D01*
X121718796Y-67692037D01*
X121720349Y-67821114D01*
X121720974Y-67829420D01*
X121730077Y-67900643D01*
X121746288Y-67945809D01*
X121773660Y-67976752D01*
X121819553Y-68005737D01*
X121864942Y-68007261D01*
X121911692Y-67973846D01*
X121919824Y-67965053D01*
X121935754Y-67938741D01*
X121945159Y-67900520D01*
X121949632Y-67841349D01*
X121950769Y-67752182D01*
X121948822Y-67668664D01*
X121939105Y-67589095D01*
X121919047Y-67538808D01*
X121886240Y-67512513D01*
X121838280Y-67504923D01*
X121820016Y-67506432D01*
X121768848Y-67534107D01*
X121735035Y-67596172D01*
X121718796Y-67692037D01*
X121521611Y-67692037D01*
X121521699Y-67682052D01*
X121531262Y-67587533D01*
X121549943Y-67512727D01*
X121573951Y-67462905D01*
X121641536Y-67385409D01*
X121733114Y-67337256D01*
X121845213Y-67320703D01*
X121875151Y-67321599D01*
X121963315Y-67339929D01*
X122035733Y-67386104D01*
X122102192Y-67465648D01*
X122106147Y-67471548D01*
X122124040Y-67503288D01*
X122135678Y-67539163D01*
X122142371Y-67587906D01*
X122145426Y-67658249D01*
X122146106Y-67752182D01*
X122146154Y-67758923D01*
G36*
X122146154Y-67758923D02*
G01*
X122146135Y-67780105D01*
X122145076Y-67874584D01*
X122141436Y-67940414D01*
X122133892Y-67986394D01*
X122121122Y-68021321D01*
X122101803Y-68053995D01*
X122097050Y-68060775D01*
X122046759Y-68114231D01*
X121989457Y-68154547D01*
X121960032Y-68167629D01*
X121854299Y-68189450D01*
X121749734Y-68175336D01*
X121653368Y-68127105D01*
X121572235Y-68046579D01*
X121565385Y-68035791D01*
X121543097Y-67973153D01*
X121528079Y-67885935D01*
X121520792Y-67785210D01*
X121521611Y-67692037D01*
X121718796Y-67692037D01*
X121720349Y-67821114D01*
X121720974Y-67829420D01*
X121730077Y-67900643D01*
X121746288Y-67945809D01*
X121773660Y-67976752D01*
X121819553Y-68005737D01*
X121864942Y-68007261D01*
X121911692Y-67973846D01*
X121919824Y-67965053D01*
X121935754Y-67938741D01*
X121945159Y-67900520D01*
X121949632Y-67841349D01*
X121950769Y-67752182D01*
X121948822Y-67668664D01*
X121939105Y-67589095D01*
X121919047Y-67538808D01*
X121886240Y-67512513D01*
X121838280Y-67504923D01*
X121820016Y-67506432D01*
X121768848Y-67534107D01*
X121735035Y-67596172D01*
X121718796Y-67692037D01*
X121521611Y-67692037D01*
X121521699Y-67682052D01*
X121531262Y-67587533D01*
X121549943Y-67512727D01*
X121573951Y-67462905D01*
X121641536Y-67385409D01*
X121733114Y-67337256D01*
X121845213Y-67320703D01*
X121875151Y-67321599D01*
X121963315Y-67339929D01*
X122035733Y-67386104D01*
X122102192Y-67465648D01*
X122106147Y-67471548D01*
X122124040Y-67503288D01*
X122135678Y-67539163D01*
X122142371Y-67587906D01*
X122145426Y-67658249D01*
X122146106Y-67752182D01*
X122146154Y-67758923D01*
G37*
X113900794Y-67782376D02*
X113900413Y-67834449D01*
X113895641Y-67937047D01*
X113883150Y-68012126D01*
X113860121Y-68067748D01*
X113823732Y-68111975D01*
X113771162Y-68152869D01*
X113737714Y-68171466D01*
X113684098Y-68183991D01*
X113608780Y-68183003D01*
X113566672Y-68179035D01*
X113515879Y-68166920D01*
X113475280Y-68140585D01*
X113428049Y-68091514D01*
X113421738Y-68084346D01*
X113379277Y-68029189D01*
X113359018Y-67981150D01*
X113353846Y-67924184D01*
X113353846Y-67840471D01*
X113412346Y-67862552D01*
X113454994Y-67888364D01*
X113492064Y-67948928D01*
X113499803Y-67968320D01*
X113543074Y-68023235D01*
X113601976Y-68050879D01*
X113666111Y-68048393D01*
X113725077Y-68012923D01*
X113745342Y-67990805D01*
X113763720Y-67957436D01*
X113757971Y-67927117D01*
X113724887Y-67895913D01*
X113661261Y-67859887D01*
X113563885Y-67815103D01*
X113363615Y-67727445D01*
X113358301Y-67640607D01*
X113360299Y-67585296D01*
X113490783Y-67585296D01*
X113500688Y-67619538D01*
X113545756Y-67656096D01*
X113627557Y-67697692D01*
X113641092Y-67703718D01*
X113705818Y-67731753D01*
X113754247Y-67751472D01*
X113776751Y-67758923D01*
X113780161Y-67753438D01*
X113781529Y-67719948D01*
X113776651Y-67666116D01*
X113764364Y-67613473D01*
X113726041Y-67547151D01*
X113670720Y-67509780D01*
X113604640Y-67504721D01*
X113534040Y-67535339D01*
X113514474Y-67550648D01*
X113490783Y-67585296D01*
X113360299Y-67585296D01*
X113360647Y-67575663D01*
X113390186Y-67493590D01*
X113427472Y-67448361D01*
X113504776Y-67397838D01*
X113596478Y-67372316D01*
X113691274Y-67374336D01*
X113777859Y-67406440D01*
X113796920Y-67418767D01*
X113840640Y-67456912D01*
X113870540Y-67505167D01*
X113888968Y-67570710D01*
X113898270Y-67660720D01*
X113899499Y-67719948D01*
X113900794Y-67782376D01*
G36*
X113900794Y-67782376D02*
G01*
X113900413Y-67834449D01*
X113895641Y-67937047D01*
X113883150Y-68012126D01*
X113860121Y-68067748D01*
X113823732Y-68111975D01*
X113771162Y-68152869D01*
X113737714Y-68171466D01*
X113684098Y-68183991D01*
X113608780Y-68183003D01*
X113566672Y-68179035D01*
X113515879Y-68166920D01*
X113475280Y-68140585D01*
X113428049Y-68091514D01*
X113421738Y-68084346D01*
X113379277Y-68029189D01*
X113359018Y-67981150D01*
X113353846Y-67924184D01*
X113353846Y-67840471D01*
X113412346Y-67862552D01*
X113454994Y-67888364D01*
X113492064Y-67948928D01*
X113499803Y-67968320D01*
X113543074Y-68023235D01*
X113601976Y-68050879D01*
X113666111Y-68048393D01*
X113725077Y-68012923D01*
X113745342Y-67990805D01*
X113763720Y-67957436D01*
X113757971Y-67927117D01*
X113724887Y-67895913D01*
X113661261Y-67859887D01*
X113563885Y-67815103D01*
X113363615Y-67727445D01*
X113358301Y-67640607D01*
X113360299Y-67585296D01*
X113490783Y-67585296D01*
X113500688Y-67619538D01*
X113545756Y-67656096D01*
X113627557Y-67697692D01*
X113641092Y-67703718D01*
X113705818Y-67731753D01*
X113754247Y-67751472D01*
X113776751Y-67758923D01*
X113780161Y-67753438D01*
X113781529Y-67719948D01*
X113776651Y-67666116D01*
X113764364Y-67613473D01*
X113726041Y-67547151D01*
X113670720Y-67509780D01*
X113604640Y-67504721D01*
X113534040Y-67535339D01*
X113514474Y-67550648D01*
X113490783Y-67585296D01*
X113360299Y-67585296D01*
X113360647Y-67575663D01*
X113390186Y-67493590D01*
X113427472Y-67448361D01*
X113504776Y-67397838D01*
X113596478Y-67372316D01*
X113691274Y-67374336D01*
X113777859Y-67406440D01*
X113796920Y-67418767D01*
X113840640Y-67456912D01*
X113870540Y-67505167D01*
X113888968Y-67570710D01*
X113898270Y-67660720D01*
X113899499Y-67719948D01*
X113900794Y-67782376D01*
G37*
X116714401Y-67778462D02*
X116712839Y-67854652D01*
X116701810Y-67958507D01*
X116677814Y-68036333D01*
X116638043Y-68095760D01*
X116579688Y-68144418D01*
X116524100Y-68172546D01*
X116430751Y-68188199D01*
X116337530Y-68171084D01*
X116253272Y-68123388D01*
X116186818Y-68047294D01*
X116178793Y-68033262D01*
X116168196Y-68008679D01*
X116160335Y-67977309D01*
X116154807Y-67933769D01*
X116151206Y-67872678D01*
X116149128Y-67788655D01*
X116149064Y-67781200D01*
X116284615Y-67781200D01*
X116285077Y-67852316D01*
X116287999Y-67916641D01*
X116295221Y-67958166D01*
X116308561Y-67986067D01*
X116329836Y-68009517D01*
X116334821Y-68014025D01*
X116398863Y-68047295D01*
X116466625Y-68043890D01*
X116529734Y-68004042D01*
X116548526Y-67983398D01*
X116564254Y-67956029D01*
X116573039Y-67918192D01*
X116576859Y-67860355D01*
X116577692Y-67772986D01*
X116577281Y-67706319D01*
X116574434Y-67641245D01*
X116567256Y-67599251D01*
X116553889Y-67571063D01*
X116532472Y-67547406D01*
X116519890Y-67536753D01*
X116454699Y-67508057D01*
X116386400Y-67512575D01*
X116327098Y-67550144D01*
X116314333Y-67565040D01*
X116298764Y-67593089D01*
X116289762Y-67632258D01*
X116285617Y-67691858D01*
X116284615Y-67781200D01*
X116149064Y-67781200D01*
X116148167Y-67676320D01*
X116147919Y-67530289D01*
X116147846Y-67076963D01*
X116211346Y-67103564D01*
X116228136Y-67110845D01*
X116254859Y-67127287D01*
X116270156Y-67152187D01*
X116278563Y-67195732D01*
X116284615Y-67268106D01*
X116290144Y-67333089D01*
X116297450Y-67375750D01*
X116307918Y-67391670D01*
X116323692Y-67387400D01*
X116363890Y-67372397D01*
X116435728Y-67368678D01*
X116513010Y-67382572D01*
X116579688Y-67412505D01*
X116616371Y-67440211D01*
X116663472Y-67494269D01*
X116693638Y-67563577D01*
X116709678Y-67655765D01*
X116714191Y-67772986D01*
X116714401Y-67778462D01*
G36*
X116714401Y-67778462D02*
G01*
X116712839Y-67854652D01*
X116701810Y-67958507D01*
X116677814Y-68036333D01*
X116638043Y-68095760D01*
X116579688Y-68144418D01*
X116524100Y-68172546D01*
X116430751Y-68188199D01*
X116337530Y-68171084D01*
X116253272Y-68123388D01*
X116186818Y-68047294D01*
X116178793Y-68033262D01*
X116168196Y-68008679D01*
X116160335Y-67977309D01*
X116154807Y-67933769D01*
X116151206Y-67872678D01*
X116149128Y-67788655D01*
X116149064Y-67781200D01*
X116284615Y-67781200D01*
X116285077Y-67852316D01*
X116287999Y-67916641D01*
X116295221Y-67958166D01*
X116308561Y-67986067D01*
X116329836Y-68009517D01*
X116334821Y-68014025D01*
X116398863Y-68047295D01*
X116466625Y-68043890D01*
X116529734Y-68004042D01*
X116548526Y-67983398D01*
X116564254Y-67956029D01*
X116573039Y-67918192D01*
X116576859Y-67860355D01*
X116577692Y-67772986D01*
X116577281Y-67706319D01*
X116574434Y-67641245D01*
X116567256Y-67599251D01*
X116553889Y-67571063D01*
X116532472Y-67547406D01*
X116519890Y-67536753D01*
X116454699Y-67508057D01*
X116386400Y-67512575D01*
X116327098Y-67550144D01*
X116314333Y-67565040D01*
X116298764Y-67593089D01*
X116289762Y-67632258D01*
X116285617Y-67691858D01*
X116284615Y-67781200D01*
X116149064Y-67781200D01*
X116148167Y-67676320D01*
X116147919Y-67530289D01*
X116147846Y-67076963D01*
X116211346Y-67103564D01*
X116228136Y-67110845D01*
X116254859Y-67127287D01*
X116270156Y-67152187D01*
X116278563Y-67195732D01*
X116284615Y-67268106D01*
X116290144Y-67333089D01*
X116297450Y-67375750D01*
X116307918Y-67391670D01*
X116323692Y-67387400D01*
X116363890Y-67372397D01*
X116435728Y-67368678D01*
X116513010Y-67382572D01*
X116579688Y-67412505D01*
X116616371Y-67440211D01*
X116663472Y-67494269D01*
X116693638Y-67563577D01*
X116709678Y-67655765D01*
X116714191Y-67772986D01*
X116714401Y-67778462D01*
G37*
X120660787Y-67703536D02*
X120654574Y-67851643D01*
X120651066Y-67883021D01*
X120624927Y-67994705D01*
X120577694Y-68079642D01*
X120505862Y-68144741D01*
X120501802Y-68147428D01*
X120410487Y-68185634D01*
X120315144Y-68189034D01*
X120223274Y-68159939D01*
X120142379Y-68100660D01*
X120079962Y-68013510D01*
X120078914Y-68011409D01*
X120058173Y-67957289D01*
X120042980Y-67895781D01*
X120034921Y-67838039D01*
X120035582Y-67795215D01*
X120046548Y-67778462D01*
X120056290Y-67779480D01*
X120102877Y-67798009D01*
X120155682Y-67832081D01*
X120200603Y-67871522D01*
X120223535Y-67906155D01*
X120247373Y-67953133D01*
X120296230Y-67995862D01*
X120352963Y-68012923D01*
X120373758Y-68007990D01*
X120414804Y-67983157D01*
X120450557Y-67948685D01*
X120465846Y-67917411D01*
X120465842Y-67917295D01*
X120448495Y-67902933D01*
X120402247Y-67877025D01*
X120334067Y-67843210D01*
X120250923Y-67805129D01*
X120250466Y-67804927D01*
X120160138Y-67764709D01*
X120099592Y-67735733D01*
X120062888Y-67713474D01*
X120044086Y-67693407D01*
X120037246Y-67671009D01*
X120036429Y-67641756D01*
X120042113Y-67586363D01*
X120235000Y-67586363D01*
X120254911Y-67603777D01*
X120304521Y-67629872D01*
X120305976Y-67630610D01*
X120364506Y-67658483D01*
X120416868Y-67680719D01*
X120450086Y-67690126D01*
X120463410Y-67677552D01*
X120465846Y-67634468D01*
X120455724Y-67580847D01*
X120420631Y-67532119D01*
X120369823Y-67506856D01*
X120313181Y-67509406D01*
X120260584Y-67544120D01*
X120239910Y-67568107D01*
X120235000Y-67586363D01*
X120042113Y-67586363D01*
X120043622Y-67571654D01*
X120079184Y-67476412D01*
X120138714Y-67401567D01*
X120215746Y-67349745D01*
X120303815Y-67323573D01*
X120396454Y-67325676D01*
X120487198Y-67358681D01*
X120569579Y-67425215D01*
X120615222Y-67491055D01*
X120648008Y-67585036D01*
X120653339Y-67634468D01*
X120660787Y-67703536D01*
G36*
X120660787Y-67703536D02*
G01*
X120654574Y-67851643D01*
X120651066Y-67883021D01*
X120624927Y-67994705D01*
X120577694Y-68079642D01*
X120505862Y-68144741D01*
X120501802Y-68147428D01*
X120410487Y-68185634D01*
X120315144Y-68189034D01*
X120223274Y-68159939D01*
X120142379Y-68100660D01*
X120079962Y-68013510D01*
X120078914Y-68011409D01*
X120058173Y-67957289D01*
X120042980Y-67895781D01*
X120034921Y-67838039D01*
X120035582Y-67795215D01*
X120046548Y-67778462D01*
X120056290Y-67779480D01*
X120102877Y-67798009D01*
X120155682Y-67832081D01*
X120200603Y-67871522D01*
X120223535Y-67906155D01*
X120247373Y-67953133D01*
X120296230Y-67995862D01*
X120352963Y-68012923D01*
X120373758Y-68007990D01*
X120414804Y-67983157D01*
X120450557Y-67948685D01*
X120465846Y-67917411D01*
X120465842Y-67917295D01*
X120448495Y-67902933D01*
X120402247Y-67877025D01*
X120334067Y-67843210D01*
X120250923Y-67805129D01*
X120250466Y-67804927D01*
X120160138Y-67764709D01*
X120099592Y-67735733D01*
X120062888Y-67713474D01*
X120044086Y-67693407D01*
X120037246Y-67671009D01*
X120036429Y-67641756D01*
X120042113Y-67586363D01*
X120235000Y-67586363D01*
X120254911Y-67603777D01*
X120304521Y-67629872D01*
X120305976Y-67630610D01*
X120364506Y-67658483D01*
X120416868Y-67680719D01*
X120450086Y-67690126D01*
X120463410Y-67677552D01*
X120465846Y-67634468D01*
X120455724Y-67580847D01*
X120420631Y-67532119D01*
X120369823Y-67506856D01*
X120313181Y-67509406D01*
X120260584Y-67544120D01*
X120239910Y-67568107D01*
X120235000Y-67586363D01*
X120042113Y-67586363D01*
X120043622Y-67571654D01*
X120079184Y-67476412D01*
X120138714Y-67401567D01*
X120215746Y-67349745D01*
X120303815Y-67323573D01*
X120396454Y-67325676D01*
X120487198Y-67358681D01*
X120569579Y-67425215D01*
X120615222Y-67491055D01*
X120648008Y-67585036D01*
X120653339Y-67634468D01*
X120660787Y-67703536D01*
G37*
X117870458Y-67389228D02*
X117937622Y-67428389D01*
X117967169Y-67458902D01*
X118023948Y-67550110D01*
X118043077Y-67649548D01*
X118043077Y-67717960D01*
X117980191Y-67691518D01*
X117936700Y-67664837D01*
X117902426Y-67609446D01*
X117898907Y-67598024D01*
X117861028Y-67539838D01*
X117803936Y-67508407D01*
X117738383Y-67507058D01*
X117675117Y-67539116D01*
X117665672Y-67547383D01*
X117634087Y-67583311D01*
X117628871Y-67614635D01*
X117652765Y-67645391D01*
X117708510Y-67679617D01*
X117798846Y-67721350D01*
X117804956Y-67723993D01*
X117905241Y-67770755D01*
X117973735Y-67812181D01*
X118015899Y-67853542D01*
X118037193Y-67900111D01*
X118043077Y-67957160D01*
X118035366Y-68020408D01*
X117996430Y-68101364D01*
X117927932Y-68159522D01*
X117878388Y-68176983D01*
X117808469Y-68186537D01*
X117740575Y-68184496D01*
X117692093Y-68170082D01*
X117686943Y-68166493D01*
X117673267Y-68141416D01*
X117682757Y-68097218D01*
X117699246Y-68062527D01*
X117725687Y-68048084D01*
X117775834Y-68048803D01*
X117845453Y-68044660D01*
X117890943Y-68016054D01*
X117906308Y-67963104D01*
X117906294Y-67961582D01*
X117896983Y-67930845D01*
X117865311Y-67902643D01*
X117803731Y-67870136D01*
X117719986Y-67830998D01*
X117664518Y-67809706D01*
X117632497Y-67811079D01*
X117617534Y-67839203D01*
X117613242Y-67898170D01*
X117613231Y-67992068D01*
X117612752Y-68050031D01*
X117610556Y-68121612D01*
X117606986Y-68170606D01*
X117602491Y-68188769D01*
X117601290Y-68188646D01*
X117575319Y-68178802D01*
X117532305Y-68158028D01*
X117472859Y-68127287D01*
X117479923Y-67850298D01*
X117480414Y-67831928D01*
X117486025Y-67702992D01*
X117495938Y-67605814D01*
X117512175Y-67533925D01*
X117536759Y-67480852D01*
X117571715Y-67440127D01*
X117619064Y-67405279D01*
X117619940Y-67404733D01*
X117696499Y-67376303D01*
X117785044Y-67371500D01*
X117870458Y-67389228D01*
G36*
X117870458Y-67389228D02*
G01*
X117937622Y-67428389D01*
X117967169Y-67458902D01*
X118023948Y-67550110D01*
X118043077Y-67649548D01*
X118043077Y-67717960D01*
X117980191Y-67691518D01*
X117936700Y-67664837D01*
X117902426Y-67609446D01*
X117898907Y-67598024D01*
X117861028Y-67539838D01*
X117803936Y-67508407D01*
X117738383Y-67507058D01*
X117675117Y-67539116D01*
X117665672Y-67547383D01*
X117634087Y-67583311D01*
X117628871Y-67614635D01*
X117652765Y-67645391D01*
X117708510Y-67679617D01*
X117798846Y-67721350D01*
X117804956Y-67723993D01*
X117905241Y-67770755D01*
X117973735Y-67812181D01*
X118015899Y-67853542D01*
X118037193Y-67900111D01*
X118043077Y-67957160D01*
X118035366Y-68020408D01*
X117996430Y-68101364D01*
X117927932Y-68159522D01*
X117878388Y-68176983D01*
X117808469Y-68186537D01*
X117740575Y-68184496D01*
X117692093Y-68170082D01*
X117686943Y-68166493D01*
X117673267Y-68141416D01*
X117682757Y-68097218D01*
X117699246Y-68062527D01*
X117725687Y-68048084D01*
X117775834Y-68048803D01*
X117845453Y-68044660D01*
X117890943Y-68016054D01*
X117906308Y-67963104D01*
X117906294Y-67961582D01*
X117896983Y-67930845D01*
X117865311Y-67902643D01*
X117803731Y-67870136D01*
X117719986Y-67830998D01*
X117664518Y-67809706D01*
X117632497Y-67811079D01*
X117617534Y-67839203D01*
X117613242Y-67898170D01*
X117613231Y-67992068D01*
X117612752Y-68050031D01*
X117610556Y-68121612D01*
X117606986Y-68170606D01*
X117602491Y-68188769D01*
X117601290Y-68188646D01*
X117575319Y-68178802D01*
X117532305Y-68158028D01*
X117472859Y-68127287D01*
X117479923Y-67850298D01*
X117480414Y-67831928D01*
X117486025Y-67702992D01*
X117495938Y-67605814D01*
X117512175Y-67533925D01*
X117536759Y-67480852D01*
X117571715Y-67440127D01*
X117619064Y-67405279D01*
X117619940Y-67404733D01*
X117696499Y-67376303D01*
X117785044Y-67371500D01*
X117870458Y-67389228D01*
G37*
X121397828Y-67848205D02*
X121399763Y-67998269D01*
X121400300Y-68041802D01*
X121402019Y-68187344D01*
X121402365Y-68298711D01*
X121400277Y-68379804D01*
X121394698Y-68434522D01*
X121384567Y-68466761D01*
X121368826Y-68480422D01*
X121346417Y-68479403D01*
X121316280Y-68467603D01*
X121277355Y-68448920D01*
X121269038Y-68444933D01*
X121234402Y-68425419D01*
X121216314Y-68402202D01*
X121209392Y-68363492D01*
X121208256Y-68297497D01*
X121208205Y-68179000D01*
X121086141Y-68179000D01*
X121011055Y-68175712D01*
X120952015Y-68162377D01*
X120902986Y-68135423D01*
X120899330Y-68132788D01*
X120849581Y-68088286D01*
X120814959Y-68034523D01*
X120793123Y-67964154D01*
X120781737Y-67869830D01*
X120778959Y-67763271D01*
X120973846Y-67763271D01*
X120973880Y-67781131D01*
X120975735Y-67861748D01*
X120981693Y-67914447D01*
X120993506Y-67948668D01*
X121012923Y-67973846D01*
X121014133Y-67975049D01*
X121061858Y-68007628D01*
X121108110Y-68004417D01*
X121160350Y-67964965D01*
X121173128Y-67951482D01*
X121191949Y-67923837D01*
X121202562Y-67887880D01*
X121207252Y-67833364D01*
X121208308Y-67750042D01*
X121207394Y-67699598D01*
X121197477Y-67607857D01*
X121174842Y-67547752D01*
X121137238Y-67514900D01*
X121082416Y-67504923D01*
X121059317Y-67507050D01*
X121019350Y-67528147D01*
X120992926Y-67575161D01*
X120978330Y-67652175D01*
X120973846Y-67763271D01*
X120778959Y-67763271D01*
X120778462Y-67744206D01*
X120779187Y-67652536D01*
X120782490Y-67583098D01*
X120789828Y-67534945D01*
X120802655Y-67498866D01*
X120822423Y-67465648D01*
X120840569Y-67440261D01*
X120906461Y-67371727D01*
X120981114Y-67334505D01*
X121074904Y-67322722D01*
X121182240Y-67334467D01*
X121275031Y-67376595D01*
X121348421Y-67450898D01*
X121353954Y-67458764D01*
X121366857Y-67479668D01*
X121376742Y-67503555D01*
X121384093Y-67535582D01*
X121389394Y-67580905D01*
X121393127Y-67644679D01*
X121395778Y-67732060D01*
X121396096Y-67750042D01*
X121397828Y-67848205D01*
G36*
X121397828Y-67848205D02*
G01*
X121399763Y-67998269D01*
X121400300Y-68041802D01*
X121402019Y-68187344D01*
X121402365Y-68298711D01*
X121400277Y-68379804D01*
X121394698Y-68434522D01*
X121384567Y-68466761D01*
X121368826Y-68480422D01*
X121346417Y-68479403D01*
X121316280Y-68467603D01*
X121277355Y-68448920D01*
X121269038Y-68444933D01*
X121234402Y-68425419D01*
X121216314Y-68402202D01*
X121209392Y-68363492D01*
X121208256Y-68297497D01*
X121208205Y-68179000D01*
X121086141Y-68179000D01*
X121011055Y-68175712D01*
X120952015Y-68162377D01*
X120902986Y-68135423D01*
X120899330Y-68132788D01*
X120849581Y-68088286D01*
X120814959Y-68034523D01*
X120793123Y-67964154D01*
X120781737Y-67869830D01*
X120778959Y-67763271D01*
X120973846Y-67763271D01*
X120973880Y-67781131D01*
X120975735Y-67861748D01*
X120981693Y-67914447D01*
X120993506Y-67948668D01*
X121012923Y-67973846D01*
X121014133Y-67975049D01*
X121061858Y-68007628D01*
X121108110Y-68004417D01*
X121160350Y-67964965D01*
X121173128Y-67951482D01*
X121191949Y-67923837D01*
X121202562Y-67887880D01*
X121207252Y-67833364D01*
X121208308Y-67750042D01*
X121207394Y-67699598D01*
X121197477Y-67607857D01*
X121174842Y-67547752D01*
X121137238Y-67514900D01*
X121082416Y-67504923D01*
X121059317Y-67507050D01*
X121019350Y-67528147D01*
X120992926Y-67575161D01*
X120978330Y-67652175D01*
X120973846Y-67763271D01*
X120778959Y-67763271D01*
X120778462Y-67744206D01*
X120779187Y-67652536D01*
X120782490Y-67583098D01*
X120789828Y-67534945D01*
X120802655Y-67498866D01*
X120822423Y-67465648D01*
X120840569Y-67440261D01*
X120906461Y-67371727D01*
X120981114Y-67334505D01*
X121074904Y-67322722D01*
X121182240Y-67334467D01*
X121275031Y-67376595D01*
X121348421Y-67450898D01*
X121353954Y-67458764D01*
X121366857Y-67479668D01*
X121376742Y-67503555D01*
X121384093Y-67535582D01*
X121389394Y-67580905D01*
X121393127Y-67644679D01*
X121395778Y-67732060D01*
X121396096Y-67750042D01*
X121397828Y-67848205D01*
G37*
X115013936Y-67369911D02*
X115055807Y-67380547D01*
X115094791Y-67407062D01*
X115144965Y-67456420D01*
X115177232Y-67491279D01*
X115210844Y-67536534D01*
X115226003Y-67578951D01*
X115229539Y-67632768D01*
X115229539Y-67720850D01*
X115169470Y-67689787D01*
X115121867Y-67651936D01*
X115089261Y-67600950D01*
X115083661Y-67587088D01*
X115040992Y-67533358D01*
X114981707Y-67506417D01*
X114917061Y-67509039D01*
X114858308Y-67544000D01*
X114833450Y-67572394D01*
X114818970Y-67608718D01*
X114834470Y-67641046D01*
X114882667Y-67673565D01*
X114966274Y-67710461D01*
X114978962Y-67715557D01*
X115055078Y-67748907D01*
X115120396Y-67781793D01*
X115161953Y-67807769D01*
X115203576Y-67854167D01*
X115231247Y-67928211D01*
X115228310Y-68007670D01*
X115195571Y-68082868D01*
X115133841Y-68144131D01*
X115083858Y-68170210D01*
X114987303Y-68188470D01*
X114933647Y-68186007D01*
X114883976Y-68172687D01*
X114864919Y-68144739D01*
X114872045Y-68098710D01*
X114874118Y-68092624D01*
X114890556Y-68060349D01*
X114917926Y-68048133D01*
X114970068Y-68048950D01*
X115006884Y-68050061D01*
X115049961Y-68040528D01*
X115079475Y-68012026D01*
X115096286Y-67976935D01*
X115098161Y-67940175D01*
X115098074Y-67939961D01*
X115076279Y-67920098D01*
X115029632Y-67891192D01*
X114969278Y-67858886D01*
X114906360Y-67828823D01*
X114852023Y-67806646D01*
X114817410Y-67798000D01*
X114812260Y-67806467D01*
X114805778Y-67846309D01*
X114801339Y-67911371D01*
X114799692Y-67993385D01*
X114799309Y-68050153D01*
X114797505Y-68121648D01*
X114794558Y-68170610D01*
X114790843Y-68188769D01*
X114771424Y-68182667D01*
X114732227Y-68166095D01*
X114682462Y-68143420D01*
X114682462Y-67852509D01*
X114682780Y-67777940D01*
X114685789Y-67664701D01*
X114693454Y-67580692D01*
X114707562Y-67519520D01*
X114729899Y-67474795D01*
X114762253Y-67440124D01*
X114806410Y-67409117D01*
X114862667Y-67383528D01*
X114966540Y-67368154D01*
X115013936Y-67369911D01*
G36*
X115013936Y-67369911D02*
G01*
X115055807Y-67380547D01*
X115094791Y-67407062D01*
X115144965Y-67456420D01*
X115177232Y-67491279D01*
X115210844Y-67536534D01*
X115226003Y-67578951D01*
X115229539Y-67632768D01*
X115229539Y-67720850D01*
X115169470Y-67689787D01*
X115121867Y-67651936D01*
X115089261Y-67600950D01*
X115083661Y-67587088D01*
X115040992Y-67533358D01*
X114981707Y-67506417D01*
X114917061Y-67509039D01*
X114858308Y-67544000D01*
X114833450Y-67572394D01*
X114818970Y-67608718D01*
X114834470Y-67641046D01*
X114882667Y-67673565D01*
X114966274Y-67710461D01*
X114978962Y-67715557D01*
X115055078Y-67748907D01*
X115120396Y-67781793D01*
X115161953Y-67807769D01*
X115203576Y-67854167D01*
X115231247Y-67928211D01*
X115228310Y-68007670D01*
X115195571Y-68082868D01*
X115133841Y-68144131D01*
X115083858Y-68170210D01*
X114987303Y-68188470D01*
X114933647Y-68186007D01*
X114883976Y-68172687D01*
X114864919Y-68144739D01*
X114872045Y-68098710D01*
X114874118Y-68092624D01*
X114890556Y-68060349D01*
X114917926Y-68048133D01*
X114970068Y-68048950D01*
X115006884Y-68050061D01*
X115049961Y-68040528D01*
X115079475Y-68012026D01*
X115096286Y-67976935D01*
X115098161Y-67940175D01*
X115098074Y-67939961D01*
X115076279Y-67920098D01*
X115029632Y-67891192D01*
X114969278Y-67858886D01*
X114906360Y-67828823D01*
X114852023Y-67806646D01*
X114817410Y-67798000D01*
X114812260Y-67806467D01*
X114805778Y-67846309D01*
X114801339Y-67911371D01*
X114799692Y-67993385D01*
X114799309Y-68050153D01*
X114797505Y-68121648D01*
X114794558Y-68170610D01*
X114790843Y-68188769D01*
X114771424Y-68182667D01*
X114732227Y-68166095D01*
X114682462Y-68143420D01*
X114682462Y-67852509D01*
X114682780Y-67777940D01*
X114685789Y-67664701D01*
X114693454Y-67580692D01*
X114707562Y-67519520D01*
X114729899Y-67474795D01*
X114762253Y-67440124D01*
X114806410Y-67409117D01*
X114862667Y-67383528D01*
X114966540Y-67368154D01*
X115013936Y-67369911D01*
G37*
X117767575Y-61037693D02*
X117903371Y-61037807D01*
X118005576Y-61038472D01*
X118079122Y-61040182D01*
X118128942Y-61043429D01*
X118159967Y-61048706D01*
X118177129Y-61056507D01*
X118185361Y-61067325D01*
X118189594Y-61081654D01*
X118189716Y-61082168D01*
X118196672Y-61115851D01*
X118209320Y-61180917D01*
X118226360Y-61270542D01*
X118246496Y-61377904D01*
X118268429Y-61496178D01*
X118270218Y-61505856D01*
X118292083Y-61620650D01*
X118312430Y-61721480D01*
X118329934Y-61802217D01*
X118343271Y-61856734D01*
X118351116Y-61878901D01*
X118351158Y-61878936D01*
X118375884Y-61891200D01*
X118426631Y-61911576D01*
X118492462Y-61935674D01*
X118496169Y-61936983D01*
X118580331Y-61968791D01*
X118678230Y-62008685D01*
X118769435Y-62048353D01*
X118919407Y-62116420D01*
X119251499Y-61889639D01*
X119274889Y-61873688D01*
X119375080Y-61805890D01*
X119464480Y-61746208D01*
X119537745Y-61698156D01*
X119589527Y-61665250D01*
X119614480Y-61651004D01*
X119631577Y-61654270D01*
X119670395Y-61679571D01*
X119730385Y-61729675D01*
X119813210Y-61805989D01*
X119920535Y-61909922D01*
X119930139Y-61919382D01*
X120015302Y-62004145D01*
X120090949Y-62080937D01*
X120152449Y-62144947D01*
X120195173Y-62191361D01*
X120214489Y-62215369D01*
X120214552Y-62215485D01*
X120217006Y-62233763D01*
X120207956Y-62263411D01*
X120185119Y-62308486D01*
X120146213Y-62373044D01*
X120088954Y-62461140D01*
X120011059Y-62576830D01*
X119997785Y-62596357D01*
X119930652Y-62695278D01*
X119871410Y-62782848D01*
X119823588Y-62853831D01*
X119790715Y-62902991D01*
X119776318Y-62925095D01*
X119775232Y-62929777D01*
X119782044Y-62964710D01*
X119802450Y-63021753D01*
X119833123Y-63091172D01*
X119874808Y-63181959D01*
X119921352Y-63289686D01*
X119960877Y-63387192D01*
X119970676Y-63412430D01*
X119996340Y-63476870D01*
X120015193Y-63521763D01*
X120023710Y-63538616D01*
X120033111Y-63539875D01*
X120075363Y-63547159D01*
X120144521Y-63559739D01*
X120233387Y-63576246D01*
X120334768Y-63595312D01*
X120441467Y-63615569D01*
X120546288Y-63635647D01*
X120642036Y-63654179D01*
X120721516Y-63669795D01*
X120777530Y-63681127D01*
X120802885Y-63686807D01*
X120807088Y-63688408D01*
X120817334Y-63697045D01*
X120824957Y-63715433D01*
X120830338Y-63748460D01*
X120833859Y-63801013D01*
X120835901Y-63877979D01*
X120836847Y-63984246D01*
X120837077Y-64124701D01*
X120837077Y-64551845D01*
X120734500Y-64572091D01*
X120722092Y-64574518D01*
X120656199Y-64587088D01*
X120565084Y-64604170D01*
X120459104Y-64623829D01*
X120348615Y-64644132D01*
X120305105Y-64652299D01*
X120207882Y-64672167D01*
X120126858Y-64690954D01*
X120069477Y-64706859D01*
X120043187Y-64718079D01*
X120031273Y-64736411D01*
X120009583Y-64784916D01*
X119987395Y-64847692D01*
X119979585Y-64871200D01*
X119950835Y-64948366D01*
X119913752Y-65039694D01*
X119874375Y-65130093D01*
X119853315Y-65177310D01*
X119823311Y-65247837D01*
X119802692Y-65300655D01*
X119795026Y-65326912D01*
X119795452Y-65328894D01*
X119809993Y-65356751D01*
X119842783Y-65410510D01*
X119890493Y-65484963D01*
X119949798Y-65574897D01*
X120017369Y-65675104D01*
X120239713Y-66001416D01*
X119947601Y-66294016D01*
X119919349Y-66322171D01*
X119832961Y-66406449D01*
X119755756Y-66479128D01*
X119692258Y-66536112D01*
X119646990Y-66573307D01*
X119624474Y-66586616D01*
X119600023Y-66576490D01*
X119548819Y-66547421D01*
X119476747Y-66502896D01*
X119389460Y-66446411D01*
X119292612Y-66381462D01*
X119197486Y-66317314D01*
X119111669Y-66260827D01*
X119041652Y-66216184D01*
X118992876Y-66186855D01*
X118970783Y-66176308D01*
X118969488Y-66176404D01*
X118940139Y-66186802D01*
X118888093Y-66211012D01*
X118823708Y-66244249D01*
X118823032Y-66244613D01*
X118737521Y-66287441D01*
X118678926Y-66308365D01*
X118642571Y-66308423D01*
X118623775Y-66288654D01*
X118615819Y-66269195D01*
X118594347Y-66217080D01*
X118561273Y-66136964D01*
X118518356Y-66033107D01*
X118467356Y-65909767D01*
X118410033Y-65771201D01*
X118348146Y-65621670D01*
X118292052Y-65485636D01*
X118234977Y-65346050D01*
X118184479Y-65221315D01*
X118142254Y-65115672D01*
X118109995Y-65033365D01*
X118089397Y-64978635D01*
X118082154Y-64955726D01*
X118095986Y-64934718D01*
X118134412Y-64899642D01*
X118188807Y-64858887D01*
X118319395Y-64752267D01*
X118436260Y-64616025D01*
X118521780Y-64466118D01*
X118575431Y-64306971D01*
X118596684Y-64143012D01*
X118585014Y-63978667D01*
X118539894Y-63818361D01*
X118460797Y-63666520D01*
X118347197Y-63527572D01*
X118287965Y-63473460D01*
X118146054Y-63377782D01*
X117994206Y-63315405D01*
X117836861Y-63284844D01*
X117678456Y-63284615D01*
X117523429Y-63313232D01*
X117376220Y-63369210D01*
X117241266Y-63451064D01*
X117123005Y-63557309D01*
X117025877Y-63686459D01*
X116954318Y-63837031D01*
X116912769Y-64007539D01*
X116905143Y-64089722D01*
X116915634Y-64267775D01*
X116962882Y-64436704D01*
X117045489Y-64593522D01*
X117162059Y-64735245D01*
X117311193Y-64858887D01*
X117363561Y-64897982D01*
X117402832Y-64933443D01*
X117417846Y-64955692D01*
X117411859Y-64975088D01*
X117392432Y-65027059D01*
X117361194Y-65107002D01*
X117319839Y-65210673D01*
X117270061Y-65333832D01*
X117213553Y-65472234D01*
X117152009Y-65621637D01*
X117096008Y-65757020D01*
X117038184Y-65896852D01*
X116986500Y-66021872D01*
X116942718Y-66127822D01*
X116908597Y-66210441D01*
X116885898Y-66265472D01*
X116876380Y-66288654D01*
X116876269Y-66288928D01*
X116857228Y-66308503D01*
X116820694Y-66308279D01*
X116761954Y-66287210D01*
X116676292Y-66244249D01*
X116669549Y-66240631D01*
X116605938Y-66208087D01*
X116555707Y-66185050D01*
X116529218Y-66176308D01*
X116507506Y-66186639D01*
X116458984Y-66215788D01*
X116389163Y-66260287D01*
X116303484Y-66316668D01*
X116207388Y-66381462D01*
X116112706Y-66444984D01*
X116025132Y-66501705D01*
X115952642Y-66546547D01*
X115900889Y-66576016D01*
X115875526Y-66586616D01*
X115871206Y-66585270D01*
X115841092Y-66564056D01*
X115789640Y-66520237D01*
X115721375Y-66457909D01*
X115640820Y-66381170D01*
X115552500Y-66294116D01*
X115260488Y-66001617D01*
X115715360Y-65332525D01*
X115646208Y-65182916D01*
X115646003Y-65182473D01*
X115604477Y-65087101D01*
X115562044Y-64980896D01*
X115527858Y-64886769D01*
X115522684Y-64871588D01*
X115496601Y-64801109D01*
X115473081Y-64746342D01*
X115456677Y-64718079D01*
X115449996Y-64714088D01*
X115409892Y-64700697D01*
X115341795Y-64683373D01*
X115253145Y-64663917D01*
X115151385Y-64644132D01*
X115120904Y-64638551D01*
X115010628Y-64618233D01*
X114907731Y-64599095D01*
X114822569Y-64583070D01*
X114765500Y-64572091D01*
X114662923Y-64551845D01*
X114662923Y-64124701D01*
X114662946Y-64072180D01*
X114663379Y-63944047D01*
X114664659Y-63848420D01*
X114667168Y-63780411D01*
X114671286Y-63735133D01*
X114677395Y-63707697D01*
X114685878Y-63693218D01*
X114697115Y-63686807D01*
X114707994Y-63684209D01*
X114752347Y-63675022D01*
X114823106Y-63660991D01*
X114913074Y-63643486D01*
X115015056Y-63623874D01*
X115121857Y-63603525D01*
X115226281Y-63583807D01*
X115321132Y-63566089D01*
X115399214Y-63551738D01*
X115453332Y-63542124D01*
X115476291Y-63538616D01*
X115477842Y-63536497D01*
X115490325Y-63509006D01*
X115511927Y-63456406D01*
X115539123Y-63387192D01*
X115576866Y-63293937D01*
X115623328Y-63186159D01*
X115666878Y-63091172D01*
X115676858Y-63069851D01*
X115704862Y-63003086D01*
X115721641Y-62951590D01*
X115723854Y-62925095D01*
X115722713Y-62923218D01*
X115704584Y-62895565D01*
X115668644Y-62841849D01*
X115618418Y-62767303D01*
X115557430Y-62677162D01*
X115489205Y-62576657D01*
X115412330Y-62462470D01*
X115354663Y-62373770D01*
X115315426Y-62308721D01*
X115292350Y-62263295D01*
X115283166Y-62233463D01*
X115285604Y-62215195D01*
X115286424Y-62213825D01*
X115308477Y-62187205D01*
X115353436Y-62138697D01*
X115416673Y-62073108D01*
X115493559Y-61995247D01*
X115579465Y-61909922D01*
X115668579Y-61823334D01*
X115755872Y-61741947D01*
X115820018Y-61687035D01*
X115862679Y-61657190D01*
X115885521Y-61651004D01*
X115888505Y-61652394D01*
X115919936Y-61671127D01*
X115976997Y-61707733D01*
X116054343Y-61758697D01*
X116146626Y-61820504D01*
X116248502Y-61889639D01*
X116580593Y-62116420D01*
X116730566Y-62048353D01*
X116734923Y-62046381D01*
X116827000Y-62006491D01*
X116924683Y-61966818D01*
X117007539Y-61935674D01*
X117007905Y-61935545D01*
X117073685Y-61911456D01*
X117124323Y-61891110D01*
X117148884Y-61878901D01*
X117149282Y-61878458D01*
X117157619Y-61853456D01*
X117171341Y-61796598D01*
X117189123Y-61714014D01*
X117209641Y-61611831D01*
X117231571Y-61496178D01*
X117232336Y-61492033D01*
X117254229Y-61374019D01*
X117274281Y-61267151D01*
X117291192Y-61178252D01*
X117303667Y-61114145D01*
X117310406Y-61081654D01*
X117310837Y-61079853D01*
X117315273Y-61065944D01*
X117324263Y-61055489D01*
X117342737Y-61047996D01*
X117375628Y-61042972D01*
X117427868Y-61039922D01*
X117504388Y-61038355D01*
X117610122Y-61037776D01*
X117750000Y-61037692D01*
X117767575Y-61037693D01*
G36*
X117767575Y-61037693D02*
G01*
X117903371Y-61037807D01*
X118005576Y-61038472D01*
X118079122Y-61040182D01*
X118128942Y-61043429D01*
X118159967Y-61048706D01*
X118177129Y-61056507D01*
X118185361Y-61067325D01*
X118189594Y-61081654D01*
X118189716Y-61082168D01*
X118196672Y-61115851D01*
X118209320Y-61180917D01*
X118226360Y-61270542D01*
X118246496Y-61377904D01*
X118268429Y-61496178D01*
X118270218Y-61505856D01*
X118292083Y-61620650D01*
X118312430Y-61721480D01*
X118329934Y-61802217D01*
X118343271Y-61856734D01*
X118351116Y-61878901D01*
X118351158Y-61878936D01*
X118375884Y-61891200D01*
X118426631Y-61911576D01*
X118492462Y-61935674D01*
X118496169Y-61936983D01*
X118580331Y-61968791D01*
X118678230Y-62008685D01*
X118769435Y-62048353D01*
X118919407Y-62116420D01*
X119251499Y-61889639D01*
X119274889Y-61873688D01*
X119375080Y-61805890D01*
X119464480Y-61746208D01*
X119537745Y-61698156D01*
X119589527Y-61665250D01*
X119614480Y-61651004D01*
X119631577Y-61654270D01*
X119670395Y-61679571D01*
X119730385Y-61729675D01*
X119813210Y-61805989D01*
X119920535Y-61909922D01*
X119930139Y-61919382D01*
X120015302Y-62004145D01*
X120090949Y-62080937D01*
X120152449Y-62144947D01*
X120195173Y-62191361D01*
X120214489Y-62215369D01*
X120214552Y-62215485D01*
X120217006Y-62233763D01*
X120207956Y-62263411D01*
X120185119Y-62308486D01*
X120146213Y-62373044D01*
X120088954Y-62461140D01*
X120011059Y-62576830D01*
X119997785Y-62596357D01*
X119930652Y-62695278D01*
X119871410Y-62782848D01*
X119823588Y-62853831D01*
X119790715Y-62902991D01*
X119776318Y-62925095D01*
X119775232Y-62929777D01*
X119782044Y-62964710D01*
X119802450Y-63021753D01*
X119833123Y-63091172D01*
X119874808Y-63181959D01*
X119921352Y-63289686D01*
X119960877Y-63387192D01*
X119970676Y-63412430D01*
X119996340Y-63476870D01*
X120015193Y-63521763D01*
X120023710Y-63538616D01*
X120033111Y-63539875D01*
X120075363Y-63547159D01*
X120144521Y-63559739D01*
X120233387Y-63576246D01*
X120334768Y-63595312D01*
X120441467Y-63615569D01*
X120546288Y-63635647D01*
X120642036Y-63654179D01*
X120721516Y-63669795D01*
X120777530Y-63681127D01*
X120802885Y-63686807D01*
X120807088Y-63688408D01*
X120817334Y-63697045D01*
X120824957Y-63715433D01*
X120830338Y-63748460D01*
X120833859Y-63801013D01*
X120835901Y-63877979D01*
X120836847Y-63984246D01*
X120837077Y-64124701D01*
X120837077Y-64551845D01*
X120734500Y-64572091D01*
X120722092Y-64574518D01*
X120656199Y-64587088D01*
X120565084Y-64604170D01*
X120459104Y-64623829D01*
X120348615Y-64644132D01*
X120305105Y-64652299D01*
X120207882Y-64672167D01*
X120126858Y-64690954D01*
X120069477Y-64706859D01*
X120043187Y-64718079D01*
X120031273Y-64736411D01*
X120009583Y-64784916D01*
X119987395Y-64847692D01*
X119979585Y-64871200D01*
X119950835Y-64948366D01*
X119913752Y-65039694D01*
X119874375Y-65130093D01*
X119853315Y-65177310D01*
X119823311Y-65247837D01*
X119802692Y-65300655D01*
X119795026Y-65326912D01*
X119795452Y-65328894D01*
X119809993Y-65356751D01*
X119842783Y-65410510D01*
X119890493Y-65484963D01*
X119949798Y-65574897D01*
X120017369Y-65675104D01*
X120239713Y-66001416D01*
X119947601Y-66294016D01*
X119919349Y-66322171D01*
X119832961Y-66406449D01*
X119755756Y-66479128D01*
X119692258Y-66536112D01*
X119646990Y-66573307D01*
X119624474Y-66586616D01*
X119600023Y-66576490D01*
X119548819Y-66547421D01*
X119476747Y-66502896D01*
X119389460Y-66446411D01*
X119292612Y-66381462D01*
X119197486Y-66317314D01*
X119111669Y-66260827D01*
X119041652Y-66216184D01*
X118992876Y-66186855D01*
X118970783Y-66176308D01*
X118969488Y-66176404D01*
X118940139Y-66186802D01*
X118888093Y-66211012D01*
X118823708Y-66244249D01*
X118823032Y-66244613D01*
X118737521Y-66287441D01*
X118678926Y-66308365D01*
X118642571Y-66308423D01*
X118623775Y-66288654D01*
X118615819Y-66269195D01*
X118594347Y-66217080D01*
X118561273Y-66136964D01*
X118518356Y-66033107D01*
X118467356Y-65909767D01*
X118410033Y-65771201D01*
X118348146Y-65621670D01*
X118292052Y-65485636D01*
X118234977Y-65346050D01*
X118184479Y-65221315D01*
X118142254Y-65115672D01*
X118109995Y-65033365D01*
X118089397Y-64978635D01*
X118082154Y-64955726D01*
X118095986Y-64934718D01*
X118134412Y-64899642D01*
X118188807Y-64858887D01*
X118319395Y-64752267D01*
X118436260Y-64616025D01*
X118521780Y-64466118D01*
X118575431Y-64306971D01*
X118596684Y-64143012D01*
X118585014Y-63978667D01*
X118539894Y-63818361D01*
X118460797Y-63666520D01*
X118347197Y-63527572D01*
X118287965Y-63473460D01*
X118146054Y-63377782D01*
X117994206Y-63315405D01*
X117836861Y-63284844D01*
X117678456Y-63284615D01*
X117523429Y-63313232D01*
X117376220Y-63369210D01*
X117241266Y-63451064D01*
X117123005Y-63557309D01*
X117025877Y-63686459D01*
X116954318Y-63837031D01*
X116912769Y-64007539D01*
X116905143Y-64089722D01*
X116915634Y-64267775D01*
X116962882Y-64436704D01*
X117045489Y-64593522D01*
X117162059Y-64735245D01*
X117311193Y-64858887D01*
X117363561Y-64897982D01*
X117402832Y-64933443D01*
X117417846Y-64955692D01*
X117411859Y-64975088D01*
X117392432Y-65027059D01*
X117361194Y-65107002D01*
X117319839Y-65210673D01*
X117270061Y-65333832D01*
X117213553Y-65472234D01*
X117152009Y-65621637D01*
X117096008Y-65757020D01*
X117038184Y-65896852D01*
X116986500Y-66021872D01*
X116942718Y-66127822D01*
X116908597Y-66210441D01*
X116885898Y-66265472D01*
X116876380Y-66288654D01*
X116876269Y-66288928D01*
X116857228Y-66308503D01*
X116820694Y-66308279D01*
X116761954Y-66287210D01*
X116676292Y-66244249D01*
X116669549Y-66240631D01*
X116605938Y-66208087D01*
X116555707Y-66185050D01*
X116529218Y-66176308D01*
X116507506Y-66186639D01*
X116458984Y-66215788D01*
X116389163Y-66260287D01*
X116303484Y-66316668D01*
X116207388Y-66381462D01*
X116112706Y-66444984D01*
X116025132Y-66501705D01*
X115952642Y-66546547D01*
X115900889Y-66576016D01*
X115875526Y-66586616D01*
X115871206Y-66585270D01*
X115841092Y-66564056D01*
X115789640Y-66520237D01*
X115721375Y-66457909D01*
X115640820Y-66381170D01*
X115552500Y-66294116D01*
X115260488Y-66001617D01*
X115715360Y-65332525D01*
X115646208Y-65182916D01*
X115646003Y-65182473D01*
X115604477Y-65087101D01*
X115562044Y-64980896D01*
X115527858Y-64886769D01*
X115522684Y-64871588D01*
X115496601Y-64801109D01*
X115473081Y-64746342D01*
X115456677Y-64718079D01*
X115449996Y-64714088D01*
X115409892Y-64700697D01*
X115341795Y-64683373D01*
X115253145Y-64663917D01*
X115151385Y-64644132D01*
X115120904Y-64638551D01*
X115010628Y-64618233D01*
X114907731Y-64599095D01*
X114822569Y-64583070D01*
X114765500Y-64572091D01*
X114662923Y-64551845D01*
X114662923Y-64124701D01*
X114662946Y-64072180D01*
X114663379Y-63944047D01*
X114664659Y-63848420D01*
X114667168Y-63780411D01*
X114671286Y-63735133D01*
X114677395Y-63707697D01*
X114685878Y-63693218D01*
X114697115Y-63686807D01*
X114707994Y-63684209D01*
X114752347Y-63675022D01*
X114823106Y-63660991D01*
X114913074Y-63643486D01*
X115015056Y-63623874D01*
X115121857Y-63603525D01*
X115226281Y-63583807D01*
X115321132Y-63566089D01*
X115399214Y-63551738D01*
X115453332Y-63542124D01*
X115476291Y-63538616D01*
X115477842Y-63536497D01*
X115490325Y-63509006D01*
X115511927Y-63456406D01*
X115539123Y-63387192D01*
X115576866Y-63293937D01*
X115623328Y-63186159D01*
X115666878Y-63091172D01*
X115676858Y-63069851D01*
X115704862Y-63003086D01*
X115721641Y-62951590D01*
X115723854Y-62925095D01*
X115722713Y-62923218D01*
X115704584Y-62895565D01*
X115668644Y-62841849D01*
X115618418Y-62767303D01*
X115557430Y-62677162D01*
X115489205Y-62576657D01*
X115412330Y-62462470D01*
X115354663Y-62373770D01*
X115315426Y-62308721D01*
X115292350Y-62263295D01*
X115283166Y-62233463D01*
X115285604Y-62215195D01*
X115286424Y-62213825D01*
X115308477Y-62187205D01*
X115353436Y-62138697D01*
X115416673Y-62073108D01*
X115493559Y-61995247D01*
X115579465Y-61909922D01*
X115668579Y-61823334D01*
X115755872Y-61741947D01*
X115820018Y-61687035D01*
X115862679Y-61657190D01*
X115885521Y-61651004D01*
X115888505Y-61652394D01*
X115919936Y-61671127D01*
X115976997Y-61707733D01*
X116054343Y-61758697D01*
X116146626Y-61820504D01*
X116248502Y-61889639D01*
X116580593Y-62116420D01*
X116730566Y-62048353D01*
X116734923Y-62046381D01*
X116827000Y-62006491D01*
X116924683Y-61966818D01*
X117007539Y-61935674D01*
X117007905Y-61935545D01*
X117073685Y-61911456D01*
X117124323Y-61891110D01*
X117148884Y-61878901D01*
X117149282Y-61878458D01*
X117157619Y-61853456D01*
X117171341Y-61796598D01*
X117189123Y-61714014D01*
X117209641Y-61611831D01*
X117231571Y-61496178D01*
X117232336Y-61492033D01*
X117254229Y-61374019D01*
X117274281Y-61267151D01*
X117291192Y-61178252D01*
X117303667Y-61114145D01*
X117310406Y-61081654D01*
X117310837Y-61079853D01*
X117315273Y-61065944D01*
X117324263Y-61055489D01*
X117342737Y-61047996D01*
X117375628Y-61042972D01*
X117427868Y-61039922D01*
X117504388Y-61038355D01*
X117610122Y-61037776D01*
X117750000Y-61037692D01*
X117767575Y-61037693D01*
G37*
D12*
X124490000Y-43920000D02*
X124490000Y-49120000D01*
X73570000Y-43920000D02*
X124490000Y-43920000D01*
X73570000Y-43920000D02*
X73570000Y-46520000D01*
X76170000Y-46520000D02*
X76170000Y-49120000D01*
X73570000Y-46520000D02*
X76170000Y-46520000D01*
X73570000Y-47790000D02*
X73570000Y-49120000D01*
X76170000Y-49120000D02*
X124490000Y-49120000D01*
X73570000Y-49120000D02*
X74900000Y-49120000D01*
M02*
