G04 #@! TF.GenerationSoftware,KiCad,Pcbnew,7.0.7*
G04 #@! TF.CreationDate,2023-11-12T02:44:02+01:00*
G04 #@! TF.ProjectId,max3421e-rpi-uhat,6d617833-3432-4316-952d-7270692d7568,1*
G04 #@! TF.SameCoordinates,Original*
G04 #@! TF.FileFunction,Soldermask,Bot*
G04 #@! TF.FilePolarity,Negative*
%FSLAX46Y46*%
G04 Gerber Fmt 4.6, Leading zero omitted, Abs format (unit mm)*
G04 Created by KiCad (PCBNEW 7.0.7) date 2023-11-12 02:44:02*
%MOMM*%
%LPD*%
G01*
G04 APERTURE LIST*
%ADD10R,1.700000X1.700000*%
%ADD11O,1.700000X1.700000*%
%ADD12C,6.200000*%
%ADD13C,1.300000*%
G04 APERTURE END LIST*
D10*
X79980000Y-68110000D03*
D11*
X82520000Y-68110000D03*
X85060000Y-68110000D03*
X87600000Y-68110000D03*
X90140000Y-68110000D03*
X92680000Y-68110000D03*
X95220000Y-68110000D03*
D12*
X70000000Y-69500000D03*
X128000000Y-69500000D03*
D13*
X105400000Y-63637500D03*
X110400000Y-63637500D03*
D12*
X128000000Y-46500000D03*
D10*
X118080000Y-52880000D03*
D11*
X115540000Y-52880000D03*
X113000000Y-52880000D03*
X110460000Y-52880000D03*
X107920000Y-52880000D03*
X105380000Y-52880000D03*
X102840000Y-52880000D03*
D12*
X70000000Y-46500000D03*
D10*
X74900000Y-47790000D03*
D11*
X74900000Y-45250000D03*
X77440000Y-47790000D03*
X77440000Y-45250000D03*
X79980000Y-47790000D03*
X79980000Y-45250000D03*
X82520000Y-47790000D03*
X82520000Y-45250000D03*
X85060000Y-47790000D03*
X85060000Y-45250000D03*
X87600000Y-47790000D03*
X87600000Y-45250000D03*
X90140000Y-47790000D03*
X90140000Y-45250000D03*
X92680000Y-47790000D03*
X92680000Y-45250000D03*
X95220000Y-47790000D03*
X95220000Y-45250000D03*
X97760000Y-47790000D03*
X97760000Y-45250000D03*
X100300000Y-47790000D03*
X100300000Y-45250000D03*
X102840000Y-47790000D03*
X102840000Y-45250000D03*
X105380000Y-47790000D03*
X105380000Y-45250000D03*
X107920000Y-47790000D03*
X107920000Y-45250000D03*
X110460000Y-47790000D03*
X110460000Y-45250000D03*
X113000000Y-47790000D03*
X113000000Y-45250000D03*
X115540000Y-47790000D03*
X115540000Y-45250000D03*
X118080000Y-47790000D03*
X118080000Y-45250000D03*
X120620000Y-47790000D03*
X120620000Y-45250000D03*
X123160000Y-47790000D03*
X123160000Y-45250000D03*
M02*
